<svg xmlns="http://www.w3.org/2000/svg" viewBox="0 0 145.7 160.19"><defs><style>.cls-1{fill:#0b4d76;}.cls-2{fill:#00b7c2;}.cls-3,.cls-5{fill:#fcf7f2;}.cls-4{fill:none;stroke:#fcf7f2;stroke-linecap:round;stroke-miterlimit:10;stroke-width:2px;}.cls-5{font-size:17.84px;font-family:Roboto-BoldCondensed, Roboto BoldCondensed;font-weight:700;}</style></defs><g id="Capa_2" data-name="Capa 2"><g id="Layer_1" data-name="Layer 1"><path class="cls-1" d="M73.05,130.22c-27.8,0-50.41-23.1-50.41-51.5s22.61-51.5,50.41-51.5,50.4,23.1,50.4,51.5S100.84,130.22,73.05,130.22Z"/><path class="cls-2" d="M73.05,31.72c25.31,0,45.9,21.08,45.9,47s-20.59,47-45.9,47-45.91-21.08-45.91-47,20.59-47,45.91-47m0-9c-30.33,0-54.91,25.07-54.91,56s24.58,56,54.91,56,54.9-25.07,54.9-56-24.58-56-54.9-56Z"/><path class="cls-3" d="M73.05,28.72c27,0,48.9,22.43,48.9,50s-21.94,50-48.9,50-48.91-22.43-48.91-50,21.94-50,48.91-50m0-6c-30.33,0-54.91,25.07-54.91,56s24.58,56,54.91,56,54.9-25.07,54.9-56-24.58-56-54.9-56Z"/><path class="cls-2" d="M73.05,25.72c28.62,0,51.9,23.77,51.9,53s-23.28,53-51.9,53S21.14,108,21.14,78.72s23.29-53,51.91-53m0-3c-30.33,0-54.91,25.07-54.91,56s24.58,56,54.91,56,54.9-25.07,54.9-56-24.58-56-54.9-56Z"/><path class="cls-4" d="M25.34,127.39A69.55,69.55,0,0,1,46.78,15.3"/><path class="cls-4" d="M94.09,13.31c27,9,46.43,34.89,46.43,65.41A69.44,69.44,0,0,1,126.28,121"/><text class="cls-5" transform="matrix(0.85, 0.53, -0.53, 0.85, 30.84, 139.93)">S</text><text class="cls-5" transform="matrix(0.92, 0.39, -0.39, 0.92, 40.64, 145.86)">E</text><text class="cls-5" transform="translate(51.36 150.29) rotate(12.7)">G</text><text class="cls-5" transform="translate(65.55 153.18) rotate(1.19)">U</text><text class="cls-5" transform="matrix(0.98, -0.18, 0.18, 0.98, 80.1, 153.19)">N</text><text class="cls-5" transform="translate(94.55 150.2) rotate(-22.39)">D</text><text class="cls-5" transform="matrix(0.83, -0.56, 0.56, 0.83, 108.25, 144.23)">O</text><text class="cls-5" transform="matrix(0.71, -0.7, 0.7, 0.71, 120.47, 135.38)">S</text><text class="cls-5" transform="translate(56.18 20.31) rotate(-11.18)">V</text><text class="cls-5" transform="translate(64.85 18.46) rotate(-2.18)">A</text><text class="cls-5" transform="translate(75.64 18.13) rotate(7.36)">S</text></g></g></svg>