<svg xmlns="http://www.w3.org/2000/svg" viewBox="0 0 147.52 160.34"><defs><style>.cls-1{fill:#0b4d76;}.cls-2{fill:#00b7c2;}.cls-3{fill:#fcf7f2;}.cls-4{fill:none;stroke:#1b262c;stroke-linecap:round;stroke-miterlimit:10;stroke-width:2px;}.cls-5{font-size:17.84px;}.cls-5,.cls-6{fill:#1b262c;font-family:Roboto-BoldCondensed, Roboto BoldCondensed;font-weight:700;}.cls-6{font-size:17.85px;}</style></defs><g id="Capa_2" data-name="Capa 2"><g id="Layer_1" data-name="Layer 1"><path class="cls-1" d="M74,130.29c-28.17,0-51.09-23.11-51.09-51.51S45.79,27.28,74,27.28s51.09,23.11,51.09,51.5S102.13,130.29,74,130.29Z"/><path class="cls-2" d="M74,31.78c25.69,0,46.59,21.09,46.59,47s-20.9,47-46.59,47-46.59-21.09-46.59-47,20.9-47,46.59-47m0-9a55.8,55.8,0,0,0-55.59,56c0,30.93,24.89,56,55.59,56s55.59-25.08,55.59-56A55.8,55.8,0,0,0,74,22.78Z"/><path class="cls-3" d="M74,28.78c27.35,0,49.59,22.43,49.59,50s-22.24,50-49.59,50-49.59-22.43-49.59-50,22.25-50,49.59-50m0-6a55.8,55.8,0,0,0-55.59,56c0,30.93,24.89,56,55.59,56s55.59-25.08,55.59-56A55.8,55.8,0,0,0,74,22.78Z"/><path class="cls-2" d="M74,25.78c29,0,52.59,23.78,52.59,53s-23.59,53-52.59,53S21.37,108,21.37,78.78,45,25.78,74,25.78m0-3a55.8,55.8,0,0,0-55.59,56c0,30.93,24.89,56,55.59,56s55.59-25.08,55.59-56A55.8,55.8,0,0,0,74,22.78Z"/><path class="cls-4" d="M25.65,127.45A69.1,69.1,0,0,1,47.37,15.37"/><path class="cls-4" d="M95.27,13.37a69.09,69.09,0,0,1,32.59,107.71"/><text class="cls-5" transform="matrix(0.86, 0.54, -0.53, 0.85, 31.14, 140.05)">S</text><text class="cls-5" transform="matrix(0.93, 0.39, -0.39, 0.92, 41.07, 145.99)">E</text><text class="cls-5" transform="matrix(0.99, 0.22, -0.22, 0.98, 51.93, 150.42)">G</text><text class="cls-5" transform="matrix(1.01, 0.02, -0.02, 1, 66.3, 153.31)">U</text><text class="cls-5" transform="matrix(1, -0.18, 0.18, 0.98, 80.96, 153.33)">N</text><text class="cls-5" transform="matrix(0.94, -0.38, 0.38, 0.93, 95.6, 150.35)">D</text><text class="cls-5" transform="matrix(0.84, -0.57, 0.56, 0.83, 109.48, 144.39)">O</text><text class="cls-5" transform="matrix(0.72, -0.71, 0.7, 0.71, 121.91, 135.51)">S</text><text class="cls-6" transform="matrix(0.99, -0.19, 0.2, 0.98, 56.91, 20.29)">V</text><text class="cls-6" transform="matrix(1.01, -0.04, 0.04, 1, 65.68, 18.45)">A</text><text class="cls-6" transform="matrix(1, 0.13, -0.12, 0.99, 76.63, 18.12)">S</text></g></g></svg>