<svg xmlns="http://www.w3.org/2000/svg" viewBox="0 0 346.35 91.12"><defs><style>.cls-1{fill:none;stroke:#ec008c;stroke-miterlimit:10;}</style></defs><g id="Capa_2" data-name="Capa 2"><g id="Layer_1" data-name="Layer 1"><path class="cls-1" d="M99.67,17.57c-1.56,0-1,.23-1.24.27C101.05,17.8,99.6,17.5,99.67,17.57Z"/><polygon class="cls-1" points="124.63 15.91 124.18 16.01 127.88 15.77 124.63 15.91"/><path class="cls-1" d="M148,15.91c-2.23-.41-8.48.08-12.65-.07l-.69-.1-1.88.35C137.88,16,144.44,15.81,148,15.91Z"/><path class="cls-1" d="M160.56,16.29c-.77-.12,2.7-.3-2.91.12h.53Z"/><path class="cls-1" d="M158.18,16.42c-2.46.16,1.62,0,0,0Z"/><path class="cls-1" d="M169.51,15.73l-3.22.28c.68.06,3.55,0,2.49.09C172.07,15.91,171.39,15.84,169.51,15.73Z"/><path class="cls-1" d="M172.56,15.34l-1.67.1A6.52,6.52,0,0,0,172.56,15.34Z"/><path class="cls-1" d="M167.35,15.7c1.18-.1,2.36-.19,3.54-.26a2.61,2.61,0,0,0-1.62.09C169.55,15.4,168.86,15.54,167.35,15.7Z"/><path class="cls-1" d="M165.34,15.73c-1.81,0-4.16.08-.92-.25C158.23,15.9,159.16,16.14,165.34,15.73Z"/><path class="cls-1" d="M149.22,15.45l-2.44-.1-2.1.14C145.72,15.43,149.38,15.59,149.22,15.45Z"/><path class="cls-1" d="M189.74,14.91c.2-.1-1.08-.18-1.33-.27l-2.37.29A25,25,0,0,1,189.74,14.91Z"/><path class="cls-1" d="M188.41,14.64c1.18-.14,2.35-.26,3.53-.35C188.78,14.4,188.2,14.57,188.41,14.64Z"/><path class="cls-1" d="M173.13,14.86q-2.92.2-5.85.5c2.32-.22,4.65-.4,7-.51Z"/><path class="cls-1" d="M203.46,14.42l-2.05.36c1.22-.18,2.44-.38,3.65-.61Z"/><path class="cls-1" d="M212.46,13.59c-1.48.24,2,.21.48.39,2.44-.13,4.56-.32,6.48-.57A67.47,67.47,0,0,1,212.46,13.59Z"/><path class="cls-1" d="M222.66,13c-1,.16-2.09.31-3.24.45A29.69,29.69,0,0,0,222.66,13Z"/><path class="cls-1" d="M198.05,14.24a12.74,12.74,0,0,0,2.86.13l-1.44-.18Z"/><path class="cls-1" d="M199.42,14.18h.05c1.55-.06,2.62-.14,3.08-.17C202.15,14.05,201.21,14.12,199.42,14.18Z"/><path class="cls-1" d="M197.69,14.25h.36A.63.63,0,0,0,197.69,14.25Z"/><path class="cls-1" d="M182.59,14.7c2.1-.33,6.45-.85,2.21-.71C183.3,14.29,185.74,14.21,182.59,14.7Z"/><path class="cls-1" d="M195.92,14c-1.28,0-2.55,0-3.8,0,.08.07.76.15-.27.25.67-.06,1.34-.09,2-.13Z"/><polygon class="cls-1" points="197.8 13.84 195.92 13.96 197.34 13.96 197.8 13.84"/><path class="cls-1" d="M216,13.11c1.65-.17,3.46-.23,5.52-.42-2.21.14-4.48.17-6.62.24C214.65,13,213.71,13.2,216,13.11Z"/><path class="cls-1" d="M208,13.5l.36-.06C208.18,13.45,208,13.46,208,13.5Z"/><path class="cls-1" d="M241.39,9.53h-.32l-.07.05Z"/><path class="cls-1" d="M214.58,12.9a22.73,22.73,0,0,0-3.52.24c1.21-.1,2.49-.16,3.88-.21C215.08,12.89,215.1,12.87,214.58,12.9Z"/><path class="cls-1" d="M228.35,11.82c-.85.17-1.85.37-2.91.5A13.47,13.47,0,0,0,228.35,11.82Z"/><path class="cls-1" d="M208.94,13.46l-.24,0C209.23,13.5,209.16,13.48,208.94,13.46Z"/><path class="cls-1" d="M208.94,13.46l2.12-.32c-1,.08-1.89.18-2.66.3Z"/><path class="cls-1" d="M247.27,7.07a9.82,9.82,0,0,1-2.81.73,43.37,43.37,0,0,1-5.42.52c-3.62.57-1.19,1.09,2,1.2.11-.13.09-.18,3.85-.81-1.34.1-8.36.62-5.21.09,2.48-.32,3.5-.42,4.2-.46s1.1,0,2.32-.13c-1,0,.53-.32,2.2-.78s3.43-1.07,2.86-1.15c-1.42.4-2.83.79-4.27,1.08C246.93,7.3,248.48,6.92,247.27,7.07Z"/><path class="cls-1" d="M234,10.31c-.5.09-1,.17-1.51.27a40.23,40.23,0,0,1,5.29-.38A15.63,15.63,0,0,0,241,9.57c-2.54.26-5.06.48-7.54.85Z"/><path class="cls-1" d="M225.65,12.13c1.26-.45,4.83-1.57,2.56-1.24-2.23.6-3.07.72-3.62.89a15.71,15.71,0,0,1-2.27.48c7.42-1.07-2.13.5,3.27-.15a37.23,37.23,0,0,1-4,.58c1.35-.09,2.65-.2,3.88-.37l-.17,0h0c-.33,0-.44,0-.07,0l.15,0a2.22,2.22,0,0,1,.33-.15c2.2-.39.35,0-.33.15,0,0-.08,0-.08.06h0c1.26-.22,2.51-.58,3.69-.91l1.76-.48c.57-.14,1.14-.26,1.74-.37a22.69,22.69,0,0,0-2.64.53C228.75,11.37,227.44,11.79,225.65,12.13Z"/><path class="cls-1" d="M188.67,13.12c.23,0,.22,0,.24.05C189.38,13.11,189.56,13.07,188.67,13.12Z"/><path class="cls-1" d="M191.69,13.12a24.08,24.08,0,0,1-2.7.25c-1.5,0,0-.12-.08-.2-1,.13-3.64.46-.36.33l.51-.07a42,42,0,0,1,4.41.08,7.14,7.14,0,0,1,1.82.19A19,19,0,0,0,191.69,13.12Z"/><path class="cls-1" d="M208.85,12.67c2-.23,4-.35,6.07-.46l-3.11-.1.16.12C208.51,12.38,209.27,12.54,208.85,12.67Z"/><path class="cls-1" d="M242.11,9.58l-.79.36c1.16-.25,2.34-.52,3.51-.81C243.92,9.3,243,9.44,242.11,9.58Z"/><polygon class="cls-1" points="250.11 8.26 249.86 8.56 251.89 7.93 250.11 8.26"/><path class="cls-1" d="M22.88,86.75A18.15,18.15,0,0,1,21,86.5,14,14,0,0,0,22.88,86.75Z"/><path class="cls-1" d="M35.79,88.89l.33-.09C35.5,88.81,35.25,88.83,35.79,88.89Z"/><path class="cls-1" d="M275.66,76.83c-1.32,0-2.73.11-3.75.19s-1.67.14-1.5.25l.83.14A44.07,44.07,0,0,1,275.66,76.83Z"/><path class="cls-1" d="M142.46,88.29l.76.07,1.77-.25Z"/><path class="cls-1" d="M140.61,89.37l-3.45-.16C137.93,89.27,139,89.33,140.61,89.37Z"/><path class="cls-1" d="M11.32,18.51,13.39,18C10.13,18.38,11.56,18.36,11.32,18.51Z"/><path class="cls-1" d="M323,21.44c1.25,2.17,2.23,3.88,3.06,5.39A32.32,32.32,0,0,0,323,21.44Z"/><path class="cls-1" d="M28.3,84.6c-1.16-.18-1.64-.15-1.61-.09C27.85,84.59,28.54,84.72,28.3,84.6Z"/><path class="cls-1" d="M329.37,33.28l-.57-1.23c-.9-1.69-1.67-3.29-2.76-5.22.5,1,1,2.05,1.55,3.13S328.73,32.23,329.37,33.28Z"/><path class="cls-1" d="M268.9,12.72l.58,0S269.28,12.67,268.9,12.72Z"/><path class="cls-1" d="M321.12,44c0-.86,0-2.27,0-3.6C321.1,41.09,321.08,42.17,321.12,44Z"/><path class="cls-1" d="M281.7,3.38c-1.67.24-.26.06,0,0Z"/><path class="cls-1" d="M273.45,3.46a1.55,1.55,0,0,0,.66-.21A2.44,2.44,0,0,1,273.45,3.46Z"/><path class="cls-1" d="M339.45,49l.07.15C339.31,48.59,339.34,48.68,339.45,49Z"/><path class="cls-1" d="M279.18,3.61l2.14-.22C281,3.42,280.32,3.48,279.18,3.61Z"/><path class="cls-1" d="M279.53,3.68l-1.47.18C277.85,3.94,278,3.94,279.53,3.68Z"/><path class="cls-1" d="M284,3.07l-2.7.32c.33,0,.46,0,.38,0Z"/><path class="cls-1" d="M131.06,17.74l.37,0C133.13,17.63,132.38,17.66,131.06,17.74Z"/><path class="cls-1" d="M232.23,84.92l.19,0h-.25Z"/><path class="cls-1" d="M226.19,85.55a32.15,32.15,0,0,1,6-.65l-2-.61Z"/><path class="cls-1" d="M7.88,57.59c.1.41.23.85.35,1.25L8.56,60c.22.76.43,1.53.63,2.3-.5-1.35-1-2.55-1.38-3.64a28.43,28.43,0,0,1-.87-2.79c-.17-.62-.25-.91-.25-.74a14.7,14.7,0,0,0,.32,2,3.19,3.19,0,0,1,.5,1l.4,1c.13.34.28.71.43,1.13.61,1.65,1.28,3.87,1.89,6.12,1.21,4.51,2.29,9.15,2.73,9.38a22.38,22.38,0,0,1,.55,2.58v.14a.45.45,0,0,0,0-.14,3.25,3.25,0,0,0-.12-.52c0-.2-.12-.41-.21-.73a8.84,8.84,0,0,1,.24,1.26c0,.06,0,.49-.05.82s0,.67-.06,1a2,2,0,0,0,0,.25v.34a5.16,5.16,0,0,0,0,.69,3.12,3.12,0,0,0,.36,1.19,6.65,6.65,0,0,0,.54.65,5.7,5.7,0,0,0,.71.53,11,11,0,0,0,1.33.66c.49.21,1,.43,1.7.68s1.4.54,2.37.84a25.38,25.38,0,0,0,2.89.65c.53.11.54.17-.33.12,1.89.16,3.67.14,5.36.44.72.18,1,.31.88.32s-.53-.1-1.25-.25c.32.06.63.13.94.21l1,.29a21.64,21.64,0,0,0,2.15.52,39.31,39.31,0,0,0,4.25.5l-.06,0c1.21,0,3.9-.09,5.19,0,2,.33-1.05,0-.53.14,1.49.07,3.07.22,4.62.26.94.17.44.25-.69.22-.57,0-1.29,0-2.08-.12l-2.37-.22a15.27,15.27,0,0,0,4.66.73c1.6,0,3.83.06,8.51.29-1.46,0-2.92.05-4.39.05,2.83.55,6.28.36,11.2.5-.58-.06-3.05-.17-4.76-.33s-2.63-.36-.12-.49a47.46,47.46,0,0,0,6-.21c0,.29,2.66.13,5.94.08l-.22.38c1.76-.07,2.57-.13,3.21-.22s1.1-.17,2.16-.25c2,0,3.21,0,4,.13a14.19,14.19,0,0,1,1.75.31c6.39-.23-4.42-.27,3.13-.7,5.3-.12,9-.59,15.29-1,3.68,0-.64.25.68.33,1.08-.13,2.17-.25,3.25-.35.8,0,.54.1.41.15a4.2,4.2,0,0,0,1.69-.23,8.78,8.78,0,0,1,2.86-.16c.6-.2,2.79.11,5.55.46a53.71,53.71,0,0,0,8.74.5c1.33.15-.65.22-.24.38,3.7,0,5.29-.07,6.71-.11S129,89.14,132,89l5.17.26c-3.8-.29,1.05-.62,5.3-.92-1.35-.14-2.5-.26-3.27-.31l6.77-.24c.82.06.14.2-1,.37l1.24-.1c2.42.13,1.17.36-.57.58l-2.44-.23c-1.67.24-3.24.51-2.89.73.44,0,1.29-.09,2.22-.11-.43.06-.71.12-.51.16a16.51,16.51,0,0,0,2-.15l1.55.42.37-.17,8.87.24c6.36-.49,11.86-1.33,21.92-1.87-2.49.4-.53.53-.65.91-2.76-.3-7.79.46-13,.53,2.73,0,2.13.16,1.44.24l9.3-.68c-.2.31,2,.15,4.41.19-1.85-.53,6.92-.65,10.7-.87.24.2-.67.4-5.28.48,5.1.3,6.55-.84,11.58-.53a14.2,14.2,0,0,0-2.19.12c1.32-.1,3.6-.16,5.36-.22s3-.07,2.24.07l-1.13.08a143.81,143.81,0,0,0,14.34-1.51c4.85-.83,8.9-1.28,9.45-1.59a4.16,4.16,0,0,1-1.38.85c4.38-1,8.82-1.8,13.22-2.74-1.15.53,3.44,1.22-2.76,2a61.14,61.14,0,0,0,7.75-.71c-1.22.07-3.08-.32-1.42-.53,4.59,0,3.18-.08,8.82-.32-1.83.12.13-.8,3-1.13-.44.16.3.65-.74.85l7.07-1.58c-1.77.36-.26.61,1.35.59-.75,0,6.17-.81,8.06-1.16l-3,.27a48.49,48.49,0,0,0,7.94-1.58,41.69,41.69,0,0,1,7.88-1.52c-1,.25-2.32,1.12,1.75.75.92-.28,2.95-.91,5.63-1.64L290.9,76l2.45-.65c.83-.22,1.69-.44,2.58-.63l1.38,0,5.38-1c-1.63.55-4.83,1.31-8.17,2.38a92.52,92.52,0,0,1-9.59,2.43c1.52-.1,1.74-.07,2.14-.09a29.3,29.3,0,0,0,3.26-.4c1.63,0-2.45.65-3.78.81,1.76-.2,3.53-.42,5.3-.69.88-.14,1.77-.29,2.65-.45s1.71-.32,2.57-.45c-.25-.16,1.71-.58,3.72-1s4-.84,3.82-1c-1.91.42-3.81.75-5.69,1.1-.94.18-1.88.36-2.81.56l-2.81.64c-.13-.08.21-.27.91-.53a28.17,28.17,0,0,1,3-.92c1.3-.32,2.85-.64,4.54-1l2.63-.51a26.77,26.77,0,0,1,2.73-.41c1.89,0-1.35.87-1.16,1a33,33,0,0,1,3.93-.59c1.74-.19,3.48-.46,3.84-.49-1.07.27-2.15.47-3.21.65a20.4,20.4,0,0,0,3-.4c.94-.2,1.8-.47,2.68-.74,1.77-.55,3.62-1.15,6.09-1.68,1.68-.48,5.1-1,5.34-1.24-2.81.3-3.66-.91-1.9-1.78.3-.06,2.53-.6,5-1,1.22-.21,2.49-.36,3.57-.46l2.47-.19c1.43-.09.41.34-.68.73s-2.24.75-1,.73a18.39,18.39,0,0,1,2.3-.68c.91-.13.74,0,.83,0s.45.08,2.42-.55c.29-.29,2.29-1,3.37-1.81.55-.39.86-.75.71-.61a7.85,7.85,0,0,1-2.33,1.37,8.7,8.7,0,0,0,2.17-1.46,4.62,4.62,0,0,0,1.21-1.87,4.53,4.53,0,0,0,0-2.53,14.57,14.57,0,0,0-1.16-3c.26.81-.4-.16-1.44-1.7-.26-.39-.54-.81-.81-1.28s-.55-1-.83-1.48c-.57-1-1.16-2-1.67-3,.19.17-.15-.76-.32-1.21-3.91-8-6.42-12-10.09-19.37-.13-.37-.62-1.47-1-2.28s-.59-1.36-.12-.66c-.62-1-1.25-1.89-2.57-4.05-1.16-2.19-.4-1,.42.32s1.7,2.8.91,1.05a31.37,31.37,0,0,1-2.2-3.14l-3.49-5.18c.31,1.17,4.44,7,6.3,10.11-.19.14-1.13-1.1-2.66-3.21s-3.69-5.06-6-8.68c-.89-1.43-1.45-2.23-1.79-2.73s-.42-.66-.4-.71.49.37.12-.06A22.37,22.37,0,0,0,312,5.56a17.71,17.71,0,0,0-3.4-1.88,30.78,30.78,0,0,0-3.24-1.07c-.64-.15-1.35-.33-2.19-.46s-1.85-.26-3-.4c-3.73-.53-.14-.65-1-.93a21.89,21.89,0,0,1,6,.85,22.24,22.24,0,0,1,4.52,2.07A18.8,18.8,0,0,0,306,1.87a15,15,0,0,1,3.1,1.18,16.23,16.23,0,0,1,3,2,17.58,17.58,0,0,0-3.94-2.53A19.41,19.41,0,0,0,300.82.7a97.33,97.33,0,0,0-16.3.43c-1.56.29-4.25.77-3,.73l2.79-.4c1.29,0,0,.22-1.2.44s-2.25.42-.48.25c-1.86.33-3.82.74-6,1.11s-4.53.71-7.17,1l-1-.23a31.42,31.42,0,0,0,4.94-.54c-2.18.45-8.14.55-10.48,1.4l3.71-.27c-3.74.7-8.31,1.76-12.91,2.61,2.14-.06,1.05-.28,4.38-.45-1.45,0,1.49-.55,4.25-1s5.29-.75,3-.71c3.45,0,5.9-.57,10.41-.74-.16-.11-1.61,0,2.33-.5.17-.06.59-.16.85-.22l.27,0H279c.17,0,.18,0-.08,0a18.91,18.91,0,0,1-2,.1c1-.27,3-.64,5.06-1L287.08,2c2.33-.17-1,.23.32.24,1-.18,2.08-.34,3.13-.48.33.22,6.16.14.72.56,1.64-.11,3.27-.15,4.89-.15a58.24,58.24,0,0,1,9,1c1.05.32,2.36.81,3.18,1.16s1.15.53.25.15a22.61,22.61,0,0,1,6.14,4.64v.11a32.7,32.7,0,0,1,3.64,4.89c1.16,1.9,2.39,3.76,3.62,5.65s2.47,3.82,3.61,5.84c.58,1,1.13,2,1.65,3.11.26.54.5,1.07.76,1.63l.77,1.71c1.38,2.58,2.91,5.16,5.19,9.41l.28.94c.46.8,1,1.81,1.57,2.91s1.13,2.27,1.7,3.42c1.14,2.28,2.14,4.28,2.57,4.93.16.48.38,1.08.68,1.82s.76,1.63,1.19,2.5a25.91,25.91,0,0,1,1.2,2.69,5.55,5.55,0,0,1,.32,1.2.76.76,0,0,1,0,.19.49.49,0,0,1,0,.12,1,1,0,0,1-.07.27,3.88,3.88,0,0,1-1.7,1.47A14.5,14.5,0,0,1,339,65a35.63,35.63,0,0,1-5.15,1l-.19.33A82.25,82.25,0,0,0,321,69.69l.36.17a55.1,55.1,0,0,1-7.72,2c-1.47.25-3,.36-4.71.48-.83.06-1.67.13-2.53.23l-1.3.17-1.28.23a2.93,2.93,0,0,1,.54-.15c.25-.06.55-.12.88-.17.66-.1,1.41-.17,2-.2a24.58,24.58,0,0,0-3.16.29l-3.07.47c-2.07.32-4.19.66-6.3,1.13A65.55,65.55,0,0,1,283,76.16a41.11,41.11,0,0,1-4.44.49l.45-.06-.75.08c-.81,0-1.65.09-2.56.16.77,0,1.51-.06,2.16-.11-1.42.17-3.57.46-5.66.85l-.92-.16-.49.08c-2.05.2-1.63.38-.51.44-1.05.2-2,.4-2.74.58-1.72-.23-5.47.93-7.79.74-1.39.45-10.5,1.55-11.57,2.17-.08,0-.7,0,.43-.15-2.34.22-4.68.44-6.76.82l-1-.26c-1.69.36-3.37.7-5.06,1-3.12,0-4.41,0-1.35-.53-7.41,1-6,.56-12.36,1.53l.3-.26c-2.28.19-5.88,1-7.26,1-2.54.12-8.76,1-16,1.42-1.81.1-3.68.16-5.57.17l-5.72,0L177,86.32c2.55.61-6.07-.09-6.57.47-.76-.14-2.58-.17-.48-.39-6.64.4-10,.06-14.56.57-.76-.15,1.42-.26.74-.35a18,18,0,0,1-2.79.07c-.68-.1,1-.14,2-.23-6.78.06-7.49.57-8,1.05a35.34,35.34,0,0,0-7.65.15c-1.2-.15-3.2-.31,1-.38l-8.18-.08c-3.35,0-6.44,0-6.57.16-.74-.11-3.31-.1-3.94-.08-5.32-.2-5.78-.25-11-.54l1.44.15c-2.08.36-4.33-.27-8.58-.36l.12,0a49.28,49.28,0,0,0-6.94-.09c-1,.06-2.05.1-6.83.16l.53.26c-.87.64-8.47.19-14,.62l2,.08a28.74,28.74,0,0,1-5.74-.18L70,87a26,26,0,0,0-2.67-.21c-.67,0,1.05-.1,2-.13-4-.18-4.26,0-4.27.1s.25.35-2.71.46c-1.1-.17,1.39-.55-2.6-.48-1-.06-3.88.2-7.18.34-1.65.07-3.4.09-5.08,0a31.54,31.54,0,0,1-4.59-.47c1.16.28,2.32.57-.4.39-2.13-.25-5-.47-7.74-.85a33.88,33.88,0,0,1-3.86-.75c-.3-.07-.58-.17-.86-.24a9,9,0,0,0-.92-.24,9.69,9.69,0,0,0-1.66-.2,2.36,2.36,0,0,1-.77-.22,32.41,32.41,0,0,1-6.49-.79,27.42,27.42,0,0,1-3.15-1.16A11.82,11.82,0,0,1,15.94,82a1.89,1.89,0,0,1-.54-.43h0a1.5,1.5,0,0,1,0-.46c0-.18.06-.38.1-.6s.11-.65.16-1a7.16,7.16,0,0,0,.07-1.49A20.07,20.07,0,0,0,15,75.11l-.76-3c-.53-2-1.1-4.16-1.64-6.07-1.08-3.82-2.08-6.75-1.78-6.85l-.46-1.36c-.16-.43-.29-.84-.42-1.28-.25-.86-.45-1.76-.65-2.68A57.2,57.2,0,0,0,8,48.23l.17.27C7.58,46.67,7,45.27,6.5,44.09s-.83-2.13-1.09-3c-.13-.43-.23-.79-.34-1.19l-.31-1.1L4.2,36.92c-.31-1.66,0-.48.09-.36C3.76,34,3.41,32,3.2,30.26A25.43,25.43,0,0,1,2.92,26a4.85,4.85,0,0,1,1-3.08,4.46,4.46,0,0,1,1.66-.85c.73-.24,1.56-.46,2.5-.68l.83.17A23.85,23.85,0,0,1,12,21.14l2.53-.23c.92-.08,2-.25,3-.37,4.11-.57,9.15-.39,13.69-.37a3.46,3.46,0,0,1-1,.09c2.55,0,5.36.17,8.22.26l8.37.19c5.31.12,9.81.14,11.69-.4L65.19,20c-8.74-.08,1.3-.47-2.29-.65,3.43-.06,8.88.33,4.66.38l-.66-.05c-.78.28,1.93.34,4.81.35s5.92,0,5.81.15c17.19-.26,33.94-.17,50.05-.36l-1.86-.41,5.61-.05c1.48.08,2,.32-2,.35a35.19,35.19,0,0,0,6.83-.39c7.85.07-3.06.55-.65.53l3.26-.08-.73,0a61.76,61.76,0,0,1,7.69-.45c3.05.05,1.57.25,2.77.24,0,0,.1,0,.38,0s.75,0,1.47-.06c2.37-.06,4.73-.17,7.09-.29l-2.84-.2c3.13-.32,6.65-.34,3.37-.55,2.41.19,9-.23,15.34-.32s12.49-.06,14,0c2.2-.12,4.38-.19,6.68-.21s4.73,0,7.41,0c-1.33-.09-2.13-.52,2.5-.36-1.71.73,8.46.65,12.21,1.3-1.67-.23,1.63-.16,4.7-.22s5.9-.24,3.25-.42c3.89-.08.24.3,3.2.36,2.31-.19,4.77-.48,7.24-.78a60.35,60.35,0,0,1,7.69-.29c2.66,0,5.4.14,8.21.09,1.41,0,2.83-.09,4.26-.21s2.89-.37,4.27-.6c.17-.13-1.74,0,.66-.53q3-.2,6-.33c2.22-.34,2-.88,6.1-1-.59,0-1.46-.05,0-.26L280,13.9l4.2-.43c1.4-.14,2.86-.32,4.27-.57,2.82-.5,5.61-1.14,8.4-1.63a35.77,35.77,0,0,1,8.35-.68A13.36,13.36,0,0,1,316,16.35c.21.31.44.6.63.93l.57,1c.38.69.74,1.38,1.09,2.09A27.07,27.07,0,0,1,321,29.24c.07.78.11,1.51.11,2.33s0,1.63,0,2.44c0,1.63-.1,3.26-.18,4.9.23-3.54.21-1.19.18,1.53.07-1.77.23.05.35-.3-.09,1.82-.12,3.71-.2,5.48s-.25,3.6-.45,5.4a47.8,47.8,0,0,1-.51,6.7c-.16,1.42-.33,2.75-.5,3.82s-.31,1.83-.3,2.12a29.7,29.7,0,0,0,.58-3.31c-.17,2.27.33.78.82-1.27s1-4.61,1.21-4.24c.05-2.61.54-6,.72-9.88.06-1.94.14-3.92.18-6a59,59,0,0,0-.17-6.35c.07-1.9.19,1.61.28.6a37.21,37.21,0,0,0-1.68-9.69l.23.51a35.11,35.11,0,0,0-1.85-4.4c-.65-1.32-1.28-2.5-2-3.67a18.72,18.72,0,0,0-2.4-3,15.43,15.43,0,0,0-2.86-2.27,16.19,16.19,0,0,0-7-2.19,35,35,0,0,0-8.76.45l1,.13c-2.83.42-3.42.48-4.74.66-1.56.54.39.14,2.39-.22s4.08-.62,2.62-.18a30.61,30.61,0,0,0-4.73.59c-2.06.37-4.46.89-6.81,1.22-1.17.16-2.36.27-3.49.39l-3.17.3a24.7,24.7,0,0,1-4.05.16c-4.32.5,1.3.18-3,.68l-1.16,0-1.07.36c-2.84.31-4.29.28-4.41.15.69-.08,2-.3,2.69-.41-3.7.24-10.35,1.5-11.62,1.65l4.16-.52-4.52.73a45.48,45.48,0,0,1-4.61.49c-3.14.19-6.4.11-9.67.11-1.64,0-3.28,0-4.92.11s-3.28.26-4.84.46c-3.09.42-6.1.65-8.94.82l.87.11a64.51,64.51,0,0,1-7.94.07c-1.85-.08-3.8-.2-8.59-.31l.34,0c-1.92.07-4.48,0-7.11,0,2.43-.12-4.57-.38-1.38-.5-9.5.22-4.69.19-10.95.69l-1.44-.23a55.89,55.89,0,0,1-7.1.37c3.93-.19-3.06-.34,1.34-.59a100,100,0,0,0-11.83.06,48,48,0,0,1-7.74.16c-2.3.44-.12.4,2.31.3s5.11-.24,3.82-.12c2.17.11-3.8.61-6.95.74a47.73,47.73,0,0,1-5-.12c-2-.09-4.56-.13-8.57,0,.8,0,.85-.06,1.65-.08-3-.07-5.91.3-9.62.11-2.07.4-4.81,0-5.4.53l7.4-.21c-4.19.18-8.12.79-15,.61.53-.1,2.59-.26,4-.35-2-.11-3.89.15-6,0,.6-.48,9-.22,13.49-.65-2.17-.17-8.5.46-6.25-.08-3.24.7-8,0-13.41.59l.36-.29c-.87.06-2.66.22-4.25.23l2.88-.41c-4.42.38-8.54-.16-12.78.07,8.89-.13,2,.32,5.76.48-11,.52-6.31-.67-18.58-.37,1.66-.06,6.24.09,3.64.26-2.34,0-5.42-.1-6.86-.23-8.13.17,1.25.28-2.21.5-2.77-.31-4,.2-7.56.36l0-.29c-4.64,0-5.25.12-5.75.28s-.88.32-5,.2c1.17-.14,2.35-.26,3.52-.41l-4.35.11.9-.33c-4.73.25-6.21.18-10.84.09,1.08.21-.61.53-4.71.54-2.8-.17,1.56-.28-4.26-.24A18.91,18.91,0,0,1,54,18c.26-.09,1.3-.18,1.56-.27-3-.2-7.57-.05-9.68-.05.81,0,1.78,0,2.28.07l-8.44.4c-1.31-.12-.28-.19.77-.28-1.71,0-2.86.16-5.37.09.65-.22.52-.43,4-.49-2.63.07-5.3,0-8,0-.53-.13-4.14-.43-3.09-.48a47.42,47.42,0,0,0-8,.31c-.74.08-1.5.2-2.26.32l-2.25.41c-1.44.25-2.94.39-4.43.52-.3.08-.93.19-2.2.42a32.33,32.33,0,0,0-4.19.78,10.15,10.15,0,0,0-1.13.39,4.42,4.42,0,0,0-.63.34c-.12.08-.25.16-.36.25l-.3.28A6,6,0,0,0,.85,23.81a15.26,15.26,0,0,0-.18,5.57,44.4,44.4,0,0,0,1,5.46c.17,1.46.37,2.91.56,4.34.67,2.86.47,1.42.39.45-.05-.48-.06-.85.07-.49A9.51,9.51,0,0,1,3,40.28c.09.32.19.7.3,1.17s.3,1,.51,1.62c.61,1.71,1,2.64,1.2,3.21s.22.75.19.82-.35-.24,0,.87a22.77,22.77,0,0,1,1,2.65c.33,1,.62,2.25.94,3.61s.68,2.84,1.2,4.38A45.77,45.77,0,0,1,9.67,63L8.78,60.3c-.14-.43-.28-.85-.43-1.28S8,58.08,7.88,57.59ZM55.24,89.8a25.91,25.91,0,0,1-4.62.08A18,18,0,0,1,55.24,89.8Zm96.57-1a26.5,26.5,0,0,1-3.93,0C149,88.73,150.36,88.74,151.81,88.81ZM299.91,2.12H300c1.34.16,1.77.23,1.63.21ZM294.3,1.9c-.57.05-.53.09-.29.13A17.92,17.92,0,0,1,297.1,2,10.9,10.9,0,0,0,294.3,1.9ZM149.11,19.44,148,19.39C150.51,19.24,149.8,19.33,149.11,19.44Z"/><path class="cls-1" d="M140.86,89.25a1,1,0,0,1-.53-.16C139.85,89.14,139.84,89.2,140.86,89.25Z"/><path class="cls-1" d="M10.93,18.61l.2,0a.6.6,0,0,0,.19-.08Z"/><path class="cls-1" d="M337.28,68.54a17.6,17.6,0,0,1-2.29.23C334.93,68.84,335.47,68.85,337.28,68.54Z"/><path class="cls-1" d="M264.38,5.84,268,5.27c-1.75.25-2.38.28-3.26.35C264.81,5.68,265.51,5.68,264.38,5.84Z"/><path class="cls-1" d="M232.79,9.1c-.52.12-1.12.19-1.63.33l.16.1C233.56,9.11,235.13,8.81,232.79,9.1Z"/><path class="cls-1" d="M260.94,5.39c-.32-.2-2.58.23-5.09.76l.45-.08C255.61,6.55,258.26,5.92,260.94,5.39Z"/><path class="cls-1" d="M255.27,6.28,253,6.76C252.68,7,253.9,6.58,255.27,6.28Z"/><path class="cls-1" d="M287.16,2.53c-1.21.06-.73.39-1.42.36-.65.23,1.33-.09,2.67-.32S290.43,2.14,287.16,2.53Z"/><polygon class="cls-1" points="258.79 4.93 259.74 5.08 261.13 4.61 258.79 4.93"/><path class="cls-1" d="M278.88,2.34l-4.07.48a4,4,0,0,1-1.08.24C276.23,2.75,279,2.42,278.88,2.34Z"/><path class="cls-1" d="M273.73,3.06c-1.31.16-2.55.33-3.27.48C271.17,3.44,272.69,3.23,273.73,3.06Z"/><polygon class="cls-1" points="264.32 3.98 265.53 3.87 268.4 3.51 264.32 3.98"/><path class="cls-1" d="M319,13.09c.87,1.4,1.75,2.79,2.66,4.17.34.36-.34-.81-1.34-2.36C319.64,13.93,318.67,12.38,319,13.09Z"/><path class="cls-1" d="M309.2,2.44c.54.34.82.53,1,.69l.65.56.28-.24c-.33-.18-.65-.37-1-.54Z"/><path class="cls-1" d="M319.34,12.1c.36.4,3.94,5.94.69.63C319.72,12.32,316.84,8.21,319.34,12.1Z"/><polygon class="cls-1" points="330.32 68.75 331.44 68.5 331.18 67.93 330.32 68.75"/><path class="cls-1" d="M272,80.49c2.62-.31,2.91-.43,3.15-.56s.41-.23,2.79-.42c1.21-.3-3.88.32-2.64,0C272.13,80.13,270.44,80.32,272,80.49Z"/><path class="cls-1" d="M275.25,79.55l1.61-.29C276,79.41,275.52,79.49,275.25,79.55Z"/><path class="cls-1" d="M319.79,58.22c-.18,1.28-.38,2.53-.66,3.73.21-.76.4-1.55.56-2.36Z"/><path class="cls-1" d="M318.73,65.3a3.05,3.05,0,0,1-.61.46,3.24,3.24,0,0,1-.3.64.66.66,0,0,1-.42.32.71.71,0,0,0,.36-.09,1.52,1.52,0,0,0,.35-.31A8.21,8.21,0,0,0,318.73,65.3Z"/><path class="cls-1" d="M64.71,90.36l.26-.1a19.86,19.86,0,0,0-2.91-.06Z"/><path class="cls-1" d="M18.35,86l.79.3c-.47-.29-.93-.58-1.38-.9Z"/><path class="cls-1" d="M3.61,45c.66,1.77,1.51,3.57,1.91,5.14-.5-1.68-1-3.09-1.33-4S3.69,44.69,3.61,45Z"/></g></g></svg>