<svg xmlns="http://www.w3.org/2000/svg" viewBox="0 0 348.16 127.12"><defs><style>.cls-1,.cls-5{fill:#1b262c;}.cls-2{fill:#0b4d76;}.cls-3{fill:#00b7c2;}.cls-4{fill:#fcf7f2;}.cls-5{stroke:#00b7c2;stroke-miterlimit:10;stroke-width:6px;}</style></defs><g id="Capa_2" data-name="Capa 2"><g id="Layer_1" data-name="Layer 1"><path class="cls-1" d="M23,125.62a1.51,1.51,0,0,1-1.14-.53,1.59,1.59,0,0,1-.36-.75l-.08-.48-.09-.44-.09-.44-.11-.44L21,122.1l-.12-.43-.12-.43-.14-.42-.14-.43-.16-.41-.33-.84-.36-.8-.39-.79-.42-.77-.44-.75-.48-.74-.5-.71-.53-.69-.55-.67-.58-.65-.6-.63-.63-.6-.65-.58-.67-.55-.7-.52-.71-.5-.73-.48-.76-.44-.77-.42-.79-.38-.8-.36-.83-.33-.4-.14-.42-.15-.43-.13-.43-.13L5,106.11,4.53,106l-.44-.1-.45-.1-.44-.08-.4-.07a1.59,1.59,0,0,1-.51-.16,1.5,1.5,0,0,1-.79-1.32V23a1.48,1.48,0,0,1,.55-1.16,1.64,1.64,0,0,1,.73-.34l.48-.08.44-.09.44-.09.44-.11L5,21l.43-.12.43-.12.42-.14.42-.14.42-.16L8,20l.8-.36.79-.39.77-.42.75-.44.74-.48.71-.5.69-.53.67-.55.65-.58.63-.6.6-.63.57-.65.56-.67.52-.7.5-.71.48-.73.44-.76.42-.77.39-.79L20,7.9l.33-.83.14-.4.15-.42.13-.43.13-.43L21,5l.11-.43.1-.44.1-.45.08-.44.07-.42a1.33,1.33,0,0,1,.27-.65A1.47,1.47,0,0,1,23,1.5H325.2a1.47,1.47,0,0,1,1.14.53,1.61,1.61,0,0,1,.37.75l.08.48.08.44.1.44.1.44.11.44.12.43.13.43.14.42.14.43.15.41.34.84.35.8.39.79.42.77.45.75.47.74.5.71.53.69.56.67.58.65.6.63.63.6.65.57.67.56.69.52.72.5.73.48.75.44.77.42.79.38.81.36.82.33.41.14.42.15.42.13.43.13.43.12.44.11.44.1.44.09.45.09.4.07a1.49,1.49,0,0,1,1.3,1.48v81.22a1.53,1.53,0,0,1-.55,1.16,1.69,1.69,0,0,1-.73.34l-.48.08-.45.09-.44.09-.44.11-.43.11-.44.12-.42.12-.43.14-.42.14-.42.16-.83.33-.81.36-.79.39-.77.41-.75.45-.73.48-.71.5-.69.53-.68.55-.64.58-.63.6-.6.63-.58.65-.55.67-.53.7-.5.71-.47.73-.45.76-.41.77-.39.79-.35.8-.33.83-.15.4-.14.42-.14.43-.12.43-.12.43-.11.43-.1.44-.1.45-.09.44-.06.41a1.53,1.53,0,0,1-1.49,1.29Z"/><path class="cls-2" d="M325.2,3l0,0,.08.48.09.47.1.48.11.46.12.47.13.46.13.46.15.45.15.45.16.44.35.88.38.86.42.84.44.83.48.8.5.78.54.76.56.74.59.72.62.69.64.67.67.64.69.62.71.58.74.57.76.53.79.51.8.47.82.45.84.41.86.38.88.35.44.16.45.16.46.14.45.14.46.12.47.12.47.11.47.1.47.09.48.09h0v81.22l0,0-.47.08-.48.09-.47.11-.47.1-.46.12-.46.13-.46.14-.45.14-.45.15-.45.17-.88.35-.86.38-.84.41-.82.45-.8.47-.78.51-.77.53-.73.56-.72.59-.69.62-.67.64-.64.67-.62.69-.59.72-.56.74-.54.76-.5.78-.48.8-.44.82-.41.85-.39.86-.34.87-.17.45-.15.45-.14.45-.14.46-.13.46-.12.46-.11.47-.1.47-.09.48-.08.48H23l0,0-.08-.48-.1-.48-.1-.47-.11-.47-.11-.46-.13-.46-.14-.46-.14-.45-.16-.45-.16-.44-.35-.88-.38-.86-.41-.84-.45-.83-.47-.8-.51-.78-.53-.76L18,113l-.59-.72-.62-.69-.64-.67-.67-.64-.69-.61-.72-.6-.74-.56-.76-.53-.78-.51L11,107l-.82-.45-.85-.41-.86-.38-.87-.35-.45-.16-.45-.16-.45-.14-.46-.14-.46-.12-.46-.12-.47-.11-.47-.1-.48-.09L3,104.16H3V23l0,0,.48-.08.47-.1.48-.1.46-.11.47-.11.46-.13.46-.14L6.76,22l.45-.16.44-.16.88-.35L9.39,21l.84-.41.83-.45.8-.47.78-.51.76-.53.74-.56.72-.59.69-.62.67-.64.64-.67.61-.69.59-.72.57-.74.53-.76.51-.78.47-.8.45-.82L21,9.36l.38-.86.35-.87.16-.45.16-.45.14-.45.14-.46.12-.46.12-.46.11-.47.1-.47.09-.48L23,3H325.2m0-3H23a3,3,0,0,0-2.6,1.51A2.93,2.93,0,0,0,20,2.61l-.06.33-.08.42-.09.41-.09.41-.11.41-.11.4-.12.41-.12.39-.14.39-.13.38-.31.78-.34.75-.36.74-.39.72-.42.7-.44.69-.46.66-.5.65-.51.63-.54.6-.57.59-.58.56-.61.54-.62.51-.65.5-.67.47-.68.44-.7.41-.72.39-.74.36-.75.34-.78.31L6.21,19l-.39.13-.4.13-.4.12-.4.11-.41.1-.41.1-.41.08L3,19.89,2.52,20a3,3,0,0,0-1.41.66A3.07,3.07,0,0,0,0,23v81.22a3,3,0,0,0,1.58,2.64,3.26,3.26,0,0,0,1,.33l.33.06.42.08.42.09.4.09.41.1.4.12.41.12.39.12.39.14.38.13.78.31.75.34.74.36.72.39.7.41.69.45.66.46.65.5.63.51.6.54.59.56.56.59.54.61.51.62.5.65.46.67.45.68.41.7.39.72.36.74.34.75.31.78.13.38.14.39.13.4.12.4.11.4.1.41.1.41.08.41.08.42.08.45a3,3,0,0,0,3,2.52H325.2a3,3,0,0,0,2.61-1.51,3.11,3.11,0,0,0,.37-1.1l.05-.33.08-.42.09-.41.1-.41.1-.41.11-.41.12-.4.13-.39.13-.39.14-.38.31-.78.33-.75.37-.74.39-.72.41-.7.44-.69.47-.66.49-.65.52-.63.54-.6.56-.59.59-.56.6-.54.63-.51.65-.5.66-.47.69-.44.7-.41.72-.39.73-.36.76-.34.78-.31.38-.14.39-.13.39-.13.4-.11.41-.12.4-.1.41-.1.42-.08.41-.08.45-.08a3,3,0,0,0,1.4-.64,3.1,3.1,0,0,0,1.13-2.34V23a3,3,0,0,0-2.62-3l-.33-.06-.42-.08-.41-.09-.41-.09-.41-.11-.4-.11-.4-.12-.39-.12-.4-.14-.37-.13-.79-.31-.75-.34-.73-.36-.72-.39-.71-.41-.68-.45-.67-.47-.64-.49-.63-.51-.6-.54-.59-.57-.56-.58L333,12.9l-.52-.62-.49-.65-.47-.67-.44-.68-.42-.7-.39-.72-.36-.74-.33-.75-.31-.78-.14-.38L329,5.82l-.13-.4-.12-.4-.11-.4-.1-.41-.1-.41-.09-.41L328.26,3l-.08-.45a2.89,2.89,0,0,0-.63-1.39A3.07,3.07,0,0,0,325.2,0Z"/><path class="cls-3" d="M318.5,12v0l.08.16L319,13l.07.16.08.16.41.84.08.16.08.16.45.82.08.15.09.15.47.8.09.15.1.15.5.78.1.15.1.14.53.76.1.15.11.13.56.74.1.14.11.13.59.72.11.13.12.13.62.7.11.12.12.13.64.67.12.12.13.12.66.64.13.12.13.12.69.61.13.12.13.11.72.59.14.11.13.11.74.56.14.1.14.1.76.54.14.1.15.09.78.51.15.09.15.09.8.47.15.1.16.08.82.44.15.09.16.07.84.42.16.07.16.08.86.38.16.07V97.46h0l-.16.07-.86.38L335,98l-.16.08-.84.41-.16.08-.15.09-.82.44-.16.08-.14.09-.81.48-.15.09-.15.09-.78.51-.14.09-.15.1-.76.53-.14.1-.14.11-.74.56-.13.11-.14.11-.71.59-.14.11-.13.11-.69.62-.13.12-.12.11-.67.65-.13.12-.11.12-.65.67-.12.12-.11.13-.62.7-.11.12-.11.14-.59.71-.11.14-.11.14-.56.73-.11.14-.1.14-.53.76-.1.15-.09.14-.51.79-.1.14-.08.15-.48.81-.09.15-.08.15-.45.82-.08.16-.08.15-.41.85-.08.15-.07.17-.38.86-.07.15H29.66v0l-.07-.16-.38-.86-.07-.16-.08-.16-.41-.84-.08-.16-.09-.16-.44-.82-.08-.15-.09-.15-.48-.81-.09-.15-.09-.14-.51-.78-.09-.15-.1-.14-.54-.76-.09-.15-.11-.13-.56-.74-.11-.14-.11-.14-.59-.71-.11-.13-.11-.13-.62-.7-.11-.12-.12-.13-.65-.67-.12-.12-.12-.12-.67-.64-.13-.12-.13-.12-.69-.62-.12-.11-.14-.11-.71-.59L19.7,102l-.13-.1-.74-.57-.14-.1-.15-.1-.76-.54-.14-.1-.15-.09-.78-.51-.14-.09-.15-.09-.81-.48-.15-.09-.15-.08-.82-.44-.16-.09-.16-.07L13.33,98,13.18,98,13,97.89l-.86-.38L12,97.44V29.66h0l.16-.07L13,29.2l.16-.07.16-.08.85-.42.15-.07.15-.08.83-.45.15-.08.15-.09.8-.48.15-.09.15-.09.79-.51.14-.09.14-.1.76-.54.15-.1.13-.1.74-.56.14-.11.13-.11.72-.59.13-.11.13-.11.69-.62.13-.11.13-.13.67-.64.12-.12.12-.12.64-.67.12-.12.12-.13.62-.7.11-.13.11-.13.59-.71.11-.14.1-.13.57-.74.1-.14.1-.14.54-.76.1-.15.09-.14.51-.79.09-.14.09-.15.48-.81.09-.15.08-.15.44-.82.09-.16.07-.15.42-.84.07-.16.08-.17.38-.86.07-.15H318.5m6.7-9H23l-.09.48L22.78,4l-.1.47-.11.47-.12.46-.12.46-.14.46-.14.45-.16.45-.16.45-.35.87L21,9.36l-.41.85-.45.82-.47.8-.51.78-.53.76-.57.74-.59.72-.61.69-.64.67-.67.64-.69.62-.72.59-.74.56-.76.53-.78.51-.8.47-.83.45L9.39,21l-.86.38-.88.35-.44.16L6.76,22l-.45.14-.46.14-.46.13-.47.11-.46.11-.48.1-.47.1L3,22.93l0,0v81.22H3l.48.09.48.09.47.1.47.11.46.12.46.12.46.14.45.14.45.16.45.16.87.35.86.38.85.41L11,107l.8.47.78.51.76.53.74.56.72.6.69.61.67.64.64.67.62.69L18,113l.56.74.53.76.51.78.47.8.45.83.41.84.38.86.35.88.16.44.16.45.14.45.14.46.13.46.11.46.11.47.1.47.1.48.08.48,0,0H325.2l.08-.48.09-.48.1-.47.11-.47.12-.46.13-.46.14-.46.14-.45.15-.45.17-.45.34-.87.39-.86.41-.85.44-.82.48-.8.5-.78.54-.76.56-.74.59-.72.62-.69.64-.67.67-.64.69-.62.72-.59.73-.56.77-.53.78-.51.8-.47.82-.45.84-.41.86-.38.88-.35.45-.17.45-.15.45-.14.46-.14.46-.13.46-.12.47-.1.47-.11.48-.09.47-.08,0,0V23h0l-.48-.09-.47-.09-.47-.1-.47-.11-.47-.12-.46-.12-.45-.14-.46-.14-.45-.16-.44-.16-.88-.35-.86-.38-.84-.41-.82-.45-.8-.47-.79-.51-.76-.53-.74-.57-.71-.58-.69-.62-.67-.64-.64-.67-.62-.69-.59-.72-.56-.74-.54-.76-.5-.78-.48-.8-.44-.83-.42-.84-.38-.86-.35-.88-.16-.44-.15-.45L326,6.31l-.13-.46-.13-.46-.12-.47-.11-.46L325.4,4l-.09-.47L325.23,3l0,0Z"/><path class="cls-4" d="M320.56,9l.05.15,0,0,0,.06.16.45,0,.08,0,.08.35.88,0,.11.05.11.38.86.05.1.05.11.41.84.05.11.06.1.44.82.06.1.06.1.47.81.06.1.07.09.5.79.07.09.06.1.54.76.06.09.07.1.57.73.07.1.07.08.59.72.07.09.08.09.62.69.07.09.08.08.65.67.07.08.09.08.66.64.09.08.08.08.7.61.08.08.09.08.72.59.09.07.09.07.74.56.09.07.09.07.77.53.09.07.1.06.78.51.1.06.1.06.8.47.1.06.1.06.83.44.1.06.1,0,.85.42.1.05.11,0,.86.39.11,0,.11.05.87.35.09,0,.08,0,.45.16.05,0,.06,0,.12,0V99.53l-.15,0-.06,0-.06,0-.44.16-.08,0-.08,0-.88.35-.11,0-.11,0-.86.38-.11,0-.1.05-.84.42-.11,0-.1,0-.83.45-.1,0-.1.06-.8.48-.1.06-.1.06-.78.51-.1.06-.09.07-.76.53-.1.07-.09.07-.74.56-.09.07-.09.07-.72.59-.08.08-.09.07-.69.62-.09.08-.08.08-.67.64-.08.08-.08.08-.65.67-.08.08-.07.09-.62.69-.08.09-.07.08-.59.72-.07.09-.07.09-.57.74-.07.09-.06.1-.54.76-.06.09-.06.1-.51.78-.06.1-.06.1-.48.81-.06.09-.05.11-.45.82-.05.1-.06.11-.41.84,0,.11-.05.1-.38.86-.05.11,0,.11-.35.88,0,.08,0,.08-.17.45,0,0V118l0,.12h-293l-.05-.15,0-.06,0,0-.16-.45,0-.08,0-.08-.35-.88,0-.11-.05-.11-.38-.86-.05-.1-.05-.11-.42-.84-.05-.11-.05-.1-.45-.82-.06-.1,0-.1-.48-.81-.06-.1-.06-.09-.51-.79-.06-.09L24,111l-.53-.76-.07-.09-.07-.1-.56-.73-.07-.1-.07-.09-.59-.71-.08-.09-.07-.09-.62-.69-.08-.09-.08-.08-.64-.67-.08-.08-.08-.08-.67-.64-.08-.08-.09-.08-.69-.62-.09-.07-.08-.07-.72-.59-.09-.08-.09-.07-.74-.56-.09-.07-.1-.07-.76-.53L16,103l-.09-.06-.79-.51-.09-.06-.1-.06-.8-.47-.11-.06-.1-.06-.82-.45-.1,0-.11,0-.84-.42-.1,0-.11,0-.86-.39-.11,0-.11,0-.88-.35-.08,0-.09,0-.44-.16-.06,0-.05,0-.12,0V27.59l.15-.05.06,0,0,0,.45-.16.08,0,.08,0,.88-.35.11,0,.1-.05.86-.38.11-.05.11-.05.84-.42.11-.05.1-.05.82-.45.1-.05.1-.06.8-.48.11-.06.1-.06.78-.51.09-.06.1-.07.76-.53.09-.07.1-.07.73-.56.1-.07.09-.07.71-.59.09-.08.09-.07.69-.62.09-.08.08-.08.67-.64.08-.08.08-.08.64-.67.08-.08.08-.09.62-.69.07-.09.07-.09.59-.71.08-.09.07-.09L23.4,17l.07-.09.07-.1.53-.76.07-.09.06-.1.51-.78.06-.1.06-.1.47-.81.06-.1.06-.1.44-.82.06-.1,0-.11.41-.84.06-.1,0-.11.39-.86,0-.11.05-.11.35-.88,0-.08,0-.08.16-.45,0-.05,0-.06,0-.12h293m4.64-6H23l-.09.48L22.78,4l-.1.47-.11.47-.12.46-.12.46-.14.46-.14.45-.16.45-.16.45-.35.87L21,9.36l-.41.85-.45.82-.47.8-.51.78-.53.76-.57.74-.59.72-.61.69-.64.67-.67.64-.69.62-.72.59-.74.56-.76.53-.78.51-.8.47-.83.45L9.39,21l-.86.38-.88.35-.44.16L6.76,22l-.45.14-.46.14-.46.13-.47.11-.46.11-.48.1-.47.1L3,22.93l0,0v81.22H3l.48.09.48.09.47.1.47.11.46.12.46.12.46.14.45.14.45.16.45.16.87.35.86.38.85.41L11,107l.8.47.78.51.76.53.74.56.72.6.69.61.67.64.64.67.62.69L18,113l.56.74.53.76.51.78.47.8.45.83.41.84.38.86.35.88.16.44.16.45.14.45.14.46.13.46.11.46.11.47.1.47.1.48.08.48,0,0H325.2l.08-.48.09-.48.1-.47.11-.47.12-.46.13-.46.14-.46.14-.45.15-.45.17-.45.34-.87.39-.86.41-.85.44-.82.48-.8.5-.78.54-.76.56-.74.59-.72.62-.69.64-.67.67-.64.69-.62.72-.59.73-.56.77-.53.78-.51.8-.47.82-.45.84-.41.86-.38.88-.35.45-.17.45-.15.45-.14.46-.14.46-.13.46-.12.47-.1.47-.11.48-.09.47-.08,0,0V23h0l-.48-.09-.47-.09-.47-.1-.47-.11-.47-.12-.46-.12-.45-.14-.46-.14-.45-.16-.44-.16-.88-.35-.86-.38-.84-.41-.82-.45-.8-.47-.79-.51-.76-.53-.74-.57-.71-.58-.69-.62-.67-.64-.64-.67-.62-.69-.59-.72-.56-.74-.54-.76-.5-.78-.48-.8-.44-.83-.42-.84-.38-.86-.35-.88-.16-.44-.15-.45L326,6.31l-.13-.46-.13-.46-.12-.47-.11-.46L325.4,4l-.09-.47L325.23,3l0,0Z"/><path class="cls-3" d="M322.79,6l0,.13v.06l.13.46v.06l.14.45v.06l.14.45v.06l.15.45v.06l.16.44,0,0,0,0,.34.88,0,0,0,.06.38.86,0,.05,0,.06.42.84,0,0,0,.05.44.82,0,0,0,.05.48.81,0,0,0,.05.5.78,0,.05,0,0,.53.77,0,0,0,.05.56.74,0,0,0,.05.59.71,0,0,0,0,.62.69,0,.05,0,0,.65.67,0,0,0,0,.66.64.05,0,0,0,.69.61.05,0,0,0,.72.59,0,0,.05,0L333,21l0,0,.05,0,.76.54.05,0,.05,0,.78.51.05,0,.05,0,.8.47,0,0,.05,0,.82.45.06,0,.05,0,.84.41,0,0,.05,0,.86.38.06,0,.05,0,.88.35,0,0h.05l.44.16H340l.45.15h.06l.45.15H341l.46.13h0l.46.13h.07l.1,0v76.36l-.14,0h0l-.46.13h-.06l-.45.14h-.07l-.45.14h-.05l-.45.16h-.06l-.45.16h0l0,0-.87.35-.06,0,0,0-.86.38-.06,0-.05,0-.84.42-.05,0-.06,0-.82.45-.05,0-.05,0-.8.48,0,0-.05,0-.78.51-.05,0,0,0-.76.54,0,0,0,0-.74.57-.05,0,0,0-.72.59,0,0-.05,0-.69.62,0,0,0,0-.67.64,0,0,0,0-.64.67,0,0,0,0-.62.7,0,0,0,0-.59.72,0,0,0,0-.56.74,0,0,0,0-.53.76,0,0,0,0-.5.78,0,0,0,.05-.48.8,0,0,0,0-.45.83,0,.05,0,0-.42.84,0,.06,0,.05-.38.86,0,0,0,.06-.35.87,0,.05v0l-.17.44V119l-.15.45v.06l-.14.45v0l-.14.46v.06l-.13.46V121l0,.1H25.37l0-.13v-.06l-.13-.46v-.06L25,120v-.06l-.14-.45v-.06l-.16-.45v-.06l-.16-.44v0l0,0-.35-.88,0,0,0-.06-.39-.86,0-.05,0,0-.42-.85,0,0,0-.05-.45-.82,0-.06,0,0-.47-.8,0,0,0-.05-.51-.78,0,0,0,0-.54-.76,0,0,0,0-.57-.74,0,0,0-.05-.59-.71,0,0,0,0-.62-.69,0,0,0,0-.64-.67,0,0,0,0-.67-.64,0,0,0,0-.69-.62,0,0,0,0-.72-.59,0,0-.05,0-.74-.56,0,0,0,0-.76-.54-.05,0,0,0-.78-.51-.05,0-.05,0-.8-.47-.05,0-.06,0-.82-.45-.05,0-.05,0-.84-.41-.06,0-.05,0L9.72,103l-.05,0-.06,0-.88-.35,0,0h0l-.45-.16h0l-.45-.16h0l-.46-.15H7.13l-.45-.13H6.62l-.46-.13H6.1l-.1,0V25.37l.13,0h.06l.46-.13h.06L7.16,25h.06l.45-.14h.06l.45-.16h.06l.44-.16h0l0,0,.88-.35,0,0,.06,0,.86-.39.05,0,.06,0,.84-.41,0,0,.05,0,.82-.45,0,0,.05,0,.81-.48,0,0,.05,0,.78-.51.05,0,0,0,.77-.54,0,0,.05,0,.74-.57,0,0,.05,0,.71-.59,0,0,0,0,.69-.62.05,0,0,0,.67-.64,0,0,0,0L19,17.6l0,0,0,0,.61-.7,0,0,0,0,.59-.72,0,0,0-.05.56-.74,0,0,0-.05.54-.76,0-.05,0,0,.51-.78,0-.05,0-.05.47-.8,0-.05,0-.06.45-.82,0-.05,0-.05.41-.84,0-.06,0-.05.38-.86,0-.05,0-.06.35-.88,0,0v0l.16-.44V8.15l.15-.45V7.64l.15-.45V7.14l.13-.46V6.62l.13-.46V6.1l0-.1h297.4m2.41-3H23l-.09.48L22.78,4l-.1.47-.11.47-.12.46-.12.46-.14.46-.14.45-.16.45-.16.45-.35.87L21,9.36l-.41.85-.45.82-.47.8-.51.78-.53.76-.57.74-.59.72-.61.69-.64.67-.67.64-.69.62-.72.59-.74.56-.76.53-.78.51-.8.47-.83.45L9.39,21l-.86.38-.88.35-.44.16L6.76,22l-.45.14-.46.14-.46.13-.47.11-.46.11-.48.1-.47.1L3,22.93l0,0v81.22H3l.48.09.48.09.47.1.47.11.46.12.46.12.46.14.45.14.45.16.45.16.87.35.86.38.85.41L11,107l.8.47.78.51.76.53.74.56.72.6.69.61.67.64.64.67.62.69L18,113l.56.74.53.76.51.78.47.8.45.83.41.84.38.86.35.88.16.44.16.45.14.45.14.46.13.46.11.46.11.47.1.47.1.48.08.48,0,0H325.2l.08-.48.09-.48.1-.47.11-.47.12-.46.13-.46.14-.46.14-.45.15-.45.17-.45.34-.87.39-.86.41-.85.44-.82.48-.8.5-.78.54-.76.56-.74.59-.72.62-.69.64-.67.67-.64.69-.62.72-.59.73-.56.77-.53.78-.51.8-.47.82-.45.84-.41.86-.38.88-.35.45-.17.45-.15.45-.14.46-.14.46-.13.46-.12.47-.1.47-.11.48-.09.47-.08,0,0V23h0l-.48-.09-.47-.09-.47-.1-.47-.11-.47-.12-.46-.12-.45-.14-.46-.14-.45-.16-.44-.16-.88-.35-.86-.38-.84-.41-.82-.45-.8-.47-.79-.51-.76-.53-.74-.57-.71-.58-.69-.62-.67-.64-.64-.67-.62-.69-.59-.72-.56-.74-.54-.76-.5-.78-.48-.8-.44-.83-.42-.84-.38-.86-.35-.88-.16-.44-.15-.45L326,6.31l-.13-.46-.13-.46-.12-.47-.11-.46L325.4,4l-.09-.47L325.23,3l0,0Z"/><line class="cls-5" x1="172.34" y1="10.09" x2="172.34" y2="114.56"/></g></g></svg>