<svg xmlns="http://www.w3.org/2000/svg" viewBox="0 0 612.51 399.99"><defs><style>.cls-1{fill:#0b4d76;}.cls-2{fill:#00b7c2;}.cls-3{fill:#fcf7f2;}</style></defs><g id="Capa_2" data-name="Capa 2"><g id="Layer_1" data-name="Layer 1"><polygon class="cls-1" points="27.03 359.85 26.86 359.16 26.69 358.54 26.5 357.91 26.3 357.3 26.1 356.69 25.88 356.08 25.37 354.81 24.85 353.64 24.29 352.5 23.68 351.39 23.03 350.3 22.34 349.24 21.62 348.21 20.86 347.21 20.05 346.23 19.21 345.3 18.34 344.39 17.43 343.52 16.49 342.69 15.52 341.89 14.51 341.13 13.48 340.4 12.42 339.72 11.32 339.07 10.21 338.47 9.06 337.91 7.89 337.39 6.81 336.96 6.18 336.73 5.57 336.53 4.96 336.33 4.33 336.14 3.71 335.97 3 335.79 3 27.03 3.69 26.86 4.31 26.69 4.93 26.5 5.55 26.3 6.16 26.1 6.76 25.88 8.04 25.37 9.2 24.85 10.35 24.29 11.46 23.68 12.55 23.03 13.61 22.35 14.64 21.62 15.64 20.85 16.61 20.05 17.55 19.21 18.45 18.34 19.33 17.43 20.16 16.49 20.96 15.52 21.72 14.51 22.45 13.48 23.13 12.42 23.77 11.32 24.38 10.21 24.93 9.06 25.45 7.89 25.88 6.81 26.11 6.18 26.32 5.57 26.52 4.96 26.7 4.34 26.88 3.71 27.06 3 585.48 3 585.65 3.69 585.83 4.31 586.01 4.93 586.21 5.55 586.41 6.16 586.63 6.77 587.14 8.04 587.66 9.2 588.23 10.35 588.83 11.46 589.48 12.55 590.16 13.61 590.89 14.64 591.66 15.64 592.46 16.61 593.3 17.55 594.17 18.46 595.08 19.33 596.02 20.16 597 20.96 598 21.72 599.03 22.45 600.1 23.13 601.19 23.77 602.3 24.38 603.45 24.94 604.62 25.45 605.7 25.88 606.33 26.11 606.94 26.32 607.56 26.52 608.18 26.7 608.8 26.88 609.51 27.06 609.51 335.81 608.83 335.99 608.2 336.16 607.58 336.35 606.96 336.54 606.35 336.75 605.75 336.97 604.47 337.48 603.31 338 602.17 338.56 601.05 339.17 599.96 339.81 598.9 340.5 597.87 341.23 596.87 341.99 595.9 342.8 594.96 343.63 594.06 344.51 593.18 345.42 592.35 346.36 591.55 347.33 590.79 348.33 590.07 349.37 589.38 350.43 588.74 351.52 588.14 352.64 587.58 353.79 587.06 354.95 586.63 356.03 586.4 356.67 586.19 357.28 585.99 357.89 585.81 358.51 585.63 359.13 585.46 359.85 27.03 359.85"/><path class="cls-2" d="M54.17,0V6h529l.15.46,0,.06,0,.06.19.55v0l0,.06.2.55,0,.08,0,.09L584.31,9l0,.11,0,.1.47,1.06,0,.11.05.11.51,1,0,.11.06.1.54,1,.06.1.06.1.59,1,.06.1.06.1.62,1,.06.1.07.09.66.94.07.1.07.09.69.91.07.09.07.09.73.88.07.09.08.09.76.85.08.09.08.08.79.82.08.09.08.08.83.79.08.08.08.08.86.76.08.07.09.08.89.72.09.08.09.07.91.69.09.07.09.07.94.66.1.06.09.07,1,.62.1.06.1.06,1,.59.1.06.1.05,1,.55.1.06.1.05,1,.51.1.05.11.05,1.06.47.11.05.11,0,1.08.43.08,0,.09,0,.54.2.06,0,.06,0,.55.19.06,0,.05,0,.43.13V333.54l-.46.14-.06,0-.06,0-.55.19,0,0-.06,0-.54.2-.09,0-.08,0-1.08.43-.11.05-.11,0-1.06.47-.11.05-.11.05-1,.51-.11.06-.1.05-1,.55-.11,0-.1.06-1,.59-.1.06-.1.06-1,.63-.1.06-.09.07-.94.65-.09.07-.1.07-.91.69-.09.07-.09.08-.88.73-.09.07-.09.08-.85.76-.09.07-.08.08-.82.79-.08.08-.08.09-.8.82-.08.08-.07.09-.76.85-.08.09-.07.09-.73.88-.07.09-.07.09-.7.91-.07.09-.06.1-.66.94-.07.09-.06.1-.63,1-.06.1-.06.1-.58,1-.06.1-.06.1-.55,1,0,.1-.06.11-.51,1,0,.11,0,.11-.47,1.06,0,.11-.05.11-.43,1.08,0,.08,0,.08-.2.55,0,.06,0,.05-.19.56,0,.05,0,.06-.13.43H29.31l-.15-.47,0-.05v-.06l-.19-.55,0-.06,0-.05-.2-.55,0-.09,0-.08-.43-1.08,0-.11-.05-.11-.47-1.06,0-.1-.06-.11-.51-1-.05-.1-.05-.11-.55-1-.06-.1-.06-.1-.58-1-.06-.1-.07-.1-.62-1-.06-.1-.07-.1-.66-.93-.06-.1-.07-.09-.7-.91-.07-.09-.07-.09-.73-.89-.07-.09-.08-.08-.76-.86-.08-.08-.08-.08-.79-.83-.08-.08-.08-.08-.82-.79-.09-.08-.08-.08-.86-.76-.08-.08-.09-.07-.89-.73-.08-.07-.09-.07-.91-.69-.1-.07-.09-.07L15.3,338l-.1-.07-.09-.06-1-.62-.09-.06-.1-.06-1-.59-.11-.06-.1-.06-1-.54-.11-.06-.1-.05-1-.51-.1,0-.11-.05-1.06-.47-.11-.05-.11,0-1.08-.43-.08,0-.08,0-.55-.2-.06,0-.06,0-.55-.19-.06,0-.05,0L6,333.51V29.31l.46-.15h.06l.05,0,.56-.19,0,0,.06,0,.55-.2.08,0,.08,0L9,28.21l.12-.05.1-.05,1.06-.47.11,0,.11-.06,1-.51.11-.05.1-.05,1-.55.1-.06.1-.06,1-.58.1-.06.1-.07,1-.62.1-.06.09-.07.94-.66.1-.06.09-.07.91-.7.09-.07.09-.07.88-.73.09-.07.09-.08.85-.76.09-.07.08-.08.82-.8.09-.08.08-.08.79-.82.08-.09.08-.08.76-.86.07-.08.08-.09.72-.88.08-.09.07-.09.69-.92.07-.09.07-.09.65-.94.07-.09.07-.1.62-1,.06-.09.06-.1.59-1,.06-.11.05-.1.55-1,.06-.1.05-.11.51-1,.05-.1.05-.11.47-1.06.05-.11,0-.11.43-1.08,0-.08,0-.09.2-.54,0-.06,0-.06.19-.55,0-.06,0-.05L29.33,6H54.17V0m0,0H24.6l-.1.59-.11.59-.12.58-.14.58L24,2.91l-.16.57L23.66,4l-.18.56-.19.56-.2.54-.43,1.09-.47,1.06-.51,1-.55,1-.58,1-.62,1-.66.94-.7.91-.72.88-.76.86-.8.82-.82.79-.85.76-.89.73-.91.69-.93.66-1,.62-1,.59-1,.55-1,.51-1.06.47-1.08.43-.55.2-.55.19-.56.18-.57.16L3,24l-.58.15-.57.13-.59.13-.58.11-.59.1,0,0V338.25H0l.59.1.59.12.58.12.58.14.57.14.57.16.56.17.56.17.56.19.54.2,1.09.43,1.06.47,1,.51,1,.55,1,.59,1,.62.94.66.91.69.88.73.86.76.82.79.79.83.76.85.73.88.69.91.66.94.62,1,.59,1,.55,1,.51,1,.47,1.06.43,1.08.2.55.19.55.18.56.16.56.16.57.15.57.13.58.13.58.11.59.1.59,0,0H587.91l.1-.59.11-.58.13-.58.13-.58.15-.57.15-.57.17-.57.18-.55.19-.56.2-.55.43-1.08.47-1.06.51-1,.55-1,.58-1,.63-1,.66-.94.69-.91.73-.89.76-.85.79-.82.82-.79.86-.76.88-.73.91-.7.94-.65,1-.63,1-.58,1-.55,1-.51,1.06-.47,1.08-.43.55-.2.56-.19.56-.18.56-.17.57-.15.57-.15.58-.14.58-.12.58-.11.59-.1,0,0V24.6h0l-.59-.1-.59-.11-.58-.12-.58-.14L609.6,24l-.57-.16-.56-.17-.56-.18-.55-.19-.55-.2-1.08-.43-1.06-.47-1-.51-1-.55-1-.58-1-.62-.94-.66-.91-.7-.88-.72-.85-.76-.83-.8-.79-.82-.76-.85-.73-.89-.69-.91-.66-.93-.62-1-.59-1-.55-1-.51-1-.47-1.06-.43-1.08-.2-.55-.19-.55-.17-.56-.17-.57L588.56,3l-.14-.58-.14-.57-.12-.59L588,.63l-.1-.59,0,0Z"/><circle class="cls-2" cx="91.67" cy="161" r="3.99"/><path class="cls-2" d="M91.66,167.7a6.7,6.7,0,0,1-4-12.1,17.82,17.82,0,0,1-3.22-7.92,2.05,2.05,0,0,1,.31-1.44l23-35.34a.84.84,0,0,1,1.54.31l.26,1.4c.09.52.24,1.26.41,2.16,1.08,5.47,2.17,11.41,2.15,14.84a30.64,30.64,0,0,1,6.64-2.37c1.74-.43,3.54-.8,5.29-1.16,1.54-.31,3.13-.63,4.64-1l1.38-.33a.85.85,0,0,1,.91,1.29l-23,35.34a2.07,2.07,0,0,1-1.2.87,17.71,17.71,0,0,1-8.6.22,6.94,6.94,0,0,1-.92,2.19,6.66,6.66,0,0,1-4.24,2.9A7.28,7.28,0,0,1,91.66,167.7Zm-2.47-11A5,5,0,0,0,86.78,162a5,5,0,0,0,9.88-.68.86.86,0,0,1,.47-.71.89.89,0,0,1,.75,0,15.83,15.83,0,0,0,8.5,0,.3.3,0,0,0,.2-.15l21.88-33.55c-1.32.3-2.68.58-4,.85-1.73.35-3.52.71-5.21,1.14a25.63,25.63,0,0,0-7.3,2.81.71.71,0,0,0-.14.1l-.1.08a2,2,0,0,0-.22.27l-14.34,22a.85.85,0,0,1-1.43-.92l14.35-22a3.93,3.93,0,0,1,.34-.44c.48-2.86-1.21-11.48-2-15.69-.11-.55-.2-1-.29-1.48L86.21,147.17a.3.3,0,0,0,0,.24,15.83,15.83,0,0,0,3.46,7.88.86.86,0,0,1,0,1.11A.9.9,0,0,1,89.19,156.66Z"/><circle class="cls-2" cx="83.51" cy="215.03" r="3.99"/><path class="cls-2" d="M83.52,221.73a8.08,8.08,0,0,1-.85,0,6.71,6.71,0,0,1-5.81-7.5,6.82,6.82,0,0,1,.72-2.28,17.58,17.58,0,0,1-6.35-5.71,2,2,0,0,1-.35-1.44l5.3-41.85a.83.83,0,0,1,.63-.71.85.85,0,0,1,.9.32l.84,1.15,1.31,1.75c3.35,4.46,6.93,9.32,8.41,12.42a30.71,30.71,0,0,1,4.94-5c1.38-1.15,2.84-2.27,4.26-3.35,1.25-.95,2.54-1.94,3.73-2.92l1.1-.9a.85.85,0,0,1,1-.09.83.83,0,0,1,.43.85l-5.31,41.85a2,2,0,0,1-.69,1.3,17.72,17.72,0,0,1-7.64,4,6.7,6.7,0,0,1-6.52,8.23Zm-4.14-9.52a4.92,4.92,0,0,0-.83,2.19,5,5,0,1,0,9.6-1.24.85.85,0,0,1,.78-1.16,15.86,15.86,0,0,0,7.64-3.75.3.3,0,0,0,.12-.22l5-39.74c-1,.85-2.16,1.69-3.23,2.51-1.4,1.07-2.85,2.18-4.19,3.3A25.84,25.84,0,0,0,89,179.82a.53.53,0,0,0-.08.15.54.54,0,0,1,0,.11,3.38,3.38,0,0,0-.08.34l-3.3,26.06a.85.85,0,1,1-1.69-.21l3.31-26.07a3.45,3.45,0,0,1,.11-.54c-.82-2.79-6.1-9.81-8.68-13.23-.34-.45-.65-.85-.9-1.2l-5,39.74a.32.32,0,0,0,.06.24,15.84,15.84,0,0,0,6.56,5.58.86.86,0,0,1,.2,1.42Z"/><circle class="cls-2" cx="101.06" cy="267.19" r="3.99"/><path class="cls-2" d="M101.05,273.89a6.7,6.7,0,0,1-6.37-4.65,6.79,6.79,0,0,1-.32-2.37,17.69,17.69,0,0,1-8.18-2.48,2.07,2.07,0,0,1-.92-1.15l-13-40.14a.86.86,0,0,1,.27-.92.85.85,0,0,1,1-.09l1.25.68c.46.26,1.13.61,1.93,1,4.93,2.61,10.24,5.5,12.89,7.67a30.37,30.37,0,0,1,2.34-6.65c.75-1.62,1.61-3.26,2.43-4.84.73-1.39,1.48-2.83,2.14-4.23l.61-1.28a.86.86,0,0,1,1.58.1l13,40.15a2,2,0,0,1-.08,1.48,17.66,17.66,0,0,1-5.24,6.83,6.8,6.8,0,0,1,1.12,2.09,6.71,6.71,0,0,1-4.32,8.43A6.73,6.73,0,0,1,101.05,273.89Zm-4.93-7.5a4.85,4.85,0,0,0,.18,2.33,5,5,0,1,0,8.17-5.19.85.85,0,0,1,.21-1.39,15.92,15.92,0,0,0,5.33-6.63.31.31,0,0,0,0-.25L97.73,217.13c-.6,1.22-1.24,2.45-1.86,3.65-.82,1.56-1.66,3.18-2.4,4.77A25.66,25.66,0,0,0,91.06,233a.91.91,0,0,0,0,.17v.12a2.05,2.05,0,0,0,.07.34l8.07,25a.85.85,0,0,1-1.62.52l-8.07-25a3.49,3.49,0,0,1-.12-.54c-1.93-2.17-9.69-6.29-13.47-8.29l-1.33-.71,12.3,38.12a.31.31,0,0,0,.15.2,15.76,15.76,0,0,0,8.3,2.27h0a.84.84,0,0,1,.83.71A.82.82,0,0,1,96.12,266.39Z"/><circle class="cls-2" cx="141.42" cy="305.44" r="3.99"/><path class="cls-2" d="M141.42,312.14a6.67,6.67,0,0,1-4.84-2.06,6.51,6.51,0,0,1-1.32-2,17.64,17.64,0,0,1-8.44,1.34,2,2,0,0,1-1.34-.63L96.3,278.32a.86.86,0,0,1-.16-.94.83.83,0,0,1,.82-.49l1.42.07,2.19.08c5.58.2,11.61.48,15,1.28a30.26,30.26,0,0,1-.8-7c0-1.79,0-3.63.07-5.41,0-1.58.1-3.2.09-4.75v-1.42a.82.82,0,0,1,.53-.79.85.85,0,0,1,.93.2l29.17,30.47a2,2,0,0,1,.57,1.36,17.58,17.58,0,0,1-1.73,8.43,6.77,6.77,0,0,1,1.92,1.4,6.7,6.7,0,0,1-4.84,11.33Zm-4.8-5.26a5.16,5.16,0,0,0,1.18,2,5,5,0,0,0,8.62-3.35A5,5,0,0,0,145,302a5.07,5.07,0,0,0-2.14-1.32.85.85,0,0,1-.58-.61.87.87,0,0,1,.16-.73,15.82,15.82,0,0,0,1.91-8.29.37.37,0,0,0-.1-.23l-27.7-28.94c0,1.36,0,2.75-.09,4.1,0,1.76-.1,3.58-.07,5.33a25.75,25.75,0,0,0,1.07,7.75l.07.16.06.11a2.47,2.47,0,0,0,.21.27l18.17,19a.86.86,0,0,1,0,1.21.85.85,0,0,1-1.2,0l-18.17-19a2.86,2.86,0,0,1-.35-.43c-2.68-1.11-11.46-1.43-15.74-1.58L99,278.69l27.71,28.93a.39.39,0,0,0,.22.11,15.93,15.93,0,0,0,8.46-1.59.86.86,0,0,1,1.08.27A.8.8,0,0,1,136.62,306.88Z"/><circle class="cls-2" cx="520.61" cy="161.04" r="3.99"/><path class="cls-2" d="M520.63,167.74a6.76,6.76,0,0,1-5.63-3,6.93,6.93,0,0,1-.93-2.21,17.72,17.72,0,0,1-8.54-.24,2,2,0,0,1-1.19-.87l-23-35.34a.85.85,0,0,1,.91-1.29l1.39.33c.51.13,1.24.29,2.13.49,5.45,1.23,11.32,2.62,14.45,4a31.07,31.07,0,0,1,.52-7c.3-1.76.69-3.56,1.07-5.3.34-1.54.68-3.13,1-4.65l.25-1.4a.85.85,0,0,1,1.55-.31l23,35.34a2.07,2.07,0,0,1,.31,1.45,17.76,17.76,0,0,1-3.27,8,6.71,6.71,0,0,1,1.63,1.73,6.7,6.7,0,0,1-5.6,10.36Zm-5-6.18a5,5,0,1,0,9.17-3.26,5.12,5.12,0,0,0-1.86-1.69.86.86,0,0,1-.46-.71.85.85,0,0,1,.3-.68,16,16,0,0,0,3.4-7.81.35.35,0,0,0-.06-.24l-21.87-33.56c-.25,1.33-.55,2.69-.84,4-.37,1.72-.76,3.5-1.06,5.23a26,26,0,0,0-.37,7.81.47.47,0,0,0,0,.17.56.56,0,0,1,0,.12,2.2,2.2,0,0,0,.15.31l14.35,22a.85.85,0,0,1-.25,1.18.84.84,0,0,1-1.17-.25l-14.35-22a2.87,2.87,0,0,1-.26-.49c-2.43-1.59-11-3.52-15.19-4.46l-1.46-.33,21.88,33.55a.33.33,0,0,0,.2.15,15.83,15.83,0,0,0,8.61,0,.84.84,0,0,1,1,.47A.8.8,0,0,1,515.64,161.56Z"/><circle class="cls-2" cx="528.77" cy="215.04" r="3.99"/><path class="cls-2" d="M528.75,221.74a6.7,6.7,0,0,1-6.5-8.25,17.59,17.59,0,0,1-7.58-4,2,2,0,0,1-.7-1.3l-5.31-41.85a.86.86,0,0,1,.43-.85.85.85,0,0,1,1,.09l1.1.9,1.7,1.37c4.37,3.48,9,7.3,11.26,9.93a30.44,30.44,0,0,1,3.53-6.11c1-1.45,2.18-2.9,3.28-4.3,1-1.24,2-2.51,2.89-3.76l.84-1.15a.83.83,0,0,1,.89-.32.85.85,0,0,1,.64.71l5.3,41.85a2.09,2.09,0,0,1-.35,1.44,17.69,17.69,0,0,1-6.42,5.74,6.71,6.71,0,0,1-5.09,9.76A8.27,8.27,0,0,1,528.75,221.74Zm-4.69-8.4a5,5,0,1,0,9.67,1.07,5.09,5.09,0,0,0-.93-2.34.83.83,0,0,1-.1-.83.81.81,0,0,1,.56-.49,16,16,0,0,0,6.47-5.54.37.37,0,0,0,0-.24l-5-39.74c-.81,1.09-1.67,2.18-2.5,3.24-1.09,1.38-2.22,2.82-3.24,4.24a25.77,25.77,0,0,0-3.75,6.87.94.94,0,0,0,0,.16.51.51,0,0,1,0,.13,1.3,1.3,0,0,0,0,.34l3.3,26.06a.85.85,0,0,1-1.68.22l-3.31-26.06a3.54,3.54,0,0,1,0-.56c-1.49-2.5-8.37-8-11.72-10.65l-1.17-.93,5,39.74a.33.33,0,0,0,.11.22,15.85,15.85,0,0,0,7.74,3.76.85.85,0,0,1,.7.86A.8.8,0,0,1,524.06,213.34Z"/><circle class="cls-2" cx="511.22" cy="267.16" r="3.99"/><path class="cls-2" d="M511.22,273.87a6.72,6.72,0,0,1-2.06-.33A6.7,6.7,0,0,1,506,263a17.86,17.86,0,0,1-5.19-6.79,2.09,2.09,0,0,1-.07-1.48l12.95-40.15a.83.83,0,0,1,.75-.58.86.86,0,0,1,.82.48l.61,1.28c.23.48.56,1.15,1,2,2.48,5,5.1,10.45,6,13.77a30.27,30.27,0,0,1,5.79-4c1.56-.88,3.2-1.7,4.8-2.5,1.4-.71,2.85-1.44,4.21-2.19l1.24-.68a.85.85,0,0,1,1.22,1l-13,40.14a2,2,0,0,1-.92,1.15,17.65,17.65,0,0,1-8.24,2.48,6.92,6.92,0,0,1-.32,2.35A6.71,6.71,0,0,1,511.22,273.87Zm-3.54-10.24a5,5,0,1,0,8.3,5.07,5.09,5.09,0,0,0,.15-2.51.83.83,0,0,1,.27-.8.81.81,0,0,1,.71-.2h.11a15.85,15.85,0,0,0,8.09-2.27.32.32,0,0,0,.16-.2l12.3-38.12c-1.19.64-2.43,1.27-3.64,1.87-1.58.79-3.21,1.61-4.73,2.47a26,26,0,0,0-6.31,4.63l-.11.13-.06.1a1.87,1.87,0,0,0-.15.32l-8.06,25a.85.85,0,1,1-1.62-.52l8.07-25a4.71,4.71,0,0,1,.21-.52c-.29-2.89-4.19-10.76-6.09-14.6l-.66-1.35-12.3,38.12a.39.39,0,0,0,0,.26,15.94,15.94,0,0,0,5.42,6.69.85.85,0,0,1-.07,1.43Z"/><circle class="cls-2" cx="470.88" cy="305.4" r="3.99"/><path class="cls-2" d="M470.88,312.09A6.69,6.69,0,0,1,466,300.76a6.62,6.62,0,0,1,1.94-1.41,17.68,17.68,0,0,1-1.71-8.37,2.06,2.06,0,0,1,.57-1.36L496,259.15a.85.85,0,0,1,1.46.59v1.42c0,.53,0,1.28,0,2.19,0,5.58,0,11.62-.63,15a30.49,30.49,0,0,1,7-1.1c1.79-.11,3.63-.13,5.41-.16,1.57,0,3.2,0,4.74-.12l1.42-.07a.84.84,0,0,1,.82.49.86.86,0,0,1-.16.94l-29.18,30.47a2,2,0,0,1-1.33.63,17.61,17.61,0,0,1-8.5-1.37,6.89,6.89,0,0,1-1.31,2A6.7,6.7,0,0,1,470.88,312.09Zm-1.64-11.42a5,5,0,0,0-3.36,4.83,5,5,0,0,0,5,4.9H471a5,5,0,0,0,3.5-1.54,5.11,5.11,0,0,0,1.23-2.2.86.86,0,0,1,.59-.61.83.83,0,0,1,.73.14,16,16,0,0,0,8.37,1.54.4.4,0,0,0,.23-.12l27.7-28.92c-1.35.05-2.74.07-4.09.09-1.77,0-3.59.05-5.34.16a25.64,25.64,0,0,0-7.69,1.41l-.16.07a.33.33,0,0,1-.1.06,2.76,2.76,0,0,0-.27.23l-18.17,19a.85.85,0,1,1-1.22-1.17l18.17-19a4.72,4.72,0,0,1,.41-.37c1-2.72.93-11.51.9-15.8,0-.56,0-1.07,0-1.5l-27.7,28.94a.33.33,0,0,0-.1.23,15.79,15.79,0,0,0,1.95,8.38.85.85,0,0,1-.22,1.08A.83.83,0,0,1,469.24,300.67Z"/><path class="cls-1" d="M304.85,362.71a.9.9,0,0,1-.12.64c-1,1.46-5.53,8.29-12.49,16.88-5.92,7.3-12.13,14.84-14.84,18.12a.87.87,0,0,1-1.54-.5l-.55-9.88a.86.86,0,0,0-.82-.82l-10.85-.49a.87.87,0,0,1-.57-1.48c3.72-3.69,13.92-13.66,19.05-17.22,5.45-3.78,18-6.73,21.4-7.48a.86.86,0,0,1,1,.69Z"/><path class="cls-2" d="M275.19,400a2.07,2.07,0,0,1-.69-.11,2.17,2.17,0,0,1-1.51-2l-.52-9.47L262,388a2.19,2.19,0,0,1-1.45-3.75c4.07-4,14.08-13.78,19.23-17.35,5.6-3.89,18.15-6.87,21.87-7.69a2.15,2.15,0,0,1,1.67.31,2.2,2.2,0,0,1,.95,1.42l.29,1.54a2.15,2.15,0,0,1-.32,1.62c-.86,1.3-5.5,8.28-12.56,17-5.77,7.12-11.78,14.42-14.85,18.14A2.17,2.17,0,0,1,275.19,400Zm-12-14.61,9.8.44a2.21,2.21,0,0,1,2.09,2.07l.48,8.72c3.23-3.91,8.77-10.64,14.09-17.21,6.73-8.3,11.24-15,12.31-16.62l-.18-.9c-7.33,1.65-16.41,4.36-20.46,7.17C276.56,372.36,267,381.62,263.2,385.38Zm38.87-22.76Z"/><path class="cls-3" d="M304.41,359.78a.89.89,0,0,0-.65-.75c-1.95-.57-6.37-4.85-9-6.48-5.12-3.13-10.66-3.87-14.3-4.34-3-.39-9.25-.5-11.44-.52a.86.86,0,0,0-.87.77l-1.53,13.16a.87.87,0,0,0,.87,1l36.23-.3a.87.87,0,0,0,.86-.94Z"/><path class="cls-2" d="M267.45,363.91a2.2,2.2,0,0,1-1.64-.73,2.24,2.24,0,0,1-.54-1.72l1.52-13.15a2.19,2.19,0,0,1,2.18-1.94h0c2.49,0,8.6.13,11.6.53,3.76.49,9.44,1.23,14.83,4.52a46.74,46.74,0,0,1,4.09,3.07c1.67,1.35,3.74,3,4.62,3.27a2.18,2.18,0,0,1,1.59,1.91l.13,1.57a2.18,2.18,0,0,1-2.16,2.37l-36.23.3Zm35.77-2.45ZM269.38,349,268,361.26l35.22-.29-.07-.76a24.49,24.49,0,0,1-5.26-3.66,43.59,43.59,0,0,0-3.82-2.87c-4.9-3-10.24-3.7-13.78-4.16C277.49,349.16,271.67,349.05,269.38,349Zm0-.41Z"/><path class="cls-1" d="M305.76,359.76a.87.87,0,0,0-.35-.69,42.17,42.17,0,0,0-10.54-5.56c-6.65-2.4-11.4-1.79-17.33-3.22a42.79,42.79,0,0,1-6.92-2.16.86.86,0,0,0-1.18.56c-.48,1.8-1.48,5.63-2,8.65s-1,6.49-1.13,7.93a.86.86,0,0,0,.6.94,51,51,0,0,0,11.32,1.71,69.93,69.93,0,0,0,18.81-2c2.3-.56,5.82-1.79,7.25-2l.72-.13a.89.89,0,0,0,.72-.86Z"/><path class="cls-2" d="M279.36,369.32c-.91,0-1.82,0-2.73-.08A51.89,51.89,0,0,1,265,367.48a2.19,2.19,0,0,1-1.54-2.38c.22-1.68.66-5,1.15-8s1.46-6.8,2-8.78a2.19,2.19,0,0,1,1.16-1.41,2.24,2.24,0,0,1,1.83,0A40.24,40.24,0,0,0,276.3,349a50.55,50.55,0,0,0,6.67,1,43.32,43.32,0,0,1,10.8,2.23A44.3,44.3,0,0,1,304.66,358a2.2,2.2,0,0,1,.87,1.76v3.13a2.18,2.18,0,0,1-1.81,2.16l-.71.13c-.69.12-2.09.55-3.44,1s-2.63.8-3.74,1.07A73.75,73.75,0,0,1,279.36,369.32Zm-13.21-4.27a51.59,51.59,0,0,0,10.63,1.55,68.13,68.13,0,0,0,18.42-2c1-.25,2.34-.64,3.6-1,1.56-.47,2.9-.88,3.75-1l.33-.06V360a38.66,38.66,0,0,0-20.19-7.33,53.13,53.13,0,0,1-7-1.09,48.41,48.41,0,0,1-6.64-2c-.54,2-1.37,5.33-1.81,8S266.38,363.3,266.15,365.05Zm37.11-2.59Z"/><path class="cls-1" d="M309.76,362.71a.9.9,0,0,0,.12.64c1,1.46,5.53,8.29,12.49,16.88,5.92,7.3,12.12,14.84,14.84,18.12a.87.87,0,0,0,1.54-.5l.54-9.88a.88.88,0,0,1,.83-.82l10.84-.49a.87.87,0,0,0,.58-1.48c-3.72-3.69-13.93-13.66-19.05-17.22-5.45-3.78-18-6.73-21.4-7.48a.88.88,0,0,0-1,.69Z"/><path class="cls-2" d="M336.32,400a2.19,2.19,0,0,1-1.68-.79c-3.07-3.72-9.08-11-14.85-18.14-7.05-8.7-11.7-15.68-12.56-17a2.12,2.12,0,0,1-.32-1.61l.3-1.54a2.18,2.18,0,0,1,2.61-1.73c3.72.82,16.27,3.8,21.88,7.69,5.13,3.56,15.15,13.32,19.22,17.36a2.19,2.19,0,0,1-1.44,3.74l-10.43.47-.53,9.47a2.17,2.17,0,0,1-1.51,2A2,2,0,0,1,336.32,400Zm-26.77-37.21c1.07,1.63,5.58,8.32,12.3,16.62,5.33,6.57,10.86,13.3,14.09,17.21l.49-8.72a2.19,2.19,0,0,1,2.08-2.07l9.81-.44c-4.39-4.33-13.45-13.08-18.13-16.33-4.05-2.81-13.14-5.52-20.47-7.17Zm-.11-.16Z"/><path class="cls-3" d="M307.11,359.78a.87.87,0,0,1,.64-.75c2-.57,6.37-4.85,9-6.48,5.13-3.13,10.66-3.87,14.3-4.34,3-.39,9.25-.5,11.45-.52a.86.86,0,0,1,.86.77l1.53,13.16a.87.87,0,0,1-.87,1l-36.23-.3a.87.87,0,0,1-.86-.94Z"/><path class="cls-2" d="M344.06,363.91h0l-36.23-.3a2.17,2.17,0,0,1-1.6-.71,2.24,2.24,0,0,1-.57-1.66l.14-1.57a2.19,2.19,0,0,1,1.59-1.91c.88-.25,2.95-1.92,4.62-3.27a45.31,45.31,0,0,1,4.1-3.07c5.38-3.29,11.06-4,14.82-4.52,3-.4,9.11-.5,11.6-.53h0a2.18,2.18,0,0,1,2.17,1.94l1.52,13.16a2.18,2.18,0,0,1-.55,1.71A2.15,2.15,0,0,1,344.06,363.91ZM308.33,361l35.22.29L342.14,349c-2.3,0-8.12.14-10.88.5-3.53.46-8.88,1.16-13.78,4.16a42,42,0,0,0-3.82,2.88,24.75,24.75,0,0,1-5.26,3.65Zm33.76-12.36Z"/><path class="cls-1" d="M308.85,359.76a.87.87,0,0,1,.35-.69,42.17,42.17,0,0,1,10.54-5.56c6.64-2.4,11.4-1.79,17.33-3.22a43.53,43.53,0,0,0,6.92-2.16.86.86,0,0,1,1.18.56c.48,1.8,1.47,5.63,2,8.65s.95,6.49,1.13,7.93a.86.86,0,0,1-.6.94,51,51,0,0,1-11.32,1.71,69.88,69.88,0,0,1-18.81-2c-2.3-.56-5.83-1.79-7.26-2l-.71-.13a.88.88,0,0,1-.72-.86Z"/><path class="cls-2" d="M332.22,369.32a75.52,75.52,0,0,1-16.54-2.1c-1.11-.27-2.45-.68-3.74-1.07s-2.75-.84-3.44-1l-.71-.13A2.18,2.18,0,0,1,306,362.9v-3.13a2.2,2.2,0,0,1,.87-1.76,44.3,44.3,0,0,1,10.89-5.74,43.32,43.32,0,0,1,10.8-2.23,50.29,50.29,0,0,0,6.67-1,40.85,40.85,0,0,0,6.7-2.09,2.19,2.19,0,0,1,3,1.44c.53,2,1.5,5.75,2,8.78s1,6.63,1.15,8a2.19,2.19,0,0,1-1.54,2.38,52,52,0,0,1-11.62,1.76C334,369.29,333.1,369.32,332.22,369.32Zm-23.59-6.8.34.06c.84.15,2.18.56,3.74,1,1.26.38,2.56.78,3.6,1a68.13,68.13,0,0,0,18.42,2,51.59,51.59,0,0,0,10.63-1.55c-.2-1.53-.62-4.64-1.08-7.5-.43-2.67-1.27-6-1.8-8a49.16,49.16,0,0,1-6.65,2,53.25,53.25,0,0,1-7,1.09,41.13,41.13,0,0,0-10.19,2.08,41.74,41.74,0,0,0-10,5.24Z"/><rect class="cls-1" x="302.05" y="357.39" width="6.61" height="7.13" rx="1.96"/><path class="cls-2" d="M306.7,365.85H304a3.29,3.29,0,0,1-3.28-3.29v-3.21a3.28,3.28,0,0,1,3.28-3.28h2.69a3.28,3.28,0,0,1,3.29,3.28v3.21A3.29,3.29,0,0,1,306.7,365.85ZM304,358.72a.63.63,0,0,0-.63.63v3.21a.64.64,0,0,0,.63.64h2.69a.64.64,0,0,0,.64-.64v-3.21a.63.63,0,0,0-.64-.63Z"/></g></g></svg>