<svg xmlns="http://www.w3.org/2000/svg" viewBox="0 0 361.16 122.93"><defs><style>.cls-1{fill:#00b7c2;}</style></defs><g id="Capa_2" data-name="Capa 2"><g id="Layer_1" data-name="Layer 1"><path class="cls-1" d="M64.84,61.56c-.22-6,.21-33,.21-40.52,0-4.4-.11-8.81.11-13.11.11-5.48.43-5.16,4.94-5.16,3.12,0,16,0,19.24-.11s4-.21,7.2-.32c1.94,0,2.48.32,2.69,2,.32,3.12,0,6.34.22,9.46.1,2-.54,1.94-2.58,2.15l-15.16.11c-1.61.11-2,.43-2.15,2.15a65.77,65.77,0,0,0-.43,13c.11,1.4.32,1.61,1.83,1.61,4.51-.32,6.66.33,11.28,0,1.19-.1,2.37-.21,3.55-.21,1.83,0,2.47.64,2.69,2.47l.32,3.23c0,2.25-.21,2.36-.21,4.62s-1.51,3.76-3.66,3.44H81.5c-2.15,0-2.37.75-2.37,3,0,4.19-.11,9.46-.11,13.54,0,5.05-.75,4.41,4.09,4.3,2.9,0,10.1.21,11.61.11,2.15-.11,4.62,1.07,4.62,4.62a41.93,41.93,0,0,0,.11,5.37c0,3.23-.76,4.41-2.91,4.84a35.26,35.26,0,0,1-5.8.32c-5.8.22-11.61-.21-17.41,0a28.47,28.47,0,0,1-6.67-.64c-1.07-.22-1.39-.54-1.39-1.72-.22-3.44-.43-6.88-.54-10.32-.11-2.8,0-5.59,0-8.28Z"/><path class="cls-1" d="M121.37,75.53c0,4.2.86,8.07-1.5,8.07-3.12,0-5,.1-8,.1-.75,0-1.61-.1-2.36-.1-1.29,0-1.51-.33-1.51-1.72,0-4.73.22-37.62.22-50.09-.11-8.17-.32-16.44-.11-24.72V5.78A2.67,2.67,0,0,1,111.05,3c3.66,0,5.7,0,8.6.1,3.33.11,6.56-.21,9.89,0a19,19,0,0,1,13.65,7c4.62,5.7,6.23,13.43,5.16,20.53s-5.59,11.93-10.75,16.55c-.22.32-1.83,1.07-1.61,1.5.21,1,6.66,13.44,7.63,15.59C145,67,151.14,78.44,152,81.66c.32,1.18,0,2-1.39,2l-11.83-.1c-.64,0-1.4.21-1.83-.43-.32-.33-1.5-3.77-2-5C131,70.05,127.28,61.67,123,53.29a.7.7,0,0,0-.75-.54c-.43,0-.64.64-.75,1C121.37,55.11,121.37,72.74,121.37,75.53Zm0-41.91s.11,3.33.11,5.05c.11,2.58,3.11,2,4.73,1.61a10.44,10.44,0,0,0,6.45-4.51c2.9-5.05,3.33-14.08-2-17.74-1.82-1.29-6-2.79-8.06-1.29-1.5,1.19-1,4.41-1.07,6Z"/><path class="cls-1" d="M214.77,43.72A67.12,67.12,0,0,1,212.19,61c-1.93,6.78-5.16,12.9-11,16.88a28.43,28.43,0,0,1-14.08,5.7c-.75,0-1.4.1-2.15.1s-1.29-.1-2-.1a29.22,29.22,0,0,1-14.19-5.7c-5.7-4-9-10.1-10.86-16.88a63.07,63.07,0,0,1-2.58-17.3c0-7.09.54-14.29,2.8-21,4-11.5,14.94-19.67,26.87-19.88,11.93.21,22.89,8.38,27,19.88C214.23,29.43,214.77,36.63,214.77,43.72ZM200.91,31.79c-1.29-5.91-3.87-11.72-8.82-15.26A10.11,10.11,0,0,0,189.3,15a10.33,10.33,0,0,0-4.3-.86,9.84,9.84,0,0,0-4.19.86,8.81,8.81,0,0,0-2.8,1.51c-5,3.54-7.63,9.35-8.81,15.26a55.56,55.56,0,0,0-.64,19.78c1.07,5.91,3.22,13.86,8.81,16.87A17.46,17.46,0,0,0,185,70.7a18,18,0,0,0,7.74-2.26c5.59-3,7.74-11,8.81-16.87A55.56,55.56,0,0,0,200.91,31.79Z"/><path class="cls-1" d="M269.26,80.37c0,3.23-1.18,3.12-3.33,3.12-3.22,0-7.74.54-8.7-.54-.86-.75-16.77-39.12-19-44-.21-.43-.75-1.5-1.18-1.29s-.32,1-.32,1.4c-.11,3.76.54,36.22.54,41.38,0,2.58-.11,3-2.26,3H229.6a30.92,30.92,0,0,0-4.51.11c-1.07,0-1.61-.33-1.72-1.4V73.71c.22-9,0-62.56,0-66.53,0-3.44,1-4.09,4.41-4.09,2.36-.1,4.73-.1,7.09-.1a1.44,1.44,0,0,1,1.61,1.07c2.9,6.77,15.27,37.83,17.2,41.6.32.75,1.5,3.76,2.15,4.08h.11c.43-.43.32-2.58.32-3.22,0-1.62-.86-39.34-.86-40.1,0-1.07-.32-2,.21-2.79.33-.43,1.72-.54,2.26-.64,3-.22,6.56.1,9.57,0,1.5,0,1.39,1.07,1.72,2.47S269.26,78.54,269.26,80.37Z"/><path class="cls-1" d="M294,55.87c0,5.15.33,24.82.22,25.58-.54,1.39-1.61,1.72-2.9,1.82-3.55.11-6.88.11-10.43.33a1.21,1.21,0,0,1-1.29-1.08,32.35,32.35,0,0,1-.11-4.51c.22-4.3-.21-23.86-.32-28.16s.22-34.07.22-44.61c0-2,.86-2.58,2.9-2.47,3.12,0,4.51,0,7.63.11,2.15.11,3.76-.11,3.76,4,0,3.77.22,7.85.22,11.61C293.77,30.61,293.66,43.61,294,55.87Z"/><path class="cls-1" d="M361.16,43.72A67.55,67.55,0,0,1,358.58,61c-1.94,6.78-5.16,12.9-11,16.88a28.47,28.47,0,0,1-14.08,5.7c-.76,0-1.4.1-2.15.1s-1.29-.1-2.05-.1a29.19,29.19,0,0,1-14.18-5.7c-5.7-4-9-10.1-10.86-16.88a63.07,63.07,0,0,1-2.58-17.3c0-7.09.54-14.29,2.8-21,4-11.5,14.94-19.67,26.87-19.88,11.93.21,22.89,8.38,27,19.88C360.62,29.43,361.16,36.63,361.16,43.72ZM347.29,31.79c-1.29-5.91-3.87-11.72-8.81-15.26a12.7,12.7,0,0,0-7.09-2.37,9.88,9.88,0,0,0-4.2.86,8.87,8.87,0,0,0-2.79,1.51c-5,3.54-7.63,9.35-8.81,15.26a55.79,55.79,0,0,0-.65,19.78c1.08,5.91,3.23,13.86,8.82,16.87a17.46,17.46,0,0,0,7.63,2.26,18,18,0,0,0,7.74-2.26c5.58-3,7.73-11,8.81-16.87A55.79,55.79,0,0,0,347.29,31.79Z"/><path class="cls-1" d="M22.22,117.31a2.13,2.13,0,1,1-2.12,2.13,2.13,2.13,0,0,1,2.12-2.13m0-1.35a3.49,3.49,0,1,0,3.49,3.48A3.48,3.48,0,0,0,22.22,116Z"/><path class="cls-1" d="M15.83,103.33a2.13,2.13,0,1,1-2.12,2.13,2.13,2.13,0,0,1,2.12-2.13m0-1.36a3.49,3.49,0,1,0,3.49,3.49A3.48,3.48,0,0,0,15.83,102Z"/><path class="cls-1" d="M33.71,99.74a1.7,1.7,0,1,1-1.7,1.7,1.7,1.7,0,0,1,1.7-1.7m0-1.09a2.79,2.79,0,1,0,2.79,2.79,2.79,2.79,0,0,0-2.79-2.79Z"/><path class="cls-1" d="M70.73,26.54H60.45C59.23,14.78,53.84,0,31.93,0c-4.59,0-9.31.13-13.78.13-1,0-2.29-.13-3.19.51s-.64,12.12-.51,16.08c0,1,0,4.63.05,9.82H0v4.59H14.51c0,2,0,4.09,0,6.31H0V42H14.53c0,12.5,0,27.09,0,37.66h0v22.56h2.55V88a.25.25,0,0,1,.24-.25h3.34A.26.26,0,0,1,21,88v28.27h2.54V95.75l1.94,0,1.1,0v7a.25.25,0,0,0,.25.24h4.8V100.4H29.32a.25.25,0,0,1-.25-.25V89.5c.2-8.94-.07-25.13-.07-26.33,0-1.79,3.57-1.41,4.59-1.41,16.7,0,23.92-9.4,26.26-19.73H70.73V37.44H60.58c.13-1.35.19-2.69.19-4,0-.73,0-1.5,0-2.3h10ZM29.13,15.82c.38-1.4,2-1.4,3.32-1.27,6.7.46,10.79,5.85,12,12H29.07c0-3.39,0-6.44.06-8.16A16.8,16.8,0,0,1,29.13,15.82ZM41,44.79a13.56,13.56,0,0,1-10.21,4.34A2,2,0,0,1,29,47.21c0-1.4,0-2.8.13-4.21,0-.23,0-.56,0-1H42.8A11.53,11.53,0,0,1,41,44.79Zm3.29-7.35H29.1c0-1.9,0-4.08,0-6.31H44.84A30.49,30.49,0,0,1,44.29,37.44Z"/></g></g></svg>