<svg xmlns="http://www.w3.org/2000/svg" viewBox="0 0 170.26 144.66"><defs><style>.cls-1{fill:#faef4c;}</style></defs><g id="Capa_2" data-name="Capa 2"><g id="Layer_1" data-name="Layer 1"><path class="cls-1" d="M136.84,22.07c-.87-.87-.82-.28-1-.35C137.39,23.07,136.88,22,136.84,22.07Z"/><path class="cls-1" d="M150.18,36.71l-.31-.23a28.81,28.81,0,0,1,1.65,2.43C151.14,38.14,150.63,37.43,150.18,36.71Z"/><path class="cls-1" d="M155,54.47a4.88,4.88,0,0,0,.11-1.87c-.08-.76-.18-1.66-.37-2.58s-.43-1.89-.64-2.83a26.59,26.59,0,0,1-.65-2.64,5.47,5.47,0,0,0,0-.57l-1-1.25.53,1.45.46,1.55c.15.53.31,1.06.46,1.59l.36,1.6.33,1.55c.07.52.13,1,.2,1.49A17.21,17.21,0,0,1,155,54.47Z"/><path class="cls-1" d="M153.33,64.27c.17-.29.16.24.16.3s.07-.36.1-2.56l-.09.41A17.74,17.74,0,0,1,153.33,64.27Z"/><path class="cls-1" d="M153.5,62.42c.09-1.92-.3,1.24,0,0Z"/><path class="cls-1" d="M152.4,71.25l.16-1.27.09-1.27c-.12.25-.27.93-.42,1.43s-.27.84-.23.42C151.57,73.12,151.83,72.64,152.4,71.25Z"/><path class="cls-1" d="M152.35,73.72c.1-.43.14-.88.21-1.32A2.86,2.86,0,0,0,152.35,73.72Z"/><path class="cls-1" d="M152.93,69.61c-.09.94-.25,1.86-.37,2.79.18-.33.41-.33.2-1.27C152.9,71.39,152.86,70.81,152.93,69.61Z"/><path class="cls-1" d="M153.29,68.06c.41-1.38.69-3.23.6-.64.28-2.44.22-3.5.09-3.33a3.91,3.91,0,0,0-.28,1.14C153.61,65.9,153.47,66.85,153.29,68.06Z"/><path class="cls-1" d="M155.72,55.39c0-.66.07-1.32.08-2l-.42-1.67a13.33,13.33,0,0,1,.21,2.18C155.6,54.75,155.62,55.45,155.72,55.39Z"/><path class="cls-1" d="M146.88,86c.06.2.74-.59,1-.68l.62-1.78-.87,1.54C147.31,85.58,147,86,146.88,86Z"/><path class="cls-1" d="M147.87,85.31l-1.07,2.63C148,85.7,148.09,85.24,147.87,85.31Z"/><path class="cls-1" d="M153,74.35c.14-.77.21-1.56.3-2.34s.19-1.56.22-2.35c-.19,1.85-.39,3.73-.75,5.57Z"/><path class="cls-1" d="M141.33,95.16l.63-1.5c-.41.86-.77,1.76-1.22,2.61C140.94,95.91,141.15,95.54,141.33,95.16Z"/><path class="cls-1" d="M137,100.83c.56-1.07-1.43.92-.73-.14-1.22,1.51-2.19,2.87-3.06,4.11A42.77,42.77,0,0,1,137,100.83Z"/><path class="cls-1" d="M131.63,106.81c.52-.61,1-1.28,1.56-2A23.45,23.45,0,0,0,131.63,106.81Z"/><path class="cls-1" d="M144.3,92.08a6.51,6.51,0,0,0-1.55,1.65c.32-.22.64-.46.95-.7Z"/><path class="cls-1" d="M143.73,93l0,0c-.66,1-1.17,1.69-1.37,2C142.5,94.76,143,94.18,143.73,93Z"/><path class="cls-1" d="M144.45,91.85l-.15.23A.27.27,0,0,0,144.45,91.85Z"/><path class="cls-1" d="M150.3,81.36c-.11.41-.24.93-.37,1.43s-.3.95-.37,1.28c-.15.66,0,.75.83-.73C150.6,82.11,149.7,83.83,150.3,81.36Z"/><path class="cls-1" d="M145.62,90.93l1.58-2.6c-.12,0-.51.41-.23-.38C146.55,89,146.07,89.93,145.62,90.93Z"/><path class="cls-1" d="M145,92.26c.22-.44.47-.88.67-1.33-.19.32-.41.63-.62.94Z"/><path class="cls-1" d="M135.5,103.34a27.08,27.08,0,0,1-2.86,3.31,51.9,51.9,0,0,0,3.7-3.72C136.4,102.65,136.74,102,135.5,103.34Z"/><path class="cls-1" d="M139.75,98.51l-.16.24C139.73,98.63,139.83,98.53,139.75,98.51Z"/><path class="cls-1" d="M120.52,117.2l.25-.1a.34.34,0,0,1,0-.1Z"/><path class="cls-1" d="M136.59,102.76a9.75,9.75,0,0,0,1.74-2.24c-.58.78-1.26,1.56-2,2.41C136.32,103.05,136.33,103.09,136.59,102.76Z"/><path class="cls-1" d="M128.52,110c.56-.39,1.19-.86,1.81-1.37A10,10,0,0,0,128.52,110Z"/><path class="cls-1" d="M139.22,99l.11-.16C139,99.13,139.06,99.12,139.22,99Z"/><path class="cls-1" d="M139.22,99c-.37.55-.63,1-.89,1.5.48-.64.9-1.24,1.26-1.77C139.46,98.85,139.33,99,139.22,99Z"/><path class="cls-1" d="M118.15,122.25c0-.45,2.6-2.79,5.22-4.37,2.18-2.08-.15-1.82-2.6-.78,0,.18.13.3-2.17,2.32,1-.45,5.66-3.75,3.84-1.9-3.09,2.64-2.71,1.93-4.42,2.94.82-.31-.12.6-1.12,1.58s-2.11,2-1.54,2l2.76-2.29C118.23,121.85,117.29,122.76,118.15,122.25Z"/><path class="cls-1" d="M125.3,113.5l.92-.84a27.88,27.88,0,0,1-3.64,2.35c-1.51,1.43-1.77,1.8-1.8,2q2.44-1.86,4.81-3.82Z"/><path class="cls-1" d="M130.38,108.93c-.41,1-2.55,3.1-.87,2.21,2.68-2.51,1.65-2,3.1-3.65-4.19,4.16,1.07-1.32-2.17,1.45l2.2-2.29c-.77.72-1.56,1.37-2.31,2l.12-.08,0,0h0c.22-.13.3-.17.07,0l-.08.09a.56.56,0,0,1-.09.29c-1.29,1.11-.26.11.09-.29,0,0,0-.08,0-.1h0q-2.05,2.11-4.23,4.11A50.9,50.9,0,0,0,130.38,108.93Z"/><path class="cls-1" d="M149.88,86.59c-.12.15-.14.13-.17.13C149.58,87.09,149.54,87.24,149.88,86.59Z"/><path class="cls-1" d="M148.54,88.67a7.78,7.78,0,0,1,.84-2c.67-1,.18.09.33.09.29-.81,1-2.82-.3-.49l-.15.4a18.43,18.43,0,0,1-3,4.09A9.57,9.57,0,0,0,148.54,88.67Z"/><path class="cls-1" d="M140.24,99.79l-1.48,2-1.55,1.93,1.93-1.66-.25,0C140.74,99.86,140.14,100.16,140.24,99.79Z"/><polygon class="cls-1" points="119.95 117.38 120.2 116.63 118.31 118.84 119.95 117.38"/><polygon class="cls-1" points="114.82 121.23 114.79 120.79 113.54 121.96 114.82 121.23"/><path class="cls-1" d="M163.41,42.09l.72,1.36C163.81,42.8,163.58,42.39,163.41,42.09Z"/><path class="cls-1" d="M157.7,32.55l-.31-.1C157.78,32.8,158,32.92,157.7,32.55Z"/><path class="cls-1" d="M5.76,73.62c.7-2,1.72-4.07,1.26-3.93-.18.18-.37.35-.54.53C6.28,71.64,6,72.7,5.76,73.62Z"/><path class="cls-1" d="M78.19,2.53l-.64,0-1.36.61Z"/><path class="cls-1" d="M79.48.6a25.33,25.33,0,0,1,2.89,0q-.48,0-1.2-.06A10.11,10.11,0,0,0,79.48.6Z"/><path class="cls-1" d="M160,100.17c-.17.59-.38,1.16-.57,1.74C160.9,99.53,160,100.45,160,100.17Z"/><path class="cls-1" d="M54.91,139.11c-.86-.22-1.61-.54-2.3-.77s-1.32-.44-1.92-.61C52.68,138.53,54.26,139.39,54.91,139.11Z"/><path class="cls-1" d="M157.58,40.38c.48.71.74,1,.81.93C157.89,40.57,157.57,40.17,157.58,40.38Z"/><path class="cls-1" d="M45.86,136c.28.15.56.27.85.41,1.25.36,2.47.82,4,1.29A22.54,22.54,0,0,0,45.86,136Z"/><path class="cls-1" d="M9.19,62.31c0-.15.07-.34.11-.48S9.21,62,9.19,62.31Z"/><path class="cls-1" d="M45.7,15.68c-.52.26-1.36.7-2.15,1.14C44,16.65,44.58,16.25,45.7,15.68Z"/><path class="cls-1" d="M92.71,134.19c1.21-.57.18-.13,0,0Z"/><path class="cls-1" d="M99.34,132.75c-.23.18-.4.33-.39.43A1.25,1.25,0,0,1,99.34,132.75Z"/><path class="cls-1" d="M32.77,132l-.1-.06C33,132.2,32.92,132.15,32.77,132Z"/><path class="cls-1" d="M94.62,133.51l-1.61.61A16.18,16.18,0,0,0,94.62,133.51Z"/><path class="cls-1" d="M94.29,133.45l1.08-.48C95.49,132.84,95.33,132.86,94.29,133.45Z"/><path class="cls-1" d="M91,135c.69-.31,1.35-.58,2-.84-.25.09-.36.11-.3.07Z"/><path class="cls-1" d="M74.41,143.6l-.29-.07C72.69,143.57,73.31,143.6,74.41,143.6Z"/><path class="cls-1" d="M16.12,39.53l-.08.14.14-.16Z"/><path class="cls-1" d="M18.87,35.27a14.35,14.35,0,0,1-2.69,4.24l1.95-.63Z"/><path class="cls-1" d="M169,67.8c.16-1.21.21-2.42.3-3.64.81,4.37.34,7.63,1,4.17-.64-.28-.61-3.83-1-7.36a37.81,37.81,0,0,0-.81-4.83c-.36-1.32-.71-2.21-1-2.26l-.31-2.38c.16.67.26.75.41,1.42a7.77,7.77,0,0,0-1.32-4,18.31,18.31,0,0,1-2.29-4.7c-.73-1.93-1.19-3.34-.45-2.11-.76-1.36-1.55-2.69-2.43-4-.64-1.18-.28-1,.36.17a48.8,48.8,0,0,0-4-5.85l.06,0c-.77-.7-2.48-2.23-3.32-3-1.07-1.43.71.56.51.13q-1.41-1.35-2.91-2.58c-.9-1.34,1.67.63,3.43,2.71a6.51,6.51,0,0,0-2.44-3.19,56.15,56.15,0,0,1-5.34-4.74c1,.72,2,1.46,2.93,2.24-1.31-2.13-3.73-3.78-6.88-6.54.34.37,1.87,1.83,2.83,2.93s1.36,1.84-.39.67a19.83,19.83,0,0,0-4.12-2.82c.25-.39-1.64-1.55-4-3l.48-.42c-2.61-1.41-2.58-1-4.21-1.67-2.81-1.71-3.19-2.44-3.68-3.17-4.64-2.61,2.86,2.39-2.72-.46a48.8,48.8,0,0,0-11.82-4.89c-2.84-1.26.64-.17-.35-.71-.91-.18-1.86-.25-2.79-.38-.64-.2-.39-.28-.26-.32-2.28-.49-.37.52-3.88-.36-.54.13-2.29-.45-4.5-1.14a28.46,28.46,0,0,0-3.56-.94A19,19,0,0,0,96.8.66c-1.09-.29.57-.31.25-.58C95.5.06,94.39,0,93.52,0L91.43.16c-1.19.11-2.24.16-4.75.54L82.37.6c1.6.12,1.39.38.37.7-.52.16-1.23.34-2,.51s-1.67.49-2.52.72c1.12.07,2.07.07,2.7.13-1.81.33-3.6.76-5.39,1.14-.67,0-.17-.29.69-.68l-1,.3c-2,.08-1.06-.42.3-1l2,.07c1.3-.58,2.54-1.19,2.21-1.5a18.42,18.42,0,0,1-1.8.45c.34-.16.56-.29.39-.32a7.22,7.22,0,0,0-1.65.49l-1.38-.48-.26.32c-.62.06-1.24.09-1.85.2L71.39,2l-3.66.66a32.46,32.46,0,0,0-3.58,1.68L60.5,6.16c-1.25.7-2.57,1.47-4,2.25L54.1,9.61c-.79.48-1.64,1-2.53,1.48,1.59-1.39,0-.94-.15-1.52a7.93,7.93,0,0,0,1.91-.73c.7-.36,1.5-.7,2.33-1.14l2.67-1.35a15.9,15.9,0,0,1,3-1.2,5.43,5.43,0,0,1-1.65.35c-.11,0,.1-.25.36-.4-2.33,1.19-4.66,2.33-6.91,3.59-.06-.52-1.62.43-3.52,1.19.9.07-.31.88-2.06,1.88s-3.9,2.49-5.15,3.44c-.35-.16.11-.84,3.42-2.81a11.5,11.5,0,0,0-4,2.75,13.85,13.85,0,0,1-3.71,3A5.62,5.62,0,0,0,39.47,17,32.21,32.21,0,0,1,36,19.7c-1.19.83-2,1.45-1.63.91L35,20c-1.2,1-2.7,2.26-4.27,3.62l-1.19,1-1.12,1.15-2.17,2.27c-.69.74-1.37,1.44-1.95,2.13s-1.05,1.37-1.47,1.94a7.13,7.13,0,0,0-1.32,2.3,3.16,3.16,0,0,1-.1-1.64,105.41,105.41,0,0,0-4.54,10.34c0-.58-.91-.37-1.45-.53s-.8-.75.58-2.95c-.48.57-1,1.21-1.64,2a33,33,0,0,0-2,3.32c.6-.83,2.21-1.57,1.51-.39-2.63,2.81-1.77,2-4.6,5.77.84-1.28,1,.73-.08,2.83,0-.41-1.06-.3-.76-1.13-.31,1-.55,2-.8,2.93S7.21,57,7,58c.38-1.45-.74-.61-1.54.53C5.85,58,3.64,63.38,3.34,65l1-2.36a17.81,17.81,0,0,0-1.15,6.63c0,.86.06,1.7,0,2.73a37.85,37.85,0,0,1-.37,3.9c-.06-.41-.32-.94-.66-1s-.76.49-1,2.2c.1.4.27,1,.49,1.88s.56,1.84.85,3,.72,2.35,1,3.64c.2.64.4,1.3.57,2s.32,1.35.52,2l-.12,1.13a33.2,33.2,0,0,0,1.35,4.13,24.68,24.68,0,0,1-1.46-2.54c-.5-1.08-1.08-2.36-1.59-3.73a37.57,37.57,0,0,1-1.26-4.21c-.16-.7-.31-1.38-.46-2s-.17-1.25-.25-1.8c-.3,2.56-.46.71-.28,4.58C.34,86.53,0,83,0,81.89A49.66,49.66,0,0,0,.61,91c.3-.25.7,1.45,1.29,3.1s1.25,3.25,1.45,3a45.2,45.2,0,0,1-2.7-9.42c.32-.23.83,1.15,1.63,3.26s1.76,5,2.79,7.9c.32,1.58-1.5-.7-1.64-.53.24.35.84,1.74,1.48,3.06s1.27,2.61,1.33,2.9Q5.49,103.14,4.8,102a17.15,17.15,0,0,0,2.29,4.13,26.16,26.16,0,0,1,2.62,4.51c.7,1.26,1.76,4,2.22,4-.79-2.37.86-4,2.19-3,.13.2,1,1.81,2,3.51s2.21,3.49,2.62,4.19c.58,1-.28.65-1.14.17s-1.71-1-1.26-.11c.19,0,1.18.83,1.62,1.17.92,1.2-.83-.1,1.47,2.26.76,0,4.76,4.68,1.46.75a24.7,24.7,0,0,1,2.45,2.31c.32.33.64.69,1.07,1.11s1,.87,1.72,1.46c-.33-.54.56-.28,1.82.34a47.37,47.37,0,0,1,4.34,2.32c-.24,0,.21.62.44.89l3.68,2.39,3.28,1.89A35.29,35.29,0,0,0,43,137.93l1.8.84,2,.76c.47.35,3.19,1.5,1.91,1.36a23.14,23.14,0,0,1,3.54.64c3.38,1.54-4.08-1.06-1.58.35a9.88,9.88,0,0,1,2.89.34c1.53.19,3.34.51,4.68.59a11.16,11.16,0,0,0-3.62-.95l-1.35-.21L52,141.37l-2.37-.46c.11-.39,1.35-.46,3.3-.29,1,.13,2.15.12,3.45.26.65.05,1.33.16,2,.19l2.24.12c2.44.25,3,.28,3,.45s-.48.27,0,.24c1.15.07,2.15.11,3,.12s1.6-.12,2.25-.19a17.19,17.19,0,0,0,3.07-.6,43.49,43.49,0,0,1,7-1.32c3.07-.17.36,1,1.1,1.18a19.24,19.24,0,0,1-2.67.59,17.43,17.43,0,0,1-2.24.25c-1.4.06-2.63.08-4,.24l3.38-.14c-.63.16-1.62.35-2.64.5a13.81,13.81,0,0,1-2.81.1,16.08,16.08,0,0,0,3.7,0l2.85-.29c1-.17,2.11-.35,3.23-.58a99.49,99.49,0,0,0,12.8-3.81c1.13-.65,3.09-1.74,2-1.49-.69.33-1.37.67-2.07,1-1.06.2-.1-.31.74-.82s1.6-.94.25-.44c2.68-1.5,5.52-3.4,9.35-5.32l1,.1a14.42,14.42,0,0,0-3.59,1.82c1.45-1.06,6.15-2.57,7.41-4.29L104,129.66c2.48-1.83,5.31-4.39,8.53-6.4-1.75.5-.68.57-3.29,1.5,1.2-.3-.81,1-2.71,2.25s-3.67,2.26-1.85,1.66c-2.76.75-4.27,2.17-7.76,3.21.18.12,1.3-.23-1.55,1.09a5.55,5.55,0,0,1-.55.46l-.2.08.17-.06c-.11.09-.12.1.06,0a8.42,8.42,0,0,1,1.57-.44,18.86,18.86,0,0,1-3.53,2.13c-1.48.77-3,1.43-3.78,1.86-1.78.59.66-.49-.37-.31l-2.27,1.19c-.38-.3-4.92.83-.84-.73-1.25.39-2.49.81-3.75,1.12-2.28.41-5.36.94-7.25,1.36-1.82.11-4.54,1-3,.48-1,.18-2,.18-3,.28a23.86,23.86,0,0,1-3,.13l0-.11c-1.5-.09-3-.07-4.58-.26l-2.34-.21c-.79-.09-1.57-.26-2.37-.38s-1.6-.27-2.4-.47-1.59-.44-2.39-.69a28.45,28.45,0,0,1-4.72-1.94,26.6,26.6,0,0,1-3.06-1.13c-.56-.23-1.16-.49-1.81-.78s-1.3-.71-2-1.14l-.41-.64a30.88,30.88,0,0,1-4.28-2.64c-.75-.47-1.41-1-2-1.39a5.61,5.61,0,0,0-1.31-.76,21.25,21.25,0,0,0-2.28-2.34c-1-.94-2.31-1.94-3.52-3.12l-1.89-1.71c-.63-.58-1.19-1.2-1.76-1.77l-1.58-1.66c-.48-.52-.87-1-1.22-1.51l-.48.18c-1-1.24-2-2.41-3-3.75S14,109.6,12.86,108l-.23.44c-2.15-2.73-4.19-7.78-5.82-12.82a10.19,10.19,0,0,1,.91,2.51C7.38,96.51,7,95,6.52,93.38s-.78-3.17-1.19-4.76a26.59,26.59,0,0,1-.48-9.33,14,14,0,0,1,.33-3.49,2.38,2.38,0,0,0,0,.36c0-.15.06-.37.09-.59.17-.62.34-1.26.52-1.95-.19.58-.36,1.14-.47,1.63.07-.55.16-1.25.24-2s.24-1.59.36-2.42l.59-.59.07-.38c.57-1.54.11-1.33-.44-.56.13-.83.24-1.61.28-2.22,1.06-1.08,1-4.31,2.45-5.75a6.76,6.76,0,0,1,.45-1.76c.28-.82.6-1.82,1-2.79.72-2,1.52-3.88,1.36-4.47.12,0,.4-.43,0,.4.45-.83.95-1.64,1.41-2.44s.85-1.61,1.2-2.39l.92-.38c.47-1.32,1-2.6,1.56-3.91,1.77-1.85,2.56-2.54,1.45-.29,1.49-2.61,2.17-3.64,2.77-4.57s1.18-1.74,2.6-3.91l.13.44c1.18-1.39,2.68-4,3.75-4.52a39.29,39.29,0,0,0,3.8-3.35c1.68-1.5,3.8-3.22,6-5.14l3.64-2.65,1.86-1.35c.64-.42,1.31-.8,2-1.2l3.85-2.28c1.28-.68,2.57-1.22,3.76-1.76-1.16,0,0-.48,1.4-1s3.19-1.07,3.19-1.57c.67,0,2.06-.42.6.45,1.2-.58,2.27-1,3.24-1.44s1.91-.6,2.75-.89a28.25,28.25,0,0,0,4.86-1.9c.66.12-1,.64-.43.67a7.45,7.45,0,0,1,2.14-.6c.56,0-.69.4-1.47.71,5.2-1.29,5.57-2.27,5.83-3A14.56,14.56,0,0,0,80.5,3.2a5,5,0,0,1,1.26.26s0,.11-.34.17-.84.12-1.67.29c.24,0,.59-.09,1-.13l1.58-.07,3.92-.21,1-.07h1c.62,0,1.18,0,1.67,0,1,0,1.61-.12,1.67-.27a28.64,28.64,0,0,0,3.17.11l4.43.54a43.9,43.9,0,0,1,4.34.73l-1.13-.33a6.21,6.21,0,0,1,2.83.2l1.77.45c.65.19,1.36.45,2.19.67l-.12,0a53.26,53.26,0,0,0,5.28,1.79,24.37,24.37,0,0,1,5,2.24l-.2-.59c.52-.31,2,.51,3.93,1.66a60,60,0,0,0,6.14,3.58l-1.3-1c2.35.86,5.3,4.55,7.29,6,.41.36-.78-.33-1.45-.66,5.1,3.89,1-.1,5.12,2.39.54.76-1.38,0,1.2,1.89.57.57,2.61,1.67,4.78,3.17a23.3,23.3,0,0,1,5.74,5.18c-.47-.86-.95-1.72.69-.27A29.35,29.35,0,0,1,155,35.84a35.93,35.93,0,0,0,3.31,4.85c.14.4.16.57.12.62.34.53.74,1.27,1.2,2.07s.89,1.71,1.31,2.6c.84,1.76,1.53,3.47,2,4.15-.4,1.37.86,5.12,1.58,8.76s1,7,.3,7a55.77,55.77,0,0,1-.27,7.86l-.13-.22c-.71,5-.92,6.74-1,8.56-.41,1.11-.31.25-.36.13-1.14,3.52-1.92,5.39-2.57,7.15s-1.16,3.43-2.31,6.36l-.72.35a34,34,0,0,1-3.79,5.74c-2,2.7-4.69,5.74-7,8.54a1.66,1.66,0,0,1,.39-.72,49,49,0,0,1-10,8.61c-3.48,2.43-6.55,4.3-7.37,5.85-1.47,1.07-3,2.13-4.48,3.14,6.2-3.44-.53,1.2,2.13,0-2.37,1.52-6.59,3-3.6,1.34l.51-.18c.33-.7-1.63.31-3.73,1.34s-4.31,2.09-4.36,1.77c-12.5,6-25.93,9.33-38.68,8.93.49.26,1,.5,1.47.72-.75,0-1.5,0-2.25-.07s-1.49-.05-2.24-.14c-1.16-.3-1.52-.63,1.65-.42a17.9,17.9,0,0,0-5.46,0c-3.07-.62-2.42-.76-1.27-.71s2.84.09,1.9,0-1.7-.2-2.55-.35l.56.18c-1,0-1.65,0-2.44-.05a18.5,18.5,0,0,1-3.64-.72c-2.29-.82-1.07-.76-2-1.06,0,0-.28-.17-1.38-.48-1.76-.63-3.49-1.32-5.19-2.11.6.49,1.23.93,1.86,1.39-2.43-.68-4.85-2.19-2.74-.52-.78-.61-2.35-1.52-4.24-2.64s-4.08-2.5-6.17-4a54,54,0,0,1-8.56-7.17A39.88,39.88,0,0,1,27,114c.56.92.44,1.85-1.73-1.23.92.18,0-1.29-1.11-3.22a22.44,22.44,0,0,1-2.76-5.92c.35,1.32-.94-1-2-3.15s-2-4.27-1.61-2.14c-1.05-2.93.38-.36-.21-2.65a45.32,45.32,0,0,1-3.31-11.49A101.69,101.69,0,0,1,13.11,71c-.16-.14-.4,1.39-.67-.57l.45-2.39.54-2.37a8,8,0,0,0-.28-1.93,5.67,5.67,0,0,1,.4-3c-.2.44-.5,1.1-.4-.11a75.57,75.57,0,0,1,3.56-13,64.16,64.16,0,0,1,6.17-12.1A57.62,57.62,0,0,1,27,30.13c.7-.89,1.51-1.71,2.27-2.56s1.6-1.62,2.43-2.4a44.62,44.62,0,0,1,11.15-7.54c-1.11.47-1.33.51-1.07.29a11.72,11.72,0,0,1,1.8-1.1c-1.09.49-.17-.38-.49-.47a46.34,46.34,0,0,1,7.09-2.5A6,6,0,0,1,51.8,13c.78-.28,1.74-.52,2.67-.79s1.87-.39,2.6-.58a3.6,3.6,0,0,0,1.46-.48c-.78.15-1.56.28-2.33.49,1.48-.67.35-.84-1.2-1s-3.45,0-3.36-.52a14.55,14.55,0,0,1-3,1.17c-1.12.41-2.41.71-3.7,1.21A19.61,19.61,0,0,0,37.27,17c-1.23.61.79-.89.07-.66a21.82,21.82,0,0,1-2,1.88c-.43.35-.91.72-1.47,1.13S32.7,20.3,32,20.82l.24-.32A81.27,81.27,0,0,0,23.76,29,62,62,0,0,0,16.3,39.65l.78-.51C15.92,41.2,15.59,41.6,15,42.56c-.25,1.39.43-.14,1.21-1.64s1.64-3,1.38-1.72c-1.17,1.13-3.07,4.87-4.43,8.69s-2.2,7.65-2.95,8.59c-.64,3.61.71-.95.07,2.64-.16.3-.28.61-.42.91l.24,1c-.38,2.35-.77,3.53-1,3.6.08-.58.08-1.65.12-2.28C9,63.08,8.92,64,8.82,65s-.09,2-.11,3c0,2,.11,3.63.09,4.16,0-1.17.1-2.34.16-3.51a86,86,0,0,0,1.46,15.89,59.56,59.56,0,0,0,4.84,14.91l-.07-.76c1.58,3.29,2.21,4.59,2.82,6a37.43,37.43,0,0,0,3.5,6.27l-.2-.22c1,1.25,2.32,2.94,3.61,4.71-.7-.74-.24.1.19.87s.84,1.47-.1.51c1.3,1.51,2.17,2.39,2.75,3a10,10,0,0,0,1.16,1c.54.37.84.54,2.94,2.1.2.36.39.74.6,1.1a38.1,38.1,0,0,1,4.76,3.51c-2.71-1.85,1.6,2.05-1.47,0a33.55,33.55,0,0,0,7.88,6,25.17,25.17,0,0,1,5.45,3.53c1.94.46.37-.49-1.38-1.5S44,133.38,45,133.87c-.68-.62.09-.34,1.3.24s2.9,1.41,4,2a35.36,35.36,0,0,1,3.44,2.32,23.47,23.47,0,0,0,6.53,3.08c-.64-.21-.71-.16-1.35-.38,2.36,1.05,4.85,1.15,7.83,2.16,1.82-.25,4,.69,4.6,0-2-.22-4.1-.48-6.13-.89,3.5.55,6.82.24,12.51.85a23.48,23.48,0,0,1-3.36.31,12.26,12.26,0,0,0,2.48.16c.41,0,.82,0,1.24,0a11.28,11.28,0,0,1,1.28.06c-.13.19-.66.31-1.45.37s-1.84,0-3,0l-3.6-.27c-1.2-.13-2.36-.21-3.32-.25a16.3,16.3,0,0,0,4,.52c1.33.05,2.19.11,1.2.43a16.48,16.48,0,0,1,5-.15c.95,0,2,.05,3,0a19.65,19.65,0,0,0,3.29-.48l-.27.47c.73-.09,2.2-.51,3.53-.63l-2.35.85c3.66-.83,7.22-.53,10.67-1.59-7.34,1.55-1.75-.17-4.91.11,4.45-1.13,5.75-1.25,7.26-1.24s3.18,0,8-1.83c-1.28.57-5.06,1.36-3,.52,1-.25,2-.54,3-.83s1.94-.48,2.54-.6c6.3-2.59-1.14,0,1.45-1.37a6.29,6.29,0,0,0,2.7-1.05c.78-.49,1.6-1.1,2.89-1.81l.22.41c3.55-1.49,3.87-2,4.15-2.37s.44-.73,3.57-2.18l-2.28,1.93c1-.62,2.08-1.2,3.1-1.84l-.4.82a83.55,83.55,0,0,1,7.73-4.67c-.94.2,0-.94,2.81-2.85,2.06-1.12-.81,1.13,3.1-1.74a7.73,7.73,0,0,1-3.48,2.71c-.1.25-.74.84-.85,1.09a41.78,41.78,0,0,0,6.67-4.64c-.56.39-1.22.88-1.59,1.07,1.76-1.58,3.47-3.22,5.11-4.92.94-.61.39.1-.2.76,1-1,1.66-1.78,3.16-3.26-.15.63.26.87-1.88,3,1.62-1.59,3.15-3.27,4.63-5,.21-.11.89-.66,1.46-1.11s1-.78.74-.41a31.48,31.48,0,0,0,4.07-5.34c1.35-2.09,2.65-4.37,4.05-6.45a10.19,10.19,0,0,1,.76-1.7c2.3-4.07,4.5-7.76,5.66-13.28.52-1,1-1.92,1.49-2.9.83-4.33-1.75,4-.42-3.18.38-2.54.53-3,.74-3s.4.35.62-.54c0-2.64-.29-7.08-.07-11.82a15.31,15.31,0,0,1,.16,2.17C169,66.39,169,67.06,169,67.8ZM145.88,21.2c.88.55,2.68,1.63,3.08,2.33C147.71,23.18,147.18,22.4,145.88,21.2ZM70.47,3.11a11.09,11.09,0,0,1,3.18-.67A24.8,24.8,0,0,1,70.47,3.11ZM79,139.25l-.1,0a11.65,11.65,0,0,1-1.32.17C77.71,139.45,78.27,139.38,79,139.25Zm4.41-.94c.42-.2.37-.25.17-.26a9,9,0,0,1-2.37.76A5.4,5.4,0,0,0,83.43,138.31Zm-22.77-.55c.27.13.53.27.8.39C59.52,137.66,60.09,137.71,60.66,137.76Z"/><path class="cls-1" d="M79.3.83a.64.64,0,0,1,.46.18C80.15.87,80.15.78,79.3.83Z"/><path class="cls-1" d="M160.09,99.84,160,100a.43.43,0,0,0,0,.19Z"/><path class="cls-1" d="M17.44,121a7.7,7.7,0,0,1-1.06-1.59C16.28,119.39,16.44,119.84,17.44,121Z"/><path class="cls-1" d="M104.87,127.42c-.81.54-1.62,1.09-2.45,1.61a21,21,0,0,1,2.34-1.23C104.65,127.74,104.09,127.9,104.87,127.42Z"/><path class="cls-1" d="M127.36,114.64c.3-.33.7-.61,1-.93l-.23-.09C126.72,114.84,125.84,115.82,127.36,114.64Z"/><path class="cls-1" d="M108,127.26c.41.21,1.9-.92,3.58-2.15l-.3.21C111.47,124.52,109.76,125.93,108,127.26Z"/><path class="cls-1" d="M112,124.83c.52-.38,1-.76,1.58-1.1C113.62,123.41,112.88,124.13,112,124.83Z"/><path class="cls-1" d="M88.78,136.19c.93-.27.38-.69.94-.74.4-.44-1,.33-2,.85S86.35,137.24,88.78,136.19Z"/><polygon class="cls-1" points="110.11 127.41 109.22 127.42 108.44 128.38 110.11 127.41"/><path class="cls-1" d="M95.63,135.31c1-.43,2-.9,3-1.38-.08,0,.27-.28.72-.55C97.57,134.33,95.5,135.23,95.63,135.31Z"/><path class="cls-1" d="M99.39,133.38A22.62,22.62,0,0,0,101.7,132C101.2,132.3,100.12,132.92,99.39,133.38Z"/><path class="cls-1" d="M106.33,130l-.9.43c-.67.41-1.37.78-2.05,1.18C104.37,131.08,105.35,130.54,106.33,130Z"/><path class="cls-1" d="M61,142c-1.2-.13-2.41-.17-3.61-.36-.39.09.56.41,1.92.49C60.23,142.11,61.57,142.22,61,142Z"/><path class="cls-1" d="M72.08,143.45a4.32,4.32,0,0,1-1.66-.25l-.07.6A15.15,15.15,0,0,0,72.08,143.45Z"/><path class="cls-1" d="M61.27,143.48c-.37.12-5.43-.21-.73.35.2-.06,1.23,0,1.79,0,.27,0,.43,0,.31-.09Z"/><polygon class="cls-1" points="15.04 115.52 15.63 116.24 16.32 115.54 15.04 115.52"/><path class="cls-1" d="M1.51,69.41c-1.1,4.38.31,1.15-.59,5.11.08,1.07.72-3.24.76-2.14C2,69.7,2.39,68.33,1.51,69.41Z"/><path class="cls-1" d="M1.68,72.38c0,.44-.05.9-.06,1.39C1.68,73,1.68,72.62,1.68,72.38Z"/><path class="cls-1" d="M55,12.94c.88-.1,1.74-.25,2.61-.31-.57-.05-1.14,0-1.72,0Z"/><path class="cls-1" d="M59.93,11.4l.68.57,1.55-.68A10.18,10.18,0,0,1,59.93,11.4Z"/><path class="cls-1" d="M140.1,15.62h-.26a9.4,9.4,0,0,0,1.93,1.51Z"/><polygon class="cls-1" points="165.4 45.24 165.16 44.6 165.1 45.98 165.4 45.24"/><path class="cls-1" d="M169.24,78a20.08,20.08,0,0,0,.3-2.16c.09-.74.16-1.49.23-2.17C169.55,76.71,168.48,78.28,169.24,78Z"/></g></g></svg>