<svg xmlns="http://www.w3.org/2000/svg" viewBox="0 0 719.13 549.55"><defs><style>.cls-1{fill:#0b4d76;}.cls-2{fill:#00b7c2;}.cls-3{fill:#fcf7f2;}</style></defs><g id="Capa_2" data-name="Capa 2"><g id="Layer_1" data-name="Layer 1"><path class="cls-1" d="M27.6,548.05a1.48,1.48,0,0,1-1.16-.55,1.71,1.71,0,0,1-.35-.73l-.1-.59-.11-.56-.12-.55-.12-.55L25.5,544l-.15-.54-.16-.54-.17-.53-.18-.52-.19-.52-.42-1-.44-1-.49-1-.52-1-.56-.94-.59-.91-.63-.89-.65-.86-.7-.84-.72-.81-.75-.78-.78-.75-.81-.72-.84-.69-.87-.66-.89-.63-.92-.59-.94-.55-1-.52-1-.49-1-.44-1-.41-.51-.18-.52-.18-.53-.17-.54-.16L5.51,524,5,523.88l-.55-.13-.55-.12-.56-.11-.5-.08a1.39,1.39,0,0,1-.44-.13A1.51,1.51,0,0,1,1.5,522V27.6A1.5,1.5,0,0,1,2,26.45a1.71,1.71,0,0,1,.74-.36l.59-.1.56-.11.55-.11L5,25.64l.54-.14.54-.15.54-.16L7.18,25l.53-.18.52-.19,1-.42,1-.44,1-.49,1-.52.94-.56.91-.59L15,21l.87-.65.83-.7.81-.72.78-.75L19,17.4l.73-.82.69-.83.65-.87L21.7,14l.59-.92.55-.94.52-1,.49-1,.44-1,.41-1,.18-.51.18-.52.17-.53.16-.54.15-.54L25.68,5l.13-.55.11-.55L26,3.31l.09-.51a1.43,1.43,0,0,1,.19-.56A1.49,1.49,0,0,1,27.6,1.5H691.53a1.48,1.48,0,0,1,1.16.55,1.6,1.6,0,0,1,.35.73l.1.59.11.56.12.55.12.55.14.55.15.53.16.54.17.53.18.53.19.51.42,1,.44,1,.49,1,.52,1,.56.94.59.91.63.89.65.87.7.83.72.81.75.78.78.76.82.72.83.69.87.65.89.63.92.59.94.55,1,.52,1,.49,1,.44,1,.41.51.18.52.18.53.17.54.16.54.15.54.14.55.13.55.11.56.11.5.08a1.71,1.71,0,0,1,.44.13,1.51,1.51,0,0,1,.87,1.36V522a1.48,1.48,0,0,1-.55,1.16,1.6,1.6,0,0,1-.73.35l-.59.1-.56.11-.55.12-.55.13-.55.13-.53.15-.54.16-.53.17-.53.18-.51.19-1,.42-1,.44-1,.49-1,.52-.94.56-.91.59-.89.63-.87.66-.83.69-.81.72-.78.75-.75.79-.73.81-.69.84-.65.86-.63.89-.59.92-.55.94-.52,1-.49,1-.44,1-.41,1-.18.51-.18.53-.17.52-.16.54-.15.54-.14.54-.12.55-.12.56-.11.55-.09.51a1.33,1.33,0,0,1-.16.5,1.48,1.48,0,0,1-1.32.8Z"/><path class="cls-1" d="M57.17,3H691.53l0,0,.1.59.11.58.13.59.13.57.15.58.16.56.16.57.18.56.19.55.2.55.43,1.08.47,1.06.51,1,.55,1,.59,1,.62,1,.66.93.69.91.73.89.76.85.79.82.82.8.86.76.88.72.91.7.94.66,1,.62,1,.58,1,.55,1,.51,1.06.47,1.09.43.54.2.56.19.56.18.56.17.57.16.57.14.58.14.58.12.59.11.59.1h0V522l0,0-.59.1-.58.12-.59.12-.57.13-.58.15-.56.16-.57.17-.56.17-.55.19-.55.2-1.08.43-1.06.47-1,.51-1,.55-1,.59-1,.62-.93.66-.91.69-.89.73-.85.76-.82.79-.8.83-.76.85-.72.88-.7.91-.66.94-.62,1-.58,1-.55,1-.51,1-.47,1.06-.43,1.08-.2.55-.19.55-.18.56-.17.56-.16.57-.14.57-.14.58-.12.58-.11.59-.1.59H27.6l0,0-.1-.59-.11-.58-.13-.58-.13-.58-.15-.57-.16-.57-.16-.57-.18-.55-.19-.56-.2-.55-.43-1.08-.47-1.06-.51-1-.55-1-.59-1-.62-1-.66-.94-.69-.91-.73-.89-.76-.85-.79-.82-.82-.79-.86-.76L16.7,528l-.91-.7-.94-.65-1-.63-1-.58-1-.55-1-.51-1.06-.47-1.09-.43-.54-.2-.56-.19L7,522.89l-.56-.17-.57-.15-.57-.15-.58-.13-.58-.13-.59-.11L3,522H3V27.6l0,0,.59-.1.58-.11.59-.13.57-.13L6,27l.56-.16.57-.16.56-.18.55-.19.55-.2,1.08-.43,1.06-.47,1-.51,1-.55,1-.59,1-.62.93-.66.91-.69.89-.73.85-.76.82-.79.8-.82.76-.86.72-.88.7-.91.66-.94.62-1,.58-1,.55-1,.51-1,.47-1.06.43-1.09.2-.54.19-.56L26.66,7l.17-.56L27,5.91l.14-.57.14-.58.12-.58.11-.59L27.6,3H57.17m0-3H27.6A3,3,0,0,0,25,1.53a2.85,2.85,0,0,0-.35,1.09l-.08.44-.1.53-.11.52-.12.51-.13.52L24,5.65l-.16.51-.16.5-.16.49-.18.49-.39,1-.42,1-.46.94-.5.91-.52.89-.56.86-.59.85-.63.82-.65.79-.69.77-.71.74-.74.71-.77.68-.79.66-.82.62-.84.59-.87.56-.89.53-.91.49-.93.46-.95.42-1,.4-.47.17-.51.17-.5.16-.5.15-.51.14-.52.13-.52.12-.52.11-.53.11-.56.09a3,3,0,0,0-1.39.64A3.08,3.08,0,0,0,0,27.6V522a3,3,0,0,0,2.62,3l.44.07.52.1.53.11.52.13.51.13.51.14.51.15.5.16.5.17.48.17,1,.39,1,.43.93.46.91.49.89.53.87.56.84.59.82.62.79.65.77.69.74.71.71.74.68.77.66.79.62.82.59.84.56.87.53.89L22,539l.46.93.42,1,.4,1,.17.48.17.5.16.5.15.51.14.5.13.52.12.52.11.52.11.53.09.56a2.92,2.92,0,0,0,.65,1.4,3.1,3.1,0,0,0,2.34,1.13H691.53a3,3,0,0,0,3-2.62l.07-.43.1-.53.11-.53.12-.51.14-.52.14-.51.15-.51.16-.5.17-.5.17-.48.39-1,.43-.95.45-.94.5-.91.52-.89.56-.86.59-.84.63-.83.65-.79.69-.77.71-.74.74-.71.76-.68.8-.66.82-.62.84-.59.87-.56.89-.53.91-.49.93-.46,1-.42,1-.39.48-.18.5-.17.5-.16.51-.15.5-.14.52-.13.52-.12.52-.11.53-.1.56-.1a3,3,0,0,0,1.4-.64,3.11,3.11,0,0,0,1.13-2.35V27.6A3,3,0,0,0,717.56,25a2.9,2.9,0,0,0-1-.35l-.44-.07-.53-.1-.52-.11-.51-.12-.52-.13-.51-.15-.51-.15-.5-.16-.5-.17-.48-.17-1-.39-1-.42-.94-.46-.91-.5-.89-.52-.87-.56-.84-.59-.82-.63-.79-.65-.77-.69-.74-.71-.71-.74-.68-.77-.66-.79-.62-.82-.59-.84-.56-.87-.53-.89-.49-.91-.46-.93-.42-.95-.39-1-.18-.48-.17-.5-.16-.5-.15-.51-.14-.5L695,4.66l-.12-.52-.11-.52-.11-.53-.09-.56a3,3,0,0,0-.65-1.4A3.1,3.1,0,0,0,691.53,0Z"/><path class="cls-2" d="M57.17,3v9H684.68l0,.06.43,1.09.06.16.07.16.48,1.06.07.16.07.16.51,1,.08.16.09.15.54,1,.09.16.09.15.58,1,.09.15.1.15.62,1,.09.15.1.14.66.94.1.14.11.14.69.91.11.13.11.14.72.88.11.13.12.13.76.86.11.13.12.12.8.82.12.13.12.12.82.79.13.12.13.12.85.76.13.11.13.11.89.73.13.11.14.1.91.7.14.1.14.1.94.66.14.1.15.1,1,.62.15.09.15.09,1,.59.15.09.15.08,1,.55.16.08.16.08,1,.51.16.08.16.07,1.06.47.17.07L706,34l1.08.43h0V515.1l-.06,0-1.08.43-.17.06-.16.08-1.06.47-.16.07-.16.08-1,.51-.16.07-.15.09-1,.55-.16.08-.15.09-1,.58-.15.09-.14.1-1,.62-.15.1-.14.1-.94.65-.14.1-.14.11-.91.69-.13.11-.14.11-.88.72-.13.11-.13.12-.86.76-.13.12-.12.12-.82.79-.13.12-.12.12-.79.82-.12.13-.12.13-.76.85-.11.13-.11.14-.73.88-.11.13-.1.14-.7.91-.1.14-.1.14-.66.94-.1.14-.1.15-.62,1-.09.15-.09.15-.59,1-.09.15-.08.15-.55,1-.08.15-.08.16-.51,1-.08.15-.07.17-.47,1.06-.07.16-.07.16-.43,1.08v0H34.45l0-.06L34,536.41l-.06-.17-.07-.16L33.38,535l-.07-.16-.07-.16-.51-1-.08-.15-.09-.16-.54-1-.09-.16-.09-.15-.58-1-.09-.15-.1-.14-.62-1-.09-.14-.1-.15-.66-.93-.1-.15-.11-.13-.69-.92-.11-.13-.11-.14-.72-.88-.11-.13-.12-.13-.76-.86-.11-.12-.12-.13-.8-.82-.12-.13-.12-.12-.82-.79-.13-.12-.13-.11-.85-.76-.13-.12-.13-.11-.89-.73-.13-.11-.14-.1-.91-.7-.14-.1-.14-.1-.94-.66-.14-.1-.15-.09-1-.63-.15-.09-.15-.09-1-.59-.15-.09-.15-.08-1-.55-.15-.08-.16-.08-1-.51-.16-.08-.16-.07-1.06-.47-.17-.07-.16-.07L12,515.09h0V34.45l.06,0L13.14,34l.17-.06.16-.07,1.06-.47.16-.08.16-.07,1-.52.16-.07.15-.09,1-.54.16-.09.15-.09,1-.58.15-.09.15-.1,1-.62.15-.09.14-.1L21,29.6l.14-.1.14-.11.91-.69.13-.11.14-.11.88-.72.13-.11.13-.12.86-.76.13-.11.12-.12.82-.8.13-.12.12-.12.79-.82.12-.13.12-.13.76-.85.11-.13.11-.13.73-.89.11-.13.1-.14.7-.91.1-.14.1-.14.66-.94.1-.14.1-.15.62-1,.09-.15.09-.15.59-1,.09-.15.08-.15.55-1,.08-.15.08-.16.51-1,.08-.16.07-.16.47-1.06.07-.17.07-.16L34.46,12v0h22.7V3m0,0H27.6l-.1.59-.11.59-.12.58-.14.58L27,5.91l-.16.57L26.66,7l-.18.56-.19.56-.2.54-.43,1.09-.47,1.06-.51,1-.55,1-.58,1-.62,1-.66.94-.7.91-.72.88-.76.86-.8.82-.82.79-.85.76-.89.73-.91.69-.93.66-1,.62-1,.59-1,.55-1,.51-1.06.47-1.08.43-.55.2-.55.19-.56.18-.57.16L6,27l-.58.15-.57.13-.59.13-.58.11-.59.1,0,0V522H3l.59.1.59.11.58.13.58.13.57.15.57.15.56.17.56.18.56.19.54.2,1.09.43,1.06.47,1,.51,1,.55,1,.58,1,.63.94.65.91.7.88.73.86.76.82.79.79.82.76.85.73.89.69.91.66.94.62,1,.59,1,.55,1,.51,1,.47,1.06.43,1.08.2.55.19.56.18.55.16.57.16.57.15.57.13.58.13.58.11.58.1.59,0,0H691.53l.1-.59.11-.59.12-.58.14-.58.14-.57.16-.57.17-.56.18-.56.19-.55.2-.55.43-1.08.47-1.06.51-1,.55-1,.58-1,.62-1,.66-.94.7-.91.72-.88.76-.85.8-.83.82-.79.85-.76.89-.73.91-.69.93-.66,1-.62,1-.59,1-.55,1-.51,1.06-.47,1.08-.43.55-.2.55-.19.56-.17.57-.17.56-.16.58-.14.57-.14.59-.12.58-.12.59-.1,0,0V27.6h0l-.59-.1-.59-.11-.58-.12-.58-.14-.57-.14-.57-.16-.56-.17-.56-.18-.56-.19-.54-.2-1.09-.43-1.06-.47-1-.51-1-.55-1-.58-1-.62-.94-.66-.91-.7-.88-.72-.86-.76-.82-.8-.79-.82-.76-.85-.73-.89-.69-.91-.66-.93-.62-1-.59-1-.55-1-.51-1-.47-1.06-.43-1.08-.2-.55-.19-.55-.18-.56-.16-.57L692.18,6,692,5.37l-.13-.57-.13-.59-.11-.58-.1-.59,0,0Z"/><path class="cls-3" d="M57.17,3V9H686.82l.15.46v.06l0,.06.19.55,0,0,0,.06.2.55,0,.08,0,.09.43,1.08,0,.11,0,.1.47,1.06,0,.11.05.11.51,1,0,.11.05.1.55,1,.06.1.06.1.58,1,.06.1.07.1.62,1,.06.1.07.09.66.94.06.1.07.09.7.91.07.09.07.09.73.88.07.09.08.09.76.85.08.09.08.08.79.82.08.09.08.08.82.79.09.08.08.08.86.76.08.07.09.08.88.72.09.08.1.07.91.69.09.07.09.07.94.66.1.06L701,28l1,.62.1.06.1.06,1,.59.1.06.1.05,1,.55.1.06.11.05,1,.51.1.05.11.05,1.06.47.11.05.11,0,1.08.43.08,0,.09,0,.54.2.06,0,.06,0,.55.19.06,0,.05,0,.43.13V517.24l-.46.15-.06,0-.06,0-.55.19h-.06l-.05,0-.55.2-.08,0-.08,0-1.09.43-.11,0-.1.05-1.06.47-.11.05-.11,0-1,.51-.11.05-.1.06-1,.54-.1.06-.1.06-1,.59-.1.06-.1.06-1,.62-.1.06-.09.07-.94.66-.1.07-.09.07-.91.69-.09.07-.09.07-.88.73-.09.07-.09.08-.85.76-.09.08-.08.08-.82.79-.09.08-.08.08-.79.83-.08.08-.08.08-.76.86-.07.08-.08.09-.72.89-.08.09-.07.09-.69.91-.07.09-.07.09-.66.94-.06.1-.07.1-.62,1-.06.1-.06.1-.59,1-.06.1,0,.1-.55,1-.06.11-.05.1-.51,1,0,.11,0,.1-.47,1.06-.05.11,0,.11-.43,1.08,0,.08,0,.09-.2.55,0,0,0,.06L687,540l0,.06,0,0-.13.43H32.31l-.15-.46,0-.06v0l-.19-.56,0,0,0-.06-.2-.55,0-.08,0-.08-.43-1.08,0-.11-.05-.11-.47-1.06,0-.11-.06-.11L30,535l-.05-.11-.05-.1-.55-1-.06-.11-.06-.1-.58-1-.06-.1-.07-.1-.62-1-.06-.1-.07-.09-.66-.94-.06-.09-.07-.1-.7-.91-.07-.09-.07-.09-.73-.88-.07-.09-.08-.09-.76-.85-.08-.09-.08-.08-.79-.82L23.5,526l-.08-.08-.82-.8-.09-.08-.08-.07-.86-.76-.08-.08-.09-.07-.88-.73-.09-.08-.09-.07-.92-.69-.09-.07-.09-.07-.94-.65-.1-.07-.09-.06-1-.63-.1-.06-.09-.06-1-.59-.11,0-.1-.06-1-.55-.1-.05-.11-.06-1-.51-.1-.05-.11,0-1.06-.47-.11,0-.11-.05-1.08-.43-.08,0-.09,0-.54-.2-.06,0-.06,0-.55-.19-.06,0-.05,0L9,517.22V32.31l.46-.15h.06l.05,0,.56-.19,0,0,.06,0,.55-.2.08,0,.09,0L12,31.2l.11,0,.1-.05,1.06-.47.11,0,.11-.06,1-.51.1-.05.1-.05,1-.55.1-.06.1-.06,1-.58.1-.06.1-.07,1-.62.1-.06.09-.07.94-.66.1-.06.09-.07.91-.7.09-.07.09-.07.88-.73.09-.07.09-.08.85-.76.09-.07.08-.08.82-.8.09-.08.08-.08.79-.82.08-.09.08-.08.76-.86.07-.08.08-.09.72-.88.08-.09.07-.09.69-.92.07-.09.07-.09.66-.94.06-.1.07-.09.62-1,.06-.1.06-.1.59-1,.06-.11.05-.1.55-1,.06-.11.05-.1.51-1,.05-.1.05-.11.47-1.06.05-.11,0-.11.43-1.08,0-.08,0-.09.2-.55,0,0,0-.06.19-.55,0-.06,0-.05L32.33,9H57.17V3m0,0H27.6l-.1.59-.11.59-.12.58-.14.58L27,5.91l-.16.57L26.66,7l-.18.56-.19.56-.2.54-.43,1.09-.47,1.06-.51,1-.55,1-.58,1-.62,1-.66.94-.7.91-.72.88-.76.86-.8.82-.82.79-.85.76-.89.73-.91.69-.93.66-1,.62-1,.59-1,.55-1,.51-1.06.47-1.08.43-.55.2-.55.19-.56.18-.57.16L6,27l-.58.15-.57.13-.59.13-.58.11-.59.1,0,0V522H3l.59.1.59.11.58.13.58.13.57.15.57.15.56.17.56.18.56.19.54.2,1.09.43,1.06.47,1,.51,1,.55,1,.58,1,.63.94.65.91.7.88.73.86.76.82.79.79.82.76.85.73.89.69.91.66.94.62,1,.59,1,.55,1,.51,1,.47,1.06.43,1.08.2.55.19.56.18.55.16.57.16.57.15.57.13.58.13.58.11.58.1.59,0,0H691.53l.1-.59.11-.59.12-.58.14-.58.14-.57.16-.57.17-.56.18-.56.19-.55.2-.55.43-1.08.47-1.06.51-1,.55-1,.58-1,.62-1,.66-.94.7-.91.72-.88.76-.85.8-.83.82-.79.85-.76.89-.73.91-.69.93-.66,1-.62,1-.59,1-.55,1-.51,1.06-.47,1.08-.43.55-.2.55-.19.56-.17.57-.17.56-.16.58-.14.57-.14.59-.12.58-.12.59-.1,0,0V27.6h0l-.59-.1-.59-.11-.58-.12-.58-.14-.57-.14-.57-.16-.56-.17-.56-.18-.56-.19-.54-.2-1.09-.43-1.06-.47-1-.51-1-.55-1-.58-1-.62-.94-.66-.91-.7-.88-.72-.86-.76-.82-.8-.79-.82-.76-.85-.73-.89-.69-.91-.66-.93-.62-1-.59-1-.55-1-.51-1-.47-1.06-.43-1.08-.2-.55-.19-.55-.18-.56-.16-.57L692.18,6,692,5.37l-.13-.57-.13-.59-.11-.58-.1-.59,0,0Z"/><path class="cls-2" d="M57.17,3V6H689.1v.11l.14.58v0l.15.57v.06l.17.56V8l.17.56v.06l.19.55v.05l.2.55,0,.05v0l.43,1.08,0,.05,0,.06.47,1.06,0,.05,0,0,.51,1,0,0,0,.06.55,1,0,.05,0,.05.58,1,0,.05,0,.05.62,1,0,0,0,.05.66.94,0,.05,0,0,.69.91,0,.05,0,0,.72.88,0,.05,0,0,.76.86,0,0,0,0,.79.82,0,.05,0,0,.82.79,0,0,0,0,.85.76.05,0,0,0,.88.73.05,0,0,0,.91.69.05,0,0,0,.93.66.05,0,0,0,1,.62,0,0,.05,0,1,.59,0,0,.06,0,1,.55,0,0,0,0,1,.51,0,0,.06,0,1.06.47,0,0,.06,0,1.08.43,0,0h0l.55.2H710l.55.19h.06l.55.18h.06l.57.16h.05l.57.16h.06l.57.15h.08V519.52H713l-.58.14h-.05l-.57.16h-.06l-.56.17h-.06l-.56.18h-.06l-.55.18h-.05l-.55.2,0,0,0,0-1.08.43-.05,0-.06,0-1.06.47,0,0-.05,0-1,.51,0,0-.05,0-1,.55,0,0-.05,0-1,.59,0,0,0,0-1,.62,0,0-.05,0-.94.65-.05,0,0,0-.91.7-.05,0,0,0-.89.73,0,0,0,0-.86.76,0,0,0,0-.82.79,0,0,0,0-.79.83,0,0,0,0L696,530l0,0,0,0-.73.88,0,0,0,0-.69.92,0,0,0,0-.66.94,0,0,0,.05-.62,1,0,.05,0,0-.59,1,0,0,0,.05-.55,1,0,0,0,.06-.51,1,0,.06,0,0-.47,1.06,0,.05,0,.06-.43,1.08,0,0v0l-.2.55v.06l-.19.55V541l-.18.56v0l-.16.57v0l-.16.57v.06l-.15.57v.08H30v-.11l-.14-.57v-.06l-.15-.57v-.06l-.17-.56v-.06l-.17-.56v0l-.19-.56v0l-.2-.55,0,0v0l-.43-1.09,0,0,0-.06-.47-1.06,0-.05,0,0-.51-1,0,0,0,0-.55-1,0-.05,0,0-.59-1,0-.05,0,0-.62-1,0,0,0,0-.66-.94,0,0,0-.05-.69-.91,0,0,0,0-.72-.88,0,0,0,0-.76-.85,0-.05,0,0-.79-.82,0,0,0,0-.82-.8-.05,0,0,0-.85-.76,0,0-.05,0-.88-.73-.05,0,0,0-.91-.69-.05,0,0,0-.93-.66,0,0-.05,0-1-.63,0,0-.05,0-1-.58,0,0-.06,0-1-.55-.05,0,0,0-1-.51-.05,0-.06,0L11,521.15l-.05,0-.06,0-1.08-.43,0,0h0l-.55-.2H9.12l-.55-.19H8.51L8,520h0l-.56-.17H7.28l-.57-.16H6.65l-.57-.15H6V30h.12l.57-.14h0l.57-.15h.06l.56-.17H8l.56-.17h.06l.55-.19h.05l.55-.2.05,0h0l1.08-.43.05,0,.06,0,1.06-.47.05,0,0,0,1-.51,0,0,.06,0,1-.55.05,0,.05,0,1-.59.05,0,.05,0,1-.62,0,0,.05,0,.94-.66.05,0,0,0,.91-.69.05,0,0,0,.89-.72,0,0,0,0,.86-.76,0,0,0,0,.82-.79.05,0,0,0,.79-.82,0-.05,0,0,.76-.85,0,0,0-.05.73-.88,0-.05,0,0,.69-.91,0-.05,0,0,.66-.93,0,0,0-.05.62-1,0,0,0-.05.59-1,0,0,0-.06.55-1,0-.05,0,0,.51-1,0-.05,0-.06L28.41,11l0-.05,0-.06.43-1.08,0,0v0l.2-.55v0l.19-.56V8.51L29.52,8V7.9l.16-.57v0l.16-.57V6.65L30,6.08V6H57.17V3m0,0H27.6l-.1.59-.11.59-.12.58-.14.58L27,5.91l-.16.57L26.66,7l-.18.56-.19.56-.2.54-.43,1.09-.47,1.06-.51,1-.55,1-.58,1-.62,1-.66.94-.7.91-.72.88-.76.86-.8.82-.82.79-.85.76-.89.73-.91.69-.93.66-1,.62-1,.59-1,.55-1,.51-1.06.47-1.08.43-.55.2-.55.19-.56.18-.57.16L6,27l-.58.15-.57.13-.59.13-.58.11-.59.1,0,0V522H3l.59.1.59.11.58.13.58.13.57.15.57.15.56.17.56.18.56.19.54.2,1.09.43,1.06.47,1,.51,1,.55,1,.58,1,.63.94.65.91.7.88.73.86.76.82.79.79.82.76.85.73.89.69.91.66.94.62,1,.59,1,.55,1,.51,1,.47,1.06.43,1.08.2.55.19.56.18.55.16.57.16.57.15.57.13.58.13.58.11.58.1.59,0,0H691.53l.1-.59.11-.59.12-.58.14-.58.14-.57.16-.57.17-.56.18-.56.19-.55.2-.55.43-1.08.47-1.06.51-1,.55-1,.58-1,.62-1,.66-.94.7-.91.72-.88.76-.85.8-.83.82-.79.85-.76.89-.73.91-.69.93-.66,1-.62,1-.59,1-.55,1-.51,1.06-.47,1.08-.43.55-.2.55-.19.56-.17.57-.17.56-.16.58-.15.57-.13.59-.12.58-.12.59-.1,0,0V27.6h0l-.59-.1-.59-.11-.58-.12-.58-.14-.57-.14-.57-.16-.56-.17-.56-.18-.56-.19-.54-.2-1.09-.43-1.06-.47-1-.51-1-.55-1-.58-1-.62-.94-.66-.91-.7-.88-.72-.86-.76-.82-.8-.79-.82-.76-.85-.73-.89-.69-.91-.66-.93-.62-1-.59-1-.55-1-.51-1-.47-1.06-.43-1.08-.2-.55-.19-.55-.18-.56-.16-.57L692.18,6,692,5.37l-.13-.57-.13-.59-.11-.58-.1-.59,0,0Z"/><circle class="cls-2" cx="120.31" cy="123.71" r="6.47"/><path class="cls-2" d="M120.28,134.58A10.87,10.87,0,0,1,113.87,115a28.64,28.64,0,0,1-5.23-12.83,3.3,3.3,0,0,1,.51-2.34L146.5,42.47A1.38,1.38,0,0,1,149,43l.41,2.27c.15.84.39,2,.67,3.49,1.75,8.88,3.53,18.51,3.49,24.08A49.61,49.61,0,0,1,164.35,69c2.82-.7,5.75-1.3,8.58-1.87,2.5-.51,5.08-1,7.52-1.62l2.24-.54a1.39,1.39,0,0,1,1.45.54,1.41,1.41,0,0,1,0,1.55L146.8,124.33a3.35,3.35,0,0,1-1.94,1.4,28.65,28.65,0,0,1-14,.37,10.87,10.87,0,0,1-1.5,3.54,10.72,10.72,0,0,1-6.86,4.7A11,11,0,0,1,120.28,134.58Zm-4-17.91a8.11,8.11,0,1,0,10.83,11.47,8.18,8.18,0,0,0,1.29-3.87,1.37,1.37,0,0,1,.76-1.14,1.39,1.39,0,0,1,1.21,0,25.76,25.76,0,0,0,13.8-.05.64.64,0,0,0,.32-.25L180,68.41c-2.14.49-4.35.94-6.49,1.38-2.81.57-5.7,1.16-8.46,1.84a42.47,42.47,0,0,0-11.84,4.56l-.22.16-.15.14a2.56,2.56,0,0,0-.36.43l-23.26,35.69a1.38,1.38,0,0,1-2.31-1.5l23.27-35.69a4.89,4.89,0,0,1,.55-.72c.77-4.64-2-18.62-3.31-25.44-.18-.9-.33-1.71-.47-2.4l-35.47,54.42a.58.58,0,0,0-.09.4A25.87,25.87,0,0,0,117,114.46a1.37,1.37,0,0,1,0,1.79A1.44,1.44,0,0,1,116.28,116.67Z"/><circle class="cls-2" cx="107.07" cy="211.33" r="6.47"/><path class="cls-2" d="M107.09,222.2a10.93,10.93,0,0,1-1.39-.09A10.88,10.88,0,0,1,96.29,210a10.67,10.67,0,0,1,1.17-3.7A28.74,28.74,0,0,1,87.15,197a3.34,3.34,0,0,1-.57-2.32l8.6-67.87a1.38,1.38,0,0,1,2.48-.64L99,128c.5.69,1.24,1.67,2.12,2.84,5.45,7.23,11.26,15.12,13.65,20.15a49.74,49.74,0,0,1,8-8.16c2.22-1.87,4.6-3.68,6.9-5.44,2-1.54,4.12-3.14,6-4.73l1.78-1.47a1.4,1.4,0,0,1,1.54-.14,1.35,1.35,0,0,1,.7,1.38l-8.6,67.87a3.34,3.34,0,0,1-1.13,2.11,28.71,28.71,0,0,1-12.4,6.42,10.57,10.57,0,0,1,.2,3.84,10.86,10.86,0,0,1-10.76,9.51Zm-6.72-15.45a8.12,8.12,0,0,0,5.68,12.63,8.12,8.12,0,0,0,9.07-7,8.23,8.23,0,0,0-.52-4,1.39,1.39,0,0,1,.18-1.35,1.36,1.36,0,0,1,1.08-.54,25.88,25.88,0,0,0,12.4-6.07.54.54,0,0,0,.18-.36l8.18-64.45c-1.71,1.38-3.5,2.75-5.24,4.07-2.27,1.74-4.63,3.53-6.8,5.36a42.09,42.09,0,0,0-8.67,9.27,1.83,1.83,0,0,0-.13.24,1,1,0,0,1-.08.18,3.39,3.39,0,0,0-.13.55l-5.35,42.27a1.38,1.38,0,0,1-2.74-.35l5.36-42.27A5.31,5.31,0,0,1,113,154c-1.33-4.52-9.91-15.9-14.09-21.45l-1.46-2L89.32,195a.55.55,0,0,0,.09.4,25.6,25.6,0,0,0,10.63,9,1.38,1.38,0,0,1,.76,1.62A1.31,1.31,0,0,1,100.37,206.75Z"/><circle class="cls-2" cx="135.53" cy="295.91" r="6.47"/><path class="cls-2" d="M135.52,306.79a10.87,10.87,0,0,1-10.85-11.39,28.63,28.63,0,0,1-13.26-4,3.34,3.34,0,0,1-1.5-1.86l-21-65.11a1.36,1.36,0,0,1,.43-1.48,1.38,1.38,0,0,1,1.54-.15l2,1.11L96,225.57c8,4.23,16.6,8.91,20.9,12.44a49.5,49.5,0,0,1,3.79-10.79c1.23-2.63,2.61-5.28,4-7.84,1.18-2.26,2.39-4.6,3.47-6.86l1-2.08a1.38,1.38,0,0,1,2.56.17l21,65.11a3.34,3.34,0,0,1-.13,2.39,28.71,28.71,0,0,1-8.5,11.07,10.67,10.67,0,0,1,1.81,3.39,10.87,10.87,0,0,1-7,13.69A11,11,0,0,1,135.52,306.79Zm-8-12.18a8.11,8.11,0,1,0,15.73-1.19,8.09,8.09,0,0,0-2.19-3.44,1.37,1.37,0,0,1,.34-2.25A25.75,25.75,0,0,0,150.05,277a.58.58,0,0,0,0-.41l-19.93-61.82c-1,2-2,4-3,5.91-1.32,2.54-2.69,5.16-3.89,7.74a42,42,0,0,0-3.91,12.06,2.64,2.64,0,0,0,0,.28,1.34,1.34,0,0,1,0,.2,2.17,2.17,0,0,0,.12.55L132.49,282a1.37,1.37,0,0,1-.88,1.73,1.38,1.38,0,0,1-1.74-.89l-13.08-40.54a5.69,5.69,0,0,1-.2-.89c-3.12-3.52-15.71-10.19-21.85-13.44l-2.16-1.15,20,61.82a.51.51,0,0,0,.25.32,25.4,25.4,0,0,0,13.47,3.68h0a1.37,1.37,0,0,1,1.36,1.16A1.3,1.3,0,0,1,127.52,294.61Z"/><circle class="cls-2" cx="200.98" cy="357.95" r="6.47"/><path class="cls-2" d="M201,368.82a10.86,10.86,0,0,1-7.85-3.35,10.62,10.62,0,0,1-2.14-3.24,28.64,28.64,0,0,1-13.69,2.17,3.26,3.26,0,0,1-2.16-1L127.82,314a1.38,1.38,0,0,1-.26-1.52,1.33,1.33,0,0,1,1.32-.81l2.3.12,3.56.14c9,.32,18.82.78,24.23,2.08a49.85,49.85,0,0,1-1.29-11.37c-.05-2.9,0-5.89.12-8.78.08-2.54.15-5.18.13-7.69v-2.3a1.39,1.39,0,0,1,.86-1.29,1.38,1.38,0,0,1,1.51.33l47.31,49.41a3.32,3.32,0,0,1,.93,2.21,28.8,28.8,0,0,1-2.81,13.67,11,11,0,0,1,3.11,2.26A10.88,10.88,0,0,1,201,368.82Zm-7.77-8.54a7.94,7.94,0,0,0,1.91,3.28,8.11,8.11,0,1,0,8.25-13.36,1.37,1.37,0,0,1-.68-2.17,25.84,25.84,0,0,0,3.09-13.46.6.6,0,0,0-.17-.37l-44.92-46.92c0,2.2-.07,4.45-.13,6.64-.09,2.85-.17,5.81-.13,8.65a42,42,0,0,0,1.75,12.56,2.77,2.77,0,0,0,.1.26,1.62,1.62,0,0,1,.1.18,3.46,3.46,0,0,0,.34.44l29.47,30.77a1.39,1.39,0,0,1,0,2,1.38,1.38,0,0,1-2,0l-29.47-30.77a6.33,6.33,0,0,1-.57-.71c-4.34-1.81-18.58-2.31-25.52-2.56l-2.44-.09,44.93,46.92a.59.59,0,0,0,.36.18,25.88,25.88,0,0,0,13.72-2.57,1.37,1.37,0,0,1,1.74.43A1.42,1.42,0,0,1,193.21,360.28Z"/><circle class="cls-2" cx="592.27" cy="123.77" r="6.47"/><path class="cls-2" d="M592.29,134.64a11.63,11.63,0,0,1-2.26-.23,10.79,10.79,0,0,1-6.86-4.7,11,11,0,0,1-1.51-3.58,28.75,28.75,0,0,1-13.85-.4,3.34,3.34,0,0,1-1.94-1.4L528.51,67A1.37,1.37,0,0,1,530,64.93l2.24.54,3.46.79c8.83,2,18.37,4.25,23.44,6.52a50,50,0,0,1,.83-11.4c.49-2.86,1.13-5.78,1.75-8.61.54-2.49,1.11-5.06,1.55-7.53l.41-2.27a1.38,1.38,0,0,1,2.51-.5l37.36,57.31a3.34,3.34,0,0,1,.5,2.34A28.68,28.68,0,0,1,598.74,115a11,11,0,0,1,2.64,2.79,10.88,10.88,0,0,1-9.09,16.81Zm-8.09-10a8.11,8.11,0,0,0,6.4,7.09,8.11,8.11,0,0,0,5.45-15.12,1.35,1.35,0,0,1-.73-1.15,1.39,1.39,0,0,1,.47-1.11,25.78,25.78,0,0,0,5.52-12.65.58.58,0,0,0-.09-.4L565.75,46.87c-.41,2.15-.89,4.35-1.36,6.49-.61,2.8-1.24,5.68-1.72,8.48a42.16,42.16,0,0,0-.61,12.67,1.4,1.4,0,0,0,.06.28l.06.19a2.6,2.6,0,0,0,.25.5l23.27,35.69a1.38,1.38,0,0,1-2.31,1.5L560.13,77a5.05,5.05,0,0,1-.43-.79c-3.94-2.59-17.84-5.72-24.62-7.24l-2.38-.54,35.48,54.41a.63.63,0,0,0,.33.25,25.81,25.81,0,0,0,14,0,1.37,1.37,0,0,1,1.64.76A1.32,1.32,0,0,1,584.2,124.62Z"/><circle class="cls-2" cx="605.49" cy="211.34" r="6.47"/><path class="cls-2" d="M605.47,222.21a10.86,10.86,0,0,1-10.55-13.38,28.61,28.61,0,0,1-12.29-6.4,3.25,3.25,0,0,1-1.13-2.11l-8.61-67.87a1.37,1.37,0,0,1,.7-1.38,1.4,1.4,0,0,1,1.54.14l1.78,1.47c.66.54,1.61,1.3,2.76,2.21,7.08,5.65,14.67,11.84,18.25,16.11a49.57,49.57,0,0,1,5.72-9.9c1.69-2.36,3.54-4.71,5.33-7,1.58-2,3.21-4.07,4.68-6.1l1.36-1.86a1.36,1.36,0,0,1,1.46-.52,1.38,1.38,0,0,1,1,1.16l8.6,67.87a3.34,3.34,0,0,1-.57,2.32,28.62,28.62,0,0,1-10.4,9.32,11,11,0,0,1,1.16,3.66,10.9,10.9,0,0,1-10.81,12.24Zm-7.61-13.63a8.24,8.24,0,0,0-.42,3.78,8.11,8.11,0,1,0,16.1-2,8.16,8.16,0,0,0-1.51-3.79,1.36,1.36,0,0,1,.75-2.14,25.75,25.75,0,0,0,10.48-9,.6.6,0,0,0,.1-.4l-8.17-64.44c-1.31,1.76-2.7,3.53-4.05,5.25-1.77,2.25-3.6,4.57-5.26,6.88a42,42,0,0,0-6.07,11.14,2.68,2.68,0,0,0-.07.27l0,.2a2.63,2.63,0,0,0,0,.56l5.36,42.26a1.38,1.38,0,1,1-2.73.35L597,155.22a5.59,5.59,0,0,1,0-.91c-2.42-4-13.56-12.93-19-17.26l-1.9-1.52L584.23,200a.6.6,0,0,0,.19.37,25.79,25.79,0,0,0,12.55,6.1,1.37,1.37,0,0,1,1.14,1.38A1.41,1.41,0,0,1,597.86,208.58Z"/><circle class="cls-2" cx="577.04" cy="295.88" r="6.47"/><path class="cls-2" d="M577,306.75a10.87,10.87,0,0,1-10.34-14.21,11.1,11.1,0,0,1,1.84-3.42,28.76,28.76,0,0,1-8.42-11,3.34,3.34,0,0,1-.12-2.39l21-65.11a1.35,1.35,0,0,1,1.22-1,1.38,1.38,0,0,1,1.33.78l1,2.08c.37.77.91,1.86,1.56,3.18,4,8.12,8.27,16.94,9.69,22.33a48.91,48.91,0,0,1,9.39-6.54c2.53-1.42,5.2-2.76,7.78-4.06,2.28-1.15,4.63-2.33,6.83-3.54l2-1.11a1.38,1.38,0,0,1,1.54.15,1.35,1.35,0,0,1,.43,1.48l-21,65.11a3.3,3.3,0,0,1-1.5,1.86,28.54,28.54,0,0,1-13.36,4A10.9,10.9,0,0,1,577,306.75Zm-5.73-16.61a8.12,8.12,0,0,0,3.25,13.46,8.12,8.12,0,0,0,10.21-5.23,8.26,8.26,0,0,0,.24-4.07,1.38,1.38,0,0,1,1.59-1.63h.17A25.74,25.74,0,0,0,599.89,289a.51.51,0,0,0,.25-.32l20-61.81c-1.93,1-4,2-5.9,3-2.56,1.28-5.2,2.61-7.67,4a41.79,41.79,0,0,0-10.23,7.51,1.18,1.18,0,0,0-.18.21c0,.06-.07.11-.1.16a2.45,2.45,0,0,0-.24.52l-13.08,40.55a1.38,1.38,0,0,1-2.62-.85l13.08-40.54a5.29,5.29,0,0,1,.35-.84c-.47-4.69-6.8-17.46-9.88-23.69-.4-.82-.77-1.55-1.07-2.18l-19.94,61.82a.58.58,0,0,0,0,.41,25.81,25.81,0,0,0,8.78,10.85,1.38,1.38,0,0,1,.44,1.75A1.35,1.35,0,0,1,571.3,290.14Z"/><circle class="cls-2" cx="511.61" cy="357.87" r="6.47"/><path class="cls-2" d="M511.61,368.74a10.86,10.86,0,0,1-4.7-20.66,28.77,28.77,0,0,1-2.77-13.58,3.32,3.32,0,0,1,.93-2.21l47.31-49.41a1.37,1.37,0,0,1,2.37,1v2.3c0,.86,0,2.08,0,3.54.07,9.06,0,18.86-1,24.32A49.68,49.68,0,0,1,565,312.22c2.9-.17,5.89-.22,8.78-.26,2.55,0,5.18-.07,7.69-.2l2.3-.12a1.35,1.35,0,0,1,1.32.81,1.36,1.36,0,0,1-.26,1.52l-47.31,49.41a3.31,3.31,0,0,1-2.17,1,28.64,28.64,0,0,1-13.78-2.21,10.85,10.85,0,0,1-10,6.55ZM509,350.21a8.22,8.22,0,0,0-3.2,2.05A8.11,8.11,0,0,0,511.61,366h.18a8.08,8.08,0,0,0,7.67-6.07,1.37,1.37,0,0,1,2.15-.76,25.88,25.88,0,0,0,13.57,2.5.58.58,0,0,0,.37-.19l44.92-46.91c-2.19.09-4.45.12-6.64.16-2.85,0-5.81.08-8.64.25a42,42,0,0,0-12.48,2.29l-.25.11-.17.11a2.42,2.42,0,0,0-.43.36l-29.47,30.77a1.36,1.36,0,0,1-1.94,0,1.39,1.39,0,0,1-.05-1.95l29.47-30.77a4.71,4.71,0,0,1,.68-.59c1.62-4.43,1.5-18.68,1.45-25.63,0-.92,0-1.74,0-2.43L507.06,334.2a.54.54,0,0,0-.16.37,25.77,25.77,0,0,0,3.16,13.6,1.36,1.36,0,0,1-.36,1.75A1.32,1.32,0,0,1,509,350.21Z"/></g></g></svg>