<svg xmlns="http://www.w3.org/2000/svg" viewBox="0 0 631.95 134.4"><defs><style>.cls-1{fill:#1b262c;}.cls-2{fill:#ee209b;}</style></defs><g id="Capa_2" data-name="Capa 2"><g id="Layer_1" data-name="Layer 1"><polygon class="cls-1" points="47.19 0 23.21 0 23.21 0 23.13 0.48 23.04 0.96 22.93 1.43 22.83 1.9 22.71 2.36 22.58 2.82 22.44 3.28 22.3 3.73 22.15 4.18 21.98 4.63 21.64 5.5 21.25 6.36 20.84 7.21 20.39 8.03 19.92 8.83 19.41 9.61 18.88 10.37 18.32 11.11 17.73 11.83 17.11 12.52 16.47 13.19 15.8 13.83 15.11 14.45 14.39 15.04 13.65 15.6 12.89 16.13 12.11 16.64 11.31 17.11 10.49 17.56 9.64 17.97 8.79 18.35 7.91 18.7 7.46 18.86 7.01 19.02 6.56 19.16 6.1 19.3 5.64 19.43 5.18 19.55 4.71 19.65 4.24 19.75 3.76 19.85 3.29 19.93 3.25 19.95 3.25 44.01 3.25 114.45 3.26 114.45 3.73 114.53 4.21 114.62 4.68 114.72 5.15 114.83 5.61 114.95 6.08 115.08 6.53 115.21 6.99 115.36 7.43 115.51 7.88 115.67 8.76 116.02 9.62 116.4 10.46 116.82 11.28 117.26 12.08 117.74 12.87 118.24 13.63 118.78 14.37 119.34 15.08 119.93 15.77 120.55 16.44 121.19 17.08 121.86 17.7 122.55 18.29 123.26 18.85 124 19.39 124.76 19.89 125.55 20.37 126.35 20.81 127.17 21.23 128.01 21.61 128.87 21.96 129.75 22.12 130.19 22.27 130.64 22.42 131.1 22.55 131.55 22.68 132.01 22.8 132.48 22.91 132.95 23.01 133.42 23.1 133.89 23.18 134.37 23.21 134.4 47.19 134.4 611.99 134.4 611.99 134.4 612.07 133.92 612.16 133.45 612.26 132.98 612.37 132.51 612.49 132.04 612.62 131.58 612.75 131.13 612.9 130.67 613.05 130.22 613.22 129.78 613.56 128.9 613.95 128.04 614.36 127.2 614.8 126.38 615.28 125.57 615.78 124.79 616.32 124.03 616.88 123.29 617.47 122.58 618.09 121.88 618.73 121.22 619.4 120.57 620.09 119.96 620.81 119.37 621.54 118.81 622.31 118.27 623.09 117.77 623.89 117.29 624.71 116.84 625.55 116.43 626.41 116.05 627.29 115.7 627.74 115.54 628.19 115.39 628.64 115.24 629.1 115.11 629.56 114.98 630.02 114.86 630.49 114.75 630.96 114.65 631.44 114.56 631.91 114.48 631.95 114.45 631.95 44.01 631.95 19.95 631.94 19.95 631.47 19.87 630.99 19.78 630.52 19.68 630.05 19.57 629.59 19.45 629.12 19.33 628.67 19.19 628.21 19.05 627.76 18.89 627.32 18.73 626.44 18.38 625.58 18 624.74 17.59 623.92 17.14 623.12 16.67 622.33 16.16 621.57 15.63 620.83 15.06 620.12 14.47 619.43 13.86 618.76 13.21 618.12 12.55 617.5 11.86 616.91 11.14 616.35 10.4 615.81 9.64 615.31 8.86 614.83 8.06 614.39 7.23 613.97 6.39 613.59 5.53 613.24 4.65 613.08 4.21 612.93 3.76 612.78 3.31 612.65 2.85 612.52 2.39 612.4 1.93 612.29 1.46 612.19 0.98 612.1 0.51 612.02 0.03 611.99 0 47.19 0"/><path class="cls-2" d="M341.64,17.23c2.69-.75,1.6-.86,2-1C339.22,17.58,341.76,17.28,341.64,17.23Z" transform="translate(-2.24)"/><polygon class="cls-2" points="291.4 23.6 292.24 23.33 285.17 24.62 291.4 23.6"/><path class="cls-2" d="M248.32,27.77c4.34.41,16.46-1.25,24.56-1.76l1.34,0,3.59-.9C268,26.21,255.27,27.51,248.32,27.77Z" transform="translate(-2.24)"/><path class="cls-2" d="M224,27.77c1.51.18-5.24.53,5.66-.24h-1Z" transform="translate(-2.24)"/><path class="cls-2" d="M228.6,27.52c4.8-.29-3.15,0,0,0Z" transform="translate(-2.24)"/><path class="cls-2" d="M206.46,29l6.31-.6c-1.33-.08-7,.21-4.88,0C201.41,28.84,202.76,28.92,206.46,29Z" transform="translate(-2.24)"/><path class="cls-2" d="M200.49,29.81l3.27-.3A15.43,15.43,0,0,0,200.49,29.81Z" transform="translate(-2.24)"/><path class="cls-2" d="M210.7,28.89l-6.94.62a6.53,6.53,0,0,0,3.19-.27C206.39,29.48,207.75,29.2,210.7,28.89Z" transform="translate(-2.24)"/><path class="cls-2" d="M214.64,28.76c3.55-.05,8.13-.22,1.81.38C228.53,28.35,226.72,28,214.64,28.76Z" transform="translate(-2.24)"/><path class="cls-2" d="M246,28.62l4.75-.11,4.07-.51C252.83,28.26,245.73,28.43,246,28.62Z" transform="translate(-2.24)"/><path class="cls-2" d="M167.08,30.84c-.39.17,2.15.27,2.63.43l4.66-.43C172,30.87,167.41,31,167.08,30.84Z" transform="translate(-2.24)"/><path class="cls-2" d="M169.71,31.27l-7,.63C169,31.58,170.11,31.4,169.71,31.27Z" transform="translate(-2.24)"/><polygon class="cls-2" points="197.17 30.64 208.61 29.42 194.96 30.77 197.17 30.64"/><polygon class="cls-2" points="138.18 32.31 142.12 31.76 135.09 32.66 138.18 32.31"/><path class="cls-2" d="M122.74,33.36c2.91-.44-4-.24-.95-.59-4.81.32-8.89.79-12.58,1.21C113.13,33.64,117.32,33.44,122.74,33.36Z" transform="translate(-2.24)"/><path class="cls-2" d="M103,34.64c2-.18,4-.41,6.18-.66C107.13,34.16,105.09,34.37,103,34.64Z" transform="translate(-2.24)"/><path class="cls-2" d="M150.85,32.5a32.59,32.59,0,0,0-5.52-.11l2.77.25Z" transform="translate(-2.24)"/><path class="cls-2" d="M148.2,32.65h-.1l-5.93.31Z" transform="translate(-2.24)"/><path class="cls-2" d="M151.54,32.46l-.69,0A1.79,1.79,0,0,0,151.54,32.46Z" transform="translate(-2.24)"/><path class="cls-2" d="M181.09,31.29c-4.09.46-12.63,1.18-4.33,1.07C179.69,31.91,174.94,32,181.09,31.29Z" transform="translate(-2.24)"/><path class="cls-2" d="M155,32.78l7.42-.33c-.15-.09-1.5-.18.53-.4Z" transform="translate(-2.24)"/><polygon class="cls-2" points="149.11 33.11 152.74 32.78 149.99 32.9 149.11 33.11"/><path class="cls-2" d="M115.75,34.31c-3.19.35-6.69.56-10.65.81,4.25-.15,8.63-.36,12.8-.59C118.48,34.37,120.3,34,115.75,34.31Z" transform="translate(-2.24)"/><path class="cls-2" d="M131.52,33.54l-.71.06C131.25,33.61,131.6,33.6,131.52,33.54Z" transform="translate(-2.24)"/><path class="cls-2" d="M66.12,37.52l.63,0a.58.58,0,0,1,.14-.08Z" transform="translate(-2.24)"/><path class="cls-2" d="M118.61,34.57a65.87,65.87,0,0,0,6.91-.54c-2.39.18-4.91.34-7.62.5C117.64,34.6,117.59,34.64,118.61,34.57Z" transform="translate(-2.24)"/><path class="cls-2" d="M92.16,35.43c1.68,0,3.56,0,5.54-.08A54.26,54.26,0,0,0,92.16,35.43Z" transform="translate(-2.24)"/><path class="cls-2" d="M129.73,33.55l.47,0C129.15,33.48,129.29,33.51,129.73,33.55Z" transform="translate(-2.24)"/><path class="cls-2" d="M129.73,33.55c-1.64.15-2.92.32-4.21.48,1.93-.14,3.73-.28,5.29-.43Z" transform="translate(-2.24)"/><path class="cls-2" d="M54.47,40.8c.55-.39,8.91-1.19,16.17-1.28,7.1-.77,2.36-1.68-3.89-2-.21.17-.21.35-7.51,1,2.57.08,16.27-.55,10.12.19-9.69.82-8,.37-12.68.44,2,.12-1.06.47-4.37.82s-6.87.68-5.81,1q4.26-.26,8.52-.59C55.18,40.5,52.1,40.81,54.47,40.8Z" transform="translate(-2.24)"/><path class="cls-2" d="M80.7,36.66l3-.25c-3.44.16-5.91.18-10.46.19-5,.52-6,.72-6.36.87l14.84-.94Z" transform="translate(-2.24)"/><path class="cls-2" d="M97.28,35.62c-2.33.54-9.58,1.12-5.11,1.32,8.85-.53,6.18-.69,11.46-1.17-14.27.9,4.09-.45-6.24-.11,2.8-.22,5.33-.39,7.71-.54l-7.4.23h.39c.61,0,.82,0,.12,0l-.29,0a2.8,2.8,0,0,1-.64.19c-4.14.15-.66-.07.64-.19a1.47,1.47,0,0,0,.17-.07H98c-4.75.34-9.55.66-14.32,1C86.74,36.27,90.56,36,97.28,35.62Z" transform="translate(-2.24)"/><path class="cls-2" d="M169.18,33.66c-.44,0-.43,0-.46-.07C167.8,33.69,167.45,33.75,169.18,33.66Z" transform="translate(-2.24)"/><path class="cls-2" d="M163.28,33.74a49.82,49.82,0,0,1,5.28-.47c2.94,0,0,.2.16.32,2-.22,7.11-.69.71-.53l-1,.11c-5.76.18-13.19.08-12.19,0A49.28,49.28,0,0,0,163.28,33.74Z" transform="translate(-2.24)"/><path class="cls-2" d="M129.87,34.81l-11.9.87h6.09l-.32-.19C130.52,35.2,129,35,129.87,34.81Z" transform="translate(-2.24)"/><polygon class="cls-2" points="62.5 37.4 64.05 36.87 57.22 37.89 62.5 37.4"/><polygon class="cls-2" points="47.08 38.26 47.63 37.86 43.58 38.23 47.08 38.26"/><path class="cls-2" d="M490.55,117.41l-3.5.31C488.71,117.59,489.77,117.49,490.55,117.41Z" transform="translate(-2.24)"/><path class="cls-2" d="M515.91,115.79l.61-.23C515.35,115.75,514.87,115.86,515.91,115.79Z" transform="translate(-2.24)"/><path class="cls-2" d="M334.79,19.57c5.14.25,10.89.57,10.25.17l-1.58-.36C339.88,19.58,337.13,19.61,334.79,19.57Z" transform="translate(-2.24)"/><path class="cls-2" d="M595.47,12.2,594,12c-1.25.12-2.42.21-3.46.34C592,12.3,593.7,12.25,595.47,12.2Z" transform="translate(-2.24)"/><path class="cls-2" d="M599.16,10.64,603,11a6.77,6.77,0,0,1,1.14.22l.74,1a10.62,10.62,0,0,1,.63,1,4,4,0,0,1,.5,1.09,6.3,6.3,0,0,0-.79-1.61,5.73,5.73,0,0,0-.59-.86l-.35-.44a1.41,1.41,0,0,0-.18-.23l-.29,0c-.39,0-.78-.14-1.22-.17l-1.28-.11Z" transform="translate(-2.24)"/><path class="cls-2" d="M351.87,122.22l-4.09.4C354.18,122.65,351.36,122.42,351.87,122.22Z" transform="translate(-2.24)"/><path class="cls-2" d="M113.32,31.6c4.4-.17,7.9-.35,11-.56C119,31.19,114.69,31.15,113.32,31.6Z" transform="translate(-2.24)"/><path class="cls-2" d="M500.25,112.42c-2.13.21-3,.35-3,.44C499.47,112.65,500.71,112.49,500.25,112.42Z" transform="translate(-2.24)"/><path class="cls-2" d="M137,30.06l-2.34.09c-3.21.33-6.44.63-10.37.89A108.37,108.37,0,0,0,137,30.06Z" transform="translate(-2.24)"/><path class="cls-2" d="M31.26,39c0,.35,0,.78.06,1.11C31.38,40.21,31.33,39.7,31.26,39Z" transform="translate(-2.24)"/><path class="cls-2" d="M44.62,59c.05,1.46.08,3.85,0,6.13A60.75,60.75,0,0,0,44.62,59Z" transform="translate(-2.24)"/><path class="cls-2" d="M17.37,41.14c-3.27.28-.52.09,0,0Z" transform="translate(-2.24)"/><path class="cls-2" d="M3.17,39.62l-.85,0,.12,1.72a.84.84,0,0,0,.38-.23,1.63,1.63,0,0,1-.39.2l-.12-1.66A4.76,4.76,0,0,1,3.17,39.62Z" transform="translate(-2.24)"/><path class="cls-2" d="M169.39,24.27l.29,0C168.7,24.26,168.87,24.26,169.39,24.27Z" transform="translate(-2.24)"/><path class="cls-2" d="M12.45,41.35l4.17-.22C16,41.15,14.67,41.2,12.45,41.35Z" transform="translate(-2.24)"/><path class="cls-2" d="M13.12,41.48l-2.82.23C9.91,41.82,10.26,41.81,13.12,41.48Z" transform="translate(-2.24)"/><path class="cls-2" d="M22,40.75c-1.91.18-3.66.28-5.35.38.65,0,.92,0,.75,0Z" transform="translate(-2.24)"/><path class="cls-2" d="M118.5,117.71l-.7-.06C114.47,117.72,115.94,117.74,118.5,117.71Z" transform="translate(-2.24)"/><path class="cls-2" d="M420.32,13.86l-.37,0,.48,0Z" transform="translate(-2.24)"/><path class="cls-2" d="M432.12,13.58a72.41,72.41,0,0,1-11.69.32l3.9,1.21Z" transform="translate(-2.24)"/><path class="cls-2" d="M429.82,120.62h8.31c-10,1.07-17.22,1.19-9.42,1.35,1.11-1.32,32.22-1.64,33.3-3h5.48c-1.56.07-1.81.16-3.36.23,10.66.06,7.85-1.34,21.55-1.92,4.77-.17,8.11-.2,4.87.16l10.61-1c3.09-.17,2.35.1-.73.28l16.2-1.19-.11,0c2.29-.37,7.51-1.06,10.06-1.39,4.12-.14-2.06.29-1,.37l8.94-1c3.68,0-3.72,1-9.93,1.4a36.68,36.68,0,0,0,9.16-.31c3.06-.4,7.33-1,16.4-1.41l-8.46.93c5.53.24,12.1-.58,21.74-1.15-2.3,0-19.28.72-9.58-.52a107.51,107.51,0,0,0,11.58-1.3c.1.46,5.21-.23,11.59-1l-.37.65c6.87-.93,6.29-1.17,10.32-1.86,7.68-.68,9.31-.27,11.14,0l3.18-.22c.62,0,.87-.09.87-.13a9.62,9.62,0,0,0-1.89-.16c-.93,0-1.78-.1-1.5-.21a31.36,31.36,0,0,1,5.32-.51c2.91-.07,5.62-.13,8.34-.42a31.75,31.75,0,0,0,4.1-.66,16.34,16.34,0,0,0,2.13-.61l.55-.2a5.22,5.22,0,0,0,.69-.32,14.45,14.45,0,0,0,1.4-.75,4.74,4.74,0,0,0,1.57-1.7,4.19,4.19,0,0,0,.41-2.32,9.49,9.49,0,0,0-1.81-4.26,33.25,33.25,0,0,0-2.35-2.94l-1.26-1.41c-.39-.45-.86-1-1.08-1.3-3.28-6.19.92.89-.17-1.38-1.16-1.71-2.26-3.47-3.25-5.29-.6-1.4-.26-1-.1-.81-1.09-2.35-1.22-2.42-1.54-2.81a5.12,5.12,0,0,1-.64-1.22,24.5,24.5,0,0,1-1.24-3.87,10.64,10.64,0,0,1-.72-3.63c0-.46-.07-1-.06-1.46s0-1.13,0-1.73a25,25,0,0,0-.48-4c-.53-2.77-1.47-5.61-2.22-8.35a36.91,36.91,0,0,1-.92-4c-.12-.64-.19-1.28-.25-1.89s-.09-1.31-.13-1.93c.17-2.59.37,1.25.61.47-.26-7.22-.37-10.31-.46-13.08-.07-1.38-.13-2.69-.22-4.38,0-.85-.09-1.8-.15-2.9a16.31,16.31,0,0,1,.29-3.56c.41-1.61.88-3.26,1.17-5a11.29,11.29,0,0,0-.29-5.7,6.1,6.1,0,0,1,.33,1.42,6,6,0,0,1,.06,1c0,.51-.06.74-.12.75s-.12-.18-.23-.55c0-.18-.1-.4-.16-.67l-.3-.88a9.8,9.8,0,0,0-.47-1.07c-.2-.39-.5-.74-.75-1.14l-.5-.54c-.18-.15-.29-.46-.59-.39-.53,0-1.06,0-1.61,0-2,0-4.11,0-6.19,0l3.59.44,2.7.38c-4.3-.2-8.76-.21-13.13-.07-1.59-.1-.27-.31,1.89-.57l-2.42.15c-4.72-.15-2.28-.57,1.11-.92,1.62.11,3.22.27,4.77.43,3.27-.3,6.36-.54,5.7-.93-.87,0-2.53,0-4.37,0,.87-.06,1.42-.13,1-.21a31.39,31.39,0,0,0-4,.13c-1-.25-2-.47-3-.7l-.74.28c-5.8-.13-11.6,0-17.38.13C558.83,12,548.22,14,528.55,14c4.87-.5,1-.82,1.31-1.41a82.79,82.79,0,0,0,10.88.13c4.38-.14,9.35-.49,14.42-.68-5.29.17-4.14-.16-2.8-.32-3,.23-6,.41-9,.56s-6,.22-9.05.3c.41-.48-3.85-.37-8.6-.56,3.59.94-13.53.64-20.92,1-.46-.31,1.31-.67,10.33-.63-10-.67-12.85,1.19-22.62.72a30.75,30.75,0,0,0,4.26-.18c-5.14.33-17.71.37-14.76,0l2.2-.06c-7.31.09-18.44.42-28,.95s-17.51.77-18.6,1.19a9.06,9.06,0,0,1,2.78-1.17c-8.65,1-17.34,1.87-26,2.71,2.3-.68-6.49-2.41,5.62-2.7-3.48-.13-7.77-.28-15.11-.1,2.37.11,5.9,1.06,2.66,1.09-8.89-.85-6.17-.49-17.15-1.19,3.56.16-.4,1.23-6,1.22.88-.17-.47-1.08,1.59-1.2-4.67.36-9.36.8-14,1.31,3.49-.3.6-.93-2.55-1.13,1.45.13-12.11.46-15.82.74h5.93A130.4,130.4,0,0,0,343.84,16a101.31,101.31,0,0,1-15.55,1.11c1.9-.24,4.67-1.4-3.29-1.46a300.41,300.41,0,0,1-30,3.46l-2.66-.22c-3.53.24-7.06.54-10.6.83,3.29-.56,9.54-1.54,16.27-2.32S312,15.9,317,15.53c-5.91-.2-1.65-.37-10.51-.24-3.14-.25,4.83-.51,7.44-.54-6.88,0-13.77,0-20.68.19.92.56-15.76,1.34-14.94,1.84,7.43-.57,14.91-1.17,22.39-1.53.46.32-2.77.82-7.94,1.36s-12.25,1.17-19.55,1.45c-3.72-.08,2.72-1.27,2.41-1.47-1.89.31-13.82,1.07-15.17,1l6.17-.63c-8.13.14-13.21,1.47-23,1.32-3.37.11-10.1-.36-10.66,0,5.52.47,6.7,2.68,3.06,3.4-1.18,0-17.71.13-21.57-.05-5.57-.31,8.26-1.75,3.52-2a32.76,32.76,0,0,1-4.52.67c-3.55,0,1.44-.61-6.24-.17-1.26.71-15.63.68-3.61.72-7.5.56-8,.18-16.84.78,2.83.22-7.83,1.95-15.3,2.9.43-.21-1.28-.26-2.11-.27-7.67.74-13.56,1.4-19.34,1.86l-18.59,1.43c-1.34,0-8.27.28-5.34-.22-2.06.27-3.94.63-8.36,1-8.6.07,9.86-.82,3.28-1-.53.43-11.4,1.33-17.69,2.12,2,.37,14.57-1,20.86-1.72.05.4-2.66,1-7.25,1.71s-11.07,1.42-18.5,2.38c-11.83,1.49-5.2.05-7.24.39-11.15,1.24-15.86,2.16-20.12,2.89a108.34,108.34,0,0,1-17.41,1.7c-7.39.07-.41-1-2.07-1.23,4.84-.48,8.58-.6,11.92-.8s6.3-.36,9.58-.72c-2.7.2-5.41.4-8.11.56,3.07-.43,9.51-1.25,13-1.51C75,33.18,65.54,34.29,54.69,35S31.65,37,23,37.68c-3,.48-8.33,1-5.81,1,1.82-.17,3.64-.32,5.46-.53,2.53-.05,0,.37-2.35.68s-4.42.55-.95.38c-2.58.3-5.25.61-8.07,1a62.38,62.38,0,0,0-8.7,1.59l-.21-2.78c2.61.34,5.46.54,8.5.73l1.91.64c-.22-.15-6.71-.55-9.55-.8,2.11.16,6,.63,10,.85a53.24,53.24,0,0,0,10.42-.14q-3.62-.15-7.22-.39c7.34-.2,16.4-1.12,25.61-1.13-4.19-.49-2.13.11-8.66-.41,2.84.35-3,.51-8.44.58s-10.37,0-5.87.49c-2.87-.35-5.39-.49-8-.65a65.83,65.83,0,0,1-8.51-1L2.94,43a24.52,24.52,0,0,1,3-.43c-.15-.08-.86,0-.67-.13a26.74,26.74,0,0,1,5-.7c.33-.1,1.13-.24,1.64-.33l.51,0H12c.33-.06.35-.07-.16,0-1.81.07-3.25.15-3.85.11a85,85,0,0,1,9.81-1.3C21.89,39.82,26,39.3,28,39c4.55-.38-1.88.41.62.36l6.12-1c.65.35,12.12-.48,1.46.82l9.62-.9c2.84-.14,6.2-.33,9.45-.54s6.47-.44,8.88-.74c4.6-.3,11.49-1.64,7.55-.87,5-.63,10.08-1.32,15.09-2l.15.09c7.45-.85,15-1.89,23-2.54s16.17-1.27,24.75-1.56c5-.51,10.23-1,18.67-1.78l1.68.19c3.24-.4,8.07-.88,12.44-1.26s8.27-.73,9.63-1c3.51.19,11.29-.41,19.63-.83s17.34-1,23-1.19l.41-.5c7.83-.34,15.34-.83,25.05-1.48l-.62-.4c8.37-.75,21.57-.71,34.83-1.38a54.11,54.11,0,0,1-6.65.34c8,.13,16.3-.53,24.42-.95s16.12-.72,23.32-.41c3.58-.18,6.18-.15,8.69-.07l-.89,0h1.48c1.58,0,3.23.12,5,.15-1.51-.07-3-.14-4.21-.16,2.78,0,7-.18,11.11-.43l1.77.4,1-.05c4,0,3.24-.34,1.07-.6,2.07-.15,4-.32,5.43-.5,3.3.6,10.76-.73,15.25-.11,1.37-.25,6.52-.52,11.59-.75s10.07-.39,11.17-.79c.14.1,1.35.15-.87.16,4.58.09,9.15.21,13.26,0l1.94.6,10-.69c6.08.41,8.6.63,2.56,1,14.58-.6,11.84-.15,24.24-.93l-.6.38c4.44,0,11.52-.73,14.2-.53,5,.17,17.19-.36,31.38-.61s30.3-.34,43,0c-4.92-1.12,11.81.52,12.84-.36,1.49.26,5.07.36.92.63l15.82-.51c4.38-.18,8.25-.43,12.69-1,1.5.18-2.74.54-1.42.62a41.5,41.5,0,0,1,5.45-.35c1.32.09-1.88.31-3.92.53,13.18-.72,14.47-1.38,15.42-2.2,6.7.28,10,.34,14.85.12l.84.15.63.13c.18.06.37,0,.44.16a1.26,1.26,0,0,1,.12.29c0,.05,0,.06-.09,0s-.15-.19-.42-.14-.51,0-1,0l-2.52-.11c.58,0,1.44.1,2.52.18l1.09.09a2.35,2.35,0,0,1,.7.91,6,6,0,0,1,.24.64c.07.28.14.58.2.89a10.53,10.53,0,0,1,0,2,32.62,32.62,0,0,1-.79,4.6,27.43,27.43,0,0,0-.8,5c0,1.59,0,2.9,0,4.09a18,18,0,0,0,.3,4c-.15,1.44,0,6.47,0,7.69s0,2.44,0,3.48,0,1.94,0,2.89a24.07,24.07,0,0,0,.66,4.72c.32,1.42.75,2.79,1.26,4.4s1.18,3.46,1.76,5.85c-.17-.89-.39-1.79-.63-2.68A15.13,15.13,0,0,1,607,69.08a32.46,32.46,0,0,0,1.51,10l-.14-.21a49.06,49.06,0,0,0,3.45,9.08c.89,1.76,1.42,2.65,2,3.51.28.43.5.87.95,1.46s.88,1.1,1.49,1.83,1.34,1.64,2.17,2.84c.2.3.41.62.61,1,.1.17.19.35.29.53s.14.27.21.43a2.21,2.21,0,0,1,.11,2,1.68,1.68,0,0,0,.66-.52,1,1,0,0,1,.08.79,1.73,1.73,0,0,1-.93,1,11.66,11.66,0,0,1-4.23,1.28,49.22,49.22,0,0,1-6.14.41c-2.22.05-4.57,0-6.91.12s-4.64.25-6.78.49l3.92,0c-5.87.69-16.61.08-22.53.64-1.29.06,2-.36,3.81-.62-15.51,1.14-1.94.82-13.42,2.24-2.15-.09,2.63-1.11-5.09-.33-3.85.2-22.33,3.23-33,3.41,2.35.07,4.69.14-.65.74-8.2.74-22.24.68-29.61,1.91a4.39,4.39,0,0,1-1.49-.1c-6.27.6-20.39,1.53-24.15,2.15-5.89-1.23-39,2.7-39,1.23l-19.33.94.5-.17c-12.33.38-16.69.74-21,1.17-2.86-.06-.78-.22-.54-.3-18.06-.1-19.86-.11-35,.58l-1.57-.47c-4.1.26-26.16-.92-43.9-.14a8.53,8.53,0,0,1,2-.22c-10,.36-21.91.15-32.24-.13s-19.05-.66-22.74,0c-4.4-.06-8.8-.08-13.19-.09,17,.75-2.57.65,4.43,1.18-6.69-.15-17.3-1-9.07-.89l1.29.12c1.53-.4-3.77-.65-9.38-.8s-11.56-.25-11.32-.55l-49.6-.38c-16.25-.27-32.24-1-47.94-1.49l3.6.81-11-.37c-2.86-.25-3.85-.65,4-.4a66.55,66.55,0,0,0-8.11-.21c-2.78.05-5.08.17-5.2.24-7.61-.53-6.11-.68-3.3-.68s7,0,4.62-.09l-6.34-.27,1.42.16a129.57,129.57,0,0,1-15-.38c-5.92-.55-3-.64-5.34-.82,0,0-.19-.06-.73-.1s-1.45-.1-2.86-.17c-4.59-.32-9.19-.64-13.8-.89l5.5.85c-6.14-.1-13-.67-6.65.24-2.31-.37-6.74-.67-12-.92a81.87,81.87,0,0,1-8.39-.81,15.07,15.07,0,0,1-4-1.18,4,4,0,0,1-2.24-2.46,8.07,8.07,0,0,1,0-3.82A19.83,19.83,0,0,1,41,99.43c1.13-2.56,2.5-5,3.56-7.26s2-4.13,2.67-5.85a18.49,18.49,0,0,0,1.09-3.95,12.81,12.81,0,0,0-.21-3.32,11.25,11.25,0,0,1-.27-2.62,3.24,3.24,0,0,1,.82-2,7.44,7.44,0,0,1,2.06-1.54l-1.22-.05a1.41,1.41,0,0,1,.59.54s0,.33-.31.73a22.24,22.24,0,0,1-2.48,2.53,10.41,10.41,0,0,0-1.48,1.66,3.71,3.71,0,0,0-.56,1.19c-.12.43-.19.71-.27,1.08-.31,1.39-.48,2.79-.69,4.15.24-1.25.57-2.29.67-1.85a8.75,8.75,0,0,1-.07,1.87,16.37,16.37,0,0,1-1.14,4.66c0-1.74-1.62,2-3.66,7.12a76,76,0,0,0-2.78,8.37,48.24,48.24,0,0,0-1.37,7.59c.1-1,.17-1.14.21-.79,0,.18,0,.49,0,.91s.08,1,.12,1.57l3.5-.18c-.33-6.06,0-21.3-.73-13.82.2-7.53.48-.45.86-6.16-.06-4.49,0-9.22,0-14.13,0-1.25,0-2.42-.06-3.78a34.38,34.38,0,0,0-.42-3.94c-.44-2.61-1.1-5.15-1.76-7.67S36.36,59.51,36,57a29.65,29.65,0,0,1-.32-3.74,24.93,24.93,0,0,1,.23-3.79c.28-2.63.79-5.63,0-8.86-.83-3.06-2.42-5.48-3.13-7.74-.12-.12,0,.6,0,.89s-.06.18-.23-.08a6.94,6.94,0,0,1-.7-1.8,5.72,5.72,0,0,1,1.34-4.23l-2.74-2a15,15,0,0,0-3.33,6,13.77,13.77,0,0,0,0,5.14c.09.77.21,1.64.32,2.82s.24,2.67.24,4.59c.06-1.08.12-2.76.42.09.25,5.46-1.15,10.93-2.51,16.53a82.19,82.19,0,0,0-1.71,8.65A39.55,39.55,0,0,0,23.49,74c0,1.48,0,2.85-.1,4.29-.25,5.71-1,11.57-.61,17.6a40.86,40.86,0,0,0,.51,4.52,14.86,14.86,0,0,0,1.64,4.54c.71,1.35,1.46,2.6,2.06,3.84a9.93,9.93,0,0,1,1.15,3.59,7.75,7.75,0,0,1-.32,1.87,11.3,11.3,0,0,0-.24,1.52,5.07,5.07,0,0,0,.16,1.6,4.35,4.35,0,0,0,2,2.46,7.73,7.73,0,0,0,1.38.69c.44.18.84.28,1.27.42l.71.23.58-.48a7.9,7.9,0,0,0,2.5-3.34,9.89,9.89,0,0,0,.43-4,58.55,58.55,0,0,0-1.47-6.79,10.08,10.08,0,0,1-.29-2.89l.11-.57c0-.21.16-.53.23-.79l.49-1.63,1.89-6.51c1.25-4.33,2.53-8.61,4.07-12.76.37-1,.8-2.16,1.14-3.27s.65-2.25.93-3.39a58.05,58.05,0,0,0,1.14-6.88c-.42,3.07-.63,3.56-.56,2.71s.28-3,.34-5.37c-.21,3-.41-.09-.66.49.25-3.12.3-6.24.29-9.34l0-4.63V50c0-.22,0-.33,0-.65a9.52,9.52,0,0,0-.68-2.78c-.49-.81-1.34-2.32-2.36-4.1a54.4,54.4,0,0,1-3-6c-.88-2.07-1.35-4.19-1-5.44a4.89,4.89,0,0,1,1.49-2.19,3.59,3.59,0,0,0-1.76,3.8c-.16-.81-.14-1.25-.2-1.46s-.16-.16-.31.09a3.61,3.61,0,0,0-.35,1.4,9.13,9.13,0,0,0,.15,2.37,36.65,36.65,0,0,0,1.44,5.08c.48,1.42.75,2.36.41,2.22.6.92,1.22,1.92,1.81,3a15.44,15.44,0,0,1,1.49,3.44,4.34,4.34,0,0,1,.13.82c0,.35,0,.71,0,1.07,0,.73,0,1.47,0,2.23,0,1.5,0,3.07,0,4.67A101.86,101.86,0,0,1,39.6,77.72c-.56,1.42-.43.78-.24,0s.33-1.8,0-1a25.18,25.18,0,0,1-.6,2.73c-.31,1-.64,2.12-1,3.36-.75,2.47-1.66,5.47-2.84,9.38l.16-.91c-.8,2.86-1.53,5.51-2.22,8l-.54,1.83-.27.89c-.09.29-.17.77-.24,1.14a12.22,12.22,0,0,0,.31,4.11,49.12,49.12,0,0,1,1.37,6.47,6.22,6.22,0,0,1-.31,2.58,4.58,4.58,0,0,1-1.47,1.86l1.47-.28-.89-.31a4.11,4.11,0,0,1-.63-.31,1.57,1.57,0,0,1-.75-.89,1.53,1.53,0,0,1-.05-.6,4.32,4.32,0,0,1,.13-.67,10.51,10.51,0,0,0,.46-2.92,13.17,13.17,0,0,0-1.37-4.81c-.68-1.46-1.47-2.81-2.14-4.17a16.21,16.21,0,0,1-.84-2,10.08,10.08,0,0,1-.25-1c-.07-.35-.11-.8-.17-1.2a43.39,43.39,0,0,1-.35-5.26L26,95.55A41.94,41.94,0,0,1,26.08,90c.1-1.27.22-2.19.35-3.45-.11-3.16-.45.69-.58,4.54s.28,7.69-.33,4.94c.09-1.78.17-5,.5-9,.15-2,.32-4.22.49-6.51.07-1.15.14-2.32.17-3.52s0-2.46.08-3.53A58.82,58.82,0,0,1,28.9,60.89c1-3.63,1.66-6.52,2.13-7.74a20.93,20.93,0,0,0,.37-3.44c0-.32-.11,0-.21.32s-.21.63-.22.31.1-1.24.16-3.46c.11-.78.21-1.58.25-2.38-.16-.74-.34-1.47-.53-2.18a35.2,35.2,0,0,1-.23-6.12,4.27,4.27,0,0,1,.47-2A22.86,22.86,0,0,0,31.26,39a27.65,27.65,0,0,1,.15-5.65,11.09,11.09,0,0,1,2.19-5.13l-3.93-2.89a11,11,0,0,0-1.56,3.89,10.39,10.39,0,0,0,.13,3.66,23.74,23.74,0,0,0,1.34,3.85,17.08,17.08,0,0,1-1.35-4.48,9.15,9.15,0,0,1,.79-5.2,9.31,9.31,0,0,0-.61,5.58,21.07,21.07,0,0,0,1.71,4.7,28.1,28.1,0,0,1,1.66,3.94,10.82,10.82,0,0,1,.44,3.92c0,1.42-.25,2.94-.4,4.55-.08.81-.15,1.66-.16,2.53s0,1.72.09,2.57a53.52,53.52,0,0,0,1.93,9.71,86.05,86.05,0,0,1,2.15,9c.13.74.19,1.46.27,2.19s.08,1.41.08,2.21c0,1.55,0,3.09.06,4.61,0,6.12,0,12.06.08,17.64l.23-1.69c.09,8.52.08,12,.06,15.58l2.88-.15c-.09-3.37.1-7,3.17-15.73l-.18.65c.52-1.77,1.23-3.82,2-6l1.26-3.45a23.21,23.21,0,0,0,1-3.93c-.32,2.47.26.15.64-1.84a14,14,0,0,1,.56-2.15c.13-.28.11,0-.06,1.44.07-.56.16-1.07.24-1.55.05-.23.09-.47.15-.68a1.2,1.2,0,0,1,.1-.38,5.61,5.61,0,0,1,1.17-1.43,21.06,21.06,0,0,0,2.75-3,4.53,4.53,0,0,0,.76-2,3.22,3.22,0,0,0-.46-2A4.08,4.08,0,0,0,51,70.42l-.88-.54-.71.48a11.12,11.12,0,0,0-2.18,1.75,6.43,6.43,0,0,0-1.49,2.31,6,6,0,0,0-.35,1.93,10.53,10.53,0,0,0,.23,2.19,15.83,15.83,0,0,1-.11,2.66,11.62,11.62,0,0,1-.66,4.52,32.86,32.86,0,0,1-1.23,3L42.6,91c-.36.82-.8,1.74-1.32,2.78,1.56-3.47.77-2.2,0-1.05s-1.42,2.17.25-1.68c-2.2,4.19-4.66,8-5.39,12.28a9.51,9.51,0,0,0,1,6.42A6.87,6.87,0,0,0,39.43,112c.21.12.42.26.63.37l.63.29a9.24,9.24,0,0,0,1.22.47,24.48,24.48,0,0,0,4.46.9c1.38.18,2.68.28,3.93.39,2.5.2,4.79.38,7,.74,4.48-.36.31-.6-4.48-.83-2.38-.13-4.91-.34-6.54-.59s-2.32-.44-1-.22c-2.14-.62-.18-.28,3-.08s7.65.24,10.72.39c6.25.25,10.54,1.64,26.24,2.7-1.56-.12-1.67,0-3.23-.16,5.86.64,11.54.47,18.74,1.31,4.09-.35,9.41.53,10.61-.18-4.83-.14-9.65-.36-14.46-.61,4.09.16,8.08.13,12.72.15s9.94,0,16.67.45c-1,.12-5.07.2-7.83.23,3.94.33,7.6.08,11.68.43-.6.36-5,.26-10.32.13s-11.66-.37-16.07-.34c2.11.28,6.29.34,9.37.38s5.08.08,2.85.42c6.37-.86,15.5.6,26.19.14l-.72.43c1.69,0,5.2-.13,8.3,0l-5.64.42c8.65-.24,16.65.9,25,.75-17.38-.3-3.89-.61-11.23-1.09,10.71-.06,13.79.23,17.19.62s7.14.75,19.09.63c-3.24.06-12.16-.26-7.09-.48,4.55.09,10.57.26,13.36.5,15.85-.05-2.43-.47,4.32-.73,5.39.57,7.78-.2,14.73-.31l0,.46c9,.25,10.22.06,11.2-.16s1.73-.44,9.85-.06l-6.88.48,8.47,0-1.76.48c9.22-.14,12.08.07,21.09.62-2.09-.44,1.23-.74,9.25-.52,5.47.4-3.08.4,8.3.55a43,43,0,0,1-10.34,0c-.51.13-2.54.2-3.07.33,5.89.55,14.83.45,18.95.46-1.58,0-3.48-.07-4.45-.15,5.5-.14,11-.34,16.49-.57,2.59.16.53.31-1.5.45,3.33-.06,5.64-.28,10.54-.36-1.26.38-.95.77-7.9,1l15.69-.53c1.05.15,8,.37,6,.53,8.68.12,21.27-.82,32.8-.46.6-.07,1.8-.14,4.25-.18,10.83.12,20.44.64,33.29,0l7.31.57c10.08-.35-9.89-.63,6.88-1.24,11.87-.56,4.45.44,8.62.49a263.81,263.81,0,0,1,27-1.68C436,120.38,433.18,120.41,429.82,120.62Zm123.8-8.14c-2.39.33-7.14,1.07-8.91.94C547.39,112.66,549.52,112.72,553.62,112.48Zm23.56-101a51.58,51.58,0,0,1,7.69-.15C582.6,11.45,580,11.51,577.18,11.52ZM53.23,37.42l.26,0C58.82,37.18,56.92,37.23,53.23,37.42Zm-11.06.76c-1.11.16-1,.22-.55.24a59,59,0,0,1,6.07-.64A30.26,30.26,0,0,0,42.17,38.18ZM83.59,112.7l2.15.27C80.86,112.77,82.23,112.74,83.59,112.7Z" transform="translate(-2.24)"/><path class="cls-2" d="M598.66,10.81a2.54,2.54,0,0,1,1,.3C600.64,11.11,600.66,11,598.66,10.81Z" transform="translate(-2.24)"/><path class="cls-2" d="M352.63,122.14h-.38a1.15,1.15,0,0,0-.38.08Z" transform="translate(-2.24)"/><path class="cls-2" d="M213.59,19.61c2.29,0,3.57,0,4.42,0C218.13,19.52,217.09,19.47,213.59,19.61Z" transform="translate(-2.24)"/><path class="cls-2" d="M21.06,38.5q-3.54.07-7.06.07c3.4,0,4.63.13,6.35.2C20.2,38.66,18.85,38.51,21.06,38.5Z" transform="translate(-2.24)"/><path class="cls-2" d="M82.87,38.71c1-.13,2.2-.15,3.22-.27l-.29-.19C81.37,38.54,78.28,38.92,82.87,38.71Z" transform="translate(-2.24)"/><path class="cls-2" d="M27.64,39.94c.58.38,5,.15,10,0l-.89,0C38.24,39.33,32.92,39.65,27.64,39.94Z" transform="translate(-2.24)"/><path class="cls-2" d="M38.83,39.85c1.54-.05,3.11-.09,4.61-.11C44,39.51,41.58,39.74,38.83,39.85Z" transform="translate(-2.24)"/><path class="cls-2" d="M28.17,39.83c-2.37.14-1.43.64-2.78.62C22.81,41.21,41,38.26,28.17,39.83Z" transform="translate(-2.24)"/><polygon class="cls-2" points="29.47 41.12 27.67 40.69 24.88 41.13 29.47 41.12"/><path class="cls-2" d="M12,39.33a74.11,74.11,0,0,0-7.89.9,8,8,0,0,1-1.77.59l-.06-.73.25,0-.25,0,.06.75A42.73,42.73,0,0,1,9,39.71,22,22,0,0,0,12,39.33Z" transform="translate(-2.24)"/><path class="cls-2" d="M2.49,40.12a52.41,52.41,0,0,0,6.36.49C7.48,40.53,4.51,40.36,2.49,40.12Z" transform="translate(-2.24)"/><path class="cls-2" d="M20.81,41.44l-2.36-.1c-1.88,0-3.76-.05-5.63-.11Q16.81,41.4,20.81,41.44Z" transform="translate(-2.24)"/><path class="cls-2" d="M97.32,31.16c2.88-.34,5.76-.67,8.65-.95.87-.23-1.5-.15-4.73.22C99.18,30.74,96,31.14,97.32,31.16Z" transform="translate(-2.24)"/><path class="cls-2" d="M71,32.84a32.54,32.54,0,0,1,3.86-.05l.19-.62Z" transform="translate(-2.24)"/><path class="cls-2" d="M96.23,29.83c.84-.28,12.57-1.71,1.55-.6C96.92,29.47,88.25,30.57,96.23,29.83Z" transform="translate(-2.24)"/><polygon class="cls-2" points="224.86 20.59 222.65 20.71 223.01 21.66 224.86 20.59"/><path class="cls-2" d="M342.57,14.41c-10.27.07-2.42.7-11.7.59-2.41.28,7.58.11,5.11.34C342.18,15,345.44,14.94,342.57,14.41Z" transform="translate(-2.24)"/><path class="cls-2" d="M336,15.34l-3.16.21C334.62,15.47,335.46,15.39,336,15.34Z" transform="translate(-2.24)"/><path class="cls-2" d="M38.54,35.36A11.37,11.37,0,0,1,38,32.7a2.92,2.92,0,0,1,.34-1.78,3.47,3.47,0,0,0-.44,2.55A14.32,14.32,0,0,0,38.54,35.36Z" transform="translate(-2.24)"/><path class="cls-2" d="M40.94,29l1.45.84,4,.06C44.93,29.69,42,29.3,40.94,29Z" transform="translate(-2.24)"/><path class="cls-2" d="M572.12,111.78l.49-.21a50.39,50.39,0,0,0-5.69.44Z" transform="translate(-2.24)"/><polygon class="cls-2" points="479.99 118.49 481.54 118.42 478.61 118.02 479.99 118.49"/><path class="cls-2" d="M406.74,122.76c3.1-.07,6.73-.31,9.84-.43C409.84,122.72,405.89,122.08,406.74,122.76Z" transform="translate(-2.24)"/></g></g></svg>