<svg xmlns="http://www.w3.org/2000/svg" viewBox="0 0 474.82 474.87"><defs><style>.cls-1{fill:#0b4d76;}</style></defs><g id="Capa_2" data-name="Capa 2"><g id="Layer_1" data-name="Layer 1"><path class="cls-1" d="M248.92,214.18c-.93-4.84-4.16-9.09-9.44-9.45-1-.1-2.32-.1-2.62,1a13.47,13.47,0,0,0,0,2c0,1.35,0,3.76,0,6.43Z"/><path class="cls-1" d="M236.86,227.16c-.1,1.1-.1,2.21-.1,3.31a1.61,1.61,0,0,0,1.41,1.51,10.66,10.66,0,0,0,8.05-3.42,9.15,9.15,0,0,0,1.42-2.17H236.86Z"/><path class="cls-1" d="M470.55,234.46,332.1,229.23c-.05-.51-.09-1-.14-1.53,22.58-4.13,38.76-17,62.2-14.74,28.85,2.59,45.08-13.31,56.31-17s17.89,4,19.43.7-7.2-10.52-23.22-8.14S426.07,203,391,200.13c-29.86-2.38-40.26,9.57-62.3,10.68-.2-.7-.41-1.41-.64-2.11L453.89,151s4-1.76,2.9-4.45-5.11-.94-5.11-.94L321.79,193.71c-.24-.47-.49-.94-.74-1.4,19.29-12.5,29.28-30.52,51.79-37.53,27.57-8.53,36.61-29.5,45.6-37.12s18-3.15,18.23-6.89c.14-3.56-10.74-6.89-24.57,1.46s-13.54,21.18-47.18,32.1c-28.43,9.13-33.43,24.2-53.36,33.72l-1.46-1.77L404.24,74.74s3.15-3.1,1.14-5.16-5.19,1-5.19,1L298.59,164.8l-1.22-1c13.11-18.93,15.48-39.39,33.56-54.42,22.24-18.55,22.48-41.31,27.86-51.8S374.28,47.72,373,44.25,360.45,41.9,350.94,54.8s-4.45,24.9-31.34,47.71c-22.77,19.33-21.73,35.28-36.47,51.69-.66-.36-1.32-.72-2-1.07l48.18-130s1.72-3.92-.95-5.11-4.42,3-4.42,3l-57.8,125.87-1.49-.45c4.82-22.46-.88-42.34,10-63.26,13.42-25.58,5.07-46.69,6.05-58.42.82-11.7,10.47-15,8-17.78s-12.5,2.74-16.43,18.27,5.46,24.63-10.56,56c-13.72,26.71-6.51,41-13.95,61.8-.73-.08-1.47-.15-2.21-.21L240.35,4.25S240.35,0,237.5,0s-3,4.25-3,4.25l-5.25,138.63-1.5.14c-4.15-22.69-17-38.87-15-62.36,2.63-28.77-13.19-45.08-16.82-56.27s4.06-17.9.74-19.48-10.51,7.23-8.16,23.23S202.91,48.66,200.13,84c-2.36,29.84,9.63,40.21,10.82,62.28-.74.21-1.48.43-2.21.67L151,21.06s-1.68-4.12-4.42-3-1,5.11-1,5.11l48.22,130-1.39.73c-12.52-19.4-30.55-29.43-37.55-51.94-8.62-27.62-29.44-36.44-37.09-45.53-7.62-8.85-3.2-18-6.87-18.19S103.89,49,112.12,62.66c8.29,14,21.23,13.53,32,47.16,9.24,28.51,24.38,33.54,33.84,53.58-.58.46-1.16.93-1.72,1.41L74.68,70.57s-3-3.09-5.21-1c-2,2.06,1,5.16,1,5.16l94.23,101.58c-.31.37-.63.74-.93,1.12-19-13.11-39.44-15.48-54.59-33.52-18.49-22.18-41.06-22.5-51.76-27.83-10.49-5.32-9.74-15.47-13.27-14.26S42,114.38,54.92,124c12.78,9.58,24.69,4.41,47.57,31.23,19.4,22.84,35.26,21.64,51.68,36.42-.38.68-.74,1.36-1.1,2.05L23.2,145.6s-4-1.68-5.16.94S21,151,21,151l125.89,57.73-.45,1.47c-22.48-4.84-42.25.83-63.09-10.1-25.69-13.38-46.72-5-58.54-5.84C13.09,193.2,9.75,183.66,7,186s2.71,12.58,18.32,16.44S50,197.12,81.24,213.18C108,226.87,122.18,219.71,143,227.1c-.08.71-.15,1.42-.21,2.14L4.35,234.46S0,234.46,0,237.34s4.35,3,4.35,3l138.43,5.21c.05.53.09,1.05.14,1.57C120.32,251.26,104.15,264,80.69,262c-28.77-2.62-45,13.17-56.27,16.88s-17.91-4-19.47-.7,7.2,10.47,23.25,8.22C44,284,48.75,271.89,83.91,274.63c29.83,2.38,40.22-9.6,62.27-10.73.21.75.44,1.48.67,2.22L21,323.87s-4,1.69-2.91,4.43,5.16,1,5.16,1l129.87-48.14c.25.48.5,1,.76,1.44C134.53,295.07,124.51,313,102.08,320c-27.61,8.77-36.74,29.39-45.62,37.23-8.86,7.6-18.11,3.17-18.2,6.81s10.61,6.9,24.51-1.39,13.54-21.27,47.17-32c28.44-9.13,33.43-24.24,53.4-33.72.46.57.93,1.14,1.4,1.7L70.51,400.15s-3,3.14-1,5.18c2.17,2.07,5.21-1.12,5.21-1.12l101.55-94.1,1.25,1c-13,18.92-15.47,39.31-33.54,54.44-22.19,18.57-22.48,41.21-27.91,51.77-5.28,10.35-15.41,9.83-14.21,13.3S114.38,433,123.94,420s4.47-24.71,31.29-47.72C178,352.88,177,337.13,191.6,320.69c.69.38,1.39.75,2.09,1.12l-48.18,129.9s-1.69,4,1,5.11,4.42-2.91,4.42-2.91L208.7,328l1.52.46c-4.85,22.5.75,42.28-10.09,63.15-13.38,25.5-5.06,46.68-6,58.35s-10.49,15.08-8,17.94c2.35,2.55,12.43-2.76,16.38-18.42s-5.43-24.62,10.53-55.95c13.71-26.74,6.56-40.9,13.93-61.67.76.08,1.53.16,2.3.22l5.24,138.37s0,4.38,3,4.38,2.85-4.38,2.85-4.38l5.25-138.36,1.5-.13c4.17,22.57,17,38.69,14.87,62.14-2.5,28.72,13.2,45.12,16.81,56.39s-4,17.75-.73,19.43,10.53-7.35,8.24-23.31c-2.38-15.76-14.46-20.58-11.62-55.64,2.44-29.82-9.54-40.27-10.75-62.27.76-.22,1.52-.45,2.27-.69L324,453.91s1.63,4,4.42,2.91.95-5.11.95-5.11L281.18,321.83l1.38-.74c12.51,19.23,30.5,29.23,37.44,51.8,8.63,27.59,29.55,36.62,37.16,45.43,7.71,9.08,3.14,18.06,6.79,18.25s7-10.56-1.25-24.46c-8.28-13.73-21.2-13.64-32-47.11-9.18-28.5-24.32-33.52-33.83-53.4.6-.48,1.2-1,1.8-1.48l101.55,94.09s3.05,3.19,5.19,1.12-1.14-5.18-1.14-5.18L310.1,298.64c.34-.4.67-.8,1-1.21,19,13,39.35,15.41,54.51,33.47,18.59,22.26,41.18,22.54,51.75,27.76,10.49,5.5,9.77,15.58,13.28,14.31s2.23-12.56-10.64-22.18-24.76-4.29-47.64-31.14C353,296.82,337.07,298,320.71,283.18l1.09-2,129.88,48.13s3.93,1.76,5.11-1-2.9-4.43-2.9-4.43L328,266.13c.17-.5.32-1,.47-1.53,22.5,4.85,42.28-.75,63.23,10.18,25.55,13.5,46.59,5,58.38,6s15,10.48,17.63,8c2.83-2.37-2.63-12.42-18.25-16.43s-24.55,5.61-55.91-10.61c-26.66-13.52-40.87-6.42-61.7-13.81.09-.77.16-1.53.23-2.3l138.46-5.22s4.27,0,4.27-3S470.55,234.46,470.55,234.46Z"/><path class="cls-1" d="M236.84,222.77h12a23.66,23.66,0,0,0,.44-5H236.82C236.83,219.55,236.84,221.27,236.84,222.77Z"/></g></g></svg>