<svg xmlns="http://www.w3.org/2000/svg" viewBox="0 0 308.17 258.14"><defs><style>.cls-1{fill:#1b262c;}.cls-2{fill:#fff;}</style></defs><g id="Capa_2" data-name="Capa 2"><g id="Layer_1" data-name="Layer 1"><polygon class="cls-1" points="43.94 0 19.95 0 19.95 0 19.87 0.48 19.78 0.96 19.68 1.43 19.57 1.9 19.45 2.36 19.33 2.82 19.19 3.28 19.05 3.73 18.89 4.18 18.73 4.63 18.38 5.5 18 6.36 17.59 7.21 17.14 8.03 16.67 8.83 16.16 9.61 15.63 10.37 15.06 11.11 14.47 11.83 13.86 12.52 13.21 13.19 12.55 13.83 11.86 14.45 11.14 15.04 10.4 15.6 9.64 16.13 8.86 16.64 8.06 17.11 7.23 17.56 6.39 17.97 5.53 18.35 4.65 18.7 4.21 18.86 3.76 19.02 3.31 19.16 2.85 19.3 2.39 19.43 1.92 19.55 1.46 19.65 0.98 19.75 0.51 19.85 0.03 19.93 0 19.95 0 44.01 0 238.18 0 238.18 0.48 238.26 0.96 238.35 1.43 238.45 1.9 238.56 2.36 238.68 2.82 238.81 3.28 238.94 3.73 239.09 4.18 239.24 4.63 239.41 5.5 239.75 6.36 240.13 7.21 240.55 8.03 240.99 8.83 241.47 9.61 241.97 10.37 242.51 11.11 243.07 11.83 243.66 12.52 244.28 13.19 244.92 13.83 245.59 14.45 246.28 15.04 247 15.6 247.74 16.13 248.5 16.64 249.28 17.11 250.08 17.56 250.9 17.97 251.74 18.35 252.6 18.7 253.48 18.86 253.93 19.02 254.38 19.16 254.83 19.3 255.29 19.43 255.75 19.55 256.21 19.65 256.68 19.75 257.15 19.85 257.63 19.93 258.11 19.95 258.14 43.94 258.14 288.22 258.14 288.22 258.13 288.3 257.65 288.39 257.18 288.49 256.71 288.6 256.24 288.72 255.78 288.85 255.31 288.98 254.86 289.13 254.4 289.28 253.96 289.44 253.51 289.79 252.63 290.17 251.77 290.59 250.93 291.03 250.11 291.51 249.31 292.01 248.52 292.55 247.76 293.11 247.02 293.7 246.31 294.32 245.62 294.96 244.95 295.63 244.31 296.32 243.69 297.03 243.1 297.77 242.54 298.53 242 299.32 241.5 300.12 241.02 300.94 240.58 301.78 240.16 302.64 239.78 303.52 239.43 303.96 239.27 304.41 239.12 304.87 238.97 305.32 238.84 305.79 238.71 306.25 238.59 306.72 238.48 307.19 238.38 307.67 238.29 308.14 238.21 308.17 238.18 308.17 44.01 308.17 19.95 308.17 19.95 307.69 19.87 307.22 19.78 306.75 19.68 306.28 19.57 305.81 19.45 305.35 19.33 304.89 19.19 304.44 19.05 303.99 18.89 303.55 18.73 302.67 18.38 301.81 18 300.97 17.59 300.15 17.14 299.34 16.67 298.56 16.16 297.8 15.63 297.06 15.06 296.35 14.47 295.65 13.86 294.99 13.21 294.34 12.55 293.73 11.86 293.14 11.14 292.57 10.4 292.04 9.64 291.54 8.86 291.06 8.06 290.62 7.23 290.2 6.39 289.82 5.53 289.47 4.65 289.31 4.21 289.16 3.76 289.01 3.31 288.88 2.85 288.75 2.39 288.63 1.93 288.52 1.46 288.42 0.98 288.33 0.51 288.25 0.03 288.22 0 43.94 0"/><path class="cls-2" d="M91.38,158.26a4.8,4.8,0,1,1-4.8-4.83A4.82,4.82,0,0,1,91.38,158.26Z"/><path class="cls-2" d="M97.18,137.62H95.1l-.16.25a1,1,0,0,0-.11.17l-.82,1.3-.15.24h0l-5.78,9.21a9.61,9.61,0,0,1,7.76,7l.31-.49c.18-.3.38-.6.58-.92.79-1.23,8.32-13.15,10.14-16.05h0l.42-.67Z"/><path class="cls-2" d="M109.46,178.86a12.76,12.76,0,0,1-6.88,4.6,12.47,12.47,0,0,1-10.68-1.88,14.57,14.57,0,0,1-4.85-6.8c0-.09-.07-.17-.11-.28a.64.64,0,0,0,0-.07c-.27-.72-.73-2-1.19-3.4l-1.13,1.12h0a50.51,50.51,0,0,1-10,7.94,28.23,28.23,0,0,1-10.72,3.66c-4.59.57-9.11.39-13.37-1.7a15.1,15.1,0,0,1-9-13.21,24.3,24.3,0,0,1,3.09-13.33A39.89,39.89,0,0,1,59.13,140a28.39,28.39,0,0,1,12.75-4.15,14.88,14.88,0,0,1,9.94,2.38,16.48,16.48,0,0,1,5.59,6.88c.35.75.67,1.53,1,2.35l.2.46-.55.87.19,0h0a10.41,10.41,0,0,0-1.69-.15,9.57,9.57,0,0,0-6.53,2.57A26.58,26.58,0,0,0,77.57,145a8.26,8.26,0,0,0-3.3-3.38,7.32,7.32,0,0,0-5.82-.18,15,15,0,0,0-6.72,4.87,42.79,42.79,0,0,0-8.86,16.09,20.61,20.61,0,0,0-.61,10c.78,3.8,3.36,6.07,7,6.06a9.73,9.73,0,0,0,3.69-.71A25.79,25.79,0,0,0,71,172.18a56.36,56.36,0,0,0,7.5-8.76,9.57,9.57,0,0,0,15.22,1.22c.64,1.6,1.29,4.05,1.91,6h0q.26.81.51,1.44A12.55,12.55,0,0,0,99,176.82l.29.26a9.9,9.9,0,0,0,6.3,2A31.54,31.54,0,0,0,109.46,178.86Z"/><path class="cls-2" d="M131.16,163.43H121.9l-1.83,4.28h-3.54l8.33-18.52h3.39l8.36,18.52H133Zm-1.14-2.7-3.49-8.1-3.47,8.1Z"/><path class="cls-2" d="M138.64,148.08H142v19.63h-3.31Z"/><path class="cls-2" d="M161.29,160.65a6.88,6.88,0,0,1-7.17,7.25A5.78,5.78,0,0,1,149.6,166v6.85h-3.31V153.59h3.15v1.85a5.82,5.82,0,0,1,4.68-2A6.87,6.87,0,0,1,161.29,160.65Zm-3.36,0a4.2,4.2,0,1,0-4.18,4.42A4.11,4.11,0,0,0,157.93,160.65Z"/><path class="cls-2" d="M178.35,159.62v8.09H175V160c0-2.51-1.24-3.73-3.36-3.73-2.35,0-3.94,1.43-3.94,4.26v7.14h-3.3V148.08h3.3v7.15a6.28,6.28,0,0,1,4.71-1.8C175.84,153.43,178.35,155.36,178.35,159.62Z"/><path class="cls-2" d="M194.38,159.43v8.28h-3.12V166c-.79,1.22-2.33,1.91-4.45,1.91-3.22,0-5.26-1.78-5.26-4.24s1.59-4.2,5.87-4.2h3.65v-.21c0-1.93-1.16-3.07-3.51-3.07a7,7,0,0,0-4.29,1.4l-1.3-2.41a10,10,0,0,1,6-1.74C192,153.43,194.38,155.36,194.38,159.43Zm-3.31,3.86v-1.64h-3.41c-2.25,0-2.86.85-2.86,1.88,0,1.19,1,2,2.7,2A3.59,3.59,0,0,0,191.07,163.29Z"/><path class="cls-2" d="M225.52,149.19l-6.14,18.52h-3.65L211.15,154l-4.65,13.7h-3.68l-6.14-18.52h3.57l4.61,14.08,4.78-14.08h3.18l4.68,14.16,4.74-14.16Z"/><path class="cls-2" d="M239.72,159.43v8.28H236.6V166c-.79,1.22-2.33,1.91-4.44,1.91-3.23,0-5.27-1.78-5.27-4.24s1.59-4.2,5.87-4.2h3.66v-.21c0-1.93-1.17-3.07-3.52-3.07a7,7,0,0,0-4.29,1.4l-1.29-2.41a9.92,9.92,0,0,1,6-1.74C237.37,153.43,239.72,155.36,239.72,159.43Zm-3.3,3.86v-1.64H233c-2.25,0-2.85.85-2.85,1.88,0,1.19,1,2,2.69,2A3.61,3.61,0,0,0,236.42,163.29Z"/><path class="cls-2" d="M243.45,148.08h3.31v19.63h-3.31Z"/><path class="cls-2" d="M251.1,148.08h3.3v19.63h-3.3Z"/><path class="cls-2" d="M272,161.71H260.88c.4,2.06,2.12,3.38,4.58,3.38a5.08,5.08,0,0,0,3.84-1.53l1.77,2a7.2,7.2,0,0,1-5.69,2.3c-4.73,0-7.8-3.05-7.8-7.25a7,7,0,0,1,7.3-7.22,6.88,6.88,0,0,1,7.14,7.3C272,161,272,161.39,272,161.71Zm-11.11-2.2h8a3.84,3.84,0,0,0-4-3.44A3.9,3.9,0,0,0,260.86,159.51Z"/><path class="cls-2" d="M283.69,166.94a5.2,5.2,0,0,1-3.18,1c-3.09,0-4.87-1.64-4.87-4.76v-6.8h-2.32v-2.65h2.32v-3.23H279v3.23h3.78v2.65H279v6.72c0,1.37.69,2.11,2,2.11a2.94,2.94,0,0,0,1.85-.58Z"/></g></g></svg>