<svg xmlns="http://www.w3.org/2000/svg" viewBox="0 0 618.51 685.88"><defs><style>.cls-1{fill:#0b4d76;}.cls-2{fill:#00b7c2;}.cls-3{fill:#fcf7f2;}</style></defs><g id="Capa_2" data-name="Capa 2"><g id="Layer_1" data-name="Layer 1"><path class="cls-1" d="M27.6,684.38a1.5,1.5,0,0,1-1.16-.55,1.83,1.83,0,0,1-.35-.73l-.1-.59-.11-.56-.12-.55-.12-.55-.14-.54-.15-.55-.16-.53L25,678.7l-.18-.53-.19-.52-.41-1-.45-1-.49-1-.52-1-.56-.94-.59-.91-.63-.89-.66-.87-.69-.83-.72-.81-.75-.78-.78-.76-.81-.72-.84-.69-.87-.65-.89-.63-.92-.59-.94-.55-1-.52-1-.49-1-.44-1-.41L7.64,661l-.52-.18-.53-.17-.54-.16-.54-.15L5,660.2l-.55-.13L3.87,660l-.56-.11-.51-.09a1.48,1.48,0,0,1-1.3-1.48V27.6a1.5,1.5,0,0,1,.55-1.16,1.83,1.83,0,0,1,.73-.35l.59-.1.56-.11.55-.11L5,25.64l.55-.14.53-.15.54-.16L7.18,25l.53-.18.52-.19,1-.41,1-.45,1-.49,1-.52.94-.56.91-.59L15,21l.87-.65.83-.7.81-.72.78-.75L19,17.4l.72-.82.69-.83.65-.87L21.7,14l.59-.92.55-.94.52-1,.49-1,.44-1,.41-1,.18-.51.18-.52.17-.53.16-.54.15-.54L25.68,5l.12-.55.12-.55L26,3.31l.09-.51a1.4,1.4,0,0,1,.21-.59A1.49,1.49,0,0,1,27.6,1.5H590.91a1.48,1.48,0,0,1,1.16.55,1.6,1.6,0,0,1,.35.73l.1.59.11.56.12.55.13.55.13.55.15.53.16.54.17.53.18.53.19.51.42,1,.44,1,.49,1,.52,1,.56.94.59.91.63.89.66.87.69.83.72.81.75.78.79.76.81.72.84.69.86.65.89.63.92.59.94.55,1,.52,1,.49,1,.44,1,.41.51.18.52.18.54.17.53.16.54.15.54.14.55.13.56.11.55.11.5.08a1.71,1.71,0,0,1,.44.13A1.51,1.51,0,0,1,617,27.6V658.28a1.5,1.5,0,0,1-.55,1.16,1.83,1.83,0,0,1-.73.35l-.59.1-.56.11-.55.11-.55.13-.54.14-.54.15-.54.16-.53.17-.52.18-.52.19-1,.41-1,.45-1,.49-1,.52-.93.56-.92.59-.89.62-.86.66-.84.7L601,667l-.78.75-.75.78-.72.81-.69.84-.66.87-.63.89-.59.92-.55.94-.52,1-.49,1-.44,1-.41,1-.18.51-.18.52-.17.53-.16.54-.15.54-.13.54-.13.55-.12.55-.11.56-.08.5a1.39,1.39,0,0,1-.13.44,1.51,1.51,0,0,1-1.36.87Z"/><path class="cls-1" d="M57.17,3H590.91l0,0,.1.59.12.58.12.59.14.57.14.58.16.56.17.57.17.56.19.55.2.55.43,1.08.47,1.06.51,1,.55,1,.59,1,.62,1,.66.93.69.91.73.89.76.85.79.82.83.8.85.76.88.72.91.7.94.66,1,.62,1,.58,1,.55,1,.51,1.06.47,1.08.43.55.2.55.19.56.18.56.17.57.16.57.14.58.14.58.12.59.11.59.1h0V658.28l0,0-.59.1-.58.11-.58.13-.58.13-.57.15-.57.16-.56.16-.56.18-.56.19-.55.2-1.08.43-1.06.47-1,.51-1,.55-1,.59-1,.62-.94.66-.91.69-.88.73-.86.76-.82.79-.79.82-.76.86-.73.88-.69.91-.66.94-.63,1-.58,1-.55,1-.51,1-.47,1.06-.43,1.09-.2.54-.19.56-.18.56-.17.56-.15.57-.15.57-.13.58-.13.58-.11.59-.1.59H27.6l0,0-.1-.59-.11-.58-.13-.59-.13-.57-.15-.58-.16-.56-.16-.57-.18-.56-.19-.55-.2-.55-.43-1.08L25.16,675l-.51-1-.55-1-.59-1-.62-1-.66-.93-.69-.92-.73-.88-.76-.85-.79-.82-.82-.8-.86-.76-.88-.72-.91-.7-.94-.66-1-.62-1-.59-1-.54-1-.51-1.06-.47-1.09-.43-.54-.2-.56-.19L7,659.22l-.56-.17-.57-.16-.57-.14-.58-.14-.58-.12-.59-.11-.59-.1H3V27.6l0,0,.59-.1.58-.11.59-.13.57-.13L6,27l.56-.16.57-.16.56-.18.55-.19.55-.2,1.08-.43,1.06-.47,1-.51,1-.55,1-.59,1-.62.93-.66.91-.69.89-.73.85-.76.82-.79.8-.82.76-.86.72-.88.7-.91.66-.94.62-1,.58-1,.55-1,.51-1,.47-1.06.43-1.09.2-.54.19-.56L26.66,7l.17-.56L27,5.91l.14-.57.14-.58.12-.58.11-.59L27.6,3H57.17m0-3H27.6a3,3,0,0,0-3,2.62l-.08.44-.1.52-.11.53-.12.52-.13.51-.15.51-.15.51-.16.5-.17.5-.17.48-.39,1-.43,1-.45.93-.5.91-.52.89-.56.86-.59.85-.63.82-.65.79-.69.77-.71.74-.74.71-.77.68-.79.66-.82.62-.84.59-.87.56-.89.53-.91.49-.93.46-.95.42-1,.4-.48.17-.49.17-.51.16-.5.15-.51.14-.52.13-.52.12-.52.12-.53.1-.56.09a3,3,0,0,0-1.4.64A3.12,3.12,0,0,0,0,27.6V658.28a3,3,0,0,0,1.57,2.63,2.88,2.88,0,0,0,1.05.34l.44.08.52.1.53.11.52.12.51.13.51.15.51.15.5.16.5.17.48.17,1,.39,1,.42.94.46.91.5.89.52.87.56L14,666l.82.63.79.65.77.68.74.72.71.74.68.77.66.79.62.82.59.84.56.87.53.89.49.91.46.93.42,1,.39,1,.18.48.17.49.16.51.15.5.14.51.13.52.12.52.12.52.1.52.09.57a3.06,3.06,0,0,0,3,2.53H590.91a3,3,0,0,0,2.6-1.5,3,3,0,0,0,.38-1.12l.07-.44.1-.52.11-.53.13-.52.13-.51.14-.51.15-.51.16-.5.17-.5.17-.48.4-1,.42-1,.46-.93.49-.91.52-.89.57-.87.59-.84.62-.82.65-.79.69-.77.71-.74.74-.71.77-.68.79-.66.82-.62.84-.59.87-.56.89-.53.91-.49.93-.46,1-.42,1-.4.48-.17.5-.17.5-.16.51-.15.51-.14.51-.13.52-.12.53-.12.52-.1.56-.09a3,3,0,0,0,1.41-.65,3.09,3.09,0,0,0,1.12-2.34V27.6A3,3,0,0,0,616.94,25a2.7,2.7,0,0,0-1.05-.34l-.43-.08-.53-.1-.52-.11-.52-.12-.52-.13-.51-.15-.51-.15-.5-.16-.5-.17-.47-.17-1-.39-.95-.42L608,22l-.91-.5L606.2,21l-.86-.56-.85-.6-.82-.62-.79-.65-.77-.69-.73-.71-.72-.74-.68-.77-.65-.79-.63-.82-.59-.84-.56-.87-.53-.89-.49-.91-.46-.93-.42-.95-.39-1-.18-.48-.17-.5-.16-.5-.15-.5-.14-.52-.13-.51-.12-.52-.11-.52-.1-.53-.1-.56a3,3,0,0,0-.65-1.41A3.13,3.13,0,0,0,590.91,0Z"/><path class="cls-2" d="M57.17,3v9H584.06l0,.06.43,1.09.07.16.07.16.47,1.06.07.16.08.16.51,1,.07.16.09.15.55,1,.08.16.09.15.58,1,.09.15.1.15.62,1,.1.15.1.14.65.93.1.15.11.14.69.91.11.13.11.14.72.88.11.13.12.13.76.86.12.13.12.12.79.82.12.13.12.12.82.79.13.12.13.12.85.76.13.11.14.11.88.73.13.11.14.1.91.7.14.1.14.1.94.66.14.1.15.1,1,.62.15.09.15.09,1,.59.15.09.15.08,1,.55.15.08.16.08,1,.51.16.08.17.07,1.06.47.16.07.16.07,1.08.43h0v617l-.06,0-1.08.43-.17.06L605,652l-1.06.47-.16.08-.16.07-1,.51-.15.08-.16.09-1,.54-.16.09L601,654l-1,.58-.15.09-.14.1-1,.62-.14.09-.15.1-.93.66-.15.1-.13.11-.91.69-.14.1-.14.12-.88.72-.13.11-.13.12-.85.76-.13.11-.13.12-.82.8-.13.11-.12.13-.79.82-.12.13-.11.13-.76.85-.12.13-.11.13-.73.89-.11.13-.1.14-.69.91-.11.14-.1.14-.66.94-.1.14-.09.14-.63,1-.09.15-.09.15-.59,1-.09.15-.08.15-.55,1-.08.16-.08.16-.51,1-.08.16-.07.16-.47,1.06-.07.16-.07.17-.43,1.08v0H34.45l0-.06L34,672.73l-.06-.16-.07-.16-.48-1.06-.07-.16-.07-.16-.51-1-.08-.16-.09-.15-.54-1-.09-.16-.09-.15-.58-1-.09-.15-.1-.14-.62-1-.09-.15-.1-.14-.66-.94-.1-.14-.11-.14-.69-.91-.11-.14-.11-.13-.72-.88-.11-.14-.12-.13-.76-.85-.11-.13-.12-.12-.8-.82-.12-.13-.12-.12-.82-.79-.13-.12-.13-.12-.85-.76-.13-.11-.13-.11-.89-.73-.13-.11-.14-.1-.91-.7-.14-.1-.14-.1-.94-.66-.14-.1-.15-.1-1-.62-.15-.09-.15-.09-1-.59-.15-.09-.15-.08-1-.55L16,653.2l-.16-.08-1-.51-.16-.08-.16-.07L13.44,652l-.17-.07-.16-.07L12,651.42h0v-617l.06,0L13.15,34l.16-.06.16-.07,1.06-.47.16-.08.16-.07,1-.51.16-.08.15-.09,1-.54.16-.09.15-.09,1-.58.15-.09.14-.1,1-.62.15-.09.14-.1L21,29.6l.14-.1.14-.11.91-.69.13-.11.14-.11.88-.72.13-.11.13-.12.86-.76.13-.11.12-.12.82-.79.13-.13.12-.12.79-.82.12-.13.12-.13.76-.85.11-.13.11-.13.73-.89.11-.13.1-.14.7-.91.1-.14.1-.14.66-.94.1-.14.1-.15.62-1,.09-.15.09-.15.59-1,.09-.15.08-.15.55-1,.08-.16.08-.16.51-1,.08-.16.07-.16.47-1.06.07-.17.07-.16L34.46,12v0h22.7V3m0,0H27.6l-.1.59-.11.59-.12.58-.14.58L27,5.91l-.16.57L26.66,7l-.18.56-.19.56-.2.54-.43,1.09-.47,1.06-.51,1-.55,1-.58,1-.62,1-.66.94-.7.91-.72.88-.76.86-.8.82-.82.79-.85.76-.89.73-.91.69-.93.66-1,.62-1,.59-1,.55-1,.51-1.06.47-1.08.43-.55.2-.55.19-.56.18-.57.16L6,27l-.58.15-.57.13-.59.13-.58.11-.59.1,0,0V658.28H3l.59.1.59.11.58.12.58.14.57.14.57.16.56.17.56.18.56.19.54.2,1.09.43,1.06.47,1,.51,1,.54,1,.59,1,.62.94.66.91.7.88.72.86.76.82.8.79.82.76.85.73.88.69.92.66.93.62,1,.59,1,.55,1,.51,1,.47,1.06.43,1.08.2.55.19.55.18.56.16.57.16.56.15.58.13.57.13.59.11.58.1.59,0,0H590.91l.1-.59.11-.59.13-.58.13-.58.15-.57.15-.57.17-.56.18-.56.19-.56.2-.54.43-1.09.47-1.06.51-1,.55-1,.58-1,.63-1,.66-.94.69-.91.73-.88.76-.86.79-.82.82-.79.86-.76.88-.73.91-.69.94-.66,1-.62,1-.59,1-.55,1-.51,1.06-.47,1.08-.43.55-.2.56-.19.56-.18.56-.16.57-.16.57-.15.58-.13.58-.13.58-.11.59-.1,0,0V27.6h0l-.59-.1-.59-.11-.58-.12-.58-.14L612.6,27l-.57-.16-.56-.17-.56-.18-.55-.19-.55-.2-1.08-.43-1.06-.47-1-.51-1-.55-1-.58-1-.62-.94-.66-.91-.7-.88-.72-.85-.76-.83-.8-.79-.82-.76-.85-.73-.89-.69-.91-.66-.93-.62-1-.59-1-.55-1-.51-1-.47-1.06-.43-1.08-.2-.55-.19-.55-.17-.56-.17-.57L591.56,6l-.14-.58-.14-.57-.12-.59L591,3.63l-.1-.59,0,0Z"/><path class="cls-3" d="M57.17,3V9h529l.15.46,0,.06,0,.06.19.55v.06l0,.05.2.55,0,.08,0,.09.43,1.08,0,.11,0,.1.47,1.06,0,.11.05.11.51,1,0,.11.06.1.55,1,.05.1.06.1.59,1,.06.1.06.1.62,1,.06.1.07.09.66.94.07.1.07.09.69.91.07.09.07.09.73.88.07.09.08.09.76.85.08.09.08.08.79.82.08.09.08.08.83.79.08.08.08.08.86.76.08.07.09.08.89.72.09.08.09.07.91.69.09.07.09.07.94.66.1.06.09.07,1,.62.1.06.1.06,1,.59.1.06.1.05,1,.55.11.06.1.05,1,.51.1.05.11.05,1.06.47.11.05.11,0,1.08.43.08,0,.09,0,.55.2.05,0,.06,0,.55.19.06,0,.06,0,.42.13V653.57l-.46.15H609l0,0-.56.19,0,0-.06,0-.55.2-.08,0-.08,0-1.08.43-.11.05-.11,0-1.06.47-.11,0-.1.06-1,.51-.11,0-.1.05-1,.55-.1.06-.1.06-1,.58-.1.06-.09.07-1,.62-.1.06-.09.07-.94.66-.09.06-.1.07-.91.7-.09.07-.09.07-.88.73-.09.07-.09.08-.85.76-.09.07-.08.09-.82.79-.09.08-.07.08-.8.82-.08.09-.07.08-.76.86-.08.08-.07.09-.73.88-.08.09-.07.09-.69.92-.07.09-.06.09-.66.94-.07.09-.06.1-.63,1-.06.09-.06.1-.58,1-.06.1-.06.11-.55,1,0,.1-.06.11-.51,1,0,.1,0,.11-.47,1.06,0,.11-.05.11-.43,1.08,0,.08,0,.09-.2.54,0,.06,0,0-.19.56,0,.06,0,.05-.13.43H32.31l-.15-.46,0-.06v-.05l-.19-.56,0-.06,0-.05-.2-.55,0-.08,0-.09-.43-1.08,0-.11-.05-.11-.47-1.06-.05-.1-.05-.11-.51-1-.05-.1-.05-.1-.55-1-.06-.1-.06-.1-.58-1-.06-.1-.07-.1-.62-1-.06-.1-.07-.1-.66-.93-.06-.1-.07-.09-.7-.91-.07-.09-.07-.09-.73-.88-.07-.09-.08-.09-.76-.85-.08-.09-.08-.08-.79-.82-.08-.09-.08-.08-.82-.79-.09-.08-.08-.08-.86-.76-.08-.07-.09-.08-.88-.72-.09-.08-.1-.07-.91-.69-.09-.07-.09-.07L18.3,658l-.1-.06-.09-.07-1-.62-.1-.06-.1-.06-1-.59-.11-.06-.1,0-1-.55-.11-.06-.1-.05-1-.51-.1,0-.11,0-1.06-.47-.11-.05-.11,0-1.08-.43-.08,0-.09,0-.54-.2-.06,0-.06,0-.55-.19-.06,0-.05,0L9,653.55V32.31l.46-.15h.06l.05,0,.56-.19,0,0,.06,0,.55-.2.08,0,.08,0L12,31.2l.11,0,.1-.05,1.06-.47.11,0,.11-.06,1-.51.11-.05.1-.05,1-.55.1-.06.1-.06,1-.58.1-.06.1-.07,1-.62.1-.06.09-.07.94-.66.1-.06.09-.07.91-.7.09-.07.09-.07.88-.73.09-.07.09-.08.85-.76.09-.07.08-.08.82-.8.09-.08.08-.08.79-.82.08-.09.08-.08.76-.86.07-.08.08-.09.72-.88.08-.09.07-.09.69-.92.07-.09.07-.09.66-.94.06-.09.07-.1.62-1,.06-.1.06-.09.59-1,.06-.11.05-.1.55-1,.06-.1.05-.11.51-1,.05-.1.05-.11.47-1.06.05-.11,0-.11.43-1.08,0-.08,0-.09.2-.54,0-.06,0-.06.19-.55,0-.06,0-.05L32.33,9H57.17V3m0,0H27.6l-.1.59-.11.59-.12.58-.14.58L27,5.91l-.16.57L26.66,7l-.18.56-.19.56-.2.54-.43,1.09-.47,1.06-.51,1-.55,1-.58,1-.62,1-.66.94-.7.91-.72.88-.76.86-.8.82-.82.79-.85.76-.89.73-.91.69-.93.66-1,.62-1,.59-1,.55-1,.51-1.06.47-1.08.43-.55.2-.55.19-.56.18-.57.16L6,27l-.58.15-.57.13-.59.13-.58.11-.59.1,0,0V658.28H3l.59.1.59.11.58.12.58.14.57.14.57.16.56.17.56.18.56.19.54.2,1.09.43,1.06.47,1,.51,1,.54,1,.59,1,.62.94.66.91.7.88.72.86.76.82.8.79.82.76.85.73.88.69.92.66.93.62,1,.59,1,.55,1,.51,1,.47,1.06.43,1.08.2.55.19.55.18.56.16.57.16.56.15.58.13.57.13.59.11.58.1.59,0,0H590.91l.1-.59.11-.59.13-.58.13-.58.15-.57.15-.57.17-.56.18-.56.19-.56.2-.54.43-1.09.47-1.06.51-1,.55-1,.58-1,.63-1,.66-.94.69-.91.73-.88.76-.86.79-.82.82-.79.86-.76.88-.73.91-.69.94-.66,1-.62,1-.59,1-.55,1-.51,1.06-.47,1.08-.43.55-.2.56-.19.56-.18.56-.16.57-.16.57-.15.58-.13.58-.13.58-.11.59-.1,0,0V27.6h0l-.59-.1-.59-.11-.58-.12-.58-.14L612.6,27l-.57-.16-.56-.17-.56-.18-.55-.19-.55-.2-1.08-.43-1.06-.47-1-.51-1-.55-1-.58-1-.62-.94-.66-.91-.7-.88-.72-.85-.76-.83-.8-.79-.82-.76-.85-.73-.89-.69-.91-.66-.93-.62-1-.59-1-.55-1-.51-1-.47-1.06-.43-1.08-.2-.55-.19-.55-.17-.56-.17-.57L591.56,6l-.14-.58-.14-.57-.12-.59L591,3.63l-.1-.59,0,0Z"/><path class="cls-2" d="M57.17,3V6H588.48v.11l.14.58v0l.16.57v.06l.17.56V8l.18.56v.06l.18.55v.05l.2.55,0,.05,0,0,.43,1.08,0,.05,0,.06.47,1.06,0,.05,0,0,.51,1,0,0,0,.06.54,1,0,.05,0,.05.59,1,0,.05,0,.05.62,1,0,0,0,.05.65.94,0,.05,0,0,.7.91,0,.05,0,0,.73.88,0,.05,0,0,.76.86,0,0,0,0,.79.82,0,.05,0,0,.83.79,0,0,0,0,.85.76.05,0,0,0,.88.73.05,0,0,0,.92.69,0,0,0,0,.94.66,0,0,0,0,1,.62,0,0,.05,0,1,.59,0,0,.05,0,1,.55,0,0,0,0,1,.51.06,0,.05,0,1.06.47,0,0,.06,0,1.08.43,0,0h0l.55.2h.06l.55.19H610l.56.18h.05l.57.16h.05l.57.16h.06l.57.15h.08V655.85h-.11l-.57.14h-.06l-.57.15h-.06l-.56.17h-.06l-.56.17h-.05l-.56.19h-.05l-.55.2,0,0h0l-1.09.43-.05,0,0,0-1.06.47-.06,0-.05,0-1,.51,0,0-.05,0-1,.55,0,0-.05,0-1,.58,0,0,0,0-1,.62,0,0-.05,0-.94.66,0,0,0,0L600,662l-.05,0,0,0-.88.72,0,0,0,0-.85.76,0,0,0,0-.82.79,0,0,0,0-.8.82,0,0,0,.05-.76.85,0,0,0,0-.73.88,0,.05,0,0-.69.91,0,.05,0,0-.66.93,0,.05,0,0-.63,1,0,0,0,.05-.58,1,0,0,0,0-.55,1,0,0,0,0-.51,1,0,0,0,.06-.47,1.06,0,0,0,.06-.43,1.08,0,0v0l-.2.55v0l-.19.56v.06l-.18.55V678l-.17.56v.06l-.15.57v.06l-.15.57v.08H30v-.11l-.14-.58v-.06l-.15-.56v-.06L29.5,678v-.06l-.18-.56v-.06l-.19-.55v-.06l-.2-.55,0,0v0L28.42,675l0-.05,0-.06-.47-1.06,0,0,0-.05-.51-1,0,0,0-.06-.55-1,0,0,0-.05-.59-1,0,0,0,0-.62-1,0,0,0-.05-.66-.94,0-.05,0,0-.69-.91,0-.05,0,0-.72-.89,0,0,0,0-.76-.86,0,0,0,0-.79-.82,0,0,0,0-.82-.79-.05,0,0,0-.85-.76,0,0,0,0-.88-.73-.05,0,0,0-.91-.69-.05,0,0,0-.93-.66,0,0-.05,0-1-.62,0,0-.05,0-1-.59,0,0-.06,0-1-.55-.05,0,0,0-1-.51-.05,0-.06,0L11,657.47l-.05,0-.06,0L9.81,657l0,0h0l-.55-.2H9.12l-.55-.19H8.51L8,656.36H7.9l-.57-.16h0L6.71,656H6.65l-.57-.15H6V30h.12l.57-.14h0l.57-.15h.06l.56-.17H8l.56-.17h0l.56-.19h.06l.54-.2.05,0h0l1.08-.43.05,0,.06,0,1.06-.47.05,0,0,0,1-.51,0,0,.06,0,1-.55.05,0,.05,0,1-.59.05,0,.05,0,1-.62,0,0,.05,0,.94-.66.05,0,0,0,.91-.69.05,0,0,0,.89-.72,0,0,0,0,.86-.76,0,0,0,0,.82-.79.05,0,0,0,.79-.82,0-.05,0,0,.76-.85,0,0,0-.05.73-.88,0-.05,0,0,.69-.91,0-.05,0,0,.66-.93,0,0,0-.05.62-1,0,0,0-.05.59-1,0,0,0-.06.55-1,0-.05,0,0,.51-1,0-.05,0-.06L28.41,11l0-.05,0-.06.43-1.08,0,0v0l.2-.55V9.12l.19-.55V8.51L29.52,8V7.9l.16-.56V7.28l.16-.57V6.65L30,6.08V6H57.17V3m0,0H27.6l-.1.59-.11.59-.12.58-.14.58L27,5.91l-.16.57L26.66,7l-.18.56-.19.56-.2.54-.43,1.09-.47,1.06-.51,1-.55,1-.58,1-.62,1-.66.94-.7.91-.72.88-.76.86-.8.82-.82.79-.85.76-.89.73-.91.69-.93.66-1,.62-1,.59-1,.55-1,.51-1.06.47-1.08.43-.55.2-.55.19-.56.18-.57.16L6,27l-.58.15-.57.13-.59.13-.58.11-.59.1,0,0V658.28H3l.59.1.59.11.58.12.58.14.57.14.57.16.56.17.56.18.56.19.54.2,1.09.43,1.06.47,1,.51,1,.54,1,.59,1,.62.94.66.91.7.88.72.86.76.82.8.79.82.76.85.73.88.69.92.66.93.62,1,.59,1,.55,1,.51,1,.47,1.06.43,1.08.2.55.19.55.18.56.16.57.16.56.15.58.13.57.13.59.11.58.1.59,0,0H590.91l.1-.59.11-.59.13-.58.13-.58.15-.57.15-.57.17-.56.18-.56.19-.56.2-.54.43-1.09.47-1.06.51-1,.55-1,.58-1,.63-1,.66-.94.69-.91.73-.88.76-.86.79-.82.82-.79.86-.76.88-.73.91-.69.94-.66,1-.62,1-.59,1-.55,1-.51,1.06-.47,1.08-.43.55-.2.56-.19.56-.18.56-.16.57-.16.57-.15.58-.13.58-.13.58-.11.59-.1,0,0V27.6h0l-.59-.1-.59-.11-.58-.12-.58-.14L612.6,27l-.57-.16-.56-.17-.56-.18-.55-.19-.55-.2-1.08-.43-1.06-.47-1-.51-1-.55-1-.58-1-.62-.94-.66-.91-.7-.88-.72-.85-.76-.83-.8-.79-.82-.76-.85-.73-.89-.69-.91-.66-.93-.62-1-.59-1-.55-1-.51-1-.47-1.06-.43-1.08-.2-.55-.19-.55-.17-.56-.17-.57L591.56,6l-.14-.58-.14-.57-.12-.59L591,3.63l-.1-.59,0,0Z"/><circle class="cls-2" cx="80.34" cy="146.52" r="5.37"/><path class="cls-2" d="M80.32,155.55A9,9,0,0,1,75,139.24a23.81,23.81,0,0,1-4.34-10.66,2.73,2.73,0,0,1,.42-1.94l31-47.62a1.14,1.14,0,0,1,2.08.42l.34,1.89c.13.7.32,1.69.56,2.9,1.45,7.38,2.93,15.37,2.9,20a40.63,40.63,0,0,1,9-3.2c2.33-.58,4.77-1.08,7.12-1.55,2.08-.43,4.22-.86,6.25-1.35l1.86-.45a1.14,1.14,0,0,1,1.2.45,1.17,1.17,0,0,1,0,1.29L102.35,147a2.75,2.75,0,0,1-1.61,1.17,23.92,23.92,0,0,1-11.59.31,9.3,9.3,0,0,1-1.24,2.94,9,9,0,0,1-5.71,3.9A8.52,8.52,0,0,1,80.32,155.55ZM77,140.67a6.89,6.89,0,0,0-2.3,2.16,6.75,6.75,0,0,0,2,9.34A6.73,6.73,0,0,0,87.06,147a1.15,1.15,0,0,1,1.64-1,21.34,21.34,0,0,0,11.46-.05.42.42,0,0,0,.27-.2l29.48-45.2c-1.78.41-3.61.78-5.39,1.14-2.33.47-4.74,1-7,1.53a35,35,0,0,0-9.83,3.79l-.19.13-.13.12a1.76,1.76,0,0,0-.29.36L87.72,137.3a1.15,1.15,0,0,1-1.92-1.25l19.33-29.65a4.74,4.74,0,0,1,.46-.6c.65-3.86-1.63-15.47-2.75-21.13-.14-.75-.28-1.42-.39-2L73,127.89a.43.43,0,0,0-.08.32,21.4,21.4,0,0,0,4.67,10.62,1.15,1.15,0,0,1,0,1.49A1.22,1.22,0,0,1,77,140.67Z"/><circle class="cls-2" cx="69.34" cy="219.31" r="5.37"/><path class="cls-2" d="M69.36,228.34a9,9,0,0,1-8-13.24,23.84,23.84,0,0,1-8.57-7.7,2.79,2.79,0,0,1-.47-1.93l7.15-56.39a1.15,1.15,0,0,1,2.06-.53l1.13,1.55c.41.57,1,1.38,1.76,2.36,4.53,6,9.35,12.56,11.34,16.74a41,41,0,0,1,6.66-6.78c1.85-1.55,3.82-3.06,5.73-4.52,1.69-1.28,3.42-2.61,5-3.93l1.48-1.22a1.15,1.15,0,0,1,1.28-.11,1.13,1.13,0,0,1,.58,1.14l-7.15,56.39a2.72,2.72,0,0,1-.94,1.75,23.76,23.76,0,0,1-10.29,5.34,9,9,0,0,1-8.78,11.08Zm-5.58-12.83a6.74,6.74,0,0,0-1.12,3A6.74,6.74,0,1,0,75.6,216.8a1.13,1.13,0,0,1,1.05-1.57,21.44,21.44,0,0,0,10.3-5,.46.46,0,0,0,.15-.3l6.79-53.54c-1.42,1.15-2.9,2.28-4.35,3.38-1.89,1.45-3.84,2.94-5.65,4.45a35.17,35.17,0,0,0-7.2,7.7,1.39,1.39,0,0,0-.11.21l-.06.15a2.12,2.12,0,0,0-.11.45L72,207.8a1.14,1.14,0,1,1-2.27-.29l4.45-35.12a3.66,3.66,0,0,1,.16-.73c-1.11-3.75-8.23-13.21-11.71-17.82l-1.21-1.62-6.79,53.54a.53.53,0,0,0,.08.33,21.35,21.35,0,0,0,8.83,7.51,1.15,1.15,0,0,1,.64,1.35A1.18,1.18,0,0,1,63.78,215.51Z"/><circle class="cls-2" cx="92.99" cy="289.59" r="5.37"/><path class="cls-2" d="M93,298.62a9.06,9.06,0,0,1-8.59-6.26,9.13,9.13,0,0,1-.42-3.2,23.81,23.81,0,0,1-11-3.34,2.81,2.81,0,0,1-1.25-1.54l-17.45-54.1a1.14,1.14,0,0,1,1.64-1.35l1.68.92,2.6,1.39c6.65,3.52,13.79,7.41,17.36,10.34a41.54,41.54,0,0,1,3.16-9c1-2.19,2.16-4.39,3.28-6.52,1-1.88,2-3.82,2.88-5.7l.82-1.73a1.16,1.16,0,0,1,1.11-.65,1.18,1.18,0,0,1,1,.79l17.44,54.1a2.71,2.71,0,0,1-.1,2,23.92,23.92,0,0,1-7.06,9.21,9.07,9.07,0,0,1,1.5,2.81,9,9,0,0,1-5.82,11.37A8.87,8.87,0,0,1,93,298.62Zm-6.65-10.11A6.74,6.74,0,0,0,99,292.66a6.74,6.74,0,0,0-1.41-8,1.16,1.16,0,0,1-.33-1.09,1.11,1.11,0,0,1,.62-.78,21.45,21.45,0,0,0,7.18-8.94.44.44,0,0,0,0-.34L88.5,222.15c-.8,1.64-1.67,3.3-2.51,4.91-1.09,2.11-2.23,4.28-3.23,6.42a35.1,35.1,0,0,0-3.25,10,1.69,1.69,0,0,0,0,.23c0,.06,0,.11,0,.17a2,2,0,0,0,.09.46l10.87,33.68a1.14,1.14,0,0,1-2.18.7L77.42,245.07a4.94,4.94,0,0,1-.17-.74c-2.59-2.92-13-8.46-18.15-11.16l-1.79-1,16.57,51.36a.48.48,0,0,0,.21.27,21.12,21.12,0,0,0,11.19,3.05h0a1.14,1.14,0,0,1,1,1.62Z"/><circle class="cls-2" cx="147.36" cy="341.13" r="5.37"/><path class="cls-2" d="M147.37,350.16a9,9,0,0,1-6.53-2.78,9.18,9.18,0,0,1-1.78-2.7,23.8,23.8,0,0,1-11.37,1.81,2.73,2.73,0,0,1-1.79-.85L86.58,304.59a1.15,1.15,0,0,1-.21-1.27,1.11,1.11,0,0,1,1.1-.66l1.91.09c.71,0,1.73.07,3,.12,7.51.27,15.64.64,20.14,1.72a41.17,41.17,0,0,1-1.08-9.44c0-2.41,0-4.89.1-7.29.07-2.12.13-4.3.11-6.39v-1.91a1.14,1.14,0,0,1,2-.8l39.31,41.05a2.76,2.76,0,0,1,.77,1.84A23.89,23.89,0,0,1,151.3,333a9,9,0,0,1-3.93,17.15Zm-6.46-7.1a6.74,6.74,0,0,0,13.19-1.78,6.68,6.68,0,0,0-1.87-4.81,6.76,6.76,0,0,0-2.88-1.78,1.15,1.15,0,0,1-.78-.82,1.17,1.17,0,0,1,.22-1,21.46,21.46,0,0,0,2.56-11.17.44.44,0,0,0-.13-.31l-37.33-39c0,1.83,0,3.7-.11,5.52-.07,2.37-.14,4.83-.1,7.19a35,35,0,0,0,1.45,10.44,1,1,0,0,0,.09.21,1.09,1.09,0,0,1,.08.15,2.4,2.4,0,0,0,.28.37l24.48,25.56a1.14,1.14,0,1,1-1.65,1.58l-24.48-25.56a3.69,3.69,0,0,1-.47-.59c-3.62-1.5-15.45-1.92-21.21-2.12l-2-.08,37.33,39a.46.46,0,0,0,.3.15,21.47,21.47,0,0,0,11.4-2.14,1.15,1.15,0,0,1,1.45.36A1.21,1.21,0,0,1,140.91,343.06Z"/><circle class="cls-2" cx="535.84" cy="146.57" r="5.37"/><path class="cls-2" d="M535.86,155.6a8.52,8.52,0,0,1-1.88-.2,9,9,0,0,1-7-6.87,24,24,0,0,1-11.51-.33,2.75,2.75,0,0,1-1.61-1.17l-31-47.61a1.17,1.17,0,0,1,0-1.29,1.14,1.14,0,0,1,1.2-.45l1.86.45c.69.17,1.68.39,2.87.66,7.34,1.65,15.26,3.53,19.48,5.42a41.44,41.44,0,0,1,.69-9.48c.41-2.37.94-4.8,1.45-7.15.45-2.06.92-4.2,1.29-6.25l.34-1.89a1.14,1.14,0,0,1,2.08-.42l31,47.62a2.73,2.73,0,0,1,.42,1.94,23.88,23.88,0,0,1-4.4,10.73,9,9,0,0,1-5.35,16.29Zm-6.72-8.33a6.74,6.74,0,1,0,9.84-6.66,1.15,1.15,0,0,1-.61-1,1.14,1.14,0,0,1,.39-.92,21.35,21.35,0,0,0,4.59-10.51.44.44,0,0,0-.08-.33L513.8,82.68c-.34,1.79-.74,3.62-1.13,5.39-.5,2.32-1,4.72-1.42,7.05a34.78,34.78,0,0,0-.51,10.53.87.87,0,0,0,.05.22s0,.11,0,.16a2.06,2.06,0,0,0,.21.42l19.33,29.65a1.15,1.15,0,0,1-1.92,1.25L509.13,107.7a4.22,4.22,0,0,1-.35-.66c-3.27-2.15-14.83-4.75-20.46-6l-2-.45,29.47,45.21a.47.47,0,0,0,.27.2,21.35,21.35,0,0,0,11.6,0,1.16,1.16,0,0,1,1.36.63A1.23,1.23,0,0,1,529.14,147.27Z"/><circle class="cls-2" cx="546.82" cy="219.32" r="5.37"/><path class="cls-2" d="M546.8,228.36a9.05,9.05,0,0,1-8.94-7.9,9.17,9.17,0,0,1,.18-3.22,23.92,23.92,0,0,1-10.22-5.32,2.75,2.75,0,0,1-.93-1.75l-7.16-56.39a1.15,1.15,0,0,1,1.87-1l1.48,1.22c.54.45,1.34,1.08,2.29,1.84,5.88,4.69,12.19,9.84,15.16,13.38a40.73,40.73,0,0,1,4.76-8.22c1.4-2,2.94-3.92,4.42-5.8,1.31-1.67,2.67-3.39,3.89-5.07l1.13-1.55a1.14,1.14,0,0,1,1.21-.43,1.16,1.16,0,0,1,.85,1l7.14,56.39a2.74,2.74,0,0,1-.47,1.93,23.72,23.72,0,0,1-8.64,7.74,8.83,8.83,0,0,1,1,3.05,9.09,9.09,0,0,1-9,10.17ZM540.48,217a6.83,6.83,0,0,0-.35,3.14,6.75,6.75,0,0,0,7.54,5.84,6.74,6.74,0,0,0,4.58-10.68,1.13,1.13,0,0,1-.13-1.12,1.15,1.15,0,0,1,.75-.66,21.5,21.5,0,0,0,8.72-7.46.46.46,0,0,0,.07-.33l-6.78-53.54c-1.09,1.46-2.24,2.93-3.37,4.36-1.47,1.87-3,3.8-4.36,5.72a34.71,34.71,0,0,0-5,9.25,1.8,1.8,0,0,0-.06.22,1,1,0,0,1,0,.17,2.36,2.36,0,0,0,0,.46l4.45,35.12a1.14,1.14,0,1,1-2.27.29l-4.45-35.12a4.71,4.71,0,0,1,0-.75c-2-3.36-11.26-10.74-15.78-14.34l-1.57-1.26,6.79,53.54a.46.46,0,0,0,.15.3,21.36,21.36,0,0,0,10.43,5.07,1.15,1.15,0,0,1,1,1.15A1.08,1.08,0,0,1,540.48,217Z"/><circle class="cls-2" cx="523.18" cy="289.56" r="5.37"/><path class="cls-2" d="M523.18,298.59a9,9,0,0,1-8.59-11.8,9,9,0,0,1,1.52-2.85,23.9,23.9,0,0,1-7-9.15,2.71,2.71,0,0,1-.1-2l17.44-54.1a1.18,1.18,0,0,1,1-.79,1.16,1.16,0,0,1,1.1.65l.83,1.73c.3.64.75,1.55,1.29,2.64,3.34,6.75,6.87,14.08,8.06,18.55a40.86,40.86,0,0,1,7.79-5.43c2.11-1.18,4.32-2.29,6.47-3.37,1.89-.95,3.85-1.94,5.67-2.94l1.68-.92a1.14,1.14,0,0,1,1.64,1.35l-17.45,54.09a2.79,2.79,0,0,1-1.25,1.55,23.77,23.77,0,0,1-11.11,3.34,9,9,0,0,1-9,9.43Zm-4.76-13.8a6.75,6.75,0,0,0-1.24,7.84,6.74,6.74,0,0,0,12.61-4.39,1.13,1.13,0,0,1,.37-1.08,1.16,1.16,0,0,1,1-.27h.14a21.49,21.49,0,0,0,10.91-3.05.48.48,0,0,0,.21-.27L559,232.21c-1.61.87-3.28,1.71-4.9,2.52-2.12,1.07-4.32,2.17-6.38,3.33a34.73,34.73,0,0,0-8.49,6.23.9.9,0,0,0-.15.19l-.09.13a1.87,1.87,0,0,0-.19.43l-10.87,33.68a1.14,1.14,0,0,1-1.44.74,1.15,1.15,0,0,1-.74-1.44l10.87-33.68a4.89,4.89,0,0,1,.29-.7c-.39-3.89-5.65-14.51-8.21-19.68-.33-.68-.64-1.29-.89-1.81l-16.57,51.36a.49.49,0,0,0,0,.34,21.28,21.28,0,0,0,7.29,9,1.16,1.16,0,0,1,.37,1.45A1.23,1.23,0,0,1,518.42,284.79Z"/><circle class="cls-2" cx="468.83" cy="341.07" r="5.37"/><path class="cls-2" d="M468.83,350.09a9,9,0,0,1-3.91-17.16,23.81,23.81,0,0,1-2.3-11.28,2.78,2.78,0,0,1,.77-1.84l39.31-41.05a1.13,1.13,0,0,1,1.25-.27,1.14,1.14,0,0,1,.72,1.07l0,1.91c0,.71,0,1.72,0,2.94.06,7.53,0,15.67-.85,20.21a41.12,41.12,0,0,1,9.38-1.49c2.41-.14,4.89-.17,7.29-.21,2.12,0,4.31-.06,6.39-.17l1.91-.09a1.13,1.13,0,0,1,1.1.66,1.15,1.15,0,0,1-.21,1.27l-39.32,41.05a2.77,2.77,0,0,1-1.79.85,23.74,23.74,0,0,1-11.45-1.84,9.16,9.16,0,0,1-1.77,2.66A9,9,0,0,1,468.83,350.09Zm-2.21-15.39a6.75,6.75,0,0,0-2.66,1.7,6.74,6.74,0,0,0,4.86,11.41H469a6.71,6.71,0,0,0,4.73-2.08,6.79,6.79,0,0,0,1.65-3,1.15,1.15,0,0,1,1.78-.64,21.43,21.43,0,0,0,11.28,2.08.46.46,0,0,0,.3-.15l37.33-39c-1.83.08-3.7.1-5.52.13-2.37,0-4.83.07-7.18.21a34.94,34.94,0,0,0-10.37,1.9l-.21.1-.14.08a2.6,2.6,0,0,0-.36.3l-24.48,25.57a1.14,1.14,0,0,1-1.65-1.58l24.48-25.57a4.44,4.44,0,0,1,.56-.5c1.35-3.67,1.25-15.51,1.21-21.29,0-.76,0-1.44,0-2L465,321.4a.44.44,0,0,0-.13.31A21.24,21.24,0,0,0,467.54,333a1.16,1.16,0,0,1-.3,1.46A1.22,1.22,0,0,1,466.62,334.7Z"/></g></g></svg>