<svg xmlns="http://www.w3.org/2000/svg" viewBox="0 0 497.19 497.19"><defs><style>.cls-1{fill:none;stroke:#f9ed32;stroke-linecap:round;stroke-linejoin:round;}.cls-2{fill:#0b4d76;}.cls-3{fill:#00b7c2;}.cls-4{fill:#fcf7f2;}</style></defs><g id="Capa_2" data-name="Capa 2"><g id="Layer_1" data-name="Layer 1"><line class="cls-1" x1="248.59" y1="0.5" x2="248.59" y2="496.69"/><line class="cls-1" x1="205.51" y1="4.27" x2="291.67" y2="492.92"/><line class="cls-1" x1="163.74" y1="15.46" x2="333.45" y2="481.72"/><line class="cls-1" x1="124.55" y1="33.74" x2="372.64" y2="463.45"/><line class="cls-1" x1="89.12" y1="58.54" x2="408.06" y2="438.64"/><line class="cls-1" x1="58.54" y1="89.12" x2="438.64" y2="408.06"/><line class="cls-1" x1="33.74" y1="124.55" x2="463.45" y2="372.64"/><line class="cls-1" x1="15.46" y1="163.74" x2="481.72" y2="333.45"/><line class="cls-1" x1="4.27" y1="205.51" x2="492.92" y2="291.67"/><line class="cls-1" x1="0.5" y1="248.59" x2="496.69" y2="248.59"/><line class="cls-1" x1="4.27" y1="291.67" x2="492.92" y2="205.51"/><line class="cls-1" x1="15.46" y1="333.45" x2="481.72" y2="163.74"/><line class="cls-1" x1="33.74" y1="372.64" x2="463.45" y2="124.55"/><line class="cls-1" x1="58.54" y1="408.06" x2="438.64" y2="89.12"/><line class="cls-1" x1="89.12" y1="438.64" x2="408.06" y2="58.54"/><line class="cls-1" x1="124.55" y1="463.45" x2="372.64" y2="33.74"/><line class="cls-1" x1="163.74" y1="481.72" x2="333.45" y2="15.46"/><line class="cls-1" x1="205.51" y1="492.92" x2="291.67" y2="4.27"/><ellipse class="cls-2" cx="246.79" cy="248.59" rx="104.28" ry="106.45"/><path class="cls-3" d="M246.79,146.64c55,0,99.78,45.74,99.78,102s-44.76,102-99.78,102S147,304.81,147,248.59s44.76-102,99.77-102m0-9c-60.07,0-108.77,49.67-108.77,111s48.7,111,108.77,111,108.78-49.68,108.78-111-48.7-111-108.78-111Z"/><path class="cls-4" d="M246.79,143.64c56.68,0,102.78,47.08,102.78,105s-46.1,105-102.78,105S144,306.47,144,248.59s46.1-105,102.77-105m0-6c-60.07,0-108.77,49.67-108.77,111s48.7,111,108.77,111,108.78-49.68,108.78-111-48.7-111-108.78-111Z"/><path class="cls-3" d="M246.79,140.64c58.33,0,105.78,48.43,105.78,108s-47.45,108-105.78,108S141,308.12,141,248.59s47.45-108,105.77-108m0-3c-60.07,0-108.77,49.67-108.77,111s48.7,111,108.77,111,108.78-49.68,108.78-111-48.7-111-108.78-111Z"/></g></g></svg>