<svg xmlns="http://www.w3.org/2000/svg" viewBox="0 0 31.72 49.71"><defs><style>.cls-1{fill:#52be61;}</style></defs><g id="Capa_2" data-name="Capa 2"><g id="Layer_1" data-name="Layer 1"><path class="cls-1" d="M5.26,13.11c-.08.09.32.21.39.26C5.63,13.16,5.15,13.07,5.26,13.11Z"/><path class="cls-1" d="M4.74,11.77l.13.14c-.09-.14-.19-.29-.28-.45Z"/><path class="cls-1" d="M5,10.92c-.52-.66,0,.44-.24.34l-.13-.11.41.56C5,11.49,4.83,10.85,5,10.92Z"/><path class="cls-1" d="M6.12,12.43c-.18-.34-.14-.34-.07-.07l0,.08S6.1,12.42,6.12,12.43Z"/><path class="cls-1" d="M6.1,12.44c0,.06.16.27,0,0Z"/><path class="cls-1" d="M6.05,12.07l.14.39a2.93,2.93,0,0,1,.19.42A5.75,5.75,0,0,0,6.05,12.07Z"/><path class="cls-1" d="M5.76,11.25l0,.19C5.85,11.54,5.87,11.56,5.76,11.25Z"/><path class="cls-1" d="M5.92,11.83l-.11-.39c-.07-.15-.21-.48,0,.15C5.72,11.29,5.84,11.59,5.92,11.83Z"/><path class="cls-1" d="M5.84,11.72a2.15,2.15,0,0,1-.31-.65C5.54,11.38,5.88,12,5.84,11.72Z"/><path class="cls-1" d="M4.52,10.06,4.34,10l.14.35C4.41,10.13,4.68,10.3,4.52,10.06Z"/><path class="cls-1" d="M6.32,12.39c-.07-.25-.21-.69-.31-1l.08.34A5.1,5.1,0,0,1,6.32,12.39Z"/><path class="cls-1" d="M6,11.38l-.1-.53S5.93,11.1,6,11.38Z"/><path class="cls-1" d="M5.31,10.07c.08.34.17.66.27,1-.1-.32-.18-.66-.27-1Z"/><polygon class="cls-1" points="6.37 12.29 6.53 12.99 6.3 11.93 6.37 12.29"/><path class="cls-1" d="M6.38,12.08c.11.63.18,1,.26,1.4,0-.28-.12-.72-.19-1.15C6.49,12.62,6.48,12.55,6.38,12.08Z"/><path class="cls-1" d="M6.35,11.57c0,.18.06.46.1.76C6.43,12.14,6.4,11.92,6.35,11.57Z"/><path class="cls-1" d="M6,10.85c0,.16.16.6.22.76L6,10.83Z"/><path class="cls-1" d="M6,10.8v0l0,0Z"/><path class="cls-1" d="M6,10.85H6C6,10.77,6,10.75,6,10.85Z"/><path class="cls-1" d="M5.61,10.36a6.33,6.33,0,0,0-.44-1.49C5.31,9.41,5.45,9.67,5.61,10.36Z"/><path class="cls-1" d="M5.71,9.91l-.08-.06c.06.2.14.47.19.71Z"/><polygon class="cls-1" points="5.67 9.6 5.71 9.91 5.74 9.94 5.67 9.6"/><path class="cls-1" d="M6.17,10.79a3.18,3.18,0,0,1,0-.62C6.08,10,6,10,6,10.05A4.8,4.8,0,0,0,6.17,10.79Z"/><path class="cls-1" d="M6.07,10.71v-.06C6,10.59,6,10.57,6.07,10.71Z"/><path class="cls-1" d="M6.27,9.72l0-.19,0,.19Z"/><path class="cls-1" d="M6,9.89c0-.13,0,.12,0,.41a1,1,0,0,1,0-.25C6,9.92,6,9.83,6,9.89Z"/><path class="cls-1" d="M6.31,11c0-.18-.06-.34-.09-.49C6.27,10.83,6.34,11.29,6.31,11Z"/><path class="cls-1" d="M6.11,10.88v0C6.16,11.1,6.14,11,6.11,10.88Z"/><path class="cls-1" d="M6.11,10.88c0-.16-.06-.38-.09-.58,0,.09,0,.21,0,.35S6.09,10.8,6.11,10.88Z"/><path class="cls-1" d="M5.74,2.8c0,.31,0,.58,0,1s0,.36-.13,0c0,.9.42,4,.62,5.75,0-.44-.08-.84-.1-1.56a16.92,16.92,0,0,1-.28-2c0-.76.1.16.18.61C6,6,6,5.44,5.93,4.81c0-.33,0-.67,0-1,0-.19,0-.39,0-.61s0-.24,0-.38c0,.22,0,.37-.07.65A4.32,4.32,0,0,0,5.74,2.8Z"/><path class="cls-1" d="M6.18,9.61v.15A12.17,12.17,0,0,1,6.37,11c0-.61-.08-.94-.11-1.25l-.07,0Z"/><path class="cls-1" d="M6.13,9.93C6,8.92,6,8.36,5.81,7.35a11.66,11.66,0,0,0,.11,1.47c0-.48.07.6.2,1a1.89,1.89,0,0,1,0,.35c0,.09.06.21.1.37v-.06h0c0-.12,0-.19,0-.13v0c0-.14,0-.26,0-.38a1.33,1.33,0,0,1,0,.38l0,.15h0l0-.72C6.15,9.66,6.14,9.74,6.13,9.93Z"/><path class="cls-1" d="M4.75,7.1l.06.16C4.79,7.14,4.77,7.07,4.75,7.1Z"/><path class="cls-1" d="M4.93,7.39c0,.13.1.46.05.47a3.76,3.76,0,0,1-.17-.6,2.4,2.4,0,0,0,.25.91l0-.12a3.92,3.92,0,0,1,.45,1C5.29,8.42,5.15,8,4.93,7.39Z"/><path class="cls-1" d="M5.56,8.18v-.7l-.19-.64.09.46C5.37,7.28,5.5,7.81,5.56,8.18Z"/><polygon class="cls-1" points="6.33 10.25 6.43 11.42 6.3 9.71 6.33 10.25"/><polygon class="cls-1" points="6.37 9.95 6.45 11.01 6.41 10.34 6.37 9.95"/><path class="cls-1" d="M16.41,24.34l.14.07A.37.37,0,0,0,16.41,24.34Z"/><path class="cls-1" d="M16.16,23.58l-.19.05C16.09,23.63,16.17,23.62,16.16,23.58Z"/><path class="cls-1" d="M7.74,12.22c-.28.4-.75.91-.38.53l.35-.38C7.64,12.4,7.67,12.33,7.74,12.22Z"/><path class="cls-1" d="M12,18l.11-.08h-.43Z"/><path class="cls-1" d="M13.71,17.6l-.21.28A1,1,0,0,0,13.71,17.6Z"/><path class="cls-1" d="M18.41,28.26l.46,0C18.79,28,18.62,28.2,18.41,28.26Z"/><path class="cls-1" d="M7.3,9.42c-.07.52-.09.74-.09.83C7.31,9.54,7.46,8.45,7.3,9.42Z"/><path class="cls-1" d="M12,25.59a.39.39,0,0,0,.28,0A.28.28,0,0,0,12,25.59Z"/><path class="cls-1" d="M7.24,10.37a2.36,2.36,0,0,1,0-.28c0,.09,0,.17-.06.19s0,0,0,0c0,.17,0,.33-.07.45S7.14,10.83,7.24,10.37Z"/><path class="cls-1" d="M23.5,43.67l0,0C23.52,43.7,23.52,43.69,23.5,43.67Z"/><path class="cls-1" d="M20.85,48.82l0-.06S20.79,48.78,20.85,48.82Z"/><path class="cls-1" d="M6.69,9.94c0,.11,0,.15,0,0Z"/><path class="cls-1" d="M6.52,4.88c0-.16,0-.36,0-.67C6.52,4.54,6.52,4.74,6.52,4.88Z"/><path class="cls-1" d="M8.74,4.58h0C8.77,4.41,8.77,4.44,8.74,4.58Z"/><path class="cls-1" d="M6.66,9.37c0,.13,0,.25,0,.36C6.68,9.63,6.67,9.51,6.66,9.37Z"/><path class="cls-1" d="M6.66,10l0-.1C6.64,10.11,6.64,10.25,6.66,10Z"/><path class="cls-1" d="M6.72,9.84s0,0,0-.11v.21A.22.22,0,0,1,6.72,9.84Z"/><path class="cls-1" d="M19.77,35.92l0,0C19.94,36,19.9,36,19.77,35.92Z"/><path class="cls-1" d="M12.35,12.1h0l0,0Z"/><path class="cls-1" d="M12.75,12.38c-.56,0-.52-.13-.44-.27l-1.18.42Z"/><path class="cls-1" d="M17.17,26.05c.09-.13.17-.27.27-.39.7.05.59.36,1-.08-1.3.44-.47-.85-1.75-.4l.21-.26S17,25,17,25c.5-.52-1,.12-1-.35.05-.18.2-.35.39-.31l-.43-.2c0-.1.22-.15.23-.06l-.28-.44h0a5.23,5.23,0,0,1-.75-.08c.15-.18.16,0,.31-.07l-.4-.16c.29-.23.69-.11.71.09,1.19-.7-.4-.11.16-.91l.25.2c.67-.42.34-.52.7-1-.21.15-.95,1-1.37.78.07-.12.08-.24-.23-.31.45-.16.29-.27.2-.45l.61-.19c-.24-.15-.55,0-.86-.06,0-.26.44-.46.82-.64,0-.4-.67.5-.93.1.13-.39-.19-.52-.67-.78.14-.28.39-.08.54-.21l-.55,0c0-.05.15-.08.23-.1-.24-.1-.62.18-.86,0-.7.14.82-.83,0-.91.15-.13.38-.08.61-.17a3.23,3.23,0,0,0-1.26-.42l.31-.43c-.39.36-1,.23-1.54.11-.2.15-.38.27-.46.35L11.05,18a1.05,1.05,0,0,1,.59-.1l-.17,0a1.29,1.29,0,0,1,.94-.23l-.34.26a4.29,4.29,0,0,0,1.2-.16.37.37,0,0,1-.21-.09.59.59,0,0,0,.26,0c.06,0-.08,0-.26-.06l.66-.29-.28.06.28-.65c-.8-.18-1.91-.22-2.36-.75a5.13,5.13,0,0,0,1.43-.35c-.59.33.4.39.36.73,0-.18.31-.22.42-.21l-.73-.39c.49-.13.33-.22.5-.42-.94.37-.76-.24-1.12-.39.33-.1.67-.13.67.16.64-.5-1.24-.08-.71-.55,0,.06,0,.11.16.1-.33-.08-.2-.53.11-.52l0,.07c0-.48-.35-1.37-1.19-1.23.11,0,1-.19,1.18-.21-1,0-2-.1-3-.07.73-.1,2.3-1,2.84-.56a.55.55,0,0,0-.21-.69c-.07.16-.94.61-1,.5.68-.65.35-.38.87-1.19-.1.24-1.2.59-1.21.38a10.34,10.34,0,0,1,1.15-.58,4.88,4.88,0,0,0-1.15.05,2.73,2.73,0,0,0,1.1-.92c-.18.21-.12-.6-.26-.7l-.16.47c0-.89-1.48.62-1.54.08.2-.19,1.2-1.2,1.24-1.73-.25.21-.84.74-1.42,1.34s-1.09,1.19-1.28,1.34L8.66,10a2.69,2.69,0,0,0-.32.27A11.82,11.82,0,0,1,9.72,8.38a4.75,4.75,0,0,1,1.45-1.16c.15-.59.29-.52.18-1,.21-.55.41-.29.46-.16l-.07-1.44c-.51.93-.7.09-1.1,1a2,2,0,0,1,.77.16,5,5,0,0,1-1,1.16c-.34.28-.6.43-.62.07a15.06,15.06,0,0,1,1.06-2c-.19.24-.47,0-.36-.29a2.69,2.69,0,0,1,.32-.27c0-.4-.15-.22-.31-.09s-.29.2-.13-.54c0-.2.42-1.89.16-1.23-.4,1.57-1.93,5.62-2.3,6.53,0-.12.41-1.78.59-2.56C9.13,5.26,9.69,4.28,10,3.2a4.13,4.13,0,0,1-.32.7c0-.39.33-1,.2-1.07-.38,1.17-.12-.62-.34.91-.16.1,0-.52-.09-.75a22,22,0,0,1-.92,2.76c.09-.36.22-1,.25-1.17-.06-.6,0-1.42-.11-1.89,0-.12,0-.28,0-.45a4.74,4.74,0,0,1,.12-.89c-.06.18-.15.54-.2.46.07-1.19.14.06.28-1.32a1.88,1.88,0,0,1-.43,1c-.12,1,.11.59.26.27-.07.37-.14.74-.21,1.07S8.3,3.62,8.21,4c-.2.88-.38,1.61-.5,2s.18-1.69.12-1.39c-.14-1-.65,4.08-.59,1.89.09-1.87.29-3.45.38-4.73.2-.37.08,1.49.15,1.57v-1c.09-.47.22-.69.2-.11a4.93,4.93,0,0,0,0-.53,2.16,2.16,0,0,0-.05-.27A3.19,3.19,0,0,0,7.74,1l0-.12s0-.1-.09-.07l-.26,0a.85.85,0,0,1-.4,0,4,4,0,0,0-.13.41,1,1,0,0,0,0,.25,3.68,3.68,0,0,0,0,.47l.13-.35C7,2.92,6.67,3.73,6.79,4.24c-.15,1.09-.22,2.67-.34,2.1L6.38,4.57c0,.51.11.95.14.33,0,.45-.09-.1-.15-.42s-.12-.44-.09.76L6.4,6.33c-.05,1,0,3-.07,2.57.13,1.61,0-.23.14,1.67-.16-2.41.12-.12,0-2.69.12,2.32.12.86.19,2.92,0-.62,0-1.16,0-.91,0-.19,0-.42,0-.57v0c0-.09,0-.11,0,0,0-.29,0-.59,0-.91A12.79,12.79,0,0,1,6.89,6c.06.25,0,.76,0,1.42,0-.41.09-.8.14-1.21a24.22,24.22,0,0,1-.14,3.24l.09,0c0,.82,0,1.22,0,.65,0,.34.21-1.42.08-.38,0-.24.1-.46.15-.67l0,.33c0,.25.34-1.25.2.06,0,.19,0,.4-.09.65.07-.24.15-.51.1-.1l-.19.95c.08-.25-.18,1.05,0,.16C7,12.29,6.92,12.42,7,12.36s.13-.32.08-.11l.31-.94c0,.12.1-.07.25-.29l.29-.75c.27-.45-.14.85-.08.92-.12.23-.1.13,0,0-.33.82-.19.61,0,.45s.41-.3.15.18c.14-.12.11,0,0,.13h0v0l-.18.29a2.31,2.31,0,0,0,.19-.28s.07,0,.17,0l-.39.44h0c-.14.18.2-.15.49-.49a1.51,1.51,0,0,0,.26-.15c-.64.65.27,0-.43.66.36-.23.34.09,1.13-.26-.1,0-.14.11-.16.06-.07.15-.14.27.11.26l-.57.27a5.81,5.81,0,0,1,.83-.07,1.61,1.61,0,0,1-1,.35c.79.16.35.27,1.14.46l-.39.08c0,.13.62.22.32.39-.65.5.3,1.56-.15,2.54,1.08-.46-.41.51.47.3-.25.12-.37.28-.63.21.37.34-.25.73.56.81-.25.12-.41,0-.56.11.07,0,.27.06.12.15s-.24,0-.37,0c.16.41,1,.21,1.77,0-.31.31-.22.4.32.41-.23.14-.45.34-.62.11,0,.16-.1,1,.51.83-.14.09,0,.21.1.23a1.59,1.59,0,0,0,.17.68l.07-.12c.78-.1.25.21.42.44h-.08c-.35.75.33.17-.09.94l.45-.17c1-.27-.42.69.06.9l.23-.2c.39.07-1.17.94-1.23,1.17-.07.07-.16,0-.24-.05-.42.67.62-.14.87.17-.29.18-.84.19-.82.45-.22.21,1.28.35.78.89.22-.16.44-.32.68-.21s-.69,1,.17,1a.44.44,0,0,1-.18.12c.27.12.56.51,1,.47-1.48.76,1.21.93-.22,1.47l.31.55-.15,0c.05.41.44.4.83.4-.06.12-.22.11-.29.13-.08.65,0,.68.89.85l-.44.23c.32,0-.41,1.06.34,1.38a.6.6,0,0,1-.24,0c.78.38-.71,1.91,1.06,1.48l.57.23c-.07-.55.76-.2,1-.52.18.16-.3.71-.49.5l.07-.07c-.91.25-.06.75-.66,1a12.37,12.37,0,0,1,.53,2.57v.06h0c0-.1,0,0,0-.05v.1l.07.26.66-.31.07.35c-.13.13-.51.28-.56,0-.35.24.47.31.62.27-.13.55-.88,0-.85.2l.12.18.07-.07c.34.08.64,0,.7.31s-.4.22-.4.3-.07,0,0,.12l.08.44.5-.33c.33.1.1.41.66,0-.87.58.17,1.7-.07,2a.74.74,0,0,1,.62.73c.09-.11.69-.36.71-.06-1.31.32-.39.69-1.23,1.22.54-.4.41.75,1.16.14,0,.27-.47.18-.71.45.67.39.08,1.34.47,2,.17-.05.38-.25.68-.19l-.71.66c.12.11,1-.23.5.24.13-.09.32-.22.4-.15a3.25,3.25,0,0,0,.8,2.1,1.53,1.53,0,0,1,.3.83.68.68,0,0,1-.56.67c.34-.06.37,0,.38,0a4,4,0,0,1,.67,0,3.46,3.46,0,0,1-.68.28c.64.17-.07.32.47.52a.61.61,0,0,0,0-.13,2.58,2.58,0,0,0,1.18.25,7.86,7.86,0,0,1,1.46.06c-.37-.26,0-.41.28-.69s.48-.74-.17-.94c.17-.17.32.07.53,0-.43-.11-.55-.26-.46-.63h.11a8.9,8.9,0,0,1-.3-2.28l-.39.27c0-.2.08-.3.15-.43-.74.13.2.49-.6.66.75-.66-.58-1.17.43-1.64,0-.09-.49.26-.54.12l.26-.16L22.8,44c0-.19.33-.4.56-.49,0,.05.1.09.14.13.26-.34-.31-.57-.23-.68l-.09.3c-.49-.6-.39-1.57-1.18-2l-.19.12c-.56-.38.09-.49-.27-1h.06c-.25-.05-.41-.16-.43-.33.29.06.4-.42.73-.33-.6-.41-.42-.16-1.33-.28l.33-.19c-.36,0-.54,0-.72-.24.38.14.48-.35,1-.22.58-.83-1.07-.63,0-1.25-1.07,0-.37.68-.63.59-.28.22-.81,0-.77-.22s1.15-.7,1-1.17c0,0,.08,0,.09.08.2-.26-.45-.25-.11-.59-.64.05-.06-.29-.83-.1l.32.38c-.28-.19-1.25-.16-1-.7a1.42,1.42,0,0,1,.55.11c.18-.19-.23-.19,0-.38.78-.19.34.48,1,.58.28-.22-.71-.34.15-.45-.55.06-.56-.07-.54-.21a.36.36,0,0,0,0-.23l0,0,0,0c0-.09,0-.07,0-.08h0A.53.53,0,0,0,20,35h0l.29-.08.17,0h0c-.11,0-.34-.06-.36-.16l.64,0c-.59-.08.23-.66-.14-.81.23.51-.48.32-.72.66-.85-.42,1-.81.51-1.45.11.08-.12.47-.38.39a1,1,0,0,1,.33-.58c-.28-.45-.43.24-.78.14.48-.37-.31-.15-.57-.29l.45-.17c.08-.66-1,.21-.84-.41l.71,0L19,31.86l.54-.15c-.49-.13-.43-.25-.39-.58-.29.18-.83.28-.94,0,.2-.26.46-.07.26-.38.31,0,.7-.09.34.22.16,0,.32,0,.47-.07.24-.3-.11-.47-.16-.6a.25.25,0,0,1-.05.18l-.82-.25a.48.48,0,0,1,.45-.13c-.09-.08-.32-.07-.42-.2.38-.1.76-.26,1-.12l-.59-.31c.14-.09.34-.41.5-.41.11-.34-1-.36-.82-.82a.3.3,0,0,1-.24-.05c-.05-.35.28-.82-.37-1l.56-.48c-.26-.24-.7.63-1.15.22s.51-.35.64-.55c-.4,0-1.2-.09-.79-.62C17.14,25.84,17.08,26,17.17,26.05Zm-1.6-3.52c.12,0,.47.08.22.22C15.24,22.85,15.46,22.7,15.57,22.53Zm-2.89-5.36c.17,0,.12.12,0,.26C12.6,17.38,12.59,17.29,12.68,17.17ZM7.06,8.58V8.51C7.05,9.17,7.06,8.91,7.06,8.58Zm0-.71a4.74,4.74,0,0,0,0,.65c0-.4.07-.43.1-.33C7.08,7.78,7.08,7.5,7,7.87Zm10,30,.1-.11C17.28,37.92,17.15,37.91,17,37.91Z"/><path class="cls-1" d="M13.51,17.64l-.24.11A.28.28,0,0,0,13.51,17.64Z"/><path class="cls-1" d="M18.33,28.27h0l.08,0Z"/><path class="cls-1" d="M10.05,2.61A5.58,5.58,0,0,1,10,3.2,1.44,1.44,0,0,0,10.05,2.61Z"/><path class="cls-1" d="M6.53,10.84l0-.42c0,.1,0-.2,0-.41C6.52,10.33,6.54,10.8,6.53,10.84Z"/><path class="cls-1" d="M5.5,4.13a1.55,1.55,0,0,0,0,.23l.07.52A1.9,1.9,0,0,0,5.5,4.13Z"/><path class="cls-1" d="M6.29,6.33C6.22,5.19,6.2,5.68,6.17,6V6C6.27,7.57,6.26,7,6.29,6.33Z"/><path class="cls-1" d="M6.16,6.05c0,.09,0,.15,0,.13C6.17,6.81,6.15,6.27,6.16,6.05Z"/><path class="cls-1" d="M6.8,8.81c0-.31-.07,1.66-.06,1.15C6.65,11.62,7,7.87,6.8,8.81Z"/><polygon class="cls-1" points="6.04 2.65 6.14 4.01 6.12 2.79 6.04 2.65"/><path class="cls-1" d="M6.67,2.7l-.14-.24A4.14,4.14,0,0,1,6.5,3C6.58,3,6.68,3.15,6.67,2.7Z"/><path class="cls-1" d="M6.5,3s-.08.13-.09.41A1.69,1.69,0,0,0,6.5,3Z"/><polygon class="cls-1" points="6.18 2.14 6.22 2.21 6.31 2.09 6.18 2.14"/><path class="cls-1" d="M8,3.77l.13-.17c.08-.45.1-.82,0-.72A4.46,4.46,0,0,0,8,3.77Z"/><path class="cls-1" d="M8.07.48a3.87,3.87,0,0,1,0,.58l.1-.81Z"/><path class="cls-1" d="M8.43.81c0-.23.27-.53.11-.66C8.49.41,8.35.44,8.43.81Z"/><polygon class="cls-1" points="9.18 6.07 9.16 6.01 8.55 7.85 9.18 6.07"/><path class="cls-1" d="M12.05,7.8c.08-.78-.55.46-.39-.33-.22.12-.13.63-.33.7C11.61,8.23,11.53,8.53,12.05,7.8Z"/><path class="cls-1" d="M11.33,8.17a.35.35,0,0,0-.15,0A.2.2,0,0,0,11.33,8.17Z"/><path class="cls-1" d="M20.24,49.07H20l.34.05Z"/><path class="cls-1" d="M20.83,49.44l-.59-.19c.16.08.32.16.47.25C20.7,49.47,20.68,49.41,20.83,49.44Z"/><path class="cls-1" d="M16.63,21.56l-.15,0c-.15.08-.15.13-.14.23Z"/><polygon class="cls-1" points="17.09 24.38 17.09 24.33 16.57 24.61 17.09 24.38"/><path class="cls-1" d="M18.62,26.28c0-.1-.18-.16-.2-.27C18.6,26.18,18,26.57,18.62,26.28Z"/><path class="cls-1" d="M31.41,14.56c.06.08.26-.29.31-.35C31.53,14.21,31.35,14.65,31.41,14.56Z"/><polygon class="cls-1" points="29.64 14.62 29.74 14.48 29.36 14.75 29.64 14.62"/><path class="cls-1" d="M28.48,14c-.22.69.47.11.56.44l0,.17.36-.46C29.06,14.1,28.56,14.26,28.48,14Z"/><path class="cls-1" d="M28.54,12.3c-.08.27-.24.15.11.15v-.07A.39.39,0,0,1,28.54,12.3Z"/><path class="cls-1" d="M28.65,12.38c.14,0,0-.25,0,0Z"/><path class="cls-1" d="M28,12.23l.27-.14c0-.16-.09-.27,0-.35C28.07,11.78,28,11.94,28,12.23Z"/><path class="cls-1" d="M27.62,12.63l.13-.06C27.77,12.5,27.76,12.47,27.62,12.63Z"/><path class="cls-1" d="M28,12.46l-.28.11c0,.12-.12.33.12,0C27.77,12.72,27.89,12.56,28,12.46Z"/><path class="cls-1" d="M28.09,12.61c0,.19.09.33-.18.47C28.27,13.15,28.44,12.68,28.09,12.61Z"/><path class="cls-1" d="M28.08,14.62l0,.25.21-.16C28.21,14.79,28.18,14.42,28.08,14.62Z"/><path class="cls-1" d="M27.15,11.41c-.07.14-.12.39-.19.58l.2-.1A.76.76,0,0,1,27.15,11.41Z"/><path class="cls-1" d="M27,12l-.29.15C26.82,12.24,26.9,12.14,27,12Z"/><polygon class="cls-1" points="27.25 13.33 27.78 12.98 27.19 13.31 27.25 13.33"/><polygon class="cls-1" points="26.48 11.07 26.73 10.8 26.33 11.2 26.48 11.07"/><path class="cls-1" d="M26,10.92c.19-.23.1-.5.26-.62-.15,0-.35.17-.54.33C25.88,10.56,26,10.64,26,10.92Z"/><path class="cls-1" d="M25.43,10.85a2.73,2.73,0,0,0,.3-.22A.79.79,0,0,0,25.43,10.85Z"/><path class="cls-1" d="M26.4,11.92a.8.8,0,0,0,.05-.45l-.12.42Z"/><path class="cls-1" d="M26.33,11.9h0l-.14-.1Z"/><path class="cls-1" d="M26.42,11.94l0,0C26.39,12,26.39,12,26.42,11.94Z"/><path class="cls-1" d="M27,12.75c-.21.17-.53.3-.48.73C26.67,13.25,26.64,13,27,12.75Z"/><path class="cls-1" d="M26.28,12.46l.14.18a.9.9,0,0,1,.19-.36Z"/><polygon class="cls-1" points="26.13 12.54 26.28 12.46 26.22 12.39 26.13 12.54"/><path class="cls-1" d="M25.58,11.36a.37.37,0,0,1-.37.08.64.64,0,0,0,.27.27C25.55,11.6,25.7,11.4,25.58,11.36Z"/><path class="cls-1" d="M25.93,11.66h0S25.9,11.72,25.93,11.66Z"/><path class="cls-1" d="M24.24,11l0,.08,0-.07Z"/><path class="cls-1" d="M25.46,11.79c.05.11.14,0,.24-.06a.34.34,0,0,1-.22,0S25.43,11.8,25.46,11.79Z"/><path class="cls-1" d="M25.07,10.9a2.36,2.36,0,0,0,0,.28C25.13,11,25.14,10.81,25.07,10.9Z"/><path class="cls-1" d="M25.92,11.55h0C26,11.44,25.94,11.48,25.92,11.55Z"/><path class="cls-1" d="M25.92,11.55l-.22.18a.39.39,0,0,0,.2-.06A.6.6,0,0,1,25.92,11.55Z"/><path class="cls-1" d="M22.76,13.31c.19-.35.56-.58.56-.11a5.2,5.2,0,0,0,.9-2.14.79.79,0,0,1-.43.42c0,.22.19.65-.12.9-.33.07-.14-.22-.17-.47-.11.5-.62.5-.88,1.18L23,13C22.9,13.07,22.75,13.19,22.76,13.31Z"/><path class="cls-1" d="M24.55,11.26h.1a1.28,1.28,0,0,1,0-.61.86.86,0,0,0-.36.35l.34.23Z"/><path class="cls-1" d="M25,11.41c-.24.36-.5.44-.59.91.23.08.31-.25.52-.35-.4-.08.21-.17,0-.52a.5.5,0,0,1,.24,0,1.28,1.28,0,0,1-.1-.26v0h0c0,.06,0,.09,0,0h0l-.09.14c-.07-.13,0-.11.09-.14l0-.06h0l-.46,0C24.7,11.34,24.8,11.37,25,11.41Z"/><path class="cls-1" d="M25.88,14.22a.29.29,0,0,1,0-.1C25.86,14.16,25.84,14.19,25.88,14.22Z"/><path class="cls-1" d="M25.84,13.91c.05,0,.15-.18.21-.1s-.08.18-.14.31c.1-.08.31-.19.24-.46l0,.05a1.68,1.68,0,0,1,0-.82A7,7,0,0,0,25.84,13.91Z"/><path class="cls-1" d="M25.36,12.75,25,12.8v.41l.09-.2C25.18,13.17,25.26,12.9,25.36,12.75Z"/><polygon class="cls-1" points="24.3 10.77 24.53 10.38 24.08 10.88 24.3 10.77"/><polygon class="cls-1" points="23.89 10.63 24.07 10.29 23.87 10.45 23.89 10.63"/><path class="cls-1" d="M6.91,7.73,7,7.84A.2.2,0,0,0,6.91,7.73Z"/><path class="cls-1" d="M7.12,7.15l-.18-.07C7,7.14,7.1,7.17,7.12,7.15Z"/><path class="cls-1" d="M15.88,5.41c.17-.36.48-.87.16-.56l-.28.33C15.88,5.2,15.9,5.3,15.88,5.41Z"/><path class="cls-1" d="M8.39,2.8c0,.05,0,.11,0,.17,0-.17.05-.32.07-.43A2.26,2.26,0,0,0,8.39,2.8Z"/><path class="cls-1" d="M8.46,4.89l-.13-.35A3.62,3.62,0,0,0,8.46,4.89Z"/><path class="cls-1" d="M6.69,11.18l.43.16C7.13,11.18,6.91,11.22,6.69,11.18Z"/><path class="cls-1" d="M20,8.84a.6.6,0,0,0-.12-.37C19.9,8.76,19.82,9.14,20,8.84Z"/><path class="cls-1" d="M2.59,6.12a.4.4,0,0,0,.22.17A.3.3,0,0,0,2.59,6.12Z"/><path class="cls-1" d="M19.62,8.31v.12a.32.32,0,0,1,.29,0C19.91,8.26,19.87,8.11,19.62,8.31Z"/><path class="cls-1" d="M6.38,25.17l0,0S6.39,25.19,6.38,25.17Z"/><path class="cls-1" d="M.89,27.1A.15.15,0,0,1,1,27S.89,27,.89,27.1Z"/><path class="cls-1" d="M22.45,9.72c.09,0,0,0,0,0Z"/><path class="cls-1" d="M22.08,11.45a.76.76,0,0,0-.13.18A.84.84,0,0,1,22.08,11.45Z"/><path class="cls-1" d="M17.47,10.16h0C17.44,10.24,17.45,10.23,17.47,10.16Z"/><path class="cls-1" d="M22.48,10a.48.48,0,0,0-.05-.17A1,1,0,0,0,22.48,10Z"/><path class="cls-1" d="M22.55,9.77l.05.07C22.65,9.78,22.66,9.73,22.55,9.77Z"/><path class="cls-1" d="M22.33,9.69a.19.19,0,0,1,.1.1.12.12,0,0,1,0-.07Z"/><path class="cls-1" d="M5,17.24l0,0C5.12,17.34,5.09,17.3,5,17.24Z"/><polygon class="cls-1" points="10.99 6.83 11.01 6.82 11.01 6.8 10.99 6.83"/><path class="cls-1" d="M10.55,6.86c.46-.31.47-.21.46-.06l.8-1Z"/><path class="cls-1" d="M6.68,9.2l.42-.12c.58.37.33.49.9.42-1.33-.31,0-.76-1.28-1.11L7,8.33s0,.06,0,.1c.69-.09-.91-.45-.62-.72a.38.38,0,0,1,.47,0l-.24-.35c0-.06.26,0,.22.09V7.06l0,0a4.76,4.76,0,0,1-.56-.46c.22,0,.12.1.29.13l-.23-.32c.36,0,.61.33.51.45,1.33.31-.22-.37.57-.23l.13.15a4.14,4.14,0,0,1,.9.35C8.36,7,7.44,6.66,7.18,6.43c.1,0,.16,0,0-.19.41.26.33.15.34.07l.52.4c-.13-.15-.4-.37-.6-.6.1,0,.48.32.79.63.12,0-.62-.55-.64-.76.23.1.07-.15-.06-.66.19.14.23.39.35.55L7.58,5.3s.11.16.15.24c-.07-.26-.36-.66-.36-1-.27-.66.41.39.45.25a.74.74,0,0,0,0-.32c.1.22.13.48.24.79,0-.64,0-.47,0-1.3.09.18.18.36.25.54A2.57,2.57,0,0,1,8.39,2.8a4.64,4.64,0,0,0-.22-.6A3,3,0,0,1,8.54,2a1.14,1.14,0,0,1,0,.59.91.91,0,0,0,.07-.14,2,2,0,0,1,0,1.07c0-.16-.08-.33-.13-.5a5.69,5.69,0,0,0,0,1.37.35.35,0,0,1,.06-.19,1.59,1.59,0,0,0,0,.31c0,.08,0-.08,0-.26l.08.85V4.72a3.91,3.91,0,0,1,.21.6C9,4.57,9.45,3.56,10,3.56A6.27,6.27,0,0,0,9.47,5c.13-.7-.31.14-.39-.06.06.11,0,.41-.07.51A2.5,2.5,0,0,1,9.4,5a1.26,1.26,0,0,0-.1.63c.33-1,.44-.51.7-.7-.16.3-.36.58-.43.43-.11.39,0,.14.26-.09s.43-.46.33-.14c0,0,0-.07-.13.06.24-.19.31.16.07.35l0,0a.93.93,0,0,0,1.44.14c-.07.08-.73.72-.86.83.81-.56,1.63-1.08,2.48-1.59-.55.48-1.61,1.89-2.12,2,0,.14,0,.3.3.25,0-.12.64-.86.75-.84a5.24,5.24,0,0,0-.48,1.12c0-.18.93-.91,1-.77-.13.1-.8.79-.92.84l1.07-.51a3.39,3.39,0,0,0-.88.92c.14-.17.21.25.36.25l.08-.3c.17.43,1.45-.76,1.7-.4-.2.12-1.14.87-1.09,1.13a12.35,12.35,0,0,1,2.92-1.57l-.19.28.47-.06A22.45,22.45,0,0,1,13,8.77c-.08.3-.25.29-.06.46a.36.36,0,0,1-.5.17l.26.58c.48-.48.83-.11,1.21-.52h-1c.48-.47,1.64-1,1.86-.65-.11.27-.91.79-1.07.95.21-.12.65,0,.57.15l-.4.12c0,.38.92-.35.74.34.06.09-.29.87,0,.57A16.74,16.74,0,0,1,16.84,8a7.52,7.52,0,0,1-.24,1.22c-.22.59-1,1-1.24,1.5a1.33,1.33,0,0,1,.4-.3c0,.19-.37.44-.13.5.43-.53.35.32.42-.4.3,0,.12.25.35.37a3.21,3.21,0,0,1,1.29-1.17,2.29,2.29,0,0,0-.22.45c.34.28.37.67.72.88-.05.16,0,.43-.2.64.11-.07.28-.25.39-.2-.07.64-.29-.06-.48.65.21-.34.56-.31.84-.44.25-.56-.3-.31-.58-.18A3.26,3.26,0,0,1,19.82,10c.39,0-.14.54,0,.47.48.42,1.15-1.06,1.31-.29a4.64,4.64,0,0,1-.62,1.32c-.33.06-.21-.49-.38-.56l.08.33c-.16.12-.38.15-.39,0-.08.51.89.57,1.12,1.19.16-.13.37-.23.4-.45h-.17c.07-.45.53-.41.45-.68.31-.18.73-.51.87-.17l-.22.58c.08-.17,0-.41-.16-.28.23-.19,0,.94.5.27v-.47c.31-.18.82-.66,1-.38.16-.59-.08,0,.07-.68-.25.86-.56-.31-.74.63.19-.82-.13-.45,0-1.18-.08.18-.09.38-.24.2a.55.55,0,0,1-.12.14v0s0,0,0,0a1.22,1.22,0,0,1,0,.32c-.3.37-.59.21-.8.37-.07-.14.15-.18.19-.41l-.32.25c.19-.41,0-.81.43-.92l-.22-.13c0-.3-.17-.48-.36-.37-.06-.15-.5.29-.25,0l-.48.06.05-.1c-.32-.23-1.07.25-1.06-.67-.17,0-.35.08-.46-.14l.16-.35c-.21,0-.2-.58-.47-.28.45-1-.49-.6-.57-.9l-.32.4c-.11-.13-.33-.12-.64-.1L17,7.41c-.39.15-.13-.55-.37-.71.14-.1.16,0,.13.08.48-.94-1.12-.1-.85-.9-.19,0-.2,0-.17-.18h0a.05.05,0,0,0,0,0c0-.08.06-.18.08-.26a.75.75,0,0,0-.1.25.61.61,0,0,0-.34-.11l.32-.37h0c0-.2-.23.09-.46.38a1.49,1.49,0,0,0-.32.08c.51-.59-.4,0,.12-.7-.35.22-.64-.23-1.29.32.07-.08.09-.14.14-.1,0-.16-.05-.33-.31-.24l.4-.48-.79.38A1.11,1.11,0,0,1,13.91,4c-.82.22-.44,0-1.2.23L13,4c-.11-.08-.62.17-.46-.12s-.1-.63-.48-1A4.82,4.82,0,0,1,10.8,1.56c-.13.61-.17.41-.24.19s-.19-.5-.33-.06c0-.3-.07-.52.15-.68C9.84,1,9.66.24,9.22.88c0-.31.15-.38.12-.56-.05,0-.19.18-.23,0S9.2.11,9.3,0c-.59-.13-.64.78-.67,1.57-.23-.44-.37-.43-.48.09-.1-.28-.28-.58,0-.64C8,1,7,.52,7.18,1.18a.14.14,0,0,0-.27,0,.63.63,0,0,0-.35,0,1.88,1.88,0,0,0-.28.31l.12,0c.21.88-.13.38-.29.68l0-.08c-.71,0,0,.44-.8.39l.31.38c.3.46.12.42-.12.38s-.58-.07-.55.24l.27.08c.08.21-.24.07-.64-.08s-.85-.28-1-.2S3.51,3.15,3.49,3c-.81.27.46.47.36,1-.32-.11-.66-.6-.88-.3-.15,0-.05.39,0,.75s.17.71-.19.74c.27,0,.54,0,.66.27S2.3,5.83,3,6.3a.5.5,0,0,1-.21,0c.15.25.15.7.57.92-1.65-.23.5,1.31-1,1l0,.58-.15,0c-.17.35.17.54.51.72-.11.07-.24,0-.32,0-.38.47-.34.55.36,1.08h-.5c.28.14-.87.67-.33,1.25a.7.7,0,0,1-.22-.07C2.24,12.28.24,13,2,13.29l.42.4c.16-.48.78.11,1.09-.08.1.19-.56.47-.65.23l.09,0c-.93-.12-.35.59-1,.56,0,1-.48,1.92-.48,2.86l.73-.14,0,.32c-.16.1-.56.15-.54-.08-.41.15.37.37.53.36-.27.48-.87-.12-.87,0l.06.19.09,0c.3.14.62.12.61.4s-.44.12-.47.19-.07,0,0,.11l0,.4.56-.21c.29.15,0,.36.63.12-1,.37-.22,1.47-.52,1.65a.58.58,0,0,1,.43.71c.11-.08.76-.18.69.08-1.34,0-.55.48-1.5.72.64-.2.18.64,1.08.36-.11.2-.5,0-.82.17.53.46-.33,1-.21,1.48a1.56,1.56,0,0,1,.7.11c-.29.06-.59.12-.9.16.07.1,1,.24.36.33.15,0,.38,0,.42.07A2,2,0,0,0,2,26.07c-.11.44-.41.9-1.27.63.33.16.31.23.26.3s.32.29.5.44a5,5,0,0,1-.72-.2c.38.54-.27.27.08.8l0-.17c.3.71,1.24,1.13,1.87,1.86-.16-.41.17-.3.52-.27s.71,0,.4-.61c.22,0,.18.27.39.36-.24-.36-.23-.53.09-.66l.06.09a2.92,2.92,0,0,1,.65-.79A4.11,4.11,0,0,0,5.64,27l-.47-.1c.13-.16.28-.15.43-.2-.61-.43-.23.5-.9.05,1,.07.37-1.21,1.46-1.15.06-.29-.55,0-.5-.3l.31,0-.37-.13c.09-.17.47-.21.72-.19,0,0,0,.14.06.2.4-.21,0-.72.09-.78l-.2.25c-.2-.78.22-1.68-.41-2.34l-.22.05c-.43-.49.23-.42,0-1l0,0c-.23-.1-.35-.23-.33-.38.27.11.48-.3.79-.14-.49-.5-.37-.24-1.23-.52l.36-.11c-.34-.09-.52-.08-.64-.33.34.18.55-.22,1,0,.75-.63-.89-.74.26-1.1-1-.15-.52.52-.75.41-.32.15-.79-.13-.7-.31s1.28-.43,1.22-.84c0,0,.08,0,.08.08.25-.18-.38-.28,0-.5-.63-.06,0-.24-.78-.22l.21.36c-.22-.19-1.16-.34-.73-.73a1.85,1.85,0,0,1,.5.18c.22-.11-.17-.19.07-.31.78,0,.2.45.81.63.33-.12-.6-.38.27-.32-1.11-.1.11-.4-.73-.65h.47c-.07,0-.3-.12-.29-.2l.62.12c-.54-.2.45-.44.16-.64,0,.44-.57.11-.92.31-.64-.56,1.23-.35,1-1,.06.08-.29.32-.51.18a1.16,1.16,0,0,1,.53-.34c-.09-.41-.49.06-.78-.12.58-.14-.23-.21-.41-.4h.48c.33-.47-1-.15-.61-.58l.66.21L5.64,14l.55.07c-.4-.26-.29-.33-.12-.56-.35,0-.88-.08-.88-.29.3-.13.46.11.4-.2.3.09.67.18.22.29.16,0,.3.08.46.1.33-.13.09-.37.1-.48a.26.26,0,0,1-.12.11l-.64-.48a.63.63,0,0,1,.46.07c0-.09-.26-.16-.29-.29.39.06.8.09,1,.28l-.39-.44c.17,0,.48-.16.62-.09.24-.2-.7-.62-.36-.88A.29.29,0,0,1,6.42,11c.11-.27.64-.43.15-.83l.72-.07c-.12-.27-.91.1-1.11-.36s.62,0,.83-.07c-.32-.2-1-.61-.37-.76C6.76,9.06,6.64,9.11,6.68,9.2Zm.49-2.77c.07.08.34.25.07.15C6.75,6.32,7,6.39,7.17,6.43ZM8.8,4c0,.17-.08.06-.14-.17C8.7,3.81,8.75,3.85,8.8,4ZM21.41,9.64h0C21.35,9.42,21.36,9.51,21.41,9.64Zm.17.32a.28.28,0,0,0,.1-.17c-.07.1-.13.07-.19,0C21.45,9.92,21.45,10,21.58,10ZM1.81,18.46l.12-.07C2.08,18.52,2,18.49,1.81,18.46Z"/><path class="cls-1" d="M8.45,4.65l0-.31A.7.7,0,0,0,8.45,4.65Z"/><path class="cls-1" d="M6.61,11.15h0l.08,0Z"/><path class="cls-1" d="M15.32,11a.57.57,0,0,1,0-.29C15.29,10.81,15.25,10.91,15.32,11Z"/><path class="cls-1" d="M23.37,9.93l-.23,0c.1,0,.08.13.09.22C23.27,10.08,23.31,9.91,23.37,9.93Z"/><path class="cls-1" d="M23.62,13.36c.05,0,.06,0,.11,0l.09-.21C23.7,13.09,23.54,13.22,23.62,13.36Z"/><path class="cls-1" d="M22.83,11.45c-.16.38,0,.31.17.3h0C23.26,11.24,23,11.35,22.83,11.45Z"/><path class="cls-1" d="M23,11.75a.13.13,0,0,1,.12.05C23.26,11.6,23.13,11.73,23,11.75Z"/><path class="cls-1" d="M22,9.89c0,.12.27-.45.23-.28C22.56,9.18,21.61,10,22,9.89Z"/><polygon class="cls-1" points="22.35 12.71 22.52 12.23 22.28 12.56 22.35 12.71"/><path class="cls-1" d="M21.53,11.9l.14.22a.22.22,0,0,1,.12-.13C21.68,11.92,21.59,11.76,21.53,11.9Z"/><path class="cls-1" d="M21.79,12a.15.15,0,0,0,.2,0A.33.33,0,0,0,21.79,12Z"/><polygon class="cls-1" points="22.01 12.71 22 12.59 21.87 12.48 22.01 12.71"/><path class="cls-1" d="M19.47,10.72h-.28c-.1.14-.1.26,0,.25S19.42,10.88,19.47,10.72Z"/><path class="cls-1" d="M19.47,12.27a1.23,1.23,0,0,1,.08-.38l-.3.54Z"/><path class="cls-1" d="M18.76,12.06c-.1.15-.55.26-.26.38C18.61,12.3,18.9,12.29,18.76,12.06Z"/><polygon class="cls-1" points="16.03 9.39 16.08 9.42 16.7 8.61 16.03 9.39"/><path class="cls-1" d="M11.91,8.77c0,.37.51-.38.46,0,.22-.11,0-.32.24-.41C12.31,8.42,12.35,8.26,11.91,8.77Z"/><path class="cls-1" d="M12.61,8.37l.17,0A.53.53,0,0,0,12.61,8.37Z"/><polygon class="cls-1" points="0.21 26.98 0 26.88 0.26 27.1 0.21 26.98"/><path class="cls-1" d="M.49,27.72l-.4-.51.28.53S.39,27.62.49,27.72Z"/><path class="cls-1" d="M8.35,7l-.13-.09c-.14-.1-.16-.1-.19-.1A3.37,3.37,0,0,1,8.35,7Z"/><polygon class="cls-1" points="7.47 8.09 7.49 8.06 6.91 7.96 7.47 8.09"/><path class="cls-1" d="M7.8,10c0-.07-.07-.18,0-.24C7.84,9.92,7.08,9.88,7.8,10Z"/></g></g></svg>