<svg xmlns="http://www.w3.org/2000/svg" viewBox="0 0 293 657.57"><defs><style>.cls-1{fill:#0b4d76;}.cls-2{fill:#00b7c2;}.cls-3{fill:#fcf7f2;}.cls-4{font-size:22.15px;fill:#fdcc9f;font-family:Roboto-BoldCondensed, Roboto BoldCondensed;font-weight:700;}.cls-5{letter-spacing:-0.01em;}.cls-6{letter-spacing:0em;}.cls-7{letter-spacing:-0.01em;}</style></defs><g id="Capa_2" data-name="Capa 2"><g id="Layer_1" data-name="Layer 1"><path class="cls-1" d="M15.92,621a1.5,1.5,0,0,1-1.17-.55,1.71,1.71,0,0,1-.33-.71l-.11-.59-.12-.55-.14-.54-.08-.27-.18-.52L13.7,617l-.21-.52-.23-.51-.24-.49-.26-.48-.28-.47-.3-.45-.31-.45-.33-.43-.35-.42-.36-.4-.37-.39-.4-.38-.4-.36-.42-.34-.43-.33-.45-.31L7.9,610l-.47-.28L7,609.42l-.49-.24L6,609l-.51-.21-.51-.18-.53-.16-.27-.07-.55-.14L3,608.09l-.24,0a1.49,1.49,0,0,1-1.29-1.49L3.11,60V44.51a1.47,1.47,0,0,1,.56-1.17A1.55,1.55,0,0,1,4.38,43l.31,0,.55-.11.55-.14.53-.15.27-.09.52-.18.52-.21.51-.23.49-.24.48-.26.47-.28.46-.3.44-.31.43-.33.42-.34.4-.37.39-.37.38-.4.36-.4.34-.42.33-.43.31-.45.3-.46.27-.47.26-.48.24-.49.23-.51.2-.51.18-.51.16-.53.14-.54.07-.28.11-.55,0-.24a1.69,1.69,0,0,1,.2-.57,1.49,1.49,0,0,1,1.28-.72H277.08a1.5,1.5,0,0,1,1.17.55,1.58,1.58,0,0,1,.33.72l.05.31.11.55.14.54.15.54.09.27.18.52.21.53.23.5.24.49.26.48.28.47.3.46.31.44.33.43.34.42.37.41.37.39.39.37.41.36.42.34.43.33.45.31.46.3.47.28.48.26.49.24.51.22.51.2.25.09.52.17.27.09.54.14.28.06L290,43l.24,0a1.52,1.52,0,0,1,.57.21,1.48,1.48,0,0,1,.72,1.28V60l-1.61,546.54a1.47,1.47,0,0,1-.53,1.14,1.55,1.55,0,0,1-.73.35l-.59.11-.55.12-.55.15-.52.16-.53.19-.52.21-.51.22-.49.24-.48.27-.47.27-.46.3-.44.31-.43.33-.42.35-.4.36-.39.38-.38.39-.36.41-.34.42-.33.43-.31.44-.3.46-.27.47-.26.48-.25.5-.22.5-.2.51-.18.51-.16.54-.15.54-.12.55-.09.52a1.64,1.64,0,0,1-.2.56,1.49,1.49,0,0,1-1.28.72Z"/><path class="cls-1" d="M277.08,31.59l0,0,0,.31.06.31.07.3.07.31.07.3.09.29.08.3.1.29.1.29.1.29.23.57.25.56.26.54.29.53.31.52.33.51.34.49.37.48.38.46.4.45.41.44.44.41.44.4.47.38.47.37.5.34.5.33.52.31.54.28.54.27.56.25.57.23.28.1.29.1.3.09.29.09.3.08.3.08.31.07.3.07.31.05.31.06h0V60l-1.61,546.54h0l-.31.06-.31.06-.3.06-.3.07-.3.08-.3.08-.3.09-.29.09-.29.1-.29.11-.57.22-.56.25-.54.27-.53.29-.52.3-.51.33-.49.35-.48.36-.46.38-.45.4-.43.42-.42.43-.4.45-.38.46-.36.48-.35.49-.33.51-.3.52-.29.53-.27.54-.25.56-.22.57-.11.29-.1.29-.09.29-.09.3-.08.3-.08.3-.07.3-.06.31-.06.3-.06.31H15.92l0,0-.05-.31-.06-.3-.07-.31-.07-.3-.07-.3-.09-.3-.09-.3-.09-.29-.1-.29-.1-.29-.23-.57-.25-.55-.26-.55-.29-.53-.31-.52-.33-.51-.34-.49-.37-.48-.38-.46-.4-.45-.41-.43-.44-.42-.44-.4-.47-.38-.47-.36-.5-.35-.5-.32-.52-.31-.54-.29-.54-.27-.56-.25L6,607.36l-.28-.11-.29-.09-.3-.1L4.83,607l-.3-.08-.3-.08-.31-.07-.3-.06-.31-.06-.31,0H3L4.61,60V44.51l0,0,.31-.05.31-.06.3-.07.3-.07.3-.07.3-.09.3-.08L7,43.9l.29-.1.29-.1.57-.23.56-.25L9.29,43l.53-.29.52-.31.51-.33.49-.34.48-.37.46-.38.45-.4.43-.41.42-.44.4-.44.38-.47.36-.47.35-.5.33-.5.3-.52.29-.54.27-.54.25-.56.22-.57.11-.28.1-.29.09-.3.09-.29.08-.3.08-.3.07-.31.06-.3.06-.31.06-.31H277.08m0-3H17.52a3,3,0,0,0-2.65,1.6,3.19,3.19,0,0,0-.32,1l0,.18,0,.26-.05.24-.06.24-.06.25-.07.24-.07.24-.07.23L14,33.3l-.08.22-.19.47-.2.45-.21.44-.24.43-.25.42-.26.41-.28.39-.29.39-.31.38-.32.35L11,38l-.35.33-.36.32L10,39l-.39.3-.4.28-.41.26-.42.25-.43.23-.43.22-.45.2-.48.18L6.33,41l-.23.08-.23.08-.24.07-.25.07-.24.06-.24.05-.25.06-.25.05-.28,0a3,3,0,0,0-2.51,3V60L0,606.56a3,3,0,0,0,1.54,2.63,3,3,0,0,0,1,.35l.2,0,.25,0,.24,0,.24.06.25.06.24.07.24.07.23.07.24.08.22.08.47.19.45.2.44.22.43.23.42.25.41.26.39.28.39.29.37.31.37.33.35.33.33.35.32.36.31.38.3.38.28.4.26.41.25.42.23.43.22.44.2.45.18.47.08.22.08.23.08.24.07.24.07.24.06.24,0,.24.06.25.05.25,0,.28a2.92,2.92,0,0,0,.65,1.4,3,3,0,0,0,2.33,1.11H275.48a3,3,0,0,0,2.66-1.62,3.08,3.08,0,0,0,.31-1l0-.19,0-.25.05-.25.06-.24.06-.24.07-.25.07-.23.07-.24.08-.24.08-.21.19-.48.2-.44.21-.44.24-.43.25-.43.26-.4.28-.4.29-.39.31-.37.32-.36.34-.35.35-.34.36-.32.37-.31.39-.29.4-.28.41-.26.42-.25.43-.24.43-.21.45-.2.48-.19.22-.08.23-.08.24-.07.23-.07.24-.07.25-.06.25-.06.24-.05.25,0,.28-.05a3,3,0,0,0,1.41-.65,3,3,0,0,0,1.1-2.31L293,60V44.51a3,3,0,0,0-1.57-2.64,2.93,2.93,0,0,0-1-.34l-.18,0-.26,0-.24-.06-.25,0-.24-.07-.24-.06-.24-.07-.23-.08-.24-.08-.22-.08-.47-.19-.45-.2-.44-.21-.43-.23-.42-.25-.41-.27-.39-.27-.39-.3-.37-.31-.37-.32-.35-.34-.33-.35-.32-.36-.31-.37-.3-.39-.28-.4-.26-.4-.25-.42-.23-.43-.22-.44-.19-.45-.19-.48-.08-.21-.08-.24-.08-.24-.07-.23-.07-.24-.06-.25-.05-.24-.06-.25,0-.25,0-.28a3.11,3.11,0,0,0-.63-1.38,3.06,3.06,0,0,0-2.35-1.13Z"/><path class="cls-2" d="M270.74,40.59l.27.5.08.15.09.15.3.52.09.15.1.15.33.51.09.14.1.14.35.49.1.15.1.13.36.48.11.14.11.14.38.46.11.13.12.13.4.45.11.13.12.12.42.44.12.12.12.12.44.42.12.12.13.11.45.4.13.12.13.11.46.38.14.11.13.1.48.37.14.1.14.1.49.35.15.1.14.09.51.33.15.09.15.09.52.31.15.09.15.08.48.26V60l-1.59,540.2-.52.28-.15.08-.15.09-.52.31-.15.09-.15.09-.5.33-.15.09-.14.1-.49.35-.15.1-.14.11-.47.36-.14.11-.13.1-.47.39-.13.11-.13.11-.45.4-.13.12-.12.12-.43.41-.13.12-.12.13-.41.43-.12.12-.12.13-.4.45-.11.13-.11.13-.39.47-.11.13-.1.14-.37.48-.1.14-.1.14-.34.49-.11.14-.09.15-.33.51L270,609l-.09.15-.31.52-.09.15-.08.16-.26.47H22.26L22,610l-.08-.16-.09-.15-.3-.51-.09-.16-.1-.14-.33-.51-.09-.15-.1-.14-.35-.49-.1-.14-.1-.14-.37-.48-.1-.14-.11-.13-.38-.46-.11-.14-.12-.13-.4-.44-.11-.13-.12-.13-.42-.43-.12-.13-.12-.12-.44-.41-.12-.12-.13-.12-.45-.4-.13-.11-.13-.11-.46-.38-.14-.11-.13-.11-.48-.36L15,602.1l-.14-.1-.49-.34-.15-.1-.14-.1-.51-.32-.15-.1L13.3,601l-.52-.31-.15-.09-.15-.08-.46-.25L13.61,60V50.85l.5-.27.15-.08.15-.09.52-.31.15-.08.14-.1.51-.33.15-.09.14-.1.49-.35.15-.1.13-.1.48-.37.14-.1.13-.11.47-.38.13-.11.13-.12.45-.4.13-.11L19,47l.43-.42.13-.12.12-.12.41-.43.12-.13.12-.13.4-.45.11-.13.11-.13.39-.46.11-.14.1-.13.36-.48.11-.14.1-.14.34-.49.11-.15.09-.15.33-.5.09-.15.09-.15.31-.52.09-.15.08-.15.26-.48H270.74m6.34-9H17.53l-.06.31-.06.31-.06.3-.07.31-.08.3-.08.3-.09.29-.09.3-.1.29-.11.28-.22.57-.25.56-.27.54-.29.54-.3.52-.33.5-.35.5-.36.47-.38.47-.4.44-.42.44-.43.41-.45.4-.46.38-.48.37-.49.34-.51.33-.52.31L9.29,43l-.54.26-.56.25-.57.23-.29.1L7,43.9l-.29.1-.3.08-.3.09-.3.07-.3.07-.3.07-.31.06-.31.05,0,0V60L3,606.57H3l.31,0,.31.06.3.06.31.07.3.08.3.08.29.09.3.1.29.09.28.11.57.22.56.25.54.27.54.29.52.31.5.32.5.35.47.36.47.38.44.4.44.42.41.43.4.45.38.46.37.48.34.49.33.51.31.52.29.53.26.55.25.55.23.57.1.29.1.29.09.29.09.3.09.3.07.3.07.3.07.31.06.3.05.31,0,0H275.47l.06-.31.06-.3.06-.31.07-.3.08-.3.08-.3.09-.3.09-.29.1-.29.11-.29.22-.57.25-.56.27-.54.29-.53.3-.52.33-.51.35-.49.36-.48.38-.46.4-.45.42-.43.43-.42.45-.4.46-.38.48-.36.49-.35.51-.33.52-.3.53-.29.54-.27.56-.25.57-.22.29-.11.29-.1.29-.09.3-.09.3-.08.3-.08.3-.07.3-.06.31-.06.31-.06h0L290,60V44.51h0l-.31-.06-.31-.05-.3-.07-.31-.07-.3-.08-.3-.08-.29-.09-.3-.09-.29-.1-.28-.1-.57-.23-.56-.25-.54-.27-.54-.28-.52-.31-.5-.33-.5-.34-.47-.37-.47-.38-.44-.4-.44-.41-.41-.44-.4-.45-.38-.46-.37-.48-.34-.49-.33-.51-.31-.52-.29-.53-.26-.54-.25-.56-.23-.57-.1-.29-.1-.29-.1-.29-.08-.3-.09-.29-.07-.3-.07-.31-.07-.3-.06-.31,0-.31,0,0Z"/><path class="cls-3" d="M272.63,37.59v0l.25.55.05.11.05.1.27.55.05.1.06.11.28.53.06.1.06.1.31.52.06.1.06.1.33.51.06.09.06.1.35.49.07.1.07.09.36.48.07.09.08.09.38.46.07.09.08.09.4.44.07.09.08.08.42.44.08.08.08.08.44.41.08.08.08.08.45.4.09.08.09.07L279,46l.09.08.09.07.48.36.09.07.1.07.49.34.09.07.1.06.51.33.1.06.1.06.52.31.1.06.1.05.53.29.1.06.11,0,.54.27.11,0,.11,0L284,49V60l-1.59,542.1h0l-.56.25-.11,0-.1.05-.55.27-.1,0-.11.06-.53.29-.1,0-.1.06-.52.31-.1.06-.1.06-.5.33-.1.06-.1.07-.49.35-.09.06-.1.07-.47.37-.1.07-.08.07-.47.38-.09.08-.08.07-.45.4-.09.08-.08.08-.43.41-.09.08-.08.09-.41.43-.08.08-.08.09-.4.45-.07.08-.08.09-.38.47-.07.08-.07.1-.37.47-.07.1-.06.09-.35.49-.07.1-.06.1-.33.5-.06.1-.06.1-.31.52-.06.1-.05.1-.29.54-.06.1-.05.1-.26.55-.06.1-.05.11-.24.55H20.37l-.25-.56-.05-.1L20,612.7l-.27-.54-.05-.11-.06-.1-.28-.54-.06-.1-.06-.1-.31-.52-.06-.1-.06-.1-.33-.5-.06-.1-.07-.09-.34-.5-.07-.09-.07-.1-.36-.47-.07-.09-.08-.09L17,608l-.07-.08-.08-.09-.4-.45-.07-.09-.08-.08-.42-.43-.08-.08-.08-.08-.44-.42-.08-.08L15.1,606l-.45-.4-.09-.07-.09-.08L14,605.1l-.09-.07-.09-.07-.48-.36-.09-.08-.1-.06-.49-.35-.09-.06-.1-.07-.51-.32-.1-.07-.1-.06-.52-.3-.1-.06-.1-.06-.53-.29-.1-.05-.11-.06-.54-.26-.11-.05-.11,0L9,602.11,10.61,60V49h0l.56-.25.11-.05.1,0,.55-.27.1-.05.1-.06.54-.28.1-.06.1-.06.52-.31.1-.06.1-.06.5-.33.1-.06.1-.07.49-.34.09-.07.1-.07.47-.36.1-.07.08-.08.47-.38.09-.07.08-.08.45-.4.09-.07.08-.08.43-.42.09-.08.08-.08.41-.43.08-.09.08-.08.4-.45.07-.09.08-.09L19,42.6l.07-.09.07-.09.37-.48.07-.09.06-.1.35-.49.07-.09.06-.1.33-.51.06-.1.06-.09.31-.52.06-.11.05-.1.29-.53.06-.1.05-.11.26-.54.06-.11.05-.11.24-.55H272.63m4.45-6H17.53l-.06.31-.06.31-.06.3-.07.31-.08.3-.08.3-.09.29-.09.3-.1.29-.11.28-.22.57-.25.56-.27.54-.29.54-.3.52-.33.5-.35.5-.36.47-.38.47-.4.44-.42.44-.43.41-.45.4-.46.38-.48.37-.49.34-.51.33-.52.31L9.29,43l-.54.26-.56.25-.57.23-.29.1L7,43.9l-.29.1-.3.08-.3.09-.3.07-.3.07-.3.07-.31.06-.31.05,0,0V60L3,606.57H3l.31,0,.31.06.3.06.31.07.3.08.3.08.29.09.3.1.29.09.28.11.57.22.56.25.54.27.54.29.52.31.5.32.5.35.47.36.47.38.44.4.44.42.41.43.4.45.38.46.37.48.34.49.33.51.31.52.29.53.26.55.25.55.23.57.1.29.1.29.09.29.09.3.09.3.07.3.07.3.07.31.06.3.05.31,0,0H275.47l.06-.31.06-.3.06-.31.07-.3.08-.3.08-.3.09-.3.09-.29.1-.29.11-.29.22-.57.25-.56.27-.54.29-.53.3-.52.33-.51.35-.49.36-.48.38-.46.4-.45.42-.43.43-.42.45-.4.46-.38.48-.36.49-.35.51-.33.52-.3.53-.29.54-.27.56-.25.57-.22.29-.11.29-.1.29-.09.3-.09.3-.08.3-.08.3-.07.3-.06.31-.06.31-.06h0L290,60V44.51h0l-.31-.06-.31-.05-.3-.07-.31-.07-.3-.08-.3-.08-.29-.09-.3-.09-.29-.1-.28-.1-.57-.23-.56-.25-.54-.27-.54-.28-.52-.31-.5-.33-.5-.34-.47-.37-.47-.38-.44-.4-.44-.41-.41-.44-.4-.45-.38-.46-.37-.48-.34-.49-.33-.51-.31-.52-.29-.53-.26-.54-.25-.56-.23-.57-.1-.29-.1-.29-.1-.29-.08-.3-.09-.29-.07-.3-.07-.31-.07-.3-.06-.31,0-.31,0,0Z"/><path class="cls-2" d="M274.72,34.59v0l.09.3V35l.1.29v.06l.1.29,0,0v0l.23.57,0,0,0,.06.24.55,0,.06,0,0,.27.55,0,0,0,.05.29.53,0,.05,0,0,.31.52,0,0,0,.05.33.51,0,0,0,0,.35.5,0,0,0,0,.37.48,0,.05,0,0,.38.46,0,0,0,0,.4.45,0,0,0,0,.41.44,0,0,0,0,.43.41.05,0,0,0,.45.4,0,0,.05,0,.46.38,0,0,.05,0,.48.36,0,0,.05,0,.49.35.05,0,0,0,.51.33,0,0,.06,0,.52.31,0,0,.06,0,.53.28,0,0,.05,0,.55.26.05,0,.05,0,.56.25,0,0,.06,0,.57.22,0,0h0l.29.11h.05l.29.1h.06l.29.09h0V60L285.4,604.2h-.06l-.29.1H285l-.29.1h-.06l-.29.11h0l0,0-.57.23-.05,0-.06,0-.55.25-.06,0-.05,0-.54.27-.06,0-.05,0-.53.29-.05,0-.05,0-.52.31-.05,0-.05,0-.51.33,0,0,0,0-.5.34,0,0-.05,0-.48.36,0,0-.05,0-.46.38,0,0,0,0-.45.4,0,0,0,0-.43.42,0,0,0,0-.42.43,0,0,0,0-.4.45,0,0,0,0-.39.46,0,0,0,0-.36.48,0,0,0,0-.34.49,0,.05,0,0-.33.51,0,.05,0,0-.31.52,0,0,0,.05-.29.53,0,.05,0,.06-.27.54,0,.05,0,.06-.25.56,0,0,0,0-.22.57,0,0v0l-.11.29v.06l-.1.29v.06l-.1.29v0H18.28v-.05l-.09-.29v-.06l-.1-.29v-.06l-.1-.29,0,0v0l-.23-.56,0-.06,0,0-.24-.56,0,0,0-.06-.27-.54,0-.05,0-.06-.28-.53,0-.05,0,0-.31-.52,0-.05,0,0-.33-.5,0,0,0-.05-.35-.49,0,0,0-.05-.36-.47,0-.05,0,0-.38-.47,0,0,0-.05-.4-.44,0,0,0,0-.41-.43,0,0,0,0-.44-.42,0,0,0,0-.45-.4,0,0,0,0-.46-.38,0,0-.05,0-.48-.37,0,0-.05,0-.49-.34,0,0-.05,0-.51-.32-.05,0,0,0-.52-.3,0,0-.06,0-.53-.29-.05,0,0,0-.55-.27,0,0-.05,0-.56-.25,0,0-.06,0-.57-.23,0,0H7l-.29-.1,0,0h0l-.29-.1h0L6,604.2H6L7.61,60V46.87h0l.3-.09H8l.29-.1h.06l.29-.1,0,0h0l.57-.23,0,0,.06,0L10,46l.06,0,.05,0,.54-.27.06,0,.05,0,.53-.29.05,0,0,0,.52-.31.05,0,.05,0,.51-.33,0,0,.05,0,.49-.35,0,0,.05,0,.48-.36,0,0,.05,0,.46-.38,0,0,0,0,.45-.4,0,0,0,0,.43-.41,0,0,0,0,.42-.43,0-.05,0,0,.4-.45,0,0,0-.05.38-.46,0,0,0,0,.36-.48,0,0,0,0,.34-.49,0,0,0-.05.33-.51,0,0,0,0,.31-.52,0,0,0-.06.29-.53,0,0,0-.05L19,37,19,37l0,0,.25-.56,0,0,0-.06.23-.57,0,0v0l.11-.29v0l.1-.29v-.06l.1-.29v0H274.72m2.36-3H17.53l-.06.31-.06.31-.06.3-.07.31-.08.3-.08.3-.09.29-.09.3-.1.29-.11.28-.22.57-.25.56-.27.54-.29.54-.3.52-.33.5-.35.5-.36.47-.38.47-.4.44-.42.44-.43.41-.45.4-.46.38-.48.37-.49.34-.51.33-.52.31L9.29,43l-.54.26-.56.25-.57.23-.29.1L7,43.9l-.29.1-.3.08-.3.09-.3.07-.3.07-.3.07-.31.06-.31.05,0,0V60L3,606.57H3l.31,0,.31.06.3.06.31.07.3.08.3.08.29.09.3.1.29.09.28.11.57.22.56.25.54.27.54.29.52.31.5.32.5.35.47.36.47.38.44.4.44.42.41.43.4.45.38.46.37.48.34.49.33.51.31.52.29.53.26.55.25.55.23.57.1.29.1.29.09.29.09.3.09.3.07.3.07.3.07.31.06.3.05.31,0,0H275.47l.06-.31.06-.3.06-.31.07-.3.08-.3.08-.3.09-.3.09-.29.1-.29.11-.29.22-.57.25-.56.27-.54.29-.53.3-.52.33-.51.35-.49.36-.48.38-.46.4-.45.42-.43.43-.42.45-.4.46-.38.48-.36.49-.35.51-.33.52-.3.53-.29.54-.27.56-.25.57-.22.29-.11.29-.1.29-.09.3-.09.3-.08.3-.08.3-.07.3-.06.31-.06.31-.06h0L290,60V44.51h0l-.31-.06-.31-.05-.3-.07-.31-.07-.3-.08-.3-.08-.29-.09-.3-.09-.29-.1-.28-.1-.57-.23-.56-.25-.54-.27-.54-.28-.52-.31-.5-.33-.5-.34-.47-.37-.47-.38-.44-.4-.44-.41-.41-.44-.4-.45-.38-.46-.37-.48-.34-.49-.33-.51-.31-.52-.29-.53-.26-.54-.25-.56-.23-.57-.1-.29-.1-.29-.1-.29-.08-.3-.09-.29-.07-.3-.07-.31-.07-.3-.06-.31,0-.31,0,0Z"/><path class="cls-3" d="M144.05,620.29a.83.83,0,0,1-.13.63c-1,1.47-5.52,8.3-12.48,16.88-5.92,7.31-12.13,14.84-14.85,18.13a.86.86,0,0,1-1.53-.51l-.55-9.88a.87.87,0,0,0-.83-.82l-10.84-.49a.86.86,0,0,1-.57-1.48c3.71-3.69,13.92-13.66,19-17.21,5.46-3.78,18-6.73,21.41-7.48a.86.86,0,0,1,1,.68Z"/><path class="cls-2" d="M115.93,657.57a2.37,2.37,0,0,1-.69-.11,2.19,2.19,0,0,1-1.5-2l-.53-9.47-10.43-.47a2.19,2.19,0,0,1-1.45-3.74c4.07-4,14.08-13.79,19.23-17.36,5.6-3.89,18.16-6.87,21.87-7.69a2.19,2.19,0,0,1,2.62,1.73l.29,1.55a2.17,2.17,0,0,1-.31,1.61c-.86,1.31-5.51,8.28-12.57,17-5.76,7.11-11.78,14.41-14.85,18.13A2.15,2.15,0,0,1,115.93,657.57Zm-12-14.61,9.8.44a2.18,2.18,0,0,1,2.09,2.07l.49,8.71c3.23-3.91,8.76-10.64,14.09-17.21,6.73-8.3,11.23-15,12.3-16.62l-.17-.9c-7.33,1.65-16.42,4.36-20.47,7.17C117.3,629.93,107.75,639.19,103.94,643Zm38.88-22.77h0Z"/><path class="cls-3" d="M145.15,617.35a.86.86,0,0,0-.65-.74c-1.95-.57-6.36-4.85-9-6.49-5.13-3.13-10.67-3.86-14.31-4.34-3-.39-9.24-.49-11.44-.52a.88.88,0,0,0-.87.77l-1.52,13.16a.87.87,0,0,0,.87,1l36.22-.3a.86.86,0,0,0,.86-.94Z"/><path class="cls-2" d="M108.19,621.48a2.19,2.19,0,0,1-1.63-.72A2.22,2.22,0,0,1,106,619l1.53-13.16a2.18,2.18,0,0,1,2.17-1.94h0c2.48,0,8.59.14,11.59.53,3.76.49,9.45,1.23,14.83,4.52a43.75,43.75,0,0,1,4.1,3.08c1.66,1.34,3.73,3,4.61,3.27a2.18,2.18,0,0,1,1.6,1.9l.13,1.57a2.19,2.19,0,0,1-2.17,2.38l-36.22.29ZM144,619h0Zm-33.84-12.44-1.42,12.24,35.22-.29-.06-.75a25.13,25.13,0,0,1-5.27-3.66,43.43,43.43,0,0,0-3.81-2.88c-4.91-3-10.25-3.69-13.79-4.16C118.24,606.73,112.41,606.62,110.12,606.59Zm0-.41Z"/><path class="cls-3" d="M145,617.34a.83.83,0,0,0-.34-.69,42.77,42.77,0,0,0-10.55-5.57c-6.64-2.4-11.39-1.79-17.32-3.22a41.75,41.75,0,0,1-6.92-2.16.86.86,0,0,0-1.18.57c-.49,1.79-1.48,5.62-2,8.65s-1,6.49-1.14,7.92a.87.87,0,0,0,.61.94,50.93,50.93,0,0,0,11.31,1.71,69,69,0,0,0,18.81-2c2.3-.56,5.83-1.79,7.26-2l.72-.13a.86.86,0,0,0,.71-.85Z"/><path class="cls-2" d="M120.1,626.89c-.9,0-1.81,0-2.72-.07a51.56,51.56,0,0,1-11.62-1.77,2.18,2.18,0,0,1-1.54-2.37c.21-1.69.65-5,1.14-8s1.46-6.8,2-8.78a2.19,2.19,0,0,1,3-1.43,42.68,42.68,0,0,0,6.7,2.09,51.72,51.72,0,0,0,6.67,1,41.38,41.38,0,0,1,21.68,8,2.15,2.15,0,0,1,.88,1.75v3.14a2.18,2.18,0,0,1-1.81,2.15l-.72.13c-.69.13-2.08.55-3.43,1s-2.64.8-3.74,1.07A73.86,73.86,0,0,1,120.1,626.89Zm-13.21-4.27a50.88,50.88,0,0,0,10.64,1.55A68.72,68.72,0,0,0,136,622.22c1-.26,2.34-.65,3.6-1a37.86,37.86,0,0,1,3.74-1l.34-.06v-2.53a41.74,41.74,0,0,0-10-5.24,40.42,40.42,0,0,0-10.19-2.08,54.8,54.8,0,0,1-7-1.1,46.82,46.82,0,0,1-6.65-2c-.54,2-1.37,5.33-1.8,8S107.12,620.87,106.89,622.62ZM144,620Z"/><path class="cls-3" d="M149,620.29a.83.83,0,0,0,.13.63c1,1.47,5.52,8.3,12.48,16.88,5.92,7.31,12.13,14.84,14.85,18.13a.86.86,0,0,0,1.53-.51l.55-9.88a.86.86,0,0,1,.83-.82l10.84-.49a.86.86,0,0,0,.57-1.48c-3.72-3.69-13.92-13.66-19-17.21-5.45-3.78-18-6.73-21.4-7.48a.86.86,0,0,0-1,.68Z"/><path class="cls-2" d="M177.07,657.57a2.15,2.15,0,0,1-1.68-.8c-3.07-3.72-9.09-11-14.85-18.13-7.06-8.71-11.71-15.68-12.57-17a2.22,2.22,0,0,1-.32-1.61l.3-1.55a2.19,2.19,0,0,1,1-1.42,2.22,2.22,0,0,1,1.67-.31c3.71.82,16.27,3.8,21.87,7.69,5.14,3.56,15.16,13.33,19.23,17.36a2.19,2.19,0,0,1-1.45,3.74l-10.43.47-.53,9.48a2.19,2.19,0,0,1-1.5,2A2.37,2.37,0,0,1,177.07,657.57Zm-26.78-37.22c1.08,1.64,5.58,8.33,12.3,16.62,5.33,6.57,10.87,13.3,14.09,17.21l.49-8.71a2.18,2.18,0,0,1,2.09-2.07l9.8-.44c-4.39-4.33-13.45-13.09-18.13-16.34-4.05-2.8-13.14-5.52-20.47-7.17Zm-.11-.16Z"/><path class="cls-3" d="M147.85,617.35a.86.86,0,0,1,.65-.74c1.95-.57,6.36-4.85,9-6.49,5.13-3.13,10.66-3.86,14.31-4.34,3-.39,9.24-.49,11.44-.52a.88.88,0,0,1,.87.77l1.52,13.16a.87.87,0,0,1-.87,1l-36.22-.3a.86.86,0,0,1-.86-.94Z"/><path class="cls-2" d="M184.81,621.48h0l-36.22-.29a2.21,2.21,0,0,1-1.6-.72,2.19,2.19,0,0,1-.57-1.66l.13-1.57a2.19,2.19,0,0,1,1.59-1.9c.89-.26,3-1.93,4.62-3.27a45.58,45.58,0,0,1,4.1-3.08c5.38-3.29,11.07-4,14.82-4.52,3-.39,9.12-.5,11.61-.53h0a2.17,2.17,0,0,1,2.17,1.94L187,619a2.19,2.19,0,0,1-2.18,2.44Zm-35.73-2.94,35.22.29-1.42-12.24c-2.29,0-8.12.14-10.87.5-3.54.47-8.88,1.17-13.79,4.16a44.94,44.94,0,0,0-3.82,2.88,24.86,24.86,0,0,1-5.26,3.66Zm33.75-12.36h0Z"/><path class="cls-3" d="M148.05,617.34a.83.83,0,0,1,.34-.69,42.77,42.77,0,0,1,10.55-5.57c6.64-2.4,11.39-1.79,17.32-3.22a41.75,41.75,0,0,0,6.92-2.16.86.86,0,0,1,1.18.57c.49,1.79,1.48,5.62,2,8.65s.95,6.49,1.14,7.92a.87.87,0,0,1-.61.94,50.93,50.93,0,0,1-11.31,1.71,69,69,0,0,1-18.81-2c-2.3-.56-5.83-1.79-7.26-2l-.72-.13a.86.86,0,0,1-.71-.85Z"/><path class="cls-2" d="M173,626.89a75.08,75.08,0,0,1-16.54-2.1c-1.1-.27-2.44-.68-3.74-1.07s-2.74-.83-3.43-1l-.72-.13a2.18,2.18,0,0,1-1.81-2.15v-3.14a2.15,2.15,0,0,1,.88-1.75,41.3,41.3,0,0,1,21.68-8,51.72,51.72,0,0,0,6.67-1,42.68,42.68,0,0,0,6.7-2.09,2.19,2.19,0,0,1,3,1.43c.54,2,1.51,5.75,2,8.78s1,6.64,1.14,8a2.18,2.18,0,0,1-1.54,2.37,51.56,51.56,0,0,1-11.62,1.77C174.74,626.87,173.85,626.89,173,626.89Zm-23.59-6.79.34.06a37.86,37.86,0,0,1,3.74,1c1.26.38,2.57.77,3.6,1a68.66,68.66,0,0,0,18.42,1.95,51.13,51.13,0,0,0,10.64-1.55c-.2-1.52-.62-4.63-1.09-7.49-.43-2.68-1.26-6-1.8-8a47.71,47.71,0,0,1-6.65,2,54.8,54.8,0,0,1-7,1.1,40.42,40.42,0,0,0-10.19,2.08,41.74,41.74,0,0,0-10,5.24Z"/><rect class="cls-3" x="142.8" y="614.97" width="6.61" height="7.13" rx="1.96"/><path class="cls-2" d="M147.45,623.42h-2.69a3.29,3.29,0,0,1-3.29-3.29v-3.2a3.3,3.3,0,0,1,3.29-3.29h2.69a3.29,3.29,0,0,1,3.28,3.29v3.2A3.28,3.28,0,0,1,147.45,623.42Zm-2.69-7.13a.64.64,0,0,0-.64.64v3.2a.64.64,0,0,0,.64.64h2.69a.64.64,0,0,0,.64-.64v-3.2a.64.64,0,0,0-.64-.64Z"/><circle class="cls-3" cx="146.5" cy="34" r="32.5"/><path class="cls-1" d="M146.5,3a31,31,0,1,1-31,31,31,31,0,0,1,31-31m0-3a34,34,0,1,0,34,34,34,34,0,0,0-34-34Z"/><path class="cls-2" d="M146.5,12a22,22,0,1,1-22,22,22,22,0,0,1,22-22m0-9a31,31,0,1,0,31,31,31,31,0,0,0-31-31Z"/><path class="cls-3" d="M146.5,9a25,25,0,1,1-25,25,25,25,0,0,1,25-25m0-6a31,31,0,1,0,31,31,31,31,0,0,0-31-31Z"/><path class="cls-2" d="M146.5,6a28,28,0,1,1-28,28,28,28,0,0,1,28-28m0-3a31,31,0,1,0,31,31,31,31,0,0,0-31-31Z"/><path class="cls-2" d="M145.91,57V48.6c.07-3.14,0-8.84,0-9.26,0-.63,1.26-.5,1.62-.5,5.88,0,8.42-3.31,9.24-6.94h3.83V30.28H157a13.31,13.31,0,0,0,.07-1.41c0-.26,0-.53,0-.81h3.51V26.45H157c-.43-4.14-2.32-9.34-10-9.34-1.62,0-3.28,0-4.85,0a2,2,0,0,0-1.13.18c-.35.27-.22,4.27-.18,5.66,0,.35,0,1.63,0,3.46h-5.1v1.61h5.1c0,.7,0,1.44,0,2.22h-5.11V31.9h5.11c0,4.4,0,9.53,0,13.25h0V56m5.13-32.43a5.4,5.4,0,0,1,0-.9c.13-.49.72-.49,1.17-.44,2.36.16,3.8,2.06,4.21,4.22h-5.4C145.91,25.25,145.91,24.18,145.93,23.57Zm4.18,9.3a4.79,4.79,0,0,1-3.6,1.53.73.73,0,0,1-.63-.68,14.64,14.64,0,0,1,.05-1.48V31.9h4.81A4,4,0,0,1,150.11,32.87Zm1.16-2.59h-5.35c0-.67,0-1.44,0-2.22h5.55A10.58,10.58,0,0,1,151.27,30.28Z"/><text class="cls-4" transform="translate(38.91 218.61)">a<tspan class="cls-5" x="10.68" y="0">r</tspan><tspan x="17.7" y="0">ea donde most</tspan><tspan class="cls-6" x="156.12" y="0">r</tspan><tspan x="163.25" y="0">amos </tspan><tspan x="80.32" y="29.82">los SS </tspan><tspan class="cls-7" x="8.84" y="59.64">r</tspan><tspan x="15.86" y="59.64">ema</tspan><tspan class="cls-7" x="56.1" y="59.64">r</tspan><tspan x="63.12" y="59.64">cando los pasos</tspan><tspan x="26.94" y="89.46">(tamaño a definir)</tspan></text></g></g></svg>