<svg xmlns="http://www.w3.org/2000/svg" viewBox="0 0 329.5 120.62"><defs><style>.cls-1{fill:#00b7c2;}.cls-2{fill:#fff;}</style></defs><g id="Capa_2" data-name="Capa 2"><g id="Layer_1" data-name="Layer 1"><polygon class="cls-1" points="21.23 117.62 21.1 117.14 20.96 116.65 20.8 116.16 20.64 115.68 20.46 115.2 20.06 114.19 19.65 113.27 19.21 112.37 18.73 111.49 18.22 110.64 17.68 109.8 17.11 108.99 16.5 108.2 15.87 107.44 15.21 106.7 14.52 105.99 13.81 105.31 13.07 104.65 12.3 104.02 11.51 103.42 10.7 102.86 9.86 102.31 9 101.81 8.12 101.33 7.22 100.9 6.3 100.49 5.47 100.16 4.97 99.98 4.5 99.81 4 99.66 3.52 99.51 3 99.37 3 21.23 3.49 21.1 3.98 20.95 4.46 20.8 4.94 20.64 5.42 20.47 6.44 20.06 7.35 19.65 8.25 19.2 9.13 18.73 9.99 18.22 10.82 17.68 11.63 17.11 12.42 16.5 13.18 15.87 13.92 15.21 14.63 14.52 15.32 13.81 15.97 13.07 16.6 12.3 17.2 11.51 17.77 10.7 18.31 9.86 18.81 9 19.29 8.12 19.73 7.22 20.13 6.3 20.46 5.47 20.64 4.97 20.81 4.49 20.96 4.01 21.11 3.52 21.25 3 308.26 3 308.4 3.49 308.54 3.97 308.69 4.46 308.86 4.94 309.03 5.42 309.44 6.43 309.85 7.36 310.29 8.25 310.77 9.13 311.28 9.98 311.82 10.82 312.39 11.63 312.99 12.42 313.63 13.18 314.28 13.92 314.97 14.63 315.69 15.32 316.43 15.97 317.19 16.6 317.98 17.2 318.8 17.77 319.63 18.31 320.49 18.81 321.38 19.29 322.27 19.73 323.19 20.13 324.02 20.46 324.53 20.65 325.01 20.81 325.49 20.96 325.98 21.11 326.5 21.25 326.5 99.39 326.01 99.52 325.52 99.67 325.04 99.82 324.55 99.99 324.08 100.16 323.06 100.56 322.14 100.97 321.25 101.42 320.37 101.89 319.51 102.41 318.68 102.95 317.87 103.52 317.08 104.12 316.31 104.75 315.58 105.41 314.86 106.1 314.18 106.81 313.52 107.56 312.9 108.32 312.3 109.11 311.73 109.92 311.19 110.76 310.68 111.62 310.21 112.5 309.77 113.4 309.37 114.32 309.04 115.15 308.85 115.65 308.69 116.13 308.53 116.62 308.38 117.11 308.24 117.62 21.23 117.62"/><path class="cls-2" d="M306.05,6V6l.15.42,0,.09,0,.08.33.83,0,.1,0,.11.36.81.05.11,0,.11.39.79.06.11,0,.1.42.78.06.1.06.1.44.76.06.1.07.09.47.74.07.1.06.09.51.72.06.1.07.09.54.7.06.09.08.09.55.67.08.09.07.09.59.65.07.09.08.08.61.63.08.08.08.08.63.61.09.08.08.08.65.58.09.07.09.08.68.55.08.08.1.07.69.53.1.07.09.06.72.51.09.07.1.06.74.48.1.06.1.06.75.45.1.06.11.05.77.42.11.06.1.05.79.39.11.05.11,0,.81.36.11.05.11,0,.82.33.09,0,.08,0,.42.15V97.18h0l-.42.16-.08,0-.08,0-.83.33-.11,0-.11,0-.81.36-.11,0-.1,0-.8.39-.1,0-.1.06-.78.42-.1,0-.1.06-.76.45-.1.06-.1.06-.74.48-.09.06-.1.07-.72.5-.09.07-.09.07-.7.53-.09.07-.09.07-.68.56-.09.08-.08.07-.65.58-.09.08-.08.08-.63.61-.09.08-.08.08-.6.63-.08.08-.08.09-.58.65-.08.09-.07.09-.56.67-.07.09-.07.09-.53.7-.07.09-.07.1-.5.71-.07.1-.06.1-.48.74-.06.09-.06.1-.45.76-.06.1-.06.1-.42.78-.05.1-.05.11-.39.79-.05.11-.05.11-.36.81-.05.1,0,.11-.33.83,0,.08,0,.09-.15.41H23.45v0l-.15-.42,0-.08,0-.09-.33-.82,0-.11L22.8,113l-.36-.81-.05-.11-.05-.1-.39-.8-.05-.1-.06-.11-.41-.77-.06-.11-.06-.1-.45-.75-.06-.1-.06-.1-.48-.74-.06-.1-.07-.09-.5-.72-.07-.09-.07-.1-.53-.69-.07-.1-.07-.09-.56-.67-.07-.09-.08-.08-.58-.66-.08-.08-.08-.09-.6-.63-.08-.08-.09-.08-.63-.61-.08-.08-.09-.07-.65-.58-.08-.08-.09-.07-.68-.56-.09-.07-.09-.07-.7-.54-.09-.07-.09-.06-.72-.51-.1-.06-.1-.07-.73-.47-.1-.07-.1-.06-.76-.44-.1-.06-.1-.06-.78-.42-.1,0-.1-.06-.8-.39-.1,0-.11,0-.81-.36-.11,0-.11,0-.83-.33-.08,0-.08,0L6,97.16V23.45H6l.42-.15.09,0,.08,0,.83-.33.11,0,.1-.05.81-.36.11-.05.11-.05L9.47,22l.11-.05.1-.06.78-.42.1-.05.1-.06.75-.45.11-.06.09-.06.74-.48.1-.06.09-.07.72-.5.1-.07.09-.07.7-.53.09-.07.09-.07.67-.56.09-.07.09-.08.65-.58.09-.08.08-.08.63-.6.08-.08.08-.09L17.4,16l.08-.08.08-.09.58-.65.07-.08.08-.09.55-.68.08-.09.07-.09.53-.7.07-.09.06-.09.51-.72.07-.1.06-.1.48-.73.06-.1.06-.1.45-.76.06-.1.05-.1.42-.78.06-.1.05-.1.39-.8.05-.1,0-.11.36-.81.05-.11,0-.11.33-.83,0-.08,0-.09L23.46,6H306.05m4.62-6H18.83l-.08.45L18.67.9l-.1.45-.1.44-.11.44-.12.43-.13.43L18,3.52,17.83,4l-.16.41-.33.83L17,6l-.39.8-.42.77-.44.76-.48.74-.51.72-.53.69-.55.68-.58.65-.61.63-.63.61-.65.58-.68.56-.7.53-.71.5-.74.48-.76.45-.78.42L6,17l-.81.36-.83.33L4,17.8l-.42.14-.43.14-.43.13-.44.12-.43.11-.45.1-.44.1-.45.09L0,18.8l0,0v83H0l.45.08L.9,102l.45.09.44.11.44.11.43.12.43.13.43.13.43.15.42.15.82.33.81.36.8.39.77.42.76.45.74.47.72.51.69.53.68.56.65.58.63.6.61.63.58.66.56.67.53.7.5.72.48.73.45.76.42.78.39.79.36.81.33.83.15.42.14.42.14.43.13.43.12.44.11.44.1.44.1.44.09.45.07.45,0,0H310.67l.07-.45.09-.45.1-.44.1-.45.11-.43.12-.44.13-.43.14-.43.14-.42.15-.42.33-.83.36-.81.39-.8.42-.77.45-.76.48-.74.5-.71.53-.7.56-.68.58-.65.61-.63.63-.61.65-.58.68-.55.69-.54.72-.5.74-.48.76-.44.77-.42.8-.4.81-.36.82-.32.42-.16.43-.14.43-.14.43-.13.43-.12.44-.11.44-.1.45-.1.45-.08.45-.08,0,0v-83h0l-.45-.08-.45-.08-.44-.1-.44-.1-.44-.11-.44-.12-.43-.13L326,18l-.42-.14-.42-.16-.83-.33-.81-.36-.79-.39-.78-.42-.76-.44-.73-.48-.72-.51-.7-.53-.67-.55-.66-.58-.63-.61-.6-.63-.58-.65-.56-.68-.53-.7-.51-.71-.47-.74-.45-.76-.42-.78L312.54,6l-.36-.81-.33-.83L311.7,4l-.15-.42-.13-.43-.13-.43-.12-.44-.12-.43-.1-.45-.09-.44-.09-.45L310.69,0l0,0Z"/></g></g></svg>