<svg xmlns="http://www.w3.org/2000/svg" viewBox="0 0 254.27 117.31"><defs><style>.cls-1{fill:#ed3432;}.cls-2{font-size:22px;fill:#1b262c;font-family:Roboto-Black, Roboto Black;font-weight:800;}</style></defs><g id="Capa_2" data-name="Capa 2"><g id="Layer_1" data-name="Layer 1"><path class="cls-1" d="M3,94.76a145.21,145.21,0,0,1,246.11-2.34C183.65,134.34,43.32,115,3,94.76Z"/><text class="cls-2" transform="matrix(0.86, -0.51, 0.51, 0.86, 44.78, 43.32)">H</text><text class="cls-2" transform="translate(56.48 36.37) rotate(-26.43)">a</text><text class="cls-2" transform="translate(65.38 31.94) rotate(-22.76)">c</text><text class="cls-2" transform="translate(73.72 28.38) rotate(-19.04)">é</text><text class="cls-2" transform="translate(83.58 25.05) rotate(-16.26)"> </text><text class="cls-2" transform="translate(87.46 23.84) rotate(-13.7)">c</text><text class="cls-2" transform="translate(96.46 21.69) rotate(-11.04)">l</text><text class="cls-2" transform="matrix(0.99, -0.16, 0.16, 0.99, 100.99, 20.8)">i</text><text class="cls-2" transform="translate(105.47 20) rotate(-6.64)">c</text><text class="cls-2" transform="matrix(1, -0.05, 0.05, 1, 114.61, 18.91)">k</text><text class="cls-2" transform="translate(124.3 18.44) rotate(-0.61)"> </text><text class="cls-2" transform="translate(128.39 18.31) rotate(2.25)">e</text><text class="cls-2" transform="matrix(0.99, 0.11, -0.11, 0.99, 138.69, 18.67)">n</text><text class="cls-2" transform="translate(150.19 20.04) rotate(9.37)"> </text><text class="cls-2" transform="translate(154.25 20.7) rotate(11.05)">l</text><text class="cls-2" transform="matrix(0.98, 0.22, -0.22, 0.98, 158.83, 21.58)">i</text><text class="cls-2" transform="matrix(0.96, 0.26, -0.26, 0.96, 163.27, 22.54)">s</text><text class="cls-2" transform="matrix(0.95, 0.31, -0.31, 0.95, 171.09, 24.68)">t</text><text class="cls-2" transform="translate(177.29 26.6) rotate(21.53)">o</text></g></g></svg>