<svg xmlns="http://www.w3.org/2000/svg" viewBox="0 0 115.63 108.97"><defs><style>.cls-1{fill:#00b7c2;}</style></defs><g id="Capa_2" data-name="Capa 2"><g id="Layer_1" data-name="Layer 1"><circle class="cls-1" cx="10.05" cy="24.38" r="1.93"/><path class="cls-1" d="M10,27.61a3.27,3.27,0,0,1-1.76-.52,3.23,3.23,0,0,1-.94-4.48,3.16,3.16,0,0,1,.79-.84A8.45,8.45,0,0,1,6.58,18a1,1,0,0,1,.15-.7L17.85.19A.4.4,0,0,1,18.27,0a.4.4,0,0,1,.33.33l.12.67c0,.25.11.61.2,1a45.28,45.28,0,0,1,1,7.17,15,15,0,0,1,3.21-1.14c.83-.21,1.71-.39,2.55-.56S27.23,7.21,28,7l.67-.17a.43.43,0,0,1,.43.17.41.41,0,0,1,0,.46L17.94,24.56a1,1,0,0,1-.58.42,8.49,8.49,0,0,1-4.15.11,3.53,3.53,0,0,1-.45,1.06A3.23,3.23,0,0,1,10,27.61ZM8.85,22.28a2.42,2.42,0,0,0-.12,4.12,2.42,2.42,0,0,0,3.73-1.85.4.4,0,0,1,.23-.34.39.39,0,0,1,.35,0,7.65,7.65,0,0,0,4.11,0,.16.16,0,0,0,.1-.08L27.82,7.91c-.64.15-1.3.28-1.94.41-.83.17-1.69.35-2.51.55a12.63,12.63,0,0,0-3.53,1.36l-.07,0s0,0,0,0a.47.47,0,0,0-.11.13L12.69,21.07a.4.4,0,0,1-.56.12.41.41,0,0,1-.12-.57L18.93,10a1.84,1.84,0,0,1,.17-.22c.23-1.38-.59-5.54-1-7.57-.05-.27-.1-.51-.13-.71L7.41,17.7a.17.17,0,0,0,0,.12,7.62,7.62,0,0,0,1.67,3.8.41.41,0,0,1,0,.54A.37.37,0,0,1,8.85,22.28Z"/><circle class="cls-1" cx="6.11" cy="50.47" r="1.93"/><path class="cls-1" d="M6.11,53.7a2.88,2.88,0,0,1-.41,0A3.23,3.23,0,0,1,3.25,49,8.48,8.48,0,0,1,.18,46.2,1,1,0,0,1,0,45.51L2.57,25.3a.41.41,0,0,1,.3-.35.41.41,0,0,1,.44.16l.4.55.63.85a44.68,44.68,0,0,1,4.07,6,14.86,14.86,0,0,1,2.38-2.43c.67-.56,1.38-1.1,2.06-1.62s1.23-.94,1.8-1.41l.53-.44a.43.43,0,0,1,.46,0,.4.4,0,0,1,.21.41L13.29,47.19a1,1,0,0,1-.34.63,8.5,8.5,0,0,1-3.69,1.91,3.12,3.12,0,0,1,.06,1.14A3.24,3.24,0,0,1,6.11,53.7Zm-2-4.59a2.45,2.45,0,0,0-.4,1,2.42,2.42,0,0,0,4.8.61,2.45,2.45,0,0,0-.16-1.2.46.46,0,0,1,.05-.41A.42.42,0,0,1,8.73,49a7.69,7.69,0,0,0,3.69-1.8.16.16,0,0,0,.05-.11L14.91,27.9c-.51.41-1,.82-1.56,1.21-.68.52-1.38,1.05-2,1.6a12.48,12.48,0,0,0-2.58,2.75s0,0,0,.08,0,0,0,.05a.85.85,0,0,0,0,.17L7.05,46.34a.42.42,0,0,1-.46.36.41.41,0,0,1-.36-.46l1.6-12.59a2,2,0,0,1,0-.26C7.49,32,4.93,28.65,3.69,27l-.44-.58L.82,45.61a.24.24,0,0,0,0,.12A7.63,7.63,0,0,0,4,48.42a.4.4,0,0,1,.22.48A.46.46,0,0,1,4.11,49.11Z"/><circle class="cls-1" cx="14.58" cy="75.65" r="1.93"/><path class="cls-1" d="M14.58,78.89a3.16,3.16,0,0,1-1.47-.36,3.2,3.2,0,0,1-1.76-3A8.57,8.57,0,0,1,7.4,74.31,1,1,0,0,1,7,73.75L.7,54.36a.41.41,0,0,1,.13-.44.39.39,0,0,1,.45,0l.61.33.93.5A45.25,45.25,0,0,1,9,58.41a15.21,15.21,0,0,1,1.13-3.21c.37-.78.78-1.57,1.18-2.34s.71-1.36,1-2l.3-.62a.41.41,0,0,1,.76,0l6.25,19.39a1,1,0,0,1,0,.71,8.58,8.58,0,0,1-2.53,3.3,3.18,3.18,0,0,1,.54,1,3.23,3.23,0,0,1-2.08,4.07A3.17,3.17,0,0,1,14.58,78.89ZM12.2,75.27a2.55,2.55,0,0,0,.08,1.13,2.46,2.46,0,0,0,1.2,1.41,2.42,2.42,0,0,0,3.4-2.9,2.35,2.35,0,0,0-.65-1,.41.41,0,0,1-.12-.39.4.4,0,0,1,.22-.28A7.64,7.64,0,0,0,18.91,70a.24.24,0,0,0,0-.12L13,51.48c-.28.59-.59,1.19-.89,1.76-.4.76-.81,1.54-1.16,2.31a12.65,12.65,0,0,0-1.17,3.59v.14l0,.17,3.9,12.07a.41.41,0,1,1-.78.25L9,59.7l-.06-.26c-.93-1-4.68-3-6.5-4l-.65-.34L7.73,73.5a.18.18,0,0,0,.08.09,7.62,7.62,0,0,0,4,1.1h0a.41.41,0,0,1,.41.34A.48.48,0,0,1,12.2,75.27Z"/><circle class="cls-1" cx="34.07" cy="94.13" r="1.93"/><path class="cls-1" d="M34.07,97.36a3.25,3.25,0,0,1-2.34-1,3.12,3.12,0,0,1-.63-1,8.49,8.49,0,0,1-4.08.65,1,1,0,0,1-.64-.3L12.29,81a.4.4,0,0,1-.08-.45.39.39,0,0,1,.39-.24l.69,0c.25,0,.62,0,1.06,0a46.5,46.5,0,0,1,7.21.62,15,15,0,0,1-.38-3.38c0-.86,0-1.75,0-2.61s0-1.55,0-2.29v-.69a.42.42,0,0,1,.71-.29L36,86.49a1,1,0,0,1,.28.65,8.49,8.49,0,0,1-.84,4.08,3.07,3.07,0,0,1,.93.67,3.23,3.23,0,0,1-2.34,5.47Zm-2.31-2.54a2.37,2.37,0,0,0,.57,1,2.42,2.42,0,0,0,4.16-1.62,2.42,2.42,0,0,0-1.71-2.36.42.42,0,0,1-.28-.3.41.41,0,0,1,.08-.35,7.65,7.65,0,0,0,.92-4,.16.16,0,0,0,0-.11l-13.37-14c0,.66,0,1.33,0,2,0,.85-.06,1.73,0,2.58a12.59,12.59,0,0,0,.52,3.74l0,.08,0,.05a1.13,1.13,0,0,0,.1.13l8.77,9.16a.41.41,0,0,1-.59.57l-8.77-9.16a1.57,1.57,0,0,1-.17-.21c-1.3-.54-5.54-.69-7.6-.77l-.73,0L27,95.18a.16.16,0,0,0,.11,0,7.61,7.61,0,0,0,4.08-.76.4.4,0,0,1,.52.13A.42.42,0,0,1,31.76,94.82Z"/><circle class="cls-1" cx="105.55" cy="24.4" r="1.93"/><path class="cls-1" d="M105.55,27.63a3.23,3.23,0,0,1-2.71-1.47,2.93,2.93,0,0,1-.45-1.06A8.54,8.54,0,0,1,98.26,25a1,1,0,0,1-.57-.42L86.56,7.5a.41.41,0,0,1,0-.46A.43.43,0,0,1,87,6.87l.67.17,1,.23a45.92,45.92,0,0,1,7,1.94,15.14,15.14,0,0,1,.24-3.39c.15-.85.34-1.72.52-2.56s.33-1.51.47-2.25L97,.34A.4.4,0,0,1,97.35,0a.43.43,0,0,1,.43.18L108.9,17.25a1,1,0,0,1,.15.7,8.6,8.6,0,0,1-1.58,3.85,3.12,3.12,0,0,1,.79.83,3.23,3.23,0,0,1-2.71,5Zm-2.4-3a2.53,2.53,0,0,0,.37,1.07,2.43,2.43,0,0,0,3.35.7,2.42,2.42,0,0,0,.7-3.34,2.29,2.29,0,0,0-.9-.82.41.41,0,0,1-.07-.68,7.71,7.71,0,0,0,1.64-3.76.14.14,0,0,0,0-.12L97.65,1.5c-.12.64-.27,1.29-.4,1.93-.19.83-.37,1.69-.52,2.53a12.59,12.59,0,0,0-.18,3.77s0,0,0,.08l0,.06a1,1,0,0,0,.07.15l6.93,10.62a.41.41,0,1,1-.69.45L96,10.46a1,1,0,0,1-.13-.23c-1.17-.77-5.31-1.7-7.33-2.16l-.71-.16,10.56,16.2a.19.19,0,0,0,.1.08,7.73,7.73,0,0,0,4.16,0,.4.4,0,0,1,.48.23A.37.37,0,0,1,103.15,24.65Z"/><circle class="cls-1" cx="109.48" cy="50.47" r="1.93"/><path class="cls-1" d="M109.48,53.71a3.22,3.22,0,0,1-3.14-4,8.48,8.48,0,0,1-3.66-1.9,1,1,0,0,1-.34-.63L99.78,27a.4.4,0,0,1,.2-.41.43.43,0,0,1,.46,0l.53.44.83.66a45.46,45.46,0,0,1,5.43,4.79,15.32,15.32,0,0,1,1.7-2.94c.51-.71,1.06-1.41,1.59-2.08s1-1.22,1.39-1.82l.41-.55a.41.41,0,0,1,.74.19l2.56,20.21a1,1,0,0,1-.17.69,8.51,8.51,0,0,1-3.1,2.77,3.19,3.19,0,0,1-.31,3.48,3.19,3.19,0,0,1-2.15,1.23Zm-2.27-4.06a2.41,2.41,0,0,0-.12,1.13,2.36,2.36,0,0,0,.91,1.6,2.4,2.4,0,0,0,1.79.49,2.43,2.43,0,0,0,2.09-2.7,2.43,2.43,0,0,0-.45-1.13.41.41,0,0,1-.05-.4.4.4,0,0,1,.27-.24,7.68,7.68,0,0,0,3.13-2.67.16.16,0,0,0,0-.12l-2.43-19.19c-.39.53-.8,1-1.21,1.57s-1.07,1.36-1.56,2a12.79,12.79,0,0,0-1.81,3.32l0,.08a.13.13,0,0,1,0,.06,1,1,0,0,0,0,.17l1.59,12.58a.41.41,0,1,1-.81.1L107,33.76a2.44,2.44,0,0,1,0-.27c-.72-1.2-4-3.85-5.66-5.14l-.56-.45,2.43,19.19a.17.17,0,0,0,.06.1A7.62,7.62,0,0,0,107,49a.42.42,0,0,1,.34.41A.42.42,0,0,1,107.21,49.65Z"/><circle class="cls-1" cx="101.01" cy="75.64" r="1.93"/><path class="cls-1" d="M101,78.88a3.12,3.12,0,0,1-1-.16,3.22,3.22,0,0,1-1.89-1.6,3.22,3.22,0,0,1,.35-3.49A8.57,8.57,0,0,1,96,70.35a1,1,0,0,1,0-.71l6.26-19.39a.4.4,0,0,1,.36-.28.41.41,0,0,1,.4.23l.29.62c.11.23.27.56.47,1a45.5,45.5,0,0,1,2.88,6.65,14.71,14.71,0,0,1,2.8-2c.75-.42,1.55-.82,2.32-1.21s1.37-.69,2-1l.6-.33a.41.41,0,0,1,.59.48l-6.26,19.39a1,1,0,0,1-.44.56,8.61,8.61,0,0,1-4,1.19,3.21,3.21,0,0,1-1.75,3A3.22,3.22,0,0,1,101,78.88ZM99.3,73.94a2.45,2.45,0,0,0-.59,1,2.41,2.41,0,0,0,1.56,3,2.42,2.42,0,0,0,3-1.55,2.4,2.4,0,0,0,.07-1.22.39.39,0,0,1,.13-.38.41.41,0,0,1,.35-.1,7.66,7.66,0,0,0,4-1.1.16.16,0,0,0,.07-.09l5.94-18.41c-.57.31-1.17.61-1.76.9-.76.39-1.54.78-2.28,1.2a12.34,12.34,0,0,0-3.05,2.23l0,.07,0,0a.52.52,0,0,0-.07.15L102.7,71.76a.42.42,0,0,1-.52.27.41.41,0,0,1-.26-.52l3.89-12.07a1.86,1.86,0,0,1,.1-.25c-.14-1.4-2-5.2-2.94-7.06l-.32-.65L96.71,69.89a.16.16,0,0,0,0,.12,7.72,7.72,0,0,0,2.61,3.24.4.4,0,0,1,.14.51A.42.42,0,0,1,99.3,73.94Z"/><circle class="cls-1" cx="81.53" cy="94.11" r="1.93"/><path class="cls-1" d="M81.53,97.34a3.23,3.23,0,0,1-2.24-.9,3.17,3.17,0,0,1-1-2.26,3.22,3.22,0,0,1,.89-2.31,3.32,3.32,0,0,1,.94-.68,8.6,8.6,0,0,1-.82-4,1,1,0,0,1,.27-.65L93.67,71.77a.42.42,0,0,1,.71.29v.69c0,.25,0,.62,0,1A44.89,44.89,0,0,1,94.07,81a14.61,14.61,0,0,1,3.36-.53c.87-.05,1.76-.06,2.62-.08s1.54,0,2.29-.06l.68,0a.4.4,0,0,1,.4.24.4.4,0,0,1-.08.45L89.25,95.74a1,1,0,0,1-.64.31,8.5,8.5,0,0,1-4.11-.66,3.23,3.23,0,0,1-3,2Zm-.79-5.52a2.5,2.5,0,0,0-.95.61,2.42,2.42,0,0,0,1.79,4.09,2.42,2.42,0,0,0,1.7-.74,2.59,2.59,0,0,0,.59-1.06.39.39,0,0,1,.28-.3.42.42,0,0,1,.36.07,7.74,7.74,0,0,0,4,.74.16.16,0,0,0,.11,0l13.37-14-2,0c-.85,0-1.73,0-2.58.08a12.36,12.36,0,0,0-3.71.68l-.08,0,0,0-.13.1-8.77,9.17a.41.41,0,0,1-.59-.57l8.77-9.16a1.62,1.62,0,0,1,.2-.18c.49-1.32.45-5.56.44-7.63,0-.27,0-.52,0-.73l-13.38,14a.15.15,0,0,0,0,.11,7.6,7.6,0,0,0,.94,4,.42.42,0,0,1-.11.53A.37.37,0,0,1,80.74,91.82Z"/><path class="cls-1" d="M91.38,28.62H82.81C81.8,18.82,77.3,6.5,59,6.5c-3.83,0-7.76.11-11.49.11A4.54,4.54,0,0,0,44.9,7c-.86.64-.54,10.11-.43,13.41,0,.83,0,3.86,0,8.18H32.42v3.83h12.1c0,1.65,0,3.41,0,5.26H32.42v3.83H44.53c0,10.42,0,22.58,0,31.39h0V91.71a2.91,2.91,0,1,0,2.12,0V79.82a.21.21,0,0,1,.21-.21h2.78a.23.23,0,0,1,.22.21v23.54a2.9,2.9,0,1,0,2.12,0v-17l1.61,0h.92v5.84a.2.2,0,0,0,.2.2h3.38A2.32,2.32,0,1,0,60.23,89a2.31,2.31,0,0,0-2,1.16H56.86a.2.2,0,0,1-.2-.2V81.11c.16-7.45-.06-21-.06-22,0-1.49,3-1.17,3.83-1.17,13.91,0,19.93-7.84,21.88-16.45h9.07V37.71H82.92c.11-1.12.16-2.24.16-3.34,0-.61,0-1.25,0-1.92h8.32ZM60.23,90a1.4,1.4,0,1,1,0,2.79,1.4,1.4,0,0,1,0-2.79ZM56.7,21.82a15.12,15.12,0,0,1,0-2.13c.32-1.17,1.7-1.17,2.77-1.06,5.59.38,9,4.88,10,10H56.66C56.65,25.8,56.67,23.26,56.7,21.82ZM47.37,94.41a1.75,1.75,0,1,1-1.75-1.75A1.75,1.75,0,0,1,47.37,94.41Zm5.33,11.66A1.75,1.75,0,1,1,51,104.32,1.75,1.75,0,0,1,52.7,106.07ZM66.6,43.84a11.31,11.31,0,0,1-8.51,3.62,1.71,1.71,0,0,1-1.49-1.6c0-1.17,0-2.34.1-3.51v-.81H68.11A10.28,10.28,0,0,1,66.6,43.84Zm2.74-6.13H56.68c0-1.58,0-3.4,0-5.26H69.81A25.1,25.1,0,0,1,69.34,37.71Z"/></g></g></svg>