<svg xmlns="http://www.w3.org/2000/svg" viewBox="0 0 311.25 22.3"><defs><style>.cls-1{fill:#ec008c;}</style></defs><g id="Capa_2" data-name="Capa 2"><g id="Layer_1" data-name="Layer 1"><path class="cls-1" d="M196.58,13.43H197c.5,0,.69,0,.78-.26.32,0,1,0,2.5.07h0l0-.72h0l-2.06-.12c-4.82-.29-4.82-.29-4.85.16S193.35,13,196.58,13.43Z"/><path class="cls-1" d="M310,6.59c-.45-.16-1-.3-1.34-.41l-1.1-.31,1.08-.22-2.25-.11-.83-.24.37.21h-.17c-.91,0-1.86-.06-2.92,0a.58.58,0,0,0-.49-.33,22.35,22.35,0,0,0-3.41-.3c-2.89-.09-4.74-.22-5.6-.35l.5-.39-1.22.13a95.6,95.6,0,0,1-10.78.17l-2.92,0c-1.35,0-2.75,0-4.17,0-.75,0-1.5,0-2.26,0l.15-1.47h-.09l.06-.61-.32,0-1.17-.09V1.81l-1-.05h0a12.1,12.1,0,0,0-2.89,0l-.24.1V2h-.17V2c-.44,0-1.09.05-2.08.09l-7.85.17c-1.08,0-2.13,0-3.19,0h-3.35l-1.75,0H246v-.1l-3.74,0c-3.14,0-6.39,0-9.69.1-2.27,0-4.57.14-6.8.23h-.11c-1.14,0-2.34.08-3.59.1a.5.5,0,0,0-.16-.11l-.06,0h-.07l-2.9.07-3.13.08-1.93,0h-.48c-2.05,0-4,0-5.71,0l-2.25,0-1.74-.08-.09,0-.09.09a1.71,1.71,0,0,1-.54.13c-.6,0-1.13.09-1.6.14-2.26.14-5.94.22-9.33.29l-2.19,0c-4,.09-6.8.17-8.85.26l-2.1-.05c-5.66-.14-7.91-.26-8.8-.34l.1-.11L165.32,3c-5.53-.17-11.26-.33-16.86-.35-1.47,0-2.93,0-4.39,0l-5.92.06-27.87.05a17.42,17.42,0,0,0-4.07,0H106l-.64-.07V2.33c-5.15,0-9.08-.27-12.54-.51l-.61-.05c-3.07-.22-5.78-.41-8.75-.48C83.42,1.07,83.17,1,83,1h-.09L81.7,1V.74A84.44,84.44,0,0,0,71.2.5a5.51,5.51,0,0,0-2.68.61C65.76.93,63.65.89,61.67,1c-1.42.05-2.69.14-4,.26V.94h0C56,1,50.09,1,44.5,1H41.29c-5.63,0-7,0-7.44.11-.7-.06-2.14-.1-3.24-.12L28.73,1H27.41c-2.1,0-3.72.14-5,.24l-4,.35c-.94.08-2.09.16-3.54.19h-.44V1.58C12,1.27,9.55,1,7.2.75L0,0,5.64,3.42c.25.15.52.3.79.43A3.35,3.35,0,0,0,7,4.08l.22.07a7,7,0,0,0,1.06.3l.31.08c.63.13,1.25.22,2,.31l0,.08a1,1,0,0,1-.11.29L10,6l0,.16a.43.43,0,0,0,.23.3l.24.15a5.67,5.67,0,0,0,.54.28c.33.14.62.26.9.36.55.2,1.06.37,1.61.55l.38.12a24.14,24.14,0,0,0,4.18.94c2.21.54,9.69.88,10.54.91l.84,0v0l17.93,1.52.19.08C53.71,12,60.07,12.54,67,13.05l2.83.21h0v.12c3.25.35,6.19.61,9.25.84h0c2.72.28,6.8.64,10.73.66v-.1c3.62.14,7.73.31,13.69.62l1.44.31c1.92,0,4.53.17,7.19.29,4.91.22,10,.45,11.43.32,2.73.37,8.25.56,14.63.79l5.33.18c5.82.2,11.84.4,15.84.61h.1l.34-.3c7,.29,13.24.42,20.95.43h1.44l-.57-.3c1.93,0,4.1,0,6.53,0l5.14,0c2.19,0,4.7,0,7.88,0l2.64-.06v0c6.81.13,14-.09,20.29-.3l10-.35c3.28-.09,6.37-.18,9.35-.13.89-.05,1.69-.09,2.46-.11l.85.15a38,38,0,0,1,4.75,1.16,16.79,16.79,0,0,1,3.3,1.72l.53.32a16.46,16.46,0,0,0,4.74,2l.28.06,0-.14h0l.06-.26h.05v0h0l.38-1.61h0v0h-.06L261,20h0l0-.15-.38,0a18.72,18.72,0,0,1-3.8-.78l-.1.4-.8-.22-1-.27c-.54-.33-1.06-.64-1.6-.92a13.3,13.3,0,0,0-1.67-.71c-.5-.17-1.07-.33-1.85-.53h1.51c1.31,0,2.67,0,4.14-.08h0c2.09,0,4.53-.11,6.21-.24,2.83-.14,2.85-.35,2.86-.65v0c.81-.14,1.78-.37,1.89-.71l.07-.23-.07-.09a5.24,5.24,0,0,0,1.4-.85l1.65-1.52-2.34-.79a9.06,9.06,0,0,0-1.49-.38,9.27,9.27,0,0,0-3.39-.44c-.68,0-1.33.08-1.95.14-.46,0-.91.08-1.36.1a25.19,25.19,0,0,1-6.4-.3c-.57,0-1.91,0-3.57-.19-1.9-.17-4.11-.29-6.24-.33-3.34-.07-7.09,0-8.76.12-3.72-.14-7.25-.38-10.67-.61h-.1l-1.68-.55c-1.42-.05-2.83-.09-4.24-.11h-.56c-1.22,0-2.41,0-3.63,0l-1-.11-1.18-.14V8.16L204.51,8l1.65-.09c3.06-.15,6.22-.31,9.33-.42,10.43-.35,21.19-.17,31.61,0,7.87.13,16,.26,24,.17V7.43l.76,0,1.33-.06h0l2.24-.08,2.66-.11V6.91c2.33,0,4.66,0,6.94.07l3,0c.85-.14,2.84-.21,5.15-.3,1.36,0,2.84-.1,4.31-.18l.93,0,0,.55c2.11-.07,3.72-.08,5.24,0l0-.72h.44a12.11,12.11,0,0,0,1.65-.06l1-.21,1.3.75a6.25,6.25,0,0,1,.82.58l.07.05h.07a5.39,5.39,0,0,1,1.93.52l.27-.65A4.61,4.61,0,0,0,310,6.59ZM260.1,21l-.41-.1.42,0Zm-.81.06c-.3-.1-.61-.21-.91-.33.33.05.65.1.95.13Zm5.17-18.25,0,0,.57,0c1.1,0,1.76-.06,2.1-.09.84,0,1.77.06,2.74.11-.45,0-.86.09-1.22.14l-.26,0-1.13.15-.59,0h-.13a5.23,5.23,0,0,1-.56,0,26.37,26.37,0,0,1-3-.27l-.26,0Zm-38.79.48h.11L227,3.26a.31.31,0,0,0,0,.1l-2.78.13c-1.23,0-4.78.18-5.63.06l0-.09v0h0l.74,0,1.6,0a4.08,4.08,0,0,0,1-.07C223.21,3.39,224.47,3.36,225.67,3.31Zm-19,.12h5c-1.31.05-2.73.11-4.22.15l-1.91.06C206.3,3.59,206.56,3.54,206.66,3.43Zm-17.28.63v.2c-.75,0-1.49,0-2.18,0V4.11Zm-45.31-.72c1.46,0,2.92,0,4.38,0,5.6,0,11.32.18,16.86.34l4,.12a3.34,3.34,0,0,0,.72.13,36.84,36.84,0,0,0-3.83.33c-1.39.17-2.92.35-5.78.47l0-.31-1.23-.34-1.32,0,0,.7-1.44,0h-1.19V4.49c-1.37,0-2.25.09-2.89.13h0L144.2,5V4.83c-.76,0-1.29,0-1.66,0l-1.48,0-6.4-.57C131.11,4,127.5,3.72,124,3.45ZM167.14,6.5c-.55.06-1.38.12-2.4.18-1.77-.08-3.66-.18-5.61-.3l1.26-.21,1.93.16c2.87,0,3.1,0,3.14-.38l1,0,0,.1h.23c4.14.18,6.33.21,7.58.19l4.32.06v.09c1.71,0,3.67,0,5.68,0h0C177,6.65,169.61,6.93,167.14,6.5Zm1.64,1.11c-2.72,0-5.45,0-8.13,0,1.51-.06,2.91-.13,4.06-.21l3.93.19Zm-47.61-.13c-2.23.07-2.8.11-2.94.3a8,8,0,0,0-2.54,0l-3.35-.19-1.53-.08h0c0-.2,0-.45-1.13-.79L116,7.1v0l2.52.1h0l3.72.22Zm-8.25-2.65,1.34,0v.06Zm21.87,2.43v.15l-3.52-.3v0l-1-.06c-.85-.1-4.12-.48-4.7-.42v.23l-7.05-.32h0c-1.07-.08-2-.15-3-.24H116l2.81,0,.2,0h0c2,0,4,0,5.93,0h0l1,0,1.9.12,0,.26A68.6,68.6,0,0,0,134.79,7.26ZM108,7.38a.35.35,0,0,0,.1-.27c.44.09.82.18,1.14.26ZM98,6.16l-.33,0H98ZM104.72,8l-2.21,0c-4.34.09-8.1.18-9.51.08-2.07,0-3-.09-3.47-.14a.13.13,0,0,0,0-.06.44.44,0,0,0-.06-.16C94.28,7.71,99.39,7.78,104.72,8ZM152,7.24l-3.51.14-1.67-.14h0a70,70,0,0,0-9.52-.65h-.43a.47.47,0,0,0-.12-.2q3.51,0,7.08-.08V6.2l2,0h0V6.1h.29c2.37.22,4.75.43,7,.61,1.58.12,3.13.22,4.64.32Zm7.45.44c-.27,0-.41.07-.47.16a38.46,38.46,0,0,0-4.3.09l-.47,0ZM106,3.46l.16,0,.09,0,.07,0h3.94c.89,0,1.94.12,3.19.22l.82.06c3.24.25,3.68.28,3.77,0,5.17.37,10.74.82,16.18,1.29l-2.17,0c-.11-.13-.34-.13-.7-.13l-.54.13-1.59.11c-1.64-.11-3.39-.21-6.51-.21h-.39a40.44,40.44,0,0,0-5.69-.06V4.22c-3.89-.15-7.5-.21-11-.18-3.17,0-6.26.07-9.09,0L91.11,4l0-.35,2.17,0,4.55-.08ZM71.23,1.22a60.93,60.93,0,0,1,6.61,0,.67.67,0,0,0,.48.21c.68.1,1.84.17,2.87.21.06.23.32.28.56.32,3.69,0,6.82.25,10.44.51l.61,0c1.29.1,2.64.19,4.09.28l-3.6.06c-1.77,0-3.53.07-5.24.08l0,.45H85.31V3.05c-2.13-.17-6.53-.16-9.13-.09,0-.36-.15-.37-.88-.39L70,2.41v0h-.46v.11h-.39c.15-.08.15-.19.15-.34s0-.35-.48-.44A5.19,5.19,0,0,1,71.23,1.22ZM79.4,3.64H80a.14.14,0,0,0,0,.06Zm-11.21.72,2.59.08.2.12c-1.08,0-2-.09-2.79-.14ZM68,5.79c.31,0,.62,0,.94-.06h1.52v.18c1.69.16,4.88.2,7.44.24h.39l2.43,0,0,.23c1.78-.18,3.85-.19,6.19-.19a.36.36,0,0,0-.08.23c0,.36.28.46.45.51l1.41.06H88C87,7,86.5,7,86.27,6.93c-.1-.3-.17-.35-3.46-.38v.31c-1.2,0-2.87.07-4.43.09l-.75,0c-2,0-3.56,0-4.74.08l-.46,0c-3.86-.39-7.84-.8-10.61-.8h-.08v.21C58.5,6.28,55,6,51.83,5.77h.68v.06c1.52,0,3-.06,4.37-.11l1.12,0c3,.12,5.17.09,7,.07h2.09ZM85.74,7.51c-1.48.06-1.57.19-1.67.35L84,8c-.4,0-1.52,0-2.9,0-.08-.19-.3-.2-.51-.22l-.88,0c4.12-.07,4.9-.11,5.05-.35l.86.05A.29.29,0,0,0,85.74,7.51ZM66.21,7.14,65,7.12V7.06ZM44.09,4.68l.38,0,1.63.17V5c-1.89-.06-3.52-.17-5-.28-1-.07-1.93-.15-2.8-.23a.5.5,0,0,0,0-.13H39l1.3,0h1.44l0,0h.44A6.89,6.89,0,0,0,44.09,4.68Zm-9,.27,3,.24c.91.08,1.88.17,3,.25l.58,0-.12,0c-3.37-.28-5.42-.44-6.84-.54Zm14.79-.5h.41l1.62,0c1.81.09,3.67.19,5.67.31l1.43,0v.07L58,4.94h-.32v0c-2.16,0-4.9-.14-7.86-.33h.37Zm10.72-.84c-1.13,0-1.5,0-1.62.1l-.72-.18v0l.41,0ZM22.43,1.94c1.36-.11,2.9-.23,5-.24h1.31l1.87,0c1.59,0,2.74.07,3.26.12l.13,0,0-.06c.52-.11,3.79-.09,7.25-.08l3.21,0c3.11,0,6.3,0,8.82,0,.06.21.38.23,2,.32v.24l-2.13.15c-1.79-.09-3.78-.19-6.06-.36L45.41,2l.58.31H43.46a.93.93,0,0,0-.39-.05h-.8L40,2.24v.11l-3.63,0a.47.47,0,0,0-.19-.06H36L35,2.33l-.88.06h0l-2.67.13-5.15-.07-.67-.07V2.25a10.68,10.68,0,0,0-2.67,0,15.84,15.84,0,0,1-3.66,0ZM9.85,2.53c.57.09,1.15.16,1.73.22,1,.09,2.11.16,3.47.21,2.48.2,3.89.3,5,.35l-1.49.23-.46.07c-1.59-.15-3-.3-4.27-.45C12.35,3,11,2.84,9.8,2.76Zm-3.13.68,0,0c-.26-.13-.52-.27-.76-.41L3.08,1.05l4.07.42.74.08Zm1-.22.61-.86c.21.08.52.17.82.25L9,3.11l-.36,0Zm1,.83.55.05c.55.11,1.09.2,1.64.28C10.06,4.06,9.38,4,8.71,3.82ZM11,5.55l0,0h0A.1.1,0,0,1,11,5.55Zm3.53,1.27V6.9l-.21-.06-.17,0,0,.37h0l-.38-.12-1.58-.53-.4-.16.08-.24-.08,0a2.06,2.06,0,0,0,.4-.33l.12-.25.18,0,.56-.15,2.51-.18c1.68,0,3.23,0,4.62,0h1l-2.16.21L14,5.89l.88.59C14.63,6.5,14.51,6.58,14.48,6.82Zm3.68,1.3C17.09,8,16.32,7.8,15.7,7.66l0,0,0-.09.07,0,.24.05c2.1.4,3.37.64,6,1l.16,0A34.18,34.18,0,0,1,18.16,8.12Zm8.45.16C24.79,8.17,23.25,8,22,7.87c-1-.13-1.75-.24-2.46-.36l2.52.2,1.51.12c1.24.09,2.3.17,3.32.29l2.18.3Zm1.28-1.06L25.8,7.09C23.42,7,21,6.8,18.44,6.52c-.54-.07-1.1-.14-1.66-.23L18.9,6l2.5-.24c1.52-.14,3.05-.26,4.53-.36,2.37.17,4.91.37,7.78.63,1.73.14,3.78.3,5.94.37l1.24,0,1.83.06c1,0,2.07.09,3.16.16l0-.39c.75,0,1.85.07,3.46.19.11.35.9.6,7.26,1.06,2.49.18,5.12.28,7.41.29s4.17.07,5.5.16l.57,0V7.88c.64,0,1.68-.07,2.8-.09,1.58.16,3.09.31,4.49.43v.26c6.93.35,7,.25,7.17,0l0-.13a28.78,28.78,0,0,1,4.07-.11l.1,0a.31.31,0,0,0,0,.08c.09.35.12.45,4.18.53,1.42.1,5,0,9.54-.09,4.3-.09,9.38-.21,13.77-.19l.73,0,.73.05h0l1.33.06c.47,0,.94,0,1.37,0h.41c6.25.23,12.52.33,18.7.27l.35-.13,0-.28.55,0,6.54.54a.88.88,0,0,0,.3.07l0,.7c1.7.22,3.39.44,5.09.68l1.58.22-.38-.24c3.11.3,3.3.23,3.54.15a.63.63,0,0,1,.21,0V10l.81,0a4.66,4.66,0,0,0,.54.05c.21,0,.31-.06.37-.25l.07-.28-.27-.22-.66,0-.48-.07V9.16a2.06,2.06,0,0,0-.86-.05c-.85,0-1.59-.08-2.32-.1l-.75,0h0l-1.05-.09.73-.09.3,0c2.78.24,6.18.44,9.79.61V10h2.56l1.45,0,0,.58,5,.24h0l2.24.1h0a2.45,2.45,0,0,0,.39,0h0v.4l3.05.06h0l.68,0c0,.12.06.2.38.28h-.06c1.51.34,2.84.58,5.92,1l.5,0c.64,0,1.42,0,3.14.2,0,.27.12.28,1.31.4v-.07h.29c1.12.07,1.8.11,2.22.11.66,0,.67-.1.69-.35,0-.43,0-.43-2.89-.78l-.83,0c-1.28-.17-2.64-.33-4-.49l-.32-.21,2.18.2c1.16.1,1.95.17,2.46.2l.66,0a.88.88,0,0,0,.42-.07l3.69.26.05-.72-1.59-.2c-1.62-.2-4.06-.5-4.37-.61l-.08-.05-.39.08V11c-1.14-.08-2.3-.16-3.45-.22v.1c-2.14-.11-4.3-.19-6.62-.25h0l-2.36-.13-.53.05v-.39l-.56,0h-.11a35.37,35.37,0,0,0-4.54-.45l0,.26-.8,0V9.62c8.49.29,17.07.41,21.14.33l0,.54c2.46-.12,5.09-.26,7.83-.38l-1,.11.05.73a70.84,70.84,0,0,1,9.69.21h0l.4,0h0l12.55.87,0-.54,1.18.18c1.32.21,2.14.33,3.08.45s2.13.28,4.06.47l-.33,0,0,.73.42.07-8.13.06h-1.59l.22.1c-.13,0-.18.08-.2.15l-2.08.12h-.11L214,14c-6.16.28-6.16.31-6.23.73V15l.19.09-2.66.07c.77-.16.82-.22.85-.49V14.4l-.29-.13h-.07c-.73.08-3.55.24-6.42.36l-1,0v-.24c-2.48,0-4.63.1-6.71.19a97.62,97.62,0,0,1-12.28,0c-1.23,0-3.05-.18-4.65-.31-2.93-.25-4.06-.32-4.36-.18l-1.1.54,1.18.16c3.17.43,4,1.15,4.1,1.25s-.39.31-1.4.41l-.67,0c-1.25-.08-3.95-.24-6.88-.45l1.82-.69-4.21-.14.33.68c-2.55-.19-5.27-.41-7.08-.57h0c2.45-.18,2.63-.21,2.64-.65s-.34-.47-1-.55a17.64,17.64,0,0,0-3.82-.33l0,.45h0a7.51,7.51,0,0,1-1.08-.12c-.15-.21-.46-.27-4.16-.4h0l-.05,0a49.29,49.29,0,0,1-6-.08l-.8,0h-.11c-.26,0-.33.06-.35.18l-2.53-.13c-1.74-.11-3.7-.22-7.27-.33l0,.24a125.83,125.83,0,0,1-12.61.45,6,6,0,0,0-1.71-.33v0l-.49,0h-.08l-.17,0c-10.19-.37-16.77-.77-25-1.27L85.36,12c-.31-.05-1-.12-1.75-.2s-2.06-.22-2.73-.32V11.3l-1,0-1.68,0c0-.29-.32-.33-1.46-.5l-.06,0-.08,0C75.89,11,66,10.31,61.79,10l-.37,0s0-.06,0-.09,0-.28-.35-.37H61c-.48-.11-1.54-.2-3.82-.41C57,9.16,55.94,9.09,55,9c-2.27-.14-2.27-.14-2.29.25s0,.4,3.07.73h0c.23,0,1.49.07,2.6.13l1.68.09.7.23-.91-.07-1.59-.09c-2.29-.14-2.29-.14-2.33.25a.36.36,0,0,0,0,.19c-2.22-.19-3.4-.32-4-.41,0-.28-.27-.29-.64-.31-2.34-.23-4.36-.42-6.11-.57l-5-.39.05-.51c-.27-.05-.61-.09-1-.14l2.11-.66-5-.22,0,.54C34.13,7.82,31.17,7.52,27.89,7.22Zm208.22,5.83h.22l.61,0c3.12-.12,6.1-.23,9.13-.2a.88.88,0,0,0,.46.3,20.3,20.3,0,0,0,2.13.53c-.55,0-1.22,0-2,0l-1.63.24c-2.43.36-6.4.95-11.21,1.46l-1.89-.19,1.92-.17,6.24-.54,0-.73c-1.47,0-2.18,0-2.66-.05v-.4l-4.4.07-3.88-.65,2.79.24.45,0,0-.5a36.07,36.07,0,0,1,4.16-.17l-.25,0h-.2Zm1,3.15.81.06-.86,0ZM225.24,15l.27,0-.27,0Zm1.61-.64a.43.43,0,0,0,.05-.16v0l3.54,0c.05.3.32.31.91.34h.55l-5,.43,0-.51ZM64.33,11.16c1.29.14,2.91.27,4.64.38-1.42,0-3-.12-4.66-.22a.3.3,0,0,0,0-.1Zm-16.65-.47-16-1.42h0c1,0,1.91.1,2.86.16l10.74.77c1.66.14,3.56.32,5.77.54.08.16.36.27,1.47.41C50.88,11,49.27,10.85,47.68,10.69ZM209.34,17v-.18l-8.14.17c-3.18,0-5.68.07-7.87,0-1.78,0-3.5,0-5.13,0-3.05,0-5.68-.06-7.95,0h-1.39l.5.27c-7.1,0-13-.16-19.6-.44h-.11l-.34.3c-4-.21-10-.41-15.73-.61l-5.33-.18c-6.37-.23-11.88-.42-14.64-.78-1.47.12-6.53-.11-11.41-.33-2.68-.12-5.28-.24-7.16-.28l-1.44-.31c-6-.32-10.13-.49-13.77-.63L87.9,14c-6.2-.58-12.21-1-18-1.45l-2.83-.21-6.74-.51c9.21.62,18.47.86,19.15.19h.62a14.81,14.81,0,0,0,3.47.5l1.76.2,6.32.38c8.42.51,15.07.91,25.55,1.29l.26,0-1.14.31,2.64,0c2.65,0,5.9,0,8.71-.15,3.65-.16,4.53-.29,4.75-.52,3.17.1,5,.21,6.63.3,1.92.11,3.58.21,6.84.28v-.17a16.36,16.36,0,0,0,3.05-.06c1.46.05,3.37.13,3.72.22.11.13.27.2,1.07.27-.16.08-.18.19-.18.35,0,.43.36.5,1.4.62,1.58.18,5.44.49,8.9.75v0l.05,0,.94.07c3.19.23,6.2.41,7.54.49l.71,0c1.33-.13,2-.49,2-1.09s-.45-.85-1.1-1.15l.64.05c1.69.14,3.43.29,4.67.32a100,100,0,0,0,12.32,0l1.62-.07v.2c.58,0,3.32,0,6.12-.12l3.32-.16a.4.4,0,0,0,0,.25c0,.43.44.46,1.31.48,6-.13,11.91-.37,16.19-.67l.22,0,1.31.08c-4.38.4-8.26.77-10.47,1l0,.66Zm4.2,0,6.42-.27,1.08.08C218.62,16.88,216.1,17,213.54,17Zm8.71-.83-1-.07,7.15-.64v.1l1.33.17C227.35,15.92,224.84,16.08,222.25,16.17Zm10.09.06,1.73.14-5.63.19Q230.45,16.41,232.34,16.23Zm31.89-1.56,0,.4c-.24,0-.52.08-.82.11l-.57.08-.19,0-1.57-.13c-3.33.49-6.84.73-9.21.84v0h-.56l-.58,0v0c-1.28,0-2.51,0-3.84,0h-.08L245,15.6l-3.12-.22-.06.72.66.12h-.72l.05-.19-.13-.16c-.09-.11-.09-.11-1-.21s-1.27-.14-1.39-.05l-.77-.08c2.71-.35,5-.68,6.54-.92l1.59-.23,1.2,0c1.1,0,1.81,0,2.27.08-.17,0-.37.07-.57.1l0,.73a60.55,60.55,0,0,0,9.93-1l.73-.14,1.8-.14,1.09-.08v-.18a6.66,6.66,0,0,1,2.4.24l.46.14A10.75,10.75,0,0,1,264.23,14.67Zm-9.39-.51.47,0c-1.08.11-2.33.21-3.81.28a.53.53,0,0,0,0-.12.41.41,0,0,0-.28-.42c.54.05,1.18.1,1.88.14v.09l.54-.05Zm10.7-2.26a8.56,8.56,0,0,1,1.46.38l1.16.39-.69.63a4.84,4.84,0,0,1-1.32.79l-.78-2.25ZM264.49,13a4.36,4.36,0,0,0,.53-.31l.14.41A4.92,4.92,0,0,0,264.49,13Zm-51.4-3.35c1.22,0,2.43,0,3.65.05h.56c1.41,0,2.82.05,4.16.1l1.67.55h.17c3.07.21,6.24.42,9.57.56a.63.63,0,0,0,.23.08l.16,0,.1.06.1,0A3.53,3.53,0,0,1,234,11h.1c1.49-.14,4.91-.19,8.65-.12,2.12,0,4.32.17,6.2.33a34.17,34.17,0,0,0,3.57.19,25.59,25.59,0,0,0,6.48.31c.45,0,.91-.06,1.38-.11s1.25-.11,1.92-.13a9.93,9.93,0,0,1,2.81.28l-.15.14a5.06,5.06,0,0,1-2.24,1l-1.07.24-.74.07h0c.65-.11,1-.17,1-.57s-.34-.43-1.21-.48h0l-3.87.42a5.31,5.31,0,0,0-1.16.24c-.31.1-.73.24-4.26.32a1.59,1.59,0,0,0-.3.06l-.53,0c-.44,0-.73-.06-.92-.06h-.09c-.71-.13-1.37-.27-1.9-.4l0-.56h-.53c-3.25-.08-6.41,0-9.72.17,0,0,0-.1,0-.14a.24.24,0,0,1,0,.08l0-.64c-4.94-.11-6.08.25-6.35.55-3.62-.3-5.18-.51-6.6-.7-.9-.11-1.72-.24-3-.44l-3.45-.53c-1-.06-1.38,0-1.41.39a.35.35,0,0,0,.08.26l-3.43-.22a.53.53,0,0,0,.14-.28c.09-.45-.33-.7-.77-1h0Zm-1.5,0c.09.23.35.39.66.58l.2.12a29.1,29.1,0,0,1-4.89.06h0l-.36,0-.22-.06-1.81-.51C207.29,9.79,209.43,9.73,211.59,9.7Zm-3.84-.88A.43.43,0,0,0,208,9c-5.25.14-10.36.36-15,.59a.18.18,0,0,0,0-.1l0-.28-.3-.17-.1,0c-1.41.33-19.2.12-32.25-.6V8.36h.05c5.2,0,10.55,0,15.72,0,3.61,0,7.24.06,10.89.06h2.28l-.41.2,1.64,0c5-.06,7,0,9.18,0Zm-21-1.2h0l0,0Zm19.4-.42-4.39.22c-3,.14-6.1.23-9.61.27l-1,0-1.55,0a1.38,1.38,0,0,0-.71-.18,6.24,6.24,0,0,0-2,0,.4.4,0,0,0-.2.16h-.44c-2.73,0-5.56,0-6.94-.17l-1.58-.11c2.27-.07,4.7-.17,7.09-.26l.43,0c4.86-.19,12.87-.51,14-.2V7h.29c4.53-.08,9.14-.12,13.6-.15h.56C211.19,7,208.63,7.08,206.13,7.2Zm-4.24-1v0h0Zm2.76-.32v0h.08Zm19.61-.53c-2.17.16-4.42.28-6.87.37v.1l-1,0,0-.51h-4.58l3.5-.08c3.87-.09,7.34-.07,10.7,0h.14C225.54,5.3,224.9,5.35,224.26,5.39ZM268.3,7c-7.06,0-14.24-.07-21.2-.19-6-.09-12.11-.19-18.22-.19h-1.64c1.38-.09,2.52-.18,3.58-.28l-.22.06,2.6-.05c6.5-.14,10.44-.23,13.84-.33,1,.06,2.32.15,2.85.2v.09c1.35.05,2.92.09,4.92.11l4.75,0,.58,0c.59,0,1.26.09,2,.15a40.4,40.4,0,0,0,4.07.24l1,0h.2c.36,0,.71,0,1-.09.53-.07,1-.15,1.41-.22l.23,0,.67-.1,1,.33C269.28,6.78,268.53,6.81,268.3,7Zm-13-1.3,1-.06c1.7,0,3.14-.06,4.43-.15.1.16.39.17,1.07.19,1.16-.09,2.31-.16,3.43-.23,1.37,0,3.31,0,5.58.18l-.82.13-.23,0c-.4.07-.86.16-1.39.22-.31,0-.65.07-1,.09h-.19l-.74,0a38.49,38.49,0,0,1-4.25-.23c-.74-.07-1.42-.14-2-.16l-.6,0Zm16.48-1.25-1.31,0c-1.62.06-3.43.13-5.31.24-.71,0-1.26,0-1.6.06l-.76-.14h0l-.63-.13-2,.14c-1.4.1-2.68.2-3.87.27-1.77,0-3.82,0-6.29,0V4.75c-5.88,0-10.66-.08-15.27-.14l-8.1-.09H226c-3.37,0-6.84,0-10.72,0-3.67.07-7.65.22-12.27.4L201.49,5V5.3c-2.42.07-3.54,0-4.79,0H195.5c-.69.07-1,.11-1.14.26-2.56,0-6,0-9.57,0h-.44V5.3c-7-.18-7.48-.08-8.29.06a9.77,9.77,0,0,1-1.74.14c-3.26,0-5.95-.15-7.07-.31h-.31l0-.18H166l.32,0a39.08,39.08,0,0,1,5.19-.36v.13l4.57.07.09,0,.09-.1a23.8,23.8,0,0,1,4.71-.44h.46l1.41,0,0,0,.1.18c.1.2.15.3,3.79.4,2.38.06,4.78.06,6.56,0V4.65l.43-.05c.84-.08,1.33-.14,1.61-.19,3.83.07,7.83,0,12.22-.11,1.94-.06,3.75-.13,5.37-.2l4.21-.23a8.65,8.65,0,0,1,.9,0L218,4c.16.28.24.42,6.23.2s6-.29,6-.76a.41.41,0,0,0,0-.11l5.63.22c4.29-.29,8.44-.46,12.65-.52,3,0,6.43.09,10.45.23,1.41.06,2.7.22,3.85.36a24.88,24.88,0,0,0,3.09.28,5.61,5.61,0,0,0,.58,0h.13a4.4,4.4,0,0,0,.62,0c.36,0,.74-.09,1.16-.15l.27,0a13.69,13.69,0,0,1,3.16-.13Zm25.66,1.4c-1.46.08-2.94.13-4.3.18-2.32.09-4.33.16-5.17.31l-2.94,0c-2.69,0-5.44-.08-8.18-.08-1.41,0-2.82,0-4.22,0h-.41l0-.49h.09l.06-.62c.78,0,1.56,0,2.34,0,1.42,0,2.81,0,4.15,0l2.92,0A101.6,101.6,0,0,0,292.44,5c.35.23,1.58.44,6.45.58.63,0,1.21.06,1.71.1C299.54,5.69,298.43,5.75,297.42,5.81Z"/></g></g></svg>