<svg xmlns="http://www.w3.org/2000/svg" viewBox="0 0 434.94 427.13"><defs><style>.cls-1{fill:#fff;}.cls-2{fill:#00b7c2;}</style></defs><g id="Capa_2" data-name="Capa 2"><g id="Layer_1" data-name="Layer 1"><polygon class="cls-1" points="27.28 424.13 27.1 423.41 26.93 422.79 26.74 422.16 26.55 421.54 26.33 420.92 26.11 420.31 25.6 419.03 25.08 417.85 24.51 416.7 23.9 415.57 23.24 414.47 22.55 413.4 21.82 412.36 21.04 411.35 20.23 410.37 19.39 409.43 18.5 408.51 17.59 407.63 16.64 406.79 15.66 405.99 14.64 405.21 13.6 404.49 12.53 403.8 11.43 403.14 10.3 402.54 9.14 401.97 7.96 401.45 6.87 401.02 6.23 400.78 5.62 400.57 5 400.38 4.37 400.19 3.74 400.01 3 399.83 3 27.28 3.72 27.1 4.35 26.93 4.97 26.74 5.59 26.54 6.21 26.34 6.82 26.11 8.11 25.6 9.28 25.08 10.44 24.51 11.56 23.9 12.66 23.24 13.73 22.55 14.77 21.82 15.78 21.04 16.76 20.23 17.71 19.39 18.62 18.51 19.5 17.59 20.34 16.64 21.15 15.66 21.92 14.64 22.65 13.6 23.34 12.53 23.99 11.43 24.59 10.3 25.16 9.14 25.68 7.96 26.12 6.87 26.35 6.24 26.56 5.62 26.76 5 26.95 4.37 27.12 3.74 27.31 3 407.66 3 407.83 3.72 408.01 4.35 408.19 4.97 408.39 5.6 408.6 6.21 408.82 6.82 409.33 8.11 409.86 9.28 410.43 10.44 411.04 11.56 411.69 12.66 412.39 13.73 413.12 14.77 413.89 15.78 414.7 16.76 415.55 17.71 416.43 18.62 417.35 19.5 418.3 20.34 419.28 21.15 420.29 21.92 421.34 22.65 422.41 23.34 423.51 23.99 424.64 24.6 425.8 25.16 426.97 25.68 428.07 26.12 428.7 26.35 429.32 26.56 429.94 26.76 430.57 26.95 431.2 27.12 431.94 27.31 431.94 399.85 431.22 400.03 430.59 400.21 429.96 400.39 429.34 400.59 428.73 400.8 428.11 401.02 426.83 401.53 425.65 402.06 424.5 402.63 423.37 403.24 422.28 403.89 421.21 404.58 420.17 405.32 419.15 406.09 418.18 406.9 417.23 407.75 416.32 408.63 415.44 409.55 414.6 410.49 413.79 411.48 413.02 412.49 412.29 413.53 411.6 414.61 410.95 415.71 410.34 416.84 409.78 417.99 409.25 419.17 408.82 420.26 408.59 420.9 408.38 421.52 408.18 422.13 407.99 422.77 407.82 423.39 407.63 424.13 27.28 424.13"/><path class="cls-2" d="M405.37,6l.16.51,0,.06,0,0,.19.56,0,.06,0,0,.2.56,0,.08,0,.08.43,1.1.05.1,0,.11.48,1.07.05.11.05.11.51,1.05.06.1.05.1.55,1,.06.1.06.1.59,1,.06.1.06.1.63,1,.07.1.06.1.67.94.07.1.06.09.71.92.07.09.07.09.73.89.08.09.07.09.77.86.08.09.08.08.8.83.08.08.08.08.83.8.09.08.08.08.86.77.09.07.09.08.89.73.09.08.09.07.92.7.09.07.1.06.95.67.09.07.1.06,1,.63.1.06.1.06,1,.59.1.06.1.06,1,.55.1.06.11.05,1.05.51.1.06.11,0,1.07.48.11.05.11,0,1.09.43.08,0,.08,0,.56.2.05,0,.06,0,.56.19.06,0,0,0,.48.15v368l-.51.16-.06,0-.06,0-.55.19-.06,0-.06,0-.55.2-.08,0-.09,0-1.09.44-.11,0-.11.05-1.07.48-.1,0-.11.05-1.05.52-.1.05-.11.06-1,.55-.1.06-.1.06-1,.59-.1.06-.1.06-1,.63-.09.06-.1.07-1,.67-.09.06-.09.07-.92.7-.09.07-.09.08-.9.73-.08.07-.09.08-.86.77-.09.08-.08.07-.83.81-.09.08-.08.08-.8.83-.08.08-.07.09-.77.86-.08.09-.07.09-.74.89-.07.09-.07.09-.7.92-.07.09-.07.1-.66.94-.07.1-.06.1-.63,1-.06.1-.06.1-.6,1-.05.1-.06.1-.55,1-.06.11-.05.1-.52,1.05-.05.11-.05.1-.47,1.08-.05.1,0,.11-.44,1.1,0,.08,0,.08-.2.56,0,.05,0,.06-.19.56,0,.05,0,.06-.15.47H29.56l-.16-.51,0-.05,0-.06-.19-.56,0-.05,0-.06-.2-.55,0-.09,0-.08L28.44,418l-.05-.11-.05-.11-.47-1.07-.05-.11-.05-.1-.52-1-.05-.11-.05-.1-.56-1-.05-.11-.06-.1-.59-1-.06-.1-.07-.1-.63-1-.06-.1-.07-.09-.66-.95-.07-.09-.07-.09-.7-.93-.07-.09-.07-.09-.74-.89-.07-.09-.08-.08-.76-.86-.08-.09-.08-.08-.8-.84-.08-.08-.09-.08-.83-.8-.08-.08-.09-.08-.86-.76-.08-.08-.09-.07-.89-.74-.09-.07-.09-.07-.92-.7-.1-.07-.09-.07-1-.66-.09-.07-.1-.06-1-.63-.09-.07-.1-.06-1-.59-.1-.06-.11-.05-1-.56-.1-.05-.11,0-1-.52-.1-.05-.11,0-1.07-.47-.11-.05-.11,0L8,398.23l-.08,0-.09,0L7.26,398l-.06,0h0l-.56-.2H6.53l-.06,0L6,397.55v-368l.51-.16.06,0,0,0,.56-.19.06,0,0,0,.56-.2.08,0,.08,0,1.1-.44.11,0,.1-.05,1.07-.47.11-.05.11-.05,1-.52.11-.05.1-.05,1-.56.1-.05.1-.06,1-.59.1-.06.1-.07,1-.63.1-.06.09-.07.95-.66.1-.07.09-.07.92-.7.09-.07.09-.07.89-.74.09-.07.09-.08.86-.76.09-.08.08-.08.83-.8.08-.08.08-.08.8-.84.08-.08.08-.09.77-.86.07-.08.08-.09.73-.89.08-.09.07-.1.7-.92.07-.09.06-.09.67-1,.07-.1.06-.09.63-1,.06-.09.06-.1.59-1,.06-.1.06-.11.55-1,.06-.1.05-.11.51-1,.06-.1,0-.11.48-1.07.05-.11,0-.11L28.9,8l0-.08,0-.09.2-.55,0-.06,0,0,.19-.56,0-.06,0-.06L29.59,6H405.37m4.72-6H24.85l-.1.6-.11.59-.13.59-.13.58-.15.58-.16.57-.17.57-.18.57-.19.56-.2.55-.44,1.09-.47,1.08L21.9,9l-.55,1-.59,1-.63,1-.67.95-.7.92-.73.89-.77.86-.8.83-.83.81-.86.76-.9.74-.92.7-.94.66-1,.63-1,.59-1,.56-1,.51-1.07.48-1.09.43-.56.21-.56.19-.56.18L3.55,24,3,24.19l-.58.15-.59.14-.58.12-.6.12-.59.1,0,0V402.28H0l.6.1.59.12.59.12.58.14.58.14.57.16.57.17.57.18.56.19.55.21,1.09.43,1.08.47,1,.52,1,.55,1,.6,1,.63.95.66.92.7.89.74.86.76.84.8.8.84.76.86.74.89.7.92.66.95.63,1,.59,1,.56,1,.51,1,.48,1.07.43,1.1.21.55.19.56.18.57.17.56.15.58.15.58.14.58.12.59.12.59.1.6,0,0H410.08l.11-.6.11-.59.12-.58.14-.59.15-.58.16-.57.17-.57.18-.56.19-.56.2-.56.43-1.09.48-1.07.51-1,.56-1,.59-1,.63-1,.66-1,.7-.92.74-.89.77-.86.8-.83.83-.8.86-.77.89-.73.92-.7.95-.67,1-.63,1-.59,1-.56,1.05-.51,1.07-.48,1.09-.43.55-.2.56-.19.57-.18.57-.17.57-.16.58-.15.58-.13.59-.13.59-.11.6-.11,0,0V24.85h0l-.59-.1-.59-.11-.59-.13-.59-.13-.57-.15-.58-.16-.57-.17-.56-.18-.56-.19-.55-.2-1.1-.44L427,22.42,426,21.9l-1-.55-1-.59-1-.63-.94-.67-.92-.7-.89-.73-.87-.77-.83-.8-.8-.83-.77-.86-.73-.9-.7-.92-.67-.94-.63-1-.59-1-.55-1-.52-1-.47-1.07-.44-1.09-.2-.56-.19-.56-.18-.56-.17-.57L410.74,3l-.15-.58-.13-.59-.13-.58-.11-.6-.1-.59,0,0Z"/></g></g></svg>