<svg xmlns="http://www.w3.org/2000/svg" viewBox="0 0 214.63 73.06"><defs><style>.cls-1{fill:#fcf7f2;}</style></defs><g id="Capa_2" data-name="Capa 2"><g id="Layer_1" data-name="Layer 1"><path class="cls-1" d="M48.56,9.57l9-.07c1.21-.12,1.59-.06,1.53-1.27C59,6.37,59.16,4.46,59,2.6c-.13-1-.45-1.21-1.59-1.21-1.92.06-2.37.06-4.28.19s-9.59.07-11.44.07c-2.68,0-2.87-.2-2.94,3.06-.12,2.56-.06,5.18-.06,7.8,0,.77,0,1.91,0,3.26H35.92C35.2,8.78,32,0,19,0c-2.73,0-5.54.08-8.19.08a3.25,3.25,0,0,0-1.9.3c-.6.45-.38,7.2-.3,9.55,0,.6,0,2.76,0,5.84H0V18.5H8.62c0,1.18,0,2.43,0,3.75H0V25H8.64c0,7.43,0,16.1,0,22.38h0V60.75a2.07,2.07,0,1,0,1.51,0V52.27a.15.15,0,0,1,.14-.15h2a.15.15,0,0,1,.15.15V69.06a2.08,2.08,0,1,0,1.51,0V56.9l1.15,0h.66V61a.15.15,0,0,0,.14.15h2.74a1.65,1.65,0,1,0-.15-1.51H17.42a.15.15,0,0,1-.14-.15V53.19c.11-5.31-.05-14.94-.05-15.65,0-1.06,2.13-.84,2.73-.84,9.93,0,14.22-5.58,15.61-11.72h3c0,5-.08,9.83,0,11.61h-.06c0,1.59-.07,3.25,0,4.91.06,2,.19,4.09.32,6.14,0,.7.19.89.83,1a16.62,16.62,0,0,0,4,.38c3.45-.13,6.9.13,10.35,0a20,20,0,0,0,3.45-.19c1.27-.26,1.72-1,1.72-2.87a25.3,25.3,0,0,1-.06-3.2A2.49,2.49,0,0,0,56.29,40c-.9.06-5.17-.07-6.9-.07C46.52,40,47,40.42,47,37.42c0-2.43.07-5.56.07-8,0-1.34.13-1.79,1.4-1.79h8a1.86,1.86,0,0,0,2.17-2c0-1.35.13-1.41.13-2.75l-.2-1.92c-.12-1.08-.51-1.47-1.59-1.47-.7,0-1.41.07-2.11.13-2.75.19-4-.19-6.71,0-.89,0-1-.13-1.08-1a39.24,39.24,0,0,1,.25-7.73C47.35,9.82,47.6,9.63,48.56,9.57ZM10.68,62.67a1.27,1.27,0,1,1-1.27-1.26A1.27,1.27,0,0,1,10.68,62.67ZM14.47,71a1.27,1.27,0,1,1-1.26-1.26A1.27,1.27,0,0,1,14.47,71ZM20,59.27a1,1,0,1,1,0,2,1,1,0,1,1,0-2ZM17.31,9.4c.23-.83,1.21-.83,2-.75,4,.27,6.42,3.47,7.12,7.12H17.28c0-2,0-3.83,0-4.85A9.63,9.63,0,0,1,17.31,9.4Zm7.05,17.22A8,8,0,0,1,18.3,29.2a1.23,1.23,0,0,1-1.07-1.14c0-.83,0-1.67.08-2.5V25h8.13A7,7,0,0,1,24.36,26.62Zm2-4.37h-9c0-1.13,0-2.43,0-3.75h9.37A18,18,0,0,1,26.32,22.25Zm9.68,0c.08-.8.12-1.6.12-2.38,0-.44,0-.89,0-1.37h2.51c0,1.19,0,2.45,0,3.75Z"/><path class="cls-1" d="M85.35,38.18c-.57-1.27-4.41-8.68-4.53-9.26-.13-.25.83-.7,1-.89,3.07-2.75,5.82-5.56,6.39-9.84A15.8,15.8,0,0,0,85.1,6,11.26,11.26,0,0,0,77,1.84c-2-.13-3.89.06-5.87,0-1.73-.07-2.94-.07-5.11-.07a1.6,1.6,0,0,0-1.73,1.66V4.2c-.12,4.92,0,9.84.07,14.69,0,7.41-.13,27-.13,29.77,0,.83.13,1,.89,1,.45,0,1,.06,1.41.06,1.79,0,2.87-.06,4.73-.06,1.4,0,.89-2.3.89-4.79,0-1.66,0-12.14.06-13,.07-.19.2-.57.45-.57a.43.43,0,0,1,.45.32c2.55,5,4.79,10,7.09,14.82.32.7,1,2.74,1.21,2.93.26.39.7.26,1.09.26l7,.06c.83,0,1-.51.83-1.21C89.82,46.61,86.18,39.84,85.35,38.18ZM78.84,21.26A6.22,6.22,0,0,1,75,23.94c-1,.25-2.74.57-2.81-1,0-1-.06-3-.06-3l.06-6.45c.07-1-.25-2.88.64-3.58,1.22-.89,3.71,0,4.79.77C80.82,12.89,80.56,18.25,78.84,21.26Z"/><path class="cls-1" d="M109.94,1.71A17.56,17.56,0,0,0,94,13.53,38.61,38.61,0,0,0,92.31,26a37.43,37.43,0,0,0,1.54,10.29c1.08,4,3.06,7.66,6.45,10a17.38,17.38,0,0,0,8.43,3.38c.45,0,.83.06,1.21.06s.83-.06,1.28-.06a17,17,0,0,0,8.37-3.38c3.45-2.37,5.36-6,6.51-10A39.85,39.85,0,0,0,127.64,26,38.88,38.88,0,0,0,126,13.53,17.73,17.73,0,0,0,109.94,1.71Zm9.84,28.94c-.64,3.51-1.92,8.24-5.24,10a10.66,10.66,0,0,1-4.6,1.35,10.41,10.41,0,0,1-4.53-1.35c-3.32-1.78-4.6-6.51-5.24-10a33.24,33.24,0,0,1,.38-11.76c.71-3.51,2.24-7,5.24-9.07a5.21,5.21,0,0,1,1.66-.89,5.7,5.7,0,0,1,2.49-.51,6,6,0,0,1,2.56.51,6.08,6.08,0,0,1,1.66.89c2.94,2.11,4.47,5.56,5.24,9.07A33.24,33.24,0,0,1,119.78,30.65Z"/><path class="cls-1" d="M158.94,1.77c-1.79.07-3.9-.12-5.69,0-.32.07-1.15.13-1.34.39-.32.44-.13,1-.13,1.66,0,.45.51,22.87.51,23.82,0,.39.07,1.66-.19,1.92H152c-.39-.19-1.09-2-1.28-2.43-1.15-2.23-8.5-20.69-10.22-24.72a.87.87,0,0,0-1-.64c-1.4,0-2.81,0-4.21.07-2.05,0-2.62.38-2.62,2.43,0,2.36.13,34.17,0,39.53v5.05c.06.64.38.83,1,.83a18.45,18.45,0,0,1,2.68-.06h3.2c1.27,0,1.34-.26,1.34-1.79,0-3.07-.39-22.36-.32-24.59,0-.26-.13-.71.19-.83s.57.51.7.76c1.34,2.88,10.8,25.68,11.31,26.13.57.64,3.26.32,5.17.32,1.28,0,2,.06,2-1.86,0-1.08.13-43.62-.06-44.52S159.83,1.77,158.94,1.77Z"/><path class="cls-1" d="M174.65,11c0-2.23-.13-4.66-.13-6.9,0-2.42-1-2.3-2.23-2.36-1.86-.06-2.69-.06-4.54-.06-1.21-.07-1.72.25-1.72,1.47,0,6.26-.2,24-.13,26.5s.32,14.18.19,16.74a20,20,0,0,0,.06,2.68.73.73,0,0,0,.77.64c2.11-.13,4.09-.13,6.2-.19a1.74,1.74,0,0,0,1.72-1.09c.06-.44-.13-12.13-.13-15.2C174.52,25.92,174.58,18.19,174.65,11Z"/><path class="cls-1" d="M213,13.53a16.74,16.74,0,0,0-32,0A38.88,38.88,0,0,0,179.31,26a37.81,37.81,0,0,0,1.53,10.29c1.09,4,3.07,7.66,6.46,10a17.34,17.34,0,0,0,8.43,3.38c.44,0,.83.06,1.21.06s.83-.06,1.28-.06a17,17,0,0,0,8.37-3.38c3.44-2.37,5.36-6,6.51-10A39.84,39.84,0,0,0,214.63,26,38.88,38.88,0,0,0,213,13.53Zm-6.19,17.12c-.64,3.51-1.92,8.24-5.24,10a10.7,10.7,0,0,1-4.6,1.35,10.37,10.37,0,0,1-4.53-1.35c-3.33-1.78-4.6-6.51-5.24-10a33,33,0,0,1,.38-11.76c.7-3.51,2.24-7,5.24-9.07a5.21,5.21,0,0,1,1.66-.89,5.7,5.7,0,0,1,2.49-.51,6,6,0,0,1,2.56.51,6.08,6.08,0,0,1,1.66.89c2.93,2.11,4.47,5.56,5.23,9.07A33,33,0,0,1,206.78,30.65Z"/></g></g></svg>